<?xml version="1.0" encoding="UTF-8" standalone="no"?>
<!DOCTYPE svg PUBLIC "-//W3C//DTD SVG 1.1//EN"
 "http://www.w3.org/Graphics/SVG/1.1/DTD/svg11.dtd">
<!-- Generated by graphviz version 2.38.0 (20140413.2041)
 -->
<!-- Title: %3 Pages: 1 -->
<svg width="596pt" height="485pt"
 viewBox="0.00 0.00 595.75 484.98" xmlns="http://www.w3.org/2000/svg" xmlns:xlink="http://www.w3.org/1999/xlink">
<g id="graph0" class="graph" transform="scale(1 1) rotate(0) translate(4 480.985)">
<title>%3</title>
<polygon fill="white" stroke="none" points="-4,4 -4,-480.985 591.749,-480.985 591.749,4 -4,4"/>
<!-- &#45;1 -->
<g id="node1" class="node"><title>&#45;1</title>
<polygon fill="lightgray" stroke="black" points="24,-119.246 0,-119.246 0,-101.246 24,-101.246 24,-119.246"/>
<text text-anchor="middle" x="12" y="-108.046" font-family="Times New Roman,serif" font-size="9.00">&#45;1</text>
</g>
<!-- 3642 -->
<g id="node16" class="node"><title>3642</title>
<ellipse fill="white" stroke="black" cx="141" cy="-24.7487" rx="25" ry="25"/>
<text text-anchor="middle" x="141" y="-22.5487" font-family="Times New Roman,serif" font-size="9.00">3642</text>
</g>
<!-- &#45;1&#45;&gt;3642 -->
<g id="edge7" class="edge"><title>&#45;1&#45;&gt;3642</title>
<path fill="none" stroke="green" stroke-width="0.149562" d="M18.0191,-101.128C21.9267,-96.2152 27.3329,-90.0432 33,-85.4975 56.5475,-66.6095 86.8838,-50.4161 109.406,-39.6714"/>
<polygon fill="green" stroke="green" stroke-width="0.149562" points="110.958,-42.8099 118.538,-35.4081 107.996,-36.4671 110.958,-42.8099"/>
</g>
<!-- &#45;2 -->
<g id="node2" class="node"><title>&#45;2</title>
<polygon fill="lightgray" stroke="black" points="344,-461.236 320,-461.236 320,-443.236 344,-443.236 344,-461.236"/>
<text text-anchor="middle" x="332" y="-450.036" font-family="Times New Roman,serif" font-size="9.00">&#45;2</text>
</g>
<!-- 0 -->
<g id="node4" class="node"><title>0</title>
<ellipse fill="lightblue" stroke="black" cx="332" cy="-366.739" rx="14.7" ry="14.7"/>
<text text-anchor="middle" x="332" y="-364.539" font-family="Times New Roman,serif" font-size="9.00">0</text>
</g>
<!-- &#45;2&#45;&gt;0 -->
<g id="edge1" class="edge"><title>&#45;2&#45;&gt;0</title>
<path fill="none" stroke="green" stroke-width="0.682244" d="M332,-443.23C332,-431.467 332,-409.029 332,-391.66"/>
<polygon fill="green" stroke="green" stroke-width="0.682244" points="335.5,-391.641 332,-381.641 328.5,-391.641 335.5,-391.641"/>
</g>
<!-- &#45;3 -->
<g id="node3" class="node"><title>&#45;3</title>
<polygon fill="lightgray" stroke="black" points="386,-461.236 362,-461.236 362,-443.236 386,-443.236 386,-461.236"/>
<text text-anchor="middle" x="374" y="-450.036" font-family="Times New Roman,serif" font-size="9.00">&#45;3</text>
</g>
<!-- 1697 -->
<g id="node5" class="node"><title>1697</title>
<ellipse fill="white" stroke="black" cx="429" cy="-452.236" rx="25" ry="25"/>
<text text-anchor="middle" x="429" y="-450.036" font-family="Times New Roman,serif" font-size="9.00">1697</text>
</g>
<!-- 2405 -->
<g id="node6" class="node"><title>2405</title>
<ellipse fill="white" stroke="black" cx="496" cy="-452.236" rx="25" ry="25"/>
<text text-anchor="middle" x="496" y="-450.036" font-family="Times New Roman,serif" font-size="9.00">2405</text>
</g>
<!-- 5094 -->
<g id="node7" class="node"><title>5094</title>
<ellipse fill="white" stroke="black" cx="236" cy="-366.739" rx="25" ry="25"/>
<text text-anchor="middle" x="236" y="-364.539" font-family="Times New Roman,serif" font-size="9.00">5094</text>
</g>
<!-- 4364 -->
<g id="node10" class="node"><title>4364</title>
<ellipse fill="white" stroke="black" cx="262" cy="-281.241" rx="25" ry="25"/>
<text text-anchor="middle" x="262" y="-279.041" font-family="Times New Roman,serif" font-size="9.00">4364</text>
</g>
<!-- 5094&#45;&gt;4364 -->
<g id="edge6" class="edge"><title>5094&#45;&gt;4364</title>
<path fill="none" stroke="red" stroke-width="0.218947" d="M243.105,-342.923C245.799,-334.27 248.922,-324.242 251.843,-314.86"/>
<polygon fill="red" stroke="red" stroke-width="0.218947" points="255.273,-315.618 254.904,-305.03 248.589,-313.537 255.273,-315.618"/>
</g>
<!-- 136 -->
<g id="node8" class="node"><title>136</title>
<ellipse fill="white" stroke="black" cx="258" cy="-452.236" rx="21.4286" ry="21.4286"/>
<text text-anchor="middle" x="258" y="-450.036" font-family="Times New Roman,serif" font-size="9.00">136</text>
</g>
<!-- 136&#45;&gt;5094 -->
<g id="edge5" class="edge"><title>136&#45;&gt;5094</title>
<path fill="none" stroke="green" stroke-width="0.142644" d="M252.786,-431.448C250.36,-422.239 247.408,-411.036 244.661,-400.608"/>
<polygon fill="green" stroke="green" stroke-width="0.142644" points="248.045,-399.717 242.113,-390.938 241.276,-401.5 248.045,-399.717"/>
</g>
<!-- 136&#45;&gt;4364 -->
<g id="edge2" class="edge"><title>136&#45;&gt;4364</title>
<path fill="none" stroke="green" stroke-width="0.173487" stroke-dasharray="1,5" d="M262.995,-431.469C265.66,-419.901 268.66,-404.964 270,-391.487 272.522,-366.118 270.209,-337.359 267.433,-315.719"/>
<polygon fill="green" stroke="green" stroke-width="0.173487" points="270.886,-315.141 266.052,-305.713 263.952,-316.098 270.886,-315.141"/>
</g>
<!-- 5481 -->
<g id="node9" class="node"><title>5481</title>
<ellipse fill="white" stroke="black" cx="67" cy="-110.246" rx="25" ry="25"/>
<text text-anchor="middle" x="67" y="-108.046" font-family="Times New Roman,serif" font-size="9.00">5481</text>
</g>
<!-- 5481&#45;&gt;3642 -->
<g id="edge12" class="edge"><title>5481&#45;&gt;3642</title>
<path fill="none" stroke="red" stroke-width="0.105586" d="M83.0569,-91.1285C93.3358,-79.5303 106.83,-64.3041 118.21,-51.4639"/>
<polygon fill="red" stroke="red" stroke-width="0.105586" points="120.961,-53.6364 124.974,-43.8311 115.722,-48.9936 120.961,-53.6364"/>
</g>
<!-- 5400 -->
<g id="node15" class="node"><title>5400</title>
<ellipse fill="white" stroke="black" cx="236" cy="-195.744" rx="25" ry="25"/>
<text text-anchor="middle" x="236" y="-193.544" font-family="Times New Roman,serif" font-size="9.00">5400</text>
</g>
<!-- 4364&#45;&gt;5400 -->
<g id="edge15" class="edge"><title>4364&#45;&gt;5400</title>
<path fill="none" stroke="green" stroke-width="0.469737" d="M254.895,-257.425C252.201,-248.773 249.078,-238.744 246.157,-229.363"/>
<polygon fill="green" stroke="green" stroke-width="0.469737" points="249.411,-228.039 243.096,-219.532 242.727,-230.121 249.411,-228.039"/>
</g>
<!-- 4364&#45;&gt;3642 -->
<g id="edge3" class="edge"><title>4364&#45;&gt;3642</title>
<path fill="none" stroke="green" stroke-width="0.278564" stroke-dasharray="1,5" d="M269.37,-257.34C280.45,-218.184 296.464,-137.564 260,-85.4975 240.039,-56.9964 202.414,-41.3554 174.796,-33.3048"/>
<polygon fill="green" stroke="green" stroke-width="0.278564" points="175.693,-29.9217 165.125,-30.6725 173.854,-36.676 175.693,-29.9217"/>
</g>
<!-- 5292 -->
<g id="node11" class="node"><title>5292</title>
<ellipse fill="white" stroke="black" cx="226" cy="-110.246" rx="25" ry="25"/>
<text text-anchor="middle" x="226" y="-108.046" font-family="Times New Roman,serif" font-size="9.00">5292</text>
</g>
<!-- 5292&#45;&gt;3642 -->
<g id="edge8" class="edge"><title>5292&#45;&gt;3642</title>
<path fill="none" stroke="red" stroke-width="0.430431" d="M208.799,-92.3493C196.356,-80.1263 179.364,-63.435 165.504,-49.82"/>
<polygon fill="red" stroke="red" stroke-width="0.430431" points="167.762,-47.1315 158.175,-42.6206 162.857,-52.1252 167.762,-47.1315"/>
</g>
<!-- 5646 -->
<g id="node12" class="node"><title>5646</title>
<ellipse fill="white" stroke="black" cx="169" cy="-195.744" rx="25" ry="25"/>
<text text-anchor="middle" x="169" y="-193.544" font-family="Times New Roman,serif" font-size="9.00">5646</text>
</g>
<!-- 5646&#45;&gt;3642 -->
<g id="edge14" class="edge"><title>5646&#45;&gt;3642</title>
<path fill="none" stroke="green" stroke-width="0.239281" d="M165.107,-171.246C160.293,-142.194 152.067,-92.5415 146.582,-59.4382"/>
<polygon fill="green" stroke="green" stroke-width="0.239281" points="149.993,-58.6124 144.905,-49.319 143.087,-59.7566 149.993,-58.6124"/>
</g>
<!-- 3697 -->
<g id="node13" class="node"><title>3697</title>
<ellipse fill="white" stroke="black" cx="563" cy="-452.236" rx="25" ry="25"/>
<text text-anchor="middle" x="563" y="-450.036" font-family="Times New Roman,serif" font-size="9.00">3697</text>
</g>
<!-- 5010 -->
<g id="node14" class="node"><title>5010</title>
<ellipse fill="white" stroke="black" cx="142" cy="-281.241" rx="25" ry="25"/>
<text text-anchor="middle" x="142" y="-279.041" font-family="Times New Roman,serif" font-size="9.00">5010</text>
</g>
<!-- 5010&#45;&gt;5481 -->
<g id="edge11" class="edge"><title>5010&#45;&gt;5481</title>
<path fill="none" stroke="green" stroke-width="0.115091" d="M127.212,-261.158C118.95,-249.817 108.95,-234.88 102,-220.492 90.1843,-196.032 81.0237,-166.623 75.0431,-144.484"/>
<polygon fill="green" stroke="green" stroke-width="0.115091" points="78.3634,-143.347 72.443,-134.561 71.592,-145.121 78.3634,-143.347"/>
</g>
<!-- 5010&#45;&gt;5646 -->
<g id="edge13" class="edge"><title>5010&#45;&gt;5646</title>
<path fill="none" stroke="green" stroke-width="0.222703" d="M149.378,-257.425C152.205,-248.681 155.488,-238.531 158.549,-229.064"/>
<polygon fill="green" stroke="green" stroke-width="0.222703" points="161.884,-230.124 161.631,-219.532 155.224,-227.97 161.884,-230.124"/>
</g>
<!-- 5010&#45;&gt;5400 -->
<g id="edge9" class="edge"><title>5010&#45;&gt;5400</title>
<path fill="none" stroke="red" stroke-width="0.22475" d="M160.124,-264.142C174.299,-251.551 194.194,-233.879 210.056,-219.789"/>
<polygon fill="red" stroke="red" stroke-width="0.22475" points="212.779,-222.051 217.931,-212.793 208.131,-216.818 212.779,-222.051"/>
</g>
<!-- 5010&#45;&gt;3642 -->
<g id="edge4" class="edge"><title>5010&#45;&gt;3642</title>
<path fill="none" stroke="red" stroke-width="0.419386" stroke-dasharray="1,5" d="M138.569,-256.456C137.158,-245.527 135.694,-232.378 135,-220.492 131.711,-164.161 135.256,-98.5525 138.125,-59.6762"/>
<polygon fill="red" stroke="red" stroke-width="0.419386" points="141.635,-59.6885 138.911,-49.4499 134.655,-59.1526 141.635,-59.6885"/>
</g>
<!-- 5400&#45;&gt;5292 -->
<g id="edge10" class="edge"><title>5400&#45;&gt;5292</title>
<path fill="none" stroke="green" stroke-width="0.42537" d="M233.161,-171.04C232.19,-162.931 231.084,-153.697 230.037,-144.953"/>
<polygon fill="green" stroke="green" stroke-width="0.42537" points="233.51,-144.522 228.846,-135.009 226.56,-145.354 233.51,-144.522"/>
</g>
</g>
</svg>
