<?xml version="1.0" encoding="UTF-8" standalone="no"?>
<!DOCTYPE svg PUBLIC "-//W3C//DTD SVG 1.1//EN"
 "http://www.w3.org/Graphics/SVG/1.1/DTD/svg11.dtd">
<!-- Generated by graphviz version 2.38.0 (20140413.2041)
 -->
<!-- Title: %3 Pages: 1 -->
<svg width="348pt" height="314pt"
 viewBox="0.00 0.00 347.75 313.99" xmlns="http://www.w3.org/2000/svg" xmlns:xlink="http://www.w3.org/1999/xlink">
<g id="graph0" class="graph" transform="scale(1 1) rotate(0) translate(4 309.99)">
<title>%3</title>
<polygon fill="white" stroke="none" points="-4,4 -4,-309.99 343.749,-309.99 343.749,4 -4,4"/>
<!-- &#45;1 -->
<g id="node1" class="node"><title>&#45;1</title>
<polygon fill="lightgray" stroke="black" points="24,-119.246 0,-119.246 0,-101.246 24,-101.246 24,-119.246"/>
<text text-anchor="middle" x="12" y="-108.046" font-family="Times New Roman,serif" font-size="9.00">&#45;1</text>
</g>
<!-- 4883 -->
<g id="node9" class="node"><title>4883</title>
<ellipse fill="white" stroke="black" cx="39" cy="-24.7487" rx="25" ry="25"/>
<text text-anchor="middle" x="39" y="-22.5487" font-family="Times New Roman,serif" font-size="9.00">4883</text>
</g>
<!-- &#45;1&#45;&gt;4883 -->
<g id="edge5" class="edge"><title>&#45;1&#45;&gt;4883</title>
<path fill="none" stroke="green" stroke-width="0.165789" d="M14.5889,-101.24C17.7721,-91.396 23.3728,-74.076 28.4072,-58.5071"/>
<polygon fill="green" stroke="green" stroke-width="0.165789" points="31.856,-59.217 31.6026,-48.6252 25.1956,-57.0632 31.856,-59.217"/>
</g>
<!-- &#45;2 -->
<g id="node2" class="node"><title>&#45;2</title>
<polygon fill="lightgray" stroke="black" points="163,-290.241 139,-290.241 139,-272.241 163,-272.241 163,-290.241"/>
<text text-anchor="middle" x="151" y="-279.041" font-family="Times New Roman,serif" font-size="9.00">&#45;2</text>
</g>
<!-- 0 -->
<g id="node4" class="node"><title>0</title>
<ellipse fill="lightblue" stroke="black" cx="151" cy="-195.744" rx="14.7" ry="14.7"/>
<text text-anchor="middle" x="151" y="-193.544" font-family="Times New Roman,serif" font-size="9.00">0</text>
</g>
<!-- &#45;2&#45;&gt;0 -->
<g id="edge1" class="edge"><title>&#45;2&#45;&gt;0</title>
<path fill="none" stroke="green" stroke-width="0.7" d="M151,-272.235C151,-260.472 151,-238.034 151,-220.665"/>
<polygon fill="green" stroke="green" stroke-width="0.7" points="154.5,-220.646 151,-210.646 147.5,-220.646 154.5,-220.646"/>
</g>
<!-- &#45;3 -->
<g id="node3" class="node"><title>&#45;3</title>
<polygon fill="lightgray" stroke="black" points="205,-290.241 181,-290.241 181,-272.241 205,-272.241 205,-290.241"/>
<text text-anchor="middle" x="193" y="-279.041" font-family="Times New Roman,serif" font-size="9.00">&#45;3</text>
</g>
<!-- 4193 -->
<g id="node5" class="node"><title>4193</title>
<ellipse fill="white" stroke="black" cx="248" cy="-281.241" rx="25" ry="25"/>
<text text-anchor="middle" x="248" y="-279.041" font-family="Times New Roman,serif" font-size="9.00">4193</text>
</g>
<!-- 1094 -->
<g id="node6" class="node"><title>1094</title>
<ellipse fill="white" stroke="black" cx="315" cy="-195.744" rx="25" ry="25"/>
<text text-anchor="middle" x="315" y="-193.544" font-family="Times New Roman,serif" font-size="9.00">1094</text>
</g>
<!-- 3888 -->
<g id="node7" class="node"><title>3888</title>
<ellipse fill="white" stroke="black" cx="67" cy="-110.246" rx="25" ry="25"/>
<text text-anchor="middle" x="67" y="-108.046" font-family="Times New Roman,serif" font-size="9.00">3888</text>
</g>
<!-- 3888&#45;&gt;4883 -->
<g id="edge3" class="edge"><title>3888&#45;&gt;4883</title>
<path fill="none" stroke="green" stroke-width="0.406292" d="M59.3489,-86.4302C56.4166,-77.686 53.0129,-67.536 49.8381,-58.0686"/>
<polygon fill="green" stroke="green" stroke-width="0.406292" points="53.1397,-56.9055 46.6419,-48.5372 46.5029,-59.1311 53.1397,-56.9055"/>
</g>
<!-- 3697 -->
<g id="node8" class="node"><title>3697</title>
<ellipse fill="white" stroke="black" cx="67" cy="-281.241" rx="25" ry="25"/>
<text text-anchor="middle" x="67" y="-279.041" font-family="Times New Roman,serif" font-size="9.00">3697</text>
</g>
<!-- 3697&#45;&gt;3888 -->
<g id="edge4" class="edge"><title>3697&#45;&gt;3888</title>
<path fill="none" stroke="red" stroke-width="0.323874" stroke-dasharray="1,5" d="M63.1211,-256.76C61.4961,-245.778 59.8004,-232.501 59,-220.492 57.537,-198.542 57.537,-192.945 59,-170.995 59.569,-162.457 60.5906,-153.279 61.7175,-144.74"/>
<polygon fill="red" stroke="red" stroke-width="0.323874" points="65.1989,-145.116 63.1211,-134.727 58.2667,-144.144 65.1989,-145.116"/>
</g>
<!-- 5334 -->
<g id="node10" class="node"><title>5334</title>
<ellipse fill="white" stroke="black" cx="93" cy="-195.744" rx="25" ry="25"/>
<text text-anchor="middle" x="93" y="-193.544" font-family="Times New Roman,serif" font-size="9.00">5334</text>
</g>
<!-- 3697&#45;&gt;5334 -->
<g id="edge6" class="edge"><title>3697&#45;&gt;5334</title>
<path fill="none" stroke="green" stroke-width="0.3" d="M74.1046,-257.425C76.7988,-248.773 79.9215,-238.744 82.8429,-229.363"/>
<polygon fill="green" stroke="green" stroke-width="0.3" points="86.2726,-230.121 85.904,-219.532 79.5891,-228.039 86.2726,-230.121"/>
</g>
<!-- 5334&#45;&gt;3888 -->
<g id="edge7" class="edge"><title>5334&#45;&gt;3888</title>
<path fill="none" stroke="red" stroke-width="0.323874" d="M85.8954,-171.928C83.2012,-163.276 80.0785,-153.247 77.1571,-143.865"/>
<polygon fill="red" stroke="red" stroke-width="0.323874" points="80.4109,-142.542 74.096,-134.035 73.7274,-144.623 80.4109,-142.542"/>
</g>
<!-- 4379 -->
<g id="node11" class="node"><title>4379</title>
<ellipse fill="white" stroke="black" cx="315" cy="-281.241" rx="25" ry="25"/>
<text text-anchor="middle" x="315" y="-279.041" font-family="Times New Roman,serif" font-size="9.00">4379</text>
</g>
<!-- 4379&#45;&gt;1094 -->
<g id="edge2" class="edge"><title>4379&#45;&gt;1094</title>
<path fill="none" stroke="green" stroke-width="0.7" d="M315,-256.09C315,-248.146 315,-239.162 315,-230.631"/>
<polygon fill="green" stroke="green" stroke-width="0.7" points="318.5,-230.552 315,-220.552 311.5,-230.552 318.5,-230.552"/>
</g>
</g>
</svg>
