<?xml version="1.0" encoding="UTF-8" standalone="no"?>
<!DOCTYPE svg PUBLIC "-//W3C//DTD SVG 1.1//EN"
 "http://www.w3.org/Graphics/SVG/1.1/DTD/svg11.dtd">
<!-- Generated by graphviz version 2.38.0 (20140413.2041)
 -->
<!-- Title: %3 Pages: 1 -->
<svg width="561pt" height="598pt"
 viewBox="0.00 0.00 561.00 597.61" xmlns="http://www.w3.org/2000/svg" xmlns:xlink="http://www.w3.org/1999/xlink">
<g id="graph0" class="graph" transform="scale(1 1) rotate(0) translate(4 593.612)">
<title>%3</title>
<polygon fill="white" stroke="none" points="-4,4 -4,-593.612 557,-593.612 557,4 -4,4"/>
<!-- &#45;1 -->
<g id="node1" class="node"><title>&#45;1</title>
<polygon fill="lightgray" stroke="black" points="145,-519.864 121,-519.864 121,-501.864 145,-501.864 145,-519.864"/>
<text text-anchor="middle" x="133" y="-508.664" font-family="Times New Roman,serif" font-size="9.00">&#45;1</text>
</g>
<!-- 1731 -->
<g id="node6" class="node"><title>1731</title>
<ellipse fill="white" stroke="black" cx="118" cy="-254.371" rx="25" ry="25"/>
<text text-anchor="middle" x="118" y="-252.171" font-family="Times New Roman,serif" font-size="9.00">1731</text>
</g>
<!-- &#45;1&#45;&gt;1731 -->
<g id="edge10" class="edge"><title>&#45;1&#45;&gt;1731</title>
<path fill="none" stroke="green" stroke-width="0.286957" d="M133.717,-501.656C135.912,-474.766 141.876,-386.926 133,-315.12 131.897,-306.194 129.9,-296.685 127.715,-287.939"/>
<polygon fill="green" stroke="green" stroke-width="0.286957" points="131.053,-286.872 125.107,-278.103 124.287,-288.667 131.053,-286.872"/>
</g>
<!-- 2283 -->
<g id="node7" class="node"><title>2283</title>
<ellipse fill="white" stroke="black" cx="319" cy="-339.869" rx="25" ry="25"/>
<text text-anchor="middle" x="319" y="-337.669" font-family="Times New Roman,serif" font-size="9.00">2283</text>
</g>
<!-- &#45;1&#45;&gt;2283 -->
<g id="edge27" class="edge"><title>&#45;1&#45;&gt;2283</title>
<path fill="none" stroke="green" stroke-width="0.168396" d="M145.177,-505.037C166.055,-496.345 209.3,-476.481 239,-450.115 264.918,-427.106 287.517,-394.366 302.023,-370.735"/>
<polygon fill="green" stroke="green" stroke-width="0.168396" points="305.211,-372.224 307.361,-361.849 299.211,-368.619 305.211,-372.224"/>
</g>
<!-- 909 -->
<g id="node9" class="node"><title>909</title>
<ellipse fill="white" stroke="black" cx="139" cy="-21.2132" rx="21.4286" ry="21.4286"/>
<text text-anchor="middle" x="139" y="-19.0132" font-family="Times New Roman,serif" font-size="9.00">909</text>
</g>
<!-- &#45;1&#45;&gt;909 -->
<g id="edge3" class="edge"><title>&#45;1&#45;&gt;909</title>
<path fill="none" stroke="red" stroke-width="0.571522" d="M120.726,-502.458C87.8008,-481.554 0,-418.527 0,-340.869 0,-340.869 0,-340.869 0,-167.874 0,-104.151 70.4867,-57.3189 111.072,-35.6354"/>
<polygon fill="red" stroke="red" stroke-width="0.571522" points="112.694,-38.7368 119.964,-31.0299 109.475,-32.521 112.694,-38.7368"/>
</g>
<!-- 1211 -->
<g id="node10" class="node"><title>1211</title>
<ellipse fill="white" stroke="black" cx="118" cy="-168.874" rx="25" ry="25"/>
<text text-anchor="middle" x="118" y="-166.674" font-family="Times New Roman,serif" font-size="9.00">1211</text>
</g>
<!-- &#45;1&#45;&gt;1211 -->
<g id="edge4" class="edge"><title>&#45;1&#45;&gt;1211</title>
<path fill="none" stroke="green" stroke-width="0.302437" d="M127.657,-501.813C113.898,-480.538 77.4571,-420.605 65,-364.617 51.8409,-305.474 62.2023,-286.155 84,-229.622 88.0673,-219.074 93.7799,-208.151 99.3632,-198.575"/>
<polygon fill="green" stroke="green" stroke-width="0.302437" points="102.45,-200.234 104.619,-189.863 96.4563,-196.618 102.45,-200.234"/>
</g>
<!-- 2031 -->
<g id="node11" class="node"><title>2031</title>
<ellipse fill="white" stroke="black" cx="99" cy="-339.869" rx="25" ry="25"/>
<text text-anchor="middle" x="99" y="-337.669" font-family="Times New Roman,serif" font-size="9.00">2031</text>
</g>
<!-- &#45;1&#45;&gt;2031 -->
<g id="edge24" class="edge"><title>&#45;1&#45;&gt;2031</title>
<path fill="none" stroke="red" stroke-width="0.441047" d="M131.36,-501.713C126.796,-479.028 113.754,-414.202 105.688,-374.113"/>
<polygon fill="red" stroke="red" stroke-width="0.441047" points="109.108,-373.363 103.704,-364.25 102.245,-374.744 109.108,-373.363"/>
</g>
<!-- 1341 -->
<g id="node15" class="node"><title>1341</title>
<ellipse fill="white" stroke="black" cx="205" cy="-425.366" rx="25" ry="25"/>
<text text-anchor="middle" x="205" y="-423.166" font-family="Times New Roman,serif" font-size="9.00">1341</text>
</g>
<!-- &#45;1&#45;&gt;1341 -->
<g id="edge5" class="edge"><title>&#45;1&#45;&gt;1341</title>
<path fill="none" stroke="green" stroke-width="0.460609" d="M139.904,-501.857C149.583,-490.633 167.644,-469.687 182.291,-452.702"/>
<polygon fill="green" stroke="green" stroke-width="0.460609" points="185.275,-454.6 189.155,-444.742 179.974,-450.029 185.275,-454.6"/>
</g>
<!-- &#45;2 -->
<g id="node2" class="node"><title>&#45;2</title>
<polygon fill="lightgray" stroke="black" points="491,-434.366 467,-434.366 467,-416.366 491,-416.366 491,-434.366"/>
<text text-anchor="middle" x="479" y="-423.166" font-family="Times New Roman,serif" font-size="9.00">&#45;2</text>
</g>
<!-- 0 -->
<g id="node4" class="node"><title>0</title>
<ellipse fill="lightblue" stroke="black" cx="161" cy="-93.2756" rx="14.7" ry="14.7"/>
<text text-anchor="middle" x="161" y="-91.0756" font-family="Times New Roman,serif" font-size="9.00">0</text>
</g>
<!-- &#45;2&#45;&gt;0 -->
<g id="edge1" class="edge"><title>&#45;2&#45;&gt;0</title>
<path fill="none" stroke="green" stroke-width="0.456022" d="M480.098,-416.183C482.282,-397.684 486.064,-351.43 475,-315.12 447.485,-224.817 428.9,-194.401 349,-144.125 296.976,-111.39 223.883,-100.004 185.986,-96.157"/>
<polygon fill="green" stroke="green" stroke-width="0.456022" points="186.125,-92.6551 175.847,-95.225 185.485,-99.6258 186.125,-92.6551"/>
</g>
<!-- &#45;2&#45;&gt;2283 -->
<g id="edge20" class="edge"><title>&#45;2&#45;&gt;2283</title>
<path fill="none" stroke="red" stroke-width="0.315593" d="M466.717,-419.478C443.599,-410.087 392.324,-388.34 352,-364.617 350.312,-363.624 348.602,-362.567 346.895,-361.472"/>
<polygon fill="red" stroke="red" stroke-width="0.315593" points="348.741,-358.495 338.496,-355.795 344.821,-364.295 348.741,-358.495"/>
</g>
<!-- 539 -->
<g id="node14" class="node"><title>539</title>
<ellipse fill="white" stroke="black" cx="319" cy="-168.874" rx="21.4286" ry="21.4286"/>
<text text-anchor="middle" x="319" y="-166.674" font-family="Times New Roman,serif" font-size="9.00">539</text>
</g>
<!-- &#45;2&#45;&gt;539 -->
<g id="edge2" class="edge"><title>&#45;2&#45;&gt;539</title>
<path fill="none" stroke="red" stroke-width="0.5387" stroke-dasharray="1,5" d="M478.466,-416.194C476.944,-397.329 471.422,-349.707 453,-315.12 425.137,-262.807 373.856,-214.954 343.452,-189.364"/>
<polygon fill="red" stroke="red" stroke-width="0.5387" points="345.402,-186.434 335.467,-182.752 340.937,-191.826 345.402,-186.434"/>
</g>
<!-- &#45;3 -->
<g id="node3" class="node"><title>&#45;3</title>
<polygon fill="lightgray" stroke="black" points="394,-589.612 370,-589.612 370,-571.612 394,-571.612 394,-589.612"/>
<text text-anchor="middle" x="382" y="-578.412" font-family="Times New Roman,serif" font-size="9.00">&#45;3</text>
</g>
<!-- 1187 -->
<g id="node5" class="node"><title>1187</title>
<ellipse fill="white" stroke="black" cx="363" cy="-425.366" rx="25" ry="25"/>
<text text-anchor="middle" x="363" y="-423.166" font-family="Times New Roman,serif" font-size="9.00">1187</text>
</g>
<!-- &#45;3&#45;&gt;1187 -->
<g id="edge7" class="edge"><title>&#45;3&#45;&gt;1187</title>
<path fill="none" stroke="green" stroke-width="0.110463" d="M380.978,-571.373C378.425,-550.777 371.648,-496.121 367.183,-460.107"/>
<polygon fill="green" stroke="green" stroke-width="0.110463" points="370.639,-459.531 365.935,-450.038 363.692,-460.392 370.639,-459.531"/>
</g>
<!-- 1708 -->
<g id="node8" class="node"><title>1708</title>
<ellipse fill="white" stroke="black" cx="329" cy="-510.864" rx="25" ry="25"/>
<text text-anchor="middle" x="329" y="-508.664" font-family="Times New Roman,serif" font-size="9.00">1708</text>
</g>
<!-- &#45;3&#45;&gt;1708 -->
<g id="edge9" class="edge"><title>&#45;3&#45;&gt;1708</title>
<path fill="none" stroke="red" stroke-width="0.35799" d="M375.712,-571.575C369.385,-563.487 359.273,-550.561 350.073,-538.8"/>
<polygon fill="red" stroke="red" stroke-width="0.35799" points="352.825,-536.638 343.907,-530.918 347.312,-540.951 352.825,-536.638"/>
</g>
<!-- &#45;3&#45;&gt;909 -->
<g id="edge6" class="edge"><title>&#45;3&#45;&gt;909</title>
<path fill="none" stroke="green" stroke-width="0.529902" stroke-dasharray="1,5" d="M394.024,-575.578C432.948,-561.678 553,-511.876 553,-426.366 553,-426.366 553,-426.366 553,-167.874 553,-86.7215 266.358,-39.7698 170.097,-26.2903"/>
<polygon fill="green" stroke="green" stroke-width="0.529902" points="170.483,-22.8105 160.099,-24.9155 169.529,-29.7453 170.483,-22.8105"/>
</g>
<!-- &#45;3&#45;&gt;2031 -->
<g id="edge14" class="edge"><title>&#45;3&#45;&gt;2031</title>
<path fill="none" stroke="red" stroke-width="0.314306" d="M369.896,-579.543C322.079,-578.999 147.228,-574.352 112,-535.612 72.0904,-491.724 80.6857,-416.79 90.1095,-373.795"/>
<polygon fill="red" stroke="red" stroke-width="0.314306" points="93.5668,-374.381 92.4307,-363.847 86.7499,-372.79 93.5668,-374.381"/>
</g>
<!-- 2077 -->
<g id="node13" class="node"><title>2077</title>
<ellipse fill="white" stroke="black" cx="319" cy="-254.371" rx="25" ry="25"/>
<text text-anchor="middle" x="319" y="-252.171" font-family="Times New Roman,serif" font-size="9.00">2077</text>
</g>
<!-- &#45;3&#45;&gt;2077 -->
<g id="edge23" class="edge"><title>&#45;3&#45;&gt;2077</title>
<path fill="none" stroke="red" stroke-width="0.264211" d="M386.533,-571.589C404.976,-537.785 471.02,-404.58 420,-315.12 405.605,-289.879 375.9,-274.217 352.413,-265.296"/>
<polygon fill="red" stroke="red" stroke-width="0.264211" points="353.385,-261.927 342.79,-261.877 351.041,-268.523 353.385,-261.927"/>
</g>
<!-- 0&#45;&gt;909 -->
<g id="edge22" class="edge"><title>0&#45;&gt;909</title>
<path fill="none" stroke="green" stroke-width="0.358392" d="M156.758,-78.7669C154.312,-70.9756 151.137,-60.8652 148.15,-51.3518"/>
<polygon fill="green" stroke="green" stroke-width="0.358392" points="151.478,-50.2682 145.143,-41.7761 144.8,-52.3653 151.478,-50.2682"/>
</g>
<!-- 2798 -->
<g id="node12" class="node"><title>2798</title>
<ellipse fill="white" stroke="black" cx="386" cy="-339.869" rx="25" ry="25"/>
<text text-anchor="middle" x="386" y="-337.669" font-family="Times New Roman,serif" font-size="9.00">2798</text>
</g>
<!-- 1187&#45;&gt;2798 -->
<g id="edge28" class="edge"><title>1187&#45;&gt;2798</title>
<path fill="none" stroke="green" stroke-width="0.293206" d="M369.407,-401.107C371.725,-392.693 374.388,-383.023 376.893,-373.928"/>
<polygon fill="green" stroke="green" stroke-width="0.293206" points="380.346,-374.573 379.628,-364.003 373.598,-372.714 380.346,-374.573"/>
</g>
<!-- 1187&#45;&gt;2077 -->
<g id="edge17" class="edge"><title>1187&#45;&gt;2077</title>
<path fill="none" stroke="red" stroke-width="0.267615" stroke-dasharray="1,5" d="M340.523,-414.307C321.823,-404.571 296.477,-387.867 285,-364.617 271.959,-338.201 285.44,-305.725 299.09,-283.078"/>
<polygon fill="red" stroke="red" stroke-width="0.267615" points="302.059,-284.932 304.473,-274.616 296.152,-281.175 302.059,-284.932"/>
</g>
<!-- 1731&#45;&gt;1211 -->
<g id="edge11" class="edge"><title>1731&#45;&gt;1211</title>
<path fill="none" stroke="red" stroke-width="0.253992" d="M118,-229.22C118,-221.276 118,-212.292 118,-203.761"/>
<polygon fill="red" stroke="red" stroke-width="0.253992" points="121.5,-203.682 118,-193.682 114.5,-203.682 121.5,-203.682"/>
</g>
<!-- 2283&#45;&gt;2077 -->
<g id="edge21" class="edge"><title>2283&#45;&gt;2077</title>
<path fill="none" stroke="green" stroke-width="0.132064" d="M319,-314.718C319,-306.774 319,-297.789 319,-289.259"/>
<polygon fill="green" stroke="green" stroke-width="0.132064" points="322.5,-289.179 319,-279.179 315.5,-289.179 322.5,-289.179"/>
</g>
<!-- 1708&#45;&gt;1187 -->
<g id="edge18" class="edge"><title>1708&#45;&gt;1187</title>
<path fill="none" stroke="green" stroke-width="0.374101" d="M338.111,-487.488C341.8,-478.43 346.124,-467.81 350.125,-457.985"/>
<polygon fill="green" stroke="green" stroke-width="0.374101" points="353.452,-459.096 353.981,-448.514 346.968,-456.456 353.452,-459.096"/>
</g>
<!-- 1708&#45;&gt;1341 -->
<g id="edge12" class="edge"><title>1708&#45;&gt;1341</title>
<path fill="none" stroke="green" stroke-width="0.585033" d="M308.801,-496.262C288.355,-482.494 256.555,-461.082 233.539,-445.583"/>
<polygon fill="green" stroke="green" stroke-width="0.585033" points="235.44,-442.644 225.19,-439.961 231.53,-448.45 235.44,-442.644"/>
</g>
<!-- 1211&#45;&gt;0 -->
<g id="edge8" class="edge"><title>1211&#45;&gt;0</title>
<path fill="none" stroke="green" stroke-width="0.407337" d="M130.207,-146.98C136.002,-137.061 142.913,-125.233 148.718,-115.297"/>
<polygon fill="green" stroke="green" stroke-width="0.407337" points="151.85,-116.875 153.872,-106.475 145.806,-113.344 151.85,-116.875"/>
</g>
<!-- 1211&#45;&gt;909 -->
<g id="edge13" class="edge"><title>1211&#45;&gt;909</title>
<path fill="none" stroke="green" stroke-width="0.102849" d="M121.421,-144.147C125.012,-119.238 130.671,-79.9859 134.594,-52.774"/>
<polygon fill="green" stroke="green" stroke-width="0.102849" points="138.093,-53.0328 136.056,-42.6356 131.164,-52.0338 138.093,-53.0328"/>
</g>
<!-- 2031&#45;&gt;1731 -->
<g id="edge16" class="edge"><title>2031&#45;&gt;1731</title>
<path fill="none" stroke="red" stroke-width="0.304171" d="M104.293,-315.61C106.191,-307.266 108.371,-297.686 110.425,-288.658"/>
<polygon fill="red" stroke="red" stroke-width="0.304171" points="113.864,-289.322 112.67,-278.795 107.038,-287.769 113.864,-289.322"/>
</g>
<!-- 2798&#45;&gt;2077 -->
<g id="edge29" class="edge"><title>2798&#45;&gt;2077</title>
<path fill="none" stroke="red" stroke-width="0.384088" d="M370.797,-319.922C361.888,-308.819 350.488,-294.613 340.653,-282.355"/>
<polygon fill="red" stroke="red" stroke-width="0.384088" points="343.131,-279.852 334.143,-274.243 337.672,-284.233 343.131,-279.852"/>
</g>
<!-- 2077&#45;&gt;539 -->
<g id="edge15" class="edge"><title>2077&#45;&gt;539</title>
<path fill="none" stroke="red" stroke-width="0.377965" d="M319,-229.22C319,-220.262 319,-209.98 319,-200.519"/>
<polygon fill="red" stroke="red" stroke-width="0.377965" points="322.5,-200.299 319,-190.299 315.5,-200.299 322.5,-200.299"/>
</g>
<!-- 1341&#45;&gt;2031 -->
<g id="edge25" class="edge"><title>1341&#45;&gt;2031</title>
<path fill="none" stroke="red" stroke-width="0.259546" d="M186.049,-409.438C169.346,-396.281 144.819,-376.96 126.053,-362.178"/>
<polygon fill="red" stroke="red" stroke-width="0.259546" points="128.165,-359.387 118.144,-355.949 123.834,-364.886 128.165,-359.387"/>
</g>
<!-- 1341&#45;&gt;2077 -->
<g id="edge26" class="edge"><title>1341&#45;&gt;2077</title>
<path fill="none" stroke="green" stroke-width="0.417696" d="M217.802,-404.042C231.805,-381.96 255.052,-345.736 276,-315.12 283.2,-304.596 291.32,-293.2 298.548,-283.21"/>
<polygon fill="green" stroke="green" stroke-width="0.417696" points="301.577,-284.996 304.626,-274.85 295.915,-280.88 301.577,-284.996"/>
</g>
<!-- 1341&#45;&gt;539 -->
<g id="edge19" class="edge"><title>1341&#45;&gt;539</title>
<path fill="none" stroke="green" stroke-width="0.562592" d="M211.427,-401.388C217.951,-379.014 228.806,-344.22 241,-315.12 257.516,-275.705 264.65,-267.202 285,-229.622 290.918,-218.695 297.646,-206.772 303.547,-196.471"/>
<polygon fill="green" stroke="green" stroke-width="0.562592" points="306.731,-197.955 308.687,-187.542 300.665,-194.463 306.731,-197.955"/>
</g>
</g>
</svg>
