<?xml version="1.0" encoding="UTF-8" standalone="no"?>
<!DOCTYPE svg PUBLIC "-//W3C//DTD SVG 1.1//EN"
 "http://www.w3.org/Graphics/SVG/1.1/DTD/svg11.dtd">
<!-- Generated by graphviz version 2.38.0 (20140413.2041)
 -->
<!-- Title: %3 Pages: 1 -->
<svg width="246pt" height="190pt"
 viewBox="0.00 0.00 246.21 189.92" xmlns="http://www.w3.org/2000/svg" xmlns:xlink="http://www.w3.org/1999/xlink">
<g id="graph0" class="graph" transform="scale(1 1) rotate(0) translate(4 185.924)">
<title>%3</title>
<polygon fill="white" stroke="none" points="-4,4 -4,-185.924 242.213,-185.924 242.213,4 -4,4"/>
<!-- &#45;1 -->
<g id="node1" class="node"><title>&#45;1</title>
<polygon fill="lightgray" stroke="black" points="33.2132,-181.924 9.2132,-181.924 9.2132,-163.924 33.2132,-163.924 33.2132,-181.924"/>
<text text-anchor="middle" x="21.2132" y="-170.724" font-family="Times New Roman,serif" font-size="9.00">&#45;1</text>
</g>
<!-- 909 -->
<g id="node7" class="node"><title>909</title>
<ellipse fill="white" stroke="black" cx="21.2132" cy="-103.175" rx="21.4286" ry="21.4286"/>
<text text-anchor="middle" x="21.2132" y="-100.975" font-family="Times New Roman,serif" font-size="9.00">909</text>
</g>
<!-- &#45;1&#45;&gt;909 -->
<g id="edge4" class="edge"><title>&#45;1&#45;&gt;909</title>
<path fill="none" stroke="green" stroke-width="0.393507" d="M21.2132,-163.886C21.2132,-156.608 21.2132,-145.413 21.2132,-134.674"/>
<polygon fill="green" stroke="green" stroke-width="0.393507" points="24.7133,-134.661 21.2132,-124.661 17.7133,-134.661 24.7133,-134.661"/>
</g>
<!-- &#45;2 -->
<g id="node2" class="node"><title>&#45;2</title>
<polygon fill="lightgray" stroke="black" points="130.213,-181.924 106.213,-181.924 106.213,-163.924 130.213,-163.924 130.213,-181.924"/>
<text text-anchor="middle" x="118.213" y="-170.724" font-family="Times New Roman,serif" font-size="9.00">&#45;2</text>
</g>
<!-- 0 -->
<g id="node4" class="node"><title>0</title>
<ellipse fill="lightblue" stroke="black" cx="75.2132" cy="-103.175" rx="14.7" ry="14.7"/>
<text text-anchor="middle" x="75.2132" y="-100.975" font-family="Times New Roman,serif" font-size="9.00">0</text>
</g>
<!-- &#45;2&#45;&gt;0 -->
<g id="edge1" class="edge"><title>&#45;2&#45;&gt;0</title>
<path fill="none" stroke="green" stroke-width="0.572636" d="M113.112,-163.886C107.038,-154.317 96.6669,-137.977 88.3076,-124.806"/>
<polygon fill="green" stroke="green" stroke-width="0.572636" points="91.2332,-122.884 82.9194,-116.317 85.3231,-126.635 91.2332,-122.884"/>
</g>
<!-- 539 -->
<g id="node5" class="node"><title>539</title>
<ellipse fill="white" stroke="black" cx="144.213" cy="-21.2132" rx="21.4286" ry="21.4286"/>
<text text-anchor="middle" x="144.213" y="-19.0132" font-family="Times New Roman,serif" font-size="9.00">539</text>
</g>
<!-- &#45;2&#45;&gt;539 -->
<g id="edge2" class="edge"><title>&#45;2&#45;&gt;539</title>
<path fill="none" stroke="green" stroke-width="0.636854" stroke-dasharray="1,5" d="M119.611,-163.875C123.196,-143.234 132.861,-87.582 138.955,-52.4902"/>
<polygon fill="green" stroke="green" stroke-width="0.636854" points="142.458,-52.7727 140.721,-42.3213 135.562,-51.5749 142.458,-52.7727"/>
</g>
<!-- 1060 -->
<g id="node6" class="node"><title>1060</title>
<ellipse fill="white" stroke="black" cx="171.213" cy="-103.175" rx="25" ry="25"/>
<text text-anchor="middle" x="171.213" y="-100.975" font-family="Times New Roman,serif" font-size="9.00">1060</text>
</g>
<!-- &#45;2&#45;&gt;1060 -->
<g id="edge5" class="edge"><title>&#45;2&#45;&gt;1060</title>
<path fill="none" stroke="green" stroke-width="0.135096" stroke-dasharray="1,5" d="M124.501,-163.886C130.828,-155.798 140.94,-142.872 150.141,-131.112"/>
<polygon fill="green" stroke="green" stroke-width="0.135096" points="152.902,-133.263 156.306,-123.23 147.388,-128.95 152.902,-133.263"/>
</g>
<!-- &#45;3 -->
<g id="node3" class="node"><title>&#45;3</title>
<polygon fill="lightgray" stroke="black" points="238.213,-112.175 214.213,-112.175 214.213,-94.1751 238.213,-94.1751 238.213,-112.175"/>
<text text-anchor="middle" x="226.213" y="-100.975" font-family="Times New Roman,serif" font-size="9.00">&#45;3</text>
</g>
<!-- &#45;3&#45;&gt;539 -->
<g id="edge7" class="edge"><title>&#45;3&#45;&gt;539</title>
<path fill="none" stroke="red" stroke-width="0.213723" d="M219.411,-94.075C215.393,-89.3959 210.143,-83.4587 205.213,-78.4264 193.176,-66.1396 179.093,-53.0816 167.493,-42.6466"/>
<polygon fill="red" stroke="red" stroke-width="0.213723" points="169.706,-39.9305 159.915,-35.8831 165.045,-45.153 169.706,-39.9305"/>
</g>
<!-- 1060&#45;&gt;539 -->
<g id="edge6" class="edge"><title>1060&#45;&gt;539</title>
<path fill="none" stroke="green" stroke-width="0.506407" d="M163.548,-79.4751C160.571,-70.6591 157.126,-60.4549 153.975,-51.124"/>
<polygon fill="green" stroke="green" stroke-width="0.506407" points="157.224,-49.8035 150.708,-41.4487 150.591,-52.0429 157.224,-49.8035"/>
</g>
<!-- 909&#45;&gt;539 -->
<g id="edge3" class="edge"><title>909&#45;&gt;539</title>
<path fill="none" stroke="red" stroke-width="0.249822" d="M37.122,-88.9748C41.5941,-85.4322 46.5198,-81.6833 51.2132,-78.4264 72.6937,-63.5203 98.1719,-48.2791 117.024,-37.4341"/>
<polygon fill="red" stroke="red" stroke-width="0.249822" points="119.009,-40.3315 125.961,-32.3366 115.541,-34.2511 119.009,-40.3315"/>
</g>
</g>
</svg>
