<?xml version="1.0" encoding="UTF-8" standalone="no"?>
<!DOCTYPE svg PUBLIC "-//W3C//DTD SVG 1.1//EN"
 "http://www.w3.org/Graphics/SVG/1.1/DTD/svg11.dtd">
<!-- Generated by graphviz version 2.38.0 (20140413.2041)
 -->
<!-- Title: %3 Pages: 1 -->
<svg width="954pt" height="624pt"
 viewBox="0.00 0.00 954.31 624.48" xmlns="http://www.w3.org/2000/svg" xmlns:xlink="http://www.w3.org/1999/xlink">
<g id="graph0" class="graph" transform="scale(1 1) rotate(0) translate(4 620.482)">
<title>%3</title>
<polygon fill="white" stroke="none" points="-4,4 -4,-620.482 950.311,-620.482 950.311,4 -4,4"/>
<!-- &#45;1 -->
<g id="node1" class="node"><title>&#45;1</title>
<polygon fill="lightgray" stroke="black" points="431.311,-290.241 407.311,-290.241 407.311,-272.241 431.311,-272.241 431.311,-290.241"/>
<text text-anchor="middle" x="419.311" y="-279.041" font-family="Times New Roman,serif" font-size="9.00">&#45;1</text>
</g>
<!-- 0 -->
<g id="node25" class="node"><title>0</title>
<ellipse fill="lightblue" stroke="black" cx="311.311" cy="-195.744" rx="14.7" ry="14.7"/>
<text text-anchor="middle" x="311.311" y="-193.544" font-family="Times New Roman,serif" font-size="9.00">0</text>
</g>
<!-- &#45;1&#45;&gt;0 -->
<g id="edge47" class="edge"><title>&#45;1&#45;&gt;0</title>
<path fill="none" stroke="red" stroke-width="0.106488" d="M410.856,-272.08C405.871,-267.38 399.371,-261.443 393.311,-256.492 373.053,-239.945 348.705,-222.49 331.829,-210.749"/>
<polygon fill="red" stroke="red" stroke-width="0.106488" points="333.513,-207.658 323.295,-204.856 329.535,-213.418 333.513,-207.658"/>
</g>
<!-- 1 -->
<g id="node26" class="node"><title>1</title>
<ellipse fill="lightblue" stroke="black" cx="439.311" cy="-110.246" rx="14.7" ry="14.7"/>
<text text-anchor="middle" x="439.311" y="-108.046" font-family="Times New Roman,serif" font-size="9.00">1</text>
</g>
<!-- &#45;1&#45;&gt;1 -->
<g id="edge14" class="edge"><title>&#45;1&#45;&gt;1</title>
<path fill="none" stroke="green" stroke-width="0.261516" d="M420.275,-272.09C423.173,-247.607 431.88,-174.029 436.446,-135.45"/>
<polygon fill="green" stroke="green" stroke-width="0.261516" points="439.968,-135.472 437.667,-125.13 433.016,-134.649 439.968,-135.472"/>
</g>
<!-- &#45;2 -->
<g id="node2" class="node"><title>&#45;2</title>
<polygon fill="lightgray" stroke="black" points="846.311,-290.241 822.311,-290.241 822.311,-272.241 846.311,-272.241 846.311,-290.241"/>
<text text-anchor="middle" x="834.311" y="-279.041" font-family="Times New Roman,serif" font-size="9.00">&#45;2</text>
</g>
<!-- &#45;2&#45;&gt;1 -->
<g id="edge17" class="edge"><title>&#45;2&#45;&gt;1</title>
<path fill="none" stroke="red" stroke-width="0.250624" d="M827.797,-271.835C823.875,-267.054 818.625,-261.117 813.311,-256.492 810.067,-253.671 688.249,-172.717 684.311,-170.995 607.786,-137.53 509.26,-120.761 464.019,-114.389"/>
<polygon fill="red" stroke="red" stroke-width="0.250624" points="464.338,-110.9 453.957,-113.021 463.395,-117.836 464.338,-110.9"/>
</g>
<!-- 3 -->
<g id="node28" class="node"><title>3</title>
<ellipse fill="lightblue" stroke="black" cx="898.311" cy="-195.744" rx="14.7" ry="14.7"/>
<text text-anchor="middle" x="898.311" y="-193.544" font-family="Times New Roman,serif" font-size="9.00">3</text>
</g>
<!-- &#45;2&#45;&gt;3 -->
<g id="edge13" class="edge"><title>&#45;2&#45;&gt;3</title>
<path fill="none" stroke="red" stroke-width="0.287841" d="M840.447,-272.235C850.288,-259.397 869.875,-233.842 883.52,-216.041"/>
<polygon fill="red" stroke="red" stroke-width="0.287841" points="886.366,-218.08 889.672,-208.014 880.811,-213.822 886.366,-218.08"/>
</g>
<!-- 5955 -->
<g id="node33" class="node"><title>5955</title>
<ellipse fill="white" stroke="black" cx="794.311" cy="-195.744" rx="25" ry="25"/>
<text text-anchor="middle" x="794.311" y="-193.544" font-family="Times New Roman,serif" font-size="9.00">5955</text>
</g>
<!-- &#45;2&#45;&gt;5955 -->
<g id="edge41" class="edge"><title>&#45;2&#45;&gt;5955</title>
<path fill="none" stroke="green" stroke-width="0.3" d="M830.475,-272.235C825.571,-261.999 816.795,-243.679 809.116,-227.65"/>
<polygon fill="green" stroke="green" stroke-width="0.3" points="812.237,-226.062 804.76,-218.556 805.924,-229.086 812.237,-226.062"/>
</g>
<!-- 4042 -->
<g id="node35" class="node"><title>4042</title>
<ellipse fill="white" stroke="black" cx="650.311" cy="-195.744" rx="25" ry="25"/>
<text text-anchor="middle" x="650.311" y="-193.544" font-family="Times New Roman,serif" font-size="9.00">4042</text>
</g>
<!-- &#45;2&#45;&gt;4042 -->
<g id="edge57" class="edge"><title>&#45;2&#45;&gt;4042</title>
<path fill="none" stroke="green" stroke-width="0.174796" d="M828.962,-272.119C825.165,-266.95 819.634,-260.498 813.311,-256.492 764.832,-225.784 741.832,-243.618 689.311,-220.492 685.919,-218.999 682.465,-217.259 679.085,-215.412"/>
<polygon fill="green" stroke="green" stroke-width="0.174796" points="680.81,-212.367 670.405,-210.371 677.294,-218.42 680.81,-212.367"/>
</g>
<!-- &#45;3 -->
<g id="node3" class="node"><title>&#45;3</title>
<polygon fill="lightgray" stroke="black" points="325.311,-616.482 301.311,-616.482 301.311,-598.482 325.311,-598.482 325.311,-616.482"/>
<text text-anchor="middle" x="313.311" y="-605.282" font-family="Times New Roman,serif" font-size="9.00">&#45;3</text>
</g>
<!-- &#45;4 -->
<g id="node4" class="node"><title>&#45;4</title>
<polygon fill="lightgray" stroke="black" points="773.311,-461.236 749.311,-461.236 749.311,-443.236 773.311,-443.236 773.311,-461.236"/>
<text text-anchor="middle" x="761.311" y="-450.036" font-family="Times New Roman,serif" font-size="9.00">&#45;4</text>
</g>
<!-- 2 -->
<g id="node27" class="node"><title>2</title>
<ellipse fill="lightblue" stroke="black" cx="739.311" cy="-366.739" rx="14.7" ry="14.7"/>
<text text-anchor="middle" x="739.311" y="-364.539" font-family="Times New Roman,serif" font-size="9.00">2</text>
</g>
<!-- &#45;4&#45;&gt;2 -->
<g id="edge36" class="edge"><title>&#45;4&#45;&gt;2</title>
<path fill="none" stroke="green" stroke-width="0.157646" d="M759.201,-443.23C756.084,-431.399 750.122,-408.771 745.534,-391.361"/>
<polygon fill="green" stroke="green" stroke-width="0.157646" points="748.826,-390.117 742.894,-381.338 742.057,-391.9 748.826,-390.117"/>
</g>
<!-- &#45;5 -->
<g id="node5" class="node"><title>&#45;5</title>
<polygon fill="lightgray" stroke="black" points="946.311,-290.241 922.311,-290.241 922.311,-272.241 946.311,-272.241 946.311,-290.241"/>
<text text-anchor="middle" x="934.311" y="-279.041" font-family="Times New Roman,serif" font-size="9.00">&#45;5</text>
</g>
<!-- &#45;5&#45;&gt;3 -->
<g id="edge1" class="edge"><title>&#45;5&#45;&gt;3</title>
<path fill="none" stroke="red" stroke-width="0.17025" d="M930.859,-272.235C925.651,-260.156 915.59,-236.822 908.026,-219.278"/>
<polygon fill="red" stroke="red" stroke-width="0.17025" points="911.09,-217.543 903.916,-209.746 904.662,-220.314 911.09,-217.543"/>
</g>
<!-- &#45;6 -->
<g id="node6" class="node"><title>&#45;6</title>
<polygon fill="lightgray" stroke="black" points="351.311,-290.241 327.311,-290.241 327.311,-272.241 351.311,-272.241 351.311,-290.241"/>
<text text-anchor="middle" x="339.311" y="-279.041" font-family="Times New Roman,serif" font-size="9.00">&#45;6</text>
</g>
<!-- &#45;6&#45;&gt;0 -->
<g id="edge21" class="edge"><title>&#45;6&#45;&gt;0</title>
<path fill="none" stroke="green" stroke-width="0.106762" d="M336.626,-272.235C332.598,-260.224 324.839,-237.085 318.967,-219.575"/>
<polygon fill="green" stroke="green" stroke-width="0.106762" points="322.268,-218.412 315.77,-210.043 315.631,-220.637 322.268,-218.412"/>
</g>
<!-- &#45;7 -->
<g id="node7" class="node"><title>&#45;7</title>
<polygon fill="lightgray" stroke="black" points="367.311,-616.482 343.311,-616.482 343.311,-598.482 367.311,-598.482 367.311,-616.482"/>
<text text-anchor="middle" x="355.311" y="-605.282" font-family="Times New Roman,serif" font-size="9.00">&#45;7</text>
</g>
<!-- &#45;8 -->
<g id="node8" class="node"><title>&#45;8</title>
<polygon fill="lightgray" stroke="black" points="555.311,-461.236 531.311,-461.236 531.311,-443.236 555.311,-443.236 555.311,-461.236"/>
<text text-anchor="middle" x="543.311" y="-450.036" font-family="Times New Roman,serif" font-size="9.00">&#45;8</text>
</g>
<!-- &#45;8&#45;&gt;0 -->
<g id="edge5" class="edge"><title>&#45;8&#45;&gt;0</title>
<path fill="none" stroke="green" stroke-width="0.430805" stroke-dasharray="1,5" d="M531.257,-446.113C511.48,-437.257 471.707,-417.506 445.311,-391.487 394.816,-341.716 401.76,-314.015 360.311,-256.492 349.961,-242.129 337.26,-226.697 327.383,-215.114"/>
<polygon fill="green" stroke="green" stroke-width="0.430805" points="329.942,-212.723 320.764,-207.431 324.639,-217.292 329.942,-212.723"/>
</g>
<!-- &#45;8&#45;&gt;1 -->
<g id="edge4" class="edge"><title>&#45;8&#45;&gt;1</title>
<path fill="none" stroke="green" stroke-width="0.178081" d="M538.822,-442.982C527.164,-421.216 495.629,-360.201 478.311,-305.99 459.197,-246.16 447.538,-172.875 442.402,-135.575"/>
<polygon fill="green" stroke="green" stroke-width="0.178081" points="445.811,-134.657 441.017,-125.209 438.873,-135.584 445.811,-134.657"/>
</g>
<!-- &#45;8&#45;&gt;2 -->
<g id="edge11" class="edge"><title>&#45;8&#45;&gt;2</title>
<path fill="none" stroke="red" stroke-width="0.219536" d="M555.371,-448.977C584.606,-443.109 660.847,-425.424 715.311,-391.487 717.829,-389.918 720.29,-388.041 722.618,-386.038"/>
<polygon fill="red" stroke="red" stroke-width="0.219536" points="725.134,-388.475 729.908,-379.016 720.278,-383.433 725.134,-388.475"/>
</g>
<!-- &#45;8&#45;&gt;4042 -->
<g id="edge28" class="edge"><title>&#45;8&#45;&gt;4042</title>
<path fill="none" stroke="green" stroke-width="0.349849" stroke-dasharray="1,5" d="M548.596,-443.054C562.343,-421.462 599.651,-360.83 621.311,-305.99 631.08,-281.253 638.634,-252.087 643.58,-230.116"/>
<polygon fill="green" stroke="green" stroke-width="0.349849" points="647.017,-230.782 645.731,-220.265 640.178,-229.288 647.017,-230.782"/>
</g>
<!-- 982 -->
<g id="node37" class="node"><title>982</title>
<ellipse fill="white" stroke="black" cx="135.311" cy="-281.241" rx="21.4286" ry="21.4286"/>
<text text-anchor="middle" x="135.311" y="-279.041" font-family="Times New Roman,serif" font-size="9.00">982</text>
</g>
<!-- &#45;8&#45;&gt;982 -->
<g id="edge19" class="edge"><title>&#45;8&#45;&gt;982</title>
<path fill="none" stroke="red" stroke-width="0.298754" d="M531.211,-448.773C498.616,-441.929 406.555,-421.205 334.311,-391.487 269.46,-364.811 198.629,-322.445 161.455,-299.084"/>
<polygon fill="red" stroke="red" stroke-width="0.298754" points="163.075,-295.967 152.753,-293.576 159.33,-301.882 163.075,-295.967"/>
</g>
<!-- 6640 -->
<g id="node41" class="node"><title>6640</title>
<ellipse fill="white" stroke="black" cx="681.311" cy="-366.739" rx="25" ry="25"/>
<text text-anchor="middle" x="681.311" y="-364.539" font-family="Times New Roman,serif" font-size="9.00">6640</text>
</g>
<!-- &#45;8&#45;&gt;6640 -->
<g id="edge55" class="edge"><title>&#45;8&#45;&gt;6640</title>
<path fill="none" stroke="green" stroke-width="0.3" d="M555.513,-443.893C574.21,-432.637 611.067,-410.428 642.311,-391.487 645.317,-389.665 648.451,-387.761 651.58,-385.859"/>
<polygon fill="green" stroke="green" stroke-width="0.3" points="653.546,-388.76 660.27,-380.572 649.908,-382.78 653.546,-388.76"/>
</g>
<!-- &#45;9 -->
<g id="node9" class="node"><title>&#45;9</title>
<polygon fill="lightgray" stroke="black" points="409.311,-616.482 385.311,-616.482 385.311,-598.482 409.311,-598.482 409.311,-616.482"/>
<text text-anchor="middle" x="397.311" y="-605.282" font-family="Times New Roman,serif" font-size="9.00">&#45;9</text>
</g>
<!-- &#45;10 -->
<g id="node10" class="node"><title>&#45;10</title>
<polygon fill="lightgray" stroke="black" points="730.811,-461.236 701.811,-461.236 701.811,-443.236 730.811,-443.236 730.811,-461.236"/>
<text text-anchor="middle" x="716.311" y="-450.036" font-family="Times New Roman,serif" font-size="9.00">&#45;10</text>
</g>
<!-- &#45;10&#45;&gt;2 -->
<g id="edge6" class="edge"><title>&#45;10&#45;&gt;2</title>
<path fill="none" stroke="green" stroke-width="0.108526" d="M718.516,-443.23C721.775,-431.399 728.008,-408.771 732.804,-391.361"/>
<polygon fill="green" stroke="green" stroke-width="0.108526" points="736.283,-391.909 735.564,-381.338 729.534,-390.05 736.283,-391.909"/>
</g>
<!-- &#45;11 -->
<g id="node11" class="node"><title>&#45;11</title>
<polygon fill="lightgray" stroke="black" points="865.811,-204.744 836.811,-204.744 836.811,-186.744 865.811,-186.744 865.811,-204.744"/>
<text text-anchor="middle" x="851.311" y="-193.544" font-family="Times New Roman,serif" font-size="9.00">&#45;11</text>
</g>
<!-- 4393 -->
<g id="node30" class="node"><title>4393</title>
<ellipse fill="white" stroke="black" cx="794.311" cy="-110.246" rx="25" ry="25"/>
<text text-anchor="middle" x="794.311" y="-108.046" font-family="Times New Roman,serif" font-size="9.00">4393</text>
</g>
<!-- &#45;11&#45;&gt;4393 -->
<g id="edge46" class="edge"><title>&#45;11&#45;&gt;4393</title>
<path fill="none" stroke="red" stroke-width="0.142552" d="M845.845,-186.738C838.489,-175.962 825.019,-156.23 813.695,-139.641"/>
<polygon fill="red" stroke="red" stroke-width="0.142552" points="816.541,-137.603 808.012,-131.317 810.76,-141.55 816.541,-137.603"/>
</g>
<!-- &#45;12 -->
<g id="node12" class="node"><title>&#45;12</title>
<polygon fill="lightgray" stroke="black" points="800.811,-375.739 771.811,-375.739 771.811,-357.739 800.811,-357.739 800.811,-375.739"/>
<text text-anchor="middle" x="786.311" y="-364.539" font-family="Times New Roman,serif" font-size="9.00">&#45;12</text>
</g>
<!-- 4211 -->
<g id="node42" class="node"><title>4211</title>
<ellipse fill="white" stroke="black" cx="779.311" cy="-281.241" rx="25" ry="25"/>
<text text-anchor="middle" x="779.311" y="-279.041" font-family="Times New Roman,serif" font-size="9.00">4211</text>
</g>
<!-- &#45;12&#45;&gt;4211 -->
<g id="edge25" class="edge"><title>&#45;12&#45;&gt;4211</title>
<path fill="none" stroke="red" stroke-width="0.341296" d="M785.639,-357.733C784.839,-348.181 783.448,-331.592 782.174,-316.393"/>
<polygon fill="red" stroke="red" stroke-width="0.341296" points="785.642,-315.869 781.319,-306.196 778.667,-316.454 785.642,-315.869"/>
</g>
<!-- &#45;13 -->
<g id="node13" class="node"><title>&#45;13</title>
<polygon fill="lightgray" stroke="black" points="66.8105,-375.739 37.8105,-375.739 37.8105,-357.739 66.8105,-357.739 66.8105,-375.739"/>
<text text-anchor="middle" x="52.3105" y="-364.539" font-family="Times New Roman,serif" font-size="9.00">&#45;13</text>
</g>
<!-- &#45;13&#45;&gt;0 -->
<g id="edge7" class="edge"><title>&#45;13&#45;&gt;0</title>
<path fill="none" stroke="red" stroke-width="0.454654" d="M60.9625,-357.558C66.4867,-352.622 73.9674,-346.447 81.3105,-341.99 116.032,-320.915 133.235,-330.908 165.311,-305.99 187.212,-288.975 182.29,-274.585 203.311,-256.492 229.341,-234.087 265.112,-216.316 288.223,-206.159"/>
<polygon fill="red" stroke="red" stroke-width="0.454654" points="289.759,-209.309 297.578,-202.16 287.007,-202.873 289.759,-209.309"/>
</g>
<!-- &#45;13&#45;&gt;1 -->
<g id="edge12" class="edge"><title>&#45;13&#45;&gt;1</title>
<path fill="none" stroke="green" stroke-width="0.181944" stroke-dasharray="1,5" d="M50.2921,-357.462C43.4435,-327.138 24.4467,-221.262 79.3105,-170.995 128.519,-125.909 340.562,-114.565 414.089,-111.962"/>
<polygon fill="green" stroke="green" stroke-width="0.181944" points="414.397,-115.454 424.277,-111.627 414.167,-108.457 414.397,-115.454"/>
</g>
<!-- &#45;13&#45;&gt;982 -->
<g id="edge9" class="edge"><title>&#45;13&#45;&gt;982</title>
<path fill="none" stroke="red" stroke-width="0.166137" d="M60.2689,-357.733C72.4109,-345.518 95.9944,-321.793 113.497,-304.185"/>
<polygon fill="red" stroke="red" stroke-width="0.166137" points="116.007,-306.625 120.575,-297.065 111.043,-301.69 116.007,-306.625"/>
</g>
<!-- &#45;14 -->
<g id="node14" class="node"><title>&#45;14</title>
<polygon fill="lightgray" stroke="black" points="903.811,-290.241 874.811,-290.241 874.811,-272.241 903.811,-272.241 903.811,-290.241"/>
<text text-anchor="middle" x="889.311" y="-279.041" font-family="Times New Roman,serif" font-size="9.00">&#45;14</text>
</g>
<!-- &#45;14&#45;&gt;0 -->
<g id="edge15" class="edge"><title>&#45;14&#45;&gt;0</title>
<path fill="none" stroke="green" stroke-width="0.202724" d="M880.506,-272.216C874.03,-266.809 864.746,-260.039 855.311,-256.492 806.18,-238.025 436.568,-206.923 336.326,-198.757"/>
<polygon fill="green" stroke="green" stroke-width="0.202724" points="336.469,-195.257 326.219,-197.937 335.903,-202.234 336.469,-195.257"/>
</g>
<!-- &#45;14&#45;&gt;3 -->
<g id="edge3" class="edge"><title>&#45;14&#45;&gt;3</title>
<path fill="none" stroke="red" stroke-width="0.265431" d="M890.173,-272.235C891.441,-260.472 893.86,-238.034 895.732,-220.665"/>
<polygon fill="red" stroke="red" stroke-width="0.265431" points="899.22,-220.963 896.812,-210.646 892.26,-220.213 899.22,-220.963"/>
</g>
<!-- 6387 -->
<g id="node43" class="node"><title>6387</title>
<ellipse fill="white" stroke="black" cx="900.311" cy="-110.246" rx="25" ry="25"/>
<text text-anchor="middle" x="900.311" y="-108.046" font-family="Times New Roman,serif" font-size="9.00">6387</text>
</g>
<!-- &#45;14&#45;&gt;6387 -->
<g id="edge54" class="edge"><title>&#45;14&#45;&gt;6387</title>
<path fill="none" stroke="green" stroke-width="0.111706" d="M895.715,-271.923C903.768,-260.886 917.163,-240.459 922.311,-220.492 927.802,-199.19 926.171,-192.652 922.311,-170.995 920.601,-161.405 917.462,-151.337 914.079,-142.257"/>
<polygon fill="green" stroke="green" stroke-width="0.111706" points="917.297,-140.877 910.37,-132.861 910.786,-143.448 917.297,-140.877"/>
</g>
<!-- &#45;15 -->
<g id="node15" class="node"><title>&#45;15</title>
<polygon fill="lightgray" stroke="black" points="241.811,-290.241 212.811,-290.241 212.811,-272.241 241.811,-272.241 241.811,-290.241"/>
<text text-anchor="middle" x="227.311" y="-279.041" font-family="Times New Roman,serif" font-size="9.00">&#45;15</text>
</g>
<!-- &#45;15&#45;&gt;0 -->
<g id="edge20" class="edge"><title>&#45;15&#45;&gt;0</title>
<path fill="none" stroke="red" stroke-width="0.162321" d="M235.347,-271.836C239.739,-267.269 245.292,-261.539 250.311,-256.492 264.715,-242.006 281.289,-225.801 293.522,-213.927"/>
<polygon fill="red" stroke="red" stroke-width="0.162321" points="296.12,-216.282 300.867,-206.81 291.249,-211.255 296.12,-216.282"/>
</g>
<!-- &#45;16 -->
<g id="node16" class="node"><title>&#45;16</title>
<polygon fill="lightgray" stroke="black" points="456.811,-616.482 427.811,-616.482 427.811,-598.482 456.811,-598.482 456.811,-616.482"/>
<text text-anchor="middle" x="442.311" y="-605.282" font-family="Times New Roman,serif" font-size="9.00">&#45;16</text>
</g>
<!-- &#45;17 -->
<g id="node17" class="node"><title>&#45;17</title>
<polygon fill="lightgray" stroke="black" points="583.811,-290.241 554.811,-290.241 554.811,-272.241 583.811,-272.241 583.811,-290.241"/>
<text text-anchor="middle" x="569.311" y="-279.041" font-family="Times New Roman,serif" font-size="9.00">&#45;17</text>
</g>
<!-- &#45;17&#45;&gt;4042 -->
<g id="edge39" class="edge"><title>&#45;17&#45;&gt;4042</title>
<path fill="none" stroke="green" stroke-width="0.147971" d="M577.077,-272.235C588.271,-260.696 609.431,-238.884 626.138,-221.662"/>
<polygon fill="green" stroke="green" stroke-width="0.147971" points="628.998,-223.74 633.449,-214.125 623.974,-218.866 628.998,-223.74"/>
</g>
<!-- &#45;18 -->
<g id="node18" class="node"><title>&#45;18</title>
<polygon fill="lightgray" stroke="black" points="503.811,-616.482 474.811,-616.482 474.811,-598.482 503.811,-598.482 503.811,-616.482"/>
<text text-anchor="middle" x="489.311" y="-605.282" font-family="Times New Roman,serif" font-size="9.00">&#45;18</text>
</g>
<!-- &#45;19 -->
<g id="node19" class="node"><title>&#45;19</title>
<polygon fill="lightgray" stroke="black" points="282.811,-616.482 253.811,-616.482 253.811,-598.482 282.811,-598.482 282.811,-616.482"/>
<text text-anchor="middle" x="268.311" y="-605.282" font-family="Times New Roman,serif" font-size="9.00">&#45;19</text>
</g>
<!-- 5160 -->
<g id="node29" class="node"><title>5160</title>
<ellipse fill="white" stroke="black" cx="260.311" cy="-452.236" rx="25" ry="25"/>
<text text-anchor="middle" x="260.311" y="-450.036" font-family="Times New Roman,serif" font-size="9.00">5160</text>
</g>
<!-- &#45;19&#45;&gt;5160 -->
<g id="edge30" class="edge"><title>&#45;19&#45;&gt;5160</title>
<path fill="none" stroke="green" stroke-width="0.3" d="M267.88,-598.243C266.808,-577.703 263.968,-523.291 262.087,-487.275"/>
<polygon fill="green" stroke="green" stroke-width="0.3" points="265.578,-487.001 261.561,-477.197 258.588,-487.366 265.578,-487.001"/>
</g>
<!-- 4555 -->
<g id="node36" class="node"><title>4555</title>
<ellipse fill="white" stroke="black" cx="215.311" cy="-537.734" rx="25" ry="25"/>
<text text-anchor="middle" x="215.311" y="-535.534" font-family="Times New Roman,serif" font-size="9.00">4555</text>
</g>
<!-- &#45;19&#45;&gt;4555 -->
<g id="edge26" class="edge"><title>&#45;19&#45;&gt;4555</title>
<path fill="none" stroke="green" stroke-width="0.3" d="M262.023,-598.445C255.695,-590.357 245.583,-577.431 236.383,-565.67"/>
<polygon fill="green" stroke="green" stroke-width="0.3" points="239.136,-563.508 230.217,-557.788 233.622,-567.821 239.136,-563.508"/>
</g>
<!-- 2136 -->
<g id="node38" class="node"><title>2136</title>
<ellipse fill="white" stroke="black" cx="284.311" cy="-281.241" rx="25" ry="25"/>
<text text-anchor="middle" x="284.311" y="-279.041" font-family="Times New Roman,serif" font-size="9.00">2136</text>
</g>
<!-- &#45;19&#45;&gt;2136 -->
<g id="edge22" class="edge"><title>&#45;19&#45;&gt;2136</title>
<path fill="none" stroke="red" stroke-width="0.375768" stroke-dasharray="1,5" d="M270.512,-598.413C272.867,-589.619 276.627,-575.114 279.311,-562.482 287.327,-524.745 290.965,-515.419 294.311,-476.985 296.218,-455.069 295.066,-449.473 294.311,-427.487 292.999,-389.353 289.757,-345.686 287.317,-316.273"/>
<polygon fill="red" stroke="red" stroke-width="0.375768" points="290.789,-315.788 286.46,-306.118 283.814,-316.377 290.789,-315.788"/>
</g>
<!-- &#45;20 -->
<g id="node20" class="node"><title>&#45;20</title>
<polygon fill="lightgray" stroke="black" points="550.811,-616.482 521.811,-616.482 521.811,-598.482 550.811,-598.482 550.811,-616.482"/>
<text text-anchor="middle" x="536.311" y="-605.282" font-family="Times New Roman,serif" font-size="9.00">&#45;20</text>
</g>
<!-- &#45;21 -->
<g id="node21" class="node"><title>&#45;21</title>
<polygon fill="lightgray" stroke="black" points="95.8105,-290.241 66.8105,-290.241 66.8105,-272.241 95.8105,-272.241 95.8105,-290.241"/>
<text text-anchor="middle" x="81.3105" y="-279.041" font-family="Times New Roman,serif" font-size="9.00">&#45;21</text>
</g>
<!-- 5682 -->
<g id="node31" class="node"><title>5682</title>
<ellipse fill="white" stroke="black" cx="113.311" cy="-195.744" rx="25" ry="25"/>
<text text-anchor="middle" x="113.311" y="-193.544" font-family="Times New Roman,serif" font-size="9.00">5682</text>
</g>
<!-- &#45;21&#45;&gt;5682 -->
<g id="edge38" class="edge"><title>&#45;21&#45;&gt;5682</title>
<path fill="none" stroke="green" stroke-width="0.418251" d="M84.3788,-272.235C88.2134,-262.23 95.0077,-244.501 101.049,-228.738"/>
<polygon fill="green" stroke="green" stroke-width="0.418251" points="104.369,-229.854 104.68,-219.264 97.8329,-227.349 104.369,-229.854"/>
</g>
<!-- &#45;22 -->
<g id="node22" class="node"><title>&#45;22</title>
<polygon fill="lightgray" stroke="black" points="597.811,-616.482 568.811,-616.482 568.811,-598.482 597.811,-598.482 597.811,-616.482"/>
<text text-anchor="middle" x="583.311" y="-605.282" font-family="Times New Roman,serif" font-size="9.00">&#45;22</text>
</g>
<!-- &#45;23 -->
<g id="node23" class="node"><title>&#45;23</title>
<polygon fill="lightgray" stroke="black" points="189.811,-461.236 160.811,-461.236 160.811,-443.236 189.811,-443.236 189.811,-461.236"/>
<text text-anchor="middle" x="175.311" y="-450.036" font-family="Times New Roman,serif" font-size="9.00">&#45;23</text>
</g>
<!-- &#45;23&#45;&gt;2 -->
<g id="edge2" class="edge"><title>&#45;23&#45;&gt;2</title>
<path fill="none" stroke="red" stroke-width="0.192655" d="M189.084,-443.148C199.065,-437.712 213.078,-430.932 226.311,-427.487 331.758,-400.04 616.125,-436.594 715.311,-391.487 718.112,-390.213 720.774,-388.463 723.235,-386.486"/>
<polygon fill="red" stroke="red" stroke-width="0.192655" points="725.973,-388.708 730.745,-379.248 721.116,-383.667 725.973,-388.708"/>
</g>
<!-- &#45;23&#45;&gt;2136 -->
<g id="edge18" class="edge"><title>&#45;23&#45;&gt;2136</title>
<path fill="none" stroke="green" stroke-width="0.101108" stroke-dasharray="1,5" d="M180.568,-443.085C195.789,-419.486 240.429,-350.275 265.917,-310.759"/>
<polygon fill="green" stroke="green" stroke-width="0.101108" points="268.871,-312.636 271.35,-302.335 262.989,-308.842 268.871,-312.636"/>
</g>
<!-- 5995 -->
<g id="node39" class="node"><title>5995</title>
<ellipse fill="white" stroke="black" cx="148.311" cy="-366.739" rx="25" ry="25"/>
<text text-anchor="middle" x="148.311" y="-364.539" font-family="Times New Roman,serif" font-size="9.00">5995</text>
</g>
<!-- &#45;23&#45;&gt;5995 -->
<g id="edge42" class="edge"><title>&#45;23&#45;&gt;5995</title>
<path fill="none" stroke="green" stroke-width="0.3" d="M172.722,-443.23C169.538,-433.386 163.938,-416.066 158.903,-400.497"/>
<polygon fill="green" stroke="green" stroke-width="0.3" points="162.115,-399.053 155.708,-390.615 155.455,-401.207 162.115,-399.053"/>
</g>
<!-- 5486 -->
<g id="node40" class="node"><title>5486</title>
<ellipse fill="white" stroke="black" cx="794.311" cy="-24.7487" rx="25" ry="25"/>
<text text-anchor="middle" x="794.311" y="-22.5487" font-family="Times New Roman,serif" font-size="9.00">5486</text>
</g>
<!-- &#45;23&#45;&gt;5486 -->
<g id="edge50" class="edge"><title>&#45;23&#45;&gt;5486</title>
<path fill="none" stroke="red" stroke-width="0.161823" d="M160.723,-449.631C131.127,-445.576 63.8253,-432.159 28.3105,-391.487 -4.65776,-353.732 0.310518,-332.364 0.310518,-282.241 0.310518,-282.241 0.310518,-282.241 0.310518,-194.744 0.310518,-37.3273 604.903,-25.9563 758.939,-25.6137"/>
<polygon fill="red" stroke="red" stroke-width="0.161823" points="759.239,-29.1136 769.236,-25.6062 759.234,-22.1136 759.239,-29.1136"/>
</g>
<!-- &#45;24 -->
<g id="node24" class="node"><title>&#45;24</title>
<polygon fill="lightgray" stroke="black" points="562.811,-375.739 533.811,-375.739 533.811,-357.739 562.811,-357.739 562.811,-375.739"/>
<text text-anchor="middle" x="548.311" y="-364.539" font-family="Times New Roman,serif" font-size="9.00">&#45;24</text>
</g>
<!-- 5061 -->
<g id="node34" class="node"><title>5061</title>
<ellipse fill="white" stroke="black" cx="512.311" cy="-281.241" rx="25" ry="25"/>
<text text-anchor="middle" x="512.311" y="-279.041" font-family="Times New Roman,serif" font-size="9.00">5061</text>
</g>
<!-- &#45;24&#45;&gt;5061 -->
<g id="edge29" class="edge"><title>&#45;24&#45;&gt;5061</title>
<path fill="none" stroke="green" stroke-width="0.3" d="M544.859,-357.733C540.516,-347.659 532.798,-329.759 525.967,-313.916"/>
<polygon fill="green" stroke="green" stroke-width="0.3" points="529.04,-312.203 521.867,-304.406 522.612,-314.975 529.04,-312.203"/>
</g>
<!-- &#45;24&#45;&gt;4042 -->
<g id="edge23" class="edge"><title>&#45;24&#45;&gt;4042</title>
<path fill="none" stroke="green" stroke-width="0.3" d="M554.979,-357.504C563.97,-346.226 580.24,-325.183 592.311,-305.99 608.416,-280.382 624.359,-249.876 635.442,-227.617"/>
<polygon fill="green" stroke="green" stroke-width="0.3" points="638.595,-229.137 639.881,-218.62 632.318,-226.04 638.595,-229.137"/>
</g>
<!-- 2&#45;&gt;4042 -->
<g id="edge32" class="edge"><title>2&#45;&gt;4042</title>
<path fill="none" stroke="green" stroke-width="0.173786" d="M733.053,-353.222C722.832,-332.85 701.837,-291.298 683.311,-256.492 678.078,-246.663 672.241,-235.999 666.948,-226.438"/>
<polygon fill="green" stroke="green" stroke-width="0.173786" points="669.993,-224.713 662.077,-217.672 663.875,-228.113 669.993,-224.713"/>
</g>
<!-- 2&#45;&gt;4211 -->
<g id="edge40" class="edge"><title>2&#45;&gt;4211</title>
<path fill="none" stroke="green" stroke-width="0.181838" d="M745.386,-353.057C750.464,-342.456 757.921,-326.89 764.551,-313.051"/>
<polygon fill="green" stroke="green" stroke-width="0.181838" points="767.806,-314.358 768.97,-303.827 761.493,-311.333 767.806,-314.358"/>
</g>
<!-- 3&#45;&gt;5486 -->
<g id="edge49" class="edge"><title>3&#45;&gt;5486</title>
<path fill="none" stroke="red" stroke-width="0.23265" stroke-dasharray="1,5" d="M890.831,-182.59C874.558,-156.148 835.548,-92.7569 812.41,-55.1589"/>
<polygon fill="red" stroke="red" stroke-width="0.23265" points="815.114,-52.8761 806.893,-46.1939 809.153,-56.5449 815.114,-52.8761"/>
</g>
<!-- 3&#45;&gt;6387 -->
<g id="edge51" class="edge"><title>3&#45;&gt;6387</title>
<path fill="none" stroke="green" stroke-width="0.3" d="M898.65,-180.579C898.881,-170.91 899.199,-157.668 899.494,-145.347"/>
<polygon fill="green" stroke="green" stroke-width="0.3" points="902.994,-145.392 899.734,-135.311 895.996,-145.225 902.994,-145.392"/>
</g>
<!-- 6072 -->
<g id="node32" class="node"><title>6072</title>
<ellipse fill="white" stroke="black" cx="368.311" cy="-366.739" rx="25" ry="25"/>
<text text-anchor="middle" x="368.311" y="-364.539" font-family="Times New Roman,serif" font-size="9.00">6072</text>
</g>
<!-- 5160&#45;&gt;6072 -->
<g id="edge44" class="edge"><title>5160&#45;&gt;6072</title>
<path fill="none" stroke="green" stroke-width="0.3" d="M279.619,-436.308C296.743,-423.069 321.938,-403.59 341.103,-388.773"/>
<polygon fill="green" stroke="green" stroke-width="0.3" points="343.399,-391.423 349.169,-382.537 339.117,-385.885 343.399,-391.423"/>
</g>
<!-- 5160&#45;&gt;2136 -->
<g id="edge31" class="edge"><title>5160&#45;&gt;2136</title>
<path fill="none" stroke="red" stroke-width="0.375768" stroke-dasharray="1,5" d="M263.698,-427.382C267.826,-398.319 274.826,-349.026 279.508,-316.058"/>
<polygon fill="red" stroke="red" stroke-width="0.375768" points="282.999,-316.367 280.94,-305.974 276.069,-315.383 282.999,-316.367"/>
</g>
<!-- 6072&#45;&gt;5061 -->
<g id="edge48" class="edge"><title>6072&#45;&gt;5061</title>
<path fill="none" stroke="red" stroke-width="0.305809" d="M389.558,-353.418C414.019,-339.235 454.38,-315.832 482.101,-299.758"/>
<polygon fill="red" stroke="red" stroke-width="0.305809" points="484.08,-302.656 490.976,-294.612 480.569,-296.6 484.08,-302.656"/>
</g>
<!-- 6072&#45;&gt;2136 -->
<g id="edge45" class="edge"><title>6072&#45;&gt;2136</title>
<path fill="none" stroke="red" stroke-width="0.375768" d="M350.906,-348.438C338.661,-336.266 322.109,-319.814 308.571,-306.356"/>
<polygon fill="red" stroke="red" stroke-width="0.375768" points="310.965,-303.802 301.406,-299.234 306.031,-308.766 310.965,-303.802"/>
</g>
<!-- 4042&#45;&gt;1 -->
<g id="edge24" class="edge"><title>4042&#45;&gt;1</title>
<path fill="none" stroke="red" stroke-width="0.130635" d="M627.328,-185.649C586.76,-169.596 502.915,-136.416 462.325,-120.353"/>
<polygon fill="red" stroke="red" stroke-width="0.130635" points="463.576,-117.085 452.99,-116.659 461,-123.593 463.576,-117.085"/>
</g>
<!-- 4042&#45;&gt;4393 -->
<g id="edge53" class="edge"><title>4042&#45;&gt;4393</title>
<path fill="none" stroke="green" stroke-width="0.243711" d="M671.558,-182.423C696.019,-168.24 736.38,-144.837 764.101,-128.763"/>
<polygon fill="green" stroke="green" stroke-width="0.243711" points="766.08,-131.661 772.976,-123.617 762.569,-125.605 766.08,-131.661"/>
</g>
<!-- 4555&#45;&gt;5160 -->
<g id="edge34" class="edge"><title>4555&#45;&gt;5160</title>
<path fill="none" stroke="green" stroke-width="0.344822" d="M226.666,-515.664C231.942,-505.874 238.312,-494.054 244.083,-483.345"/>
<polygon fill="green" stroke="green" stroke-width="0.344822" points="247.295,-484.763 248.959,-474.299 241.133,-481.442 247.295,-484.763"/>
</g>
<!-- 4555&#45;&gt;2136 -->
<g id="edge27" class="edge"><title>4555&#45;&gt;2136</title>
<path fill="none" stroke="red" stroke-width="0.375768" stroke-dasharray="1,5" d="M196.256,-521.519C155.629,-487.26 67.8482,-402.351 114.311,-341.99 152.449,-292.442 193.587,-332.296 250.311,-305.99 252.38,-305.03 254.459,-303.944 256.512,-302.777"/>
<polygon fill="red" stroke="red" stroke-width="0.375768" points="258.639,-305.575 265.246,-297.292 254.916,-299.647 258.639,-305.575"/>
</g>
<!-- 982&#45;&gt;0 -->
<g id="edge10" class="edge"><title>982&#45;&gt;0</title>
<path fill="none" stroke="red" stroke-width="0.229582" stroke-dasharray="1,5" d="M151.981,-267.956C157.649,-264.045 164.119,-259.863 170.311,-256.492 210.032,-234.87 259.223,-215.601 287.759,-205.106"/>
<polygon fill="red" stroke="red" stroke-width="0.229582" points="289.077,-208.351 297.282,-201.648 286.688,-201.771 289.077,-208.351"/>
</g>
<!-- 982&#45;&gt;1 -->
<g id="edge8" class="edge"><title>982&#45;&gt;1</title>
<path fill="none" stroke="red" stroke-width="0.5297" d="M150.387,-265.798C153.89,-262.634 157.663,-259.371 161.311,-256.492 214.432,-214.564 227.451,-202.567 287.311,-170.995 330.609,-148.157 384.638,-128.949 415.231,-118.861"/>
<polygon fill="red" stroke="red" stroke-width="0.5297" points="416.589,-122.1 425.019,-115.682 414.427,-115.442 416.589,-122.1"/>
</g>
<!-- 982&#45;&gt;5682 -->
<g id="edge37" class="edge"><title>982&#45;&gt;5682</title>
<path fill="none" stroke="green" stroke-width="0.3" d="M130.097,-260.453C127.67,-251.244 124.719,-240.041 121.971,-229.613"/>
<polygon fill="green" stroke="green" stroke-width="0.3" points="125.356,-228.722 119.423,-219.943 118.587,-230.505 125.356,-228.722"/>
</g>
<!-- 2136&#45;&gt;0 -->
<g id="edge16" class="edge"><title>2136&#45;&gt;0</title>
<path fill="none" stroke="green" stroke-width="0.430805" d="M291.688,-257.425C295.456,-245.773 300.031,-231.625 303.815,-219.922"/>
<polygon fill="green" stroke="green" stroke-width="0.430805" points="307.151,-220.983 306.897,-210.391 300.49,-218.829 307.151,-220.983"/>
</g>
<!-- 5995&#45;&gt;2136 -->
<g id="edge43" class="edge"><title>5995&#45;&gt;2136</title>
<path fill="none" stroke="green" stroke-width="0.101108" d="M169.296,-352.813C175.111,-349.271 181.439,-345.454 187.311,-341.99 215.085,-325.602 223.064,-323.241 250.311,-305.99 252.189,-304.801 254.108,-303.553 256.032,-302.278"/>
<polygon fill="green" stroke="green" stroke-width="0.101108" points="258.071,-305.125 264.378,-296.612 254.139,-299.333 258.071,-305.125"/>
</g>
<!-- 6640&#45;&gt;4042 -->
<g id="edge56" class="edge"><title>6640&#45;&gt;4042</title>
<path fill="none" stroke="green" stroke-width="0.349849" d="M678.115,-341.779C675.028,-319.585 669.996,-285.696 664.311,-256.492 662.613,-247.773 660.536,-238.396 658.507,-229.714"/>
<polygon fill="green" stroke="green" stroke-width="0.349849" points="661.897,-228.838 656.173,-219.923 655.088,-230.462 661.897,-228.838"/>
</g>
<!-- 4211&#45;&gt;4042 -->
<g id="edge33" class="edge"><title>4211&#45;&gt;4042</title>
<path fill="none" stroke="red" stroke-width="0.206857" d="M758.87,-267.011C737.357,-253.086 703.318,-231.054 679.094,-215.374"/>
<polygon fill="red" stroke="red" stroke-width="0.206857" points="680.952,-212.408 670.655,-209.912 677.148,-218.284 680.952,-212.408"/>
</g>
<!-- 4211&#45;&gt;5486 -->
<g id="edge35" class="edge"><title>4211&#45;&gt;5486</title>
<path fill="none" stroke="green" stroke-width="0.3" d="M770.416,-257.938C766.471,-246.871 762.28,-233.185 760.311,-220.492 751.111,-161.204 744.963,-143.499 760.311,-85.4975 763.226,-74.4806 768.696,-63.3699 774.41,-53.7679"/>
<polygon fill="green" stroke="green" stroke-width="0.3" points="777.517,-55.4027 779.888,-45.0766 771.595,-51.6704 777.517,-55.4027"/>
</g>
<!-- 6387&#45;&gt;5486 -->
<g id="edge52" class="edge"><title>6387&#45;&gt;5486</title>
<path fill="none" stroke="red" stroke-width="0.23265" d="M881.36,-94.3185C864.657,-81.1612 840.129,-61.8406 821.363,-47.0584"/>
<polygon fill="red" stroke="red" stroke-width="0.23265" points="823.476,-44.2672 813.455,-40.8287 819.144,-49.7661 823.476,-44.2672"/>
</g>
</g>
</svg>
