<?xml version="1.0" encoding="UTF-8" standalone="no"?>
<!DOCTYPE svg PUBLIC "-//W3C//DTD SVG 1.1//EN"
 "http://www.w3.org/Graphics/SVG/1.1/DTD/svg11.dtd">
<!-- Generated by graphviz version 2.38.0 (20140413.2041)
 -->
<!-- Title: %3 Pages: 1 -->
<svg width="1059pt" height="519pt"
 viewBox="0.00 0.00 1059.31 519.19" xmlns="http://www.w3.org/2000/svg" xmlns:xlink="http://www.w3.org/1999/xlink">
<g id="graph0" class="graph" transform="scale(1 1) rotate(0) translate(4 515.186)">
<title>%3</title>
<polygon fill="white" stroke="none" points="-4,4 -4,-515.186 1055.31,-515.186 1055.31,4 -4,4"/>
<!-- &#45;1 -->
<g id="node1" class="node"><title>&#45;1</title>
<polygon fill="lightgray" stroke="black" points="560.81,-99.4472 536.81,-99.4472 536.81,-81.4472 560.81,-81.4472 560.81,-99.4472"/>
<text text-anchor="middle" x="548.81" y="-88.2472" font-family="Times New Roman,serif" font-size="9.00">&#45;1</text>
</g>
<!-- 1 -->
<g id="node26" class="node"><title>1</title>
<ellipse fill="lightblue" stroke="black" cx="404.81" cy="-14.8492" rx="14.7" ry="14.7"/>
<text text-anchor="middle" x="404.81" y="-12.6492" font-family="Times New Roman,serif" font-size="9.00">1</text>
</g>
<!-- &#45;1&#45;&gt;1 -->
<g id="edge14" class="edge"><title>&#45;1&#45;&gt;1</title>
<path fill="none" stroke="green" stroke-width="0.261516" d="M542.976,-81.0833C539.138,-76.0783 533.74,-69.8954 527.81,-65.6985 496.898,-43.8216 454.98,-29.4883 428.928,-22.0296"/>
<polygon fill="green" stroke="green" stroke-width="0.261516" points="429.705,-18.6132 419.135,-19.3365 427.849,-25.3627 429.705,-18.6132"/>
</g>
<!-- &#45;2 -->
<g id="node2" class="node"><title>&#45;2</title>
<polygon fill="lightgray" stroke="black" points="694.81,-441.437 670.81,-441.437 670.81,-423.437 694.81,-423.437 694.81,-441.437"/>
<text text-anchor="middle" x="682.81" y="-430.237" font-family="Times New Roman,serif" font-size="9.00">&#45;2</text>
</g>
<!-- &#45;2&#45;&gt;1 -->
<g id="edge17" class="edge"><title>&#45;2&#45;&gt;1</title>
<path fill="none" stroke="red" stroke-width="0.250624" d="M683.911,-423.115C688.174,-388.015 701.146,-249.357 654.81,-151.196 631.937,-102.741 615.744,-93.2865 569.81,-65.6985 524.439,-38.4492 463.006,-25.0584 429.359,-19.3833"/>
<polygon fill="red" stroke="red" stroke-width="0.250624" points="429.893,-15.9243 419.466,-17.804 428.789,-22.8368 429.893,-15.9243"/>
</g>
<!-- 3 -->
<g id="node28" class="node"><title>3</title>
<ellipse fill="lightblue" stroke="black" cx="725.81" cy="-346.94" rx="14.7" ry="14.7"/>
<text text-anchor="middle" x="725.81" y="-344.74" font-family="Times New Roman,serif" font-size="9.00">3</text>
</g>
<!-- &#45;2&#45;&gt;3 -->
<g id="edge13" class="edge"><title>&#45;2&#45;&gt;3</title>
<path fill="none" stroke="red" stroke-width="0.287841" d="M686.933,-423.431C693.282,-411.101 705.671,-387.044 714.764,-369.389"/>
<polygon fill="red" stroke="red" stroke-width="0.287841" points="717.95,-370.847 719.416,-360.354 711.726,-367.642 717.95,-370.847"/>
</g>
<!-- 4850 -->
<g id="node33" class="node"><title>4850</title>
<ellipse fill="white" stroke="black" cx="628.81" cy="-346.94" rx="25" ry="25"/>
<text text-anchor="middle" x="628.81" y="-344.74" font-family="Times New Roman,serif" font-size="9.00">4850</text>
</g>
<!-- &#45;2&#45;&gt;4850 -->
<g id="edge30" class="edge"><title>&#45;2&#45;&gt;4850</title>
<path fill="none" stroke="red" stroke-width="0.214341" stroke-dasharray="1,5" d="M677.632,-423.431C670.772,-412.823 658.298,-393.536 647.676,-377.112"/>
<polygon fill="red" stroke="red" stroke-width="0.214341" points="650.383,-374.852 642.013,-368.355 644.505,-378.653 650.383,-374.852"/>
</g>
<!-- &#45;3 -->
<g id="node3" class="node"><title>&#45;3</title>
<polygon fill="lightgray" stroke="black" points="684.81,-511.186 660.81,-511.186 660.81,-493.186 684.81,-493.186 684.81,-511.186"/>
<text text-anchor="middle" x="672.81" y="-499.986" font-family="Times New Roman,serif" font-size="9.00">&#45;3</text>
</g>
<!-- &#45;4 -->
<g id="node4" class="node"><title>&#45;4</title>
<polygon fill="lightgray" stroke="black" points="197.81,-355.94 173.81,-355.94 173.81,-337.94 197.81,-337.94 197.81,-355.94"/>
<text text-anchor="middle" x="185.81" y="-344.74" font-family="Times New Roman,serif" font-size="9.00">&#45;4</text>
</g>
<!-- 2 -->
<g id="node27" class="node"><title>2</title>
<ellipse fill="lightblue" stroke="black" cx="185.81" cy="-261.442" rx="14.7" ry="14.7"/>
<text text-anchor="middle" x="185.81" y="-259.242" font-family="Times New Roman,serif" font-size="9.00">2</text>
</g>
<!-- &#45;4&#45;&gt;2 -->
<g id="edge36" class="edge"><title>&#45;4&#45;&gt;2</title>
<path fill="none" stroke="green" stroke-width="0.157646" d="M185.81,-337.934C185.81,-326.17 185.81,-303.732 185.81,-286.363"/>
<polygon fill="green" stroke="green" stroke-width="0.157646" points="189.31,-286.344 185.81,-276.344 182.31,-286.344 189.31,-286.344"/>
</g>
<!-- &#45;5 -->
<g id="node5" class="node"><title>&#45;5</title>
<polygon fill="lightgray" stroke="black" points="736.81,-441.437 712.81,-441.437 712.81,-423.437 736.81,-423.437 736.81,-441.437"/>
<text text-anchor="middle" x="724.81" y="-430.237" font-family="Times New Roman,serif" font-size="9.00">&#45;5</text>
</g>
<!-- &#45;5&#45;&gt;3 -->
<g id="edge1" class="edge"><title>&#45;5&#45;&gt;3</title>
<path fill="none" stroke="red" stroke-width="0.17025" d="M724.905,-423.431C725.046,-411.668 725.315,-389.23 725.523,-371.861"/>
<polygon fill="red" stroke="red" stroke-width="0.17025" points="729.023,-371.883 725.643,-361.842 722.024,-371.799 729.023,-371.883"/>
</g>
<!-- &#45;6 -->
<g id="node6" class="node"><title>&#45;6</title>
<polygon fill="lightgray" stroke="black" points="416.81,-184.945 392.81,-184.945 392.81,-166.945 416.81,-166.945 416.81,-184.945"/>
<text text-anchor="middle" x="404.81" y="-173.745" font-family="Times New Roman,serif" font-size="9.00">&#45;6</text>
</g>
<!-- 0 -->
<g id="node25" class="node"><title>0</title>
<ellipse fill="lightblue" stroke="black" cx="503.81" cy="-90.4472" rx="14.7" ry="14.7"/>
<text text-anchor="middle" x="503.81" y="-88.2472" font-family="Times New Roman,serif" font-size="9.00">0</text>
</g>
<!-- &#45;6&#45;&gt;0 -->
<g id="edge21" class="edge"><title>&#45;6&#45;&gt;0</title>
<path fill="none" stroke="green" stroke-width="0.106762" d="M414.302,-166.939C430.538,-153.245 463.924,-125.087 485.016,-107.298"/>
<polygon fill="green" stroke="green" stroke-width="0.106762" points="487.309,-109.943 492.696,-100.82 482.796,-104.592 487.309,-109.943"/>
</g>
<!-- 4042 -->
<g id="node31" class="node"><title>4042</title>
<ellipse fill="white" stroke="black" cx="183.81" cy="-90.4472" rx="25" ry="25"/>
<text text-anchor="middle" x="183.81" y="-88.2472" font-family="Times New Roman,serif" font-size="9.00">4042</text>
</g>
<!-- &#45;6&#45;&gt;4042 -->
<g id="edge47" class="edge"><title>&#45;6&#45;&gt;4042</title>
<path fill="none" stroke="green" stroke-width="0.137658" d="M399.451,-166.839C395.65,-161.677 390.117,-155.226 383.81,-151.196 331.728,-117.921 260.276,-102.464 218.377,-95.8523"/>
<polygon fill="green" stroke="green" stroke-width="0.137658" points="218.799,-92.3766 208.391,-94.3564 217.762,-99.2993 218.799,-92.3766"/>
</g>
<!-- &#45;7 -->
<g id="node7" class="node"><title>&#45;7</title>
<polygon fill="lightgray" stroke="black" points="726.81,-511.186 702.81,-511.186 702.81,-493.186 726.81,-493.186 726.81,-511.186"/>
<text text-anchor="middle" x="714.81" y="-499.986" font-family="Times New Roman,serif" font-size="9.00">&#45;7</text>
</g>
<!-- &#45;8 -->
<g id="node8" class="node"><title>&#45;8</title>
<polygon fill="lightgray" stroke="black" points="154.81,-355.94 130.81,-355.94 130.81,-337.94 154.81,-337.94 154.81,-355.94"/>
<text text-anchor="middle" x="142.81" y="-344.74" font-family="Times New Roman,serif" font-size="9.00">&#45;8</text>
</g>
<!-- &#45;8&#45;&gt;0 -->
<g id="edge5" class="edge"><title>&#45;8&#45;&gt;0</title>
<path fill="none" stroke="green" stroke-width="0.430805" stroke-dasharray="1,5" d="M148.32,-337.522C152.258,-332.229 158.045,-325.749 164.81,-322.191 262.996,-270.553 315.762,-341.708 411.81,-286.191 436.057,-272.175 432.356,-257.762 450.81,-236.693 465.513,-219.907 475.757,-220.616 485.81,-200.693 499.428,-173.705 503.107,-138.647 503.919,-115.62"/>
<polygon fill="green" stroke="green" stroke-width="0.430805" points="507.424,-115.436 504.119,-105.37 500.425,-115.3 507.424,-115.436"/>
</g>
<!-- &#45;8&#45;&gt;1 -->
<g id="edge4" class="edge"><title>&#45;8&#45;&gt;1</title>
<path fill="none" stroke="green" stroke-width="0.178081" d="M130.569,-343.8C105.851,-338.759 50.2532,-323.62 25.8096,-286.191 -7.01932,-235.922 -7.5917,-204.092 20.8096,-151.196 53.3471,-90.5961 86.1706,-91.7964 149.81,-65.6985 229.79,-32.8989 332.922,-21.2714 379.725,-17.498"/>
<polygon fill="green" stroke="green" stroke-width="0.178081" points="380.146,-20.9763 389.854,-16.735 379.62,-13.9961 380.146,-20.9763"/>
</g>
<!-- &#45;8&#45;&gt;2 -->
<g id="edge11" class="edge"><title>&#45;8&#45;&gt;2</title>
<path fill="none" stroke="red" stroke-width="0.219536" d="M146.933,-337.934C153.282,-325.604 165.671,-301.547 174.764,-283.892"/>
<polygon fill="red" stroke="red" stroke-width="0.219536" points="177.95,-285.349 179.416,-274.857 171.726,-282.145 177.95,-285.349"/>
</g>
<!-- &#45;8&#45;&gt;4042 -->
<g id="edge28" class="edge"><title>&#45;8&#45;&gt;4042</title>
<path fill="none" stroke="green" stroke-width="0.349849" d="M130.531,-341.608C110.654,-333.89 71.8436,-315.737 53.8096,-286.191 22.4662,-234.838 10.6528,-201.397 43.8096,-151.196 67.0052,-116.077 115.525,-101.53 148.882,-95.5501"/>
<polygon fill="green" stroke="green" stroke-width="0.349849" points="149.814,-98.945 159.128,-93.8946 148.698,-92.0346 149.814,-98.945"/>
</g>
<!-- 982 -->
<g id="node36" class="node"><title>982</title>
<ellipse fill="white" stroke="black" cx="285.81" cy="-175.945" rx="21.4286" ry="21.4286"/>
<text text-anchor="middle" x="285.81" y="-173.745" font-family="Times New Roman,serif" font-size="9.00">982</text>
</g>
<!-- &#45;8&#45;&gt;982 -->
<g id="edge19" class="edge"><title>&#45;8&#45;&gt;982</title>
<path fill="none" stroke="red" stroke-width="0.298754" d="M141.886,-337.841C140.109,-318.299 138.253,-267.875 161.81,-236.693 173.95,-220.623 223.863,-199.812 256.543,-187.47"/>
<polygon fill="red" stroke="red" stroke-width="0.298754" points="257.918,-190.693 266.071,-183.926 255.478,-184.132 257.918,-190.693"/>
</g>
<!-- &#45;9 -->
<g id="node9" class="node"><title>&#45;9</title>
<polygon fill="lightgray" stroke="black" points="768.81,-511.186 744.81,-511.186 744.81,-493.186 768.81,-493.186 768.81,-511.186"/>
<text text-anchor="middle" x="756.81" y="-499.986" font-family="Times New Roman,serif" font-size="9.00">&#45;9</text>
</g>
<!-- &#45;10 -->
<g id="node10" class="node"><title>&#45;10</title>
<polygon fill="lightgray" stroke="black" points="248.31,-355.94 219.31,-355.94 219.31,-337.94 248.31,-337.94 248.31,-355.94"/>
<text text-anchor="middle" x="233.81" y="-344.74" font-family="Times New Roman,serif" font-size="9.00">&#45;10</text>
</g>
<!-- &#45;10&#45;&gt;2 -->
<g id="edge6" class="edge"><title>&#45;10&#45;&gt;2</title>
<path fill="none" stroke="green" stroke-width="0.108526" d="M229.207,-337.934C222.08,-325.535 208.135,-301.278 197.97,-283.596"/>
<polygon fill="green" stroke="green" stroke-width="0.108526" points="200.798,-281.492 192.78,-274.567 194.729,-284.981 200.798,-281.492"/>
</g>
<!-- 6072 -->
<g id="node37" class="node"><title>6072</title>
<ellipse fill="white" stroke="black" cx="484.81" cy="-261.442" rx="25" ry="25"/>
<text text-anchor="middle" x="484.81" y="-259.242" font-family="Times New Roman,serif" font-size="9.00">6072</text>
</g>
<!-- &#45;10&#45;&gt;6072 -->
<g id="edge43" class="edge"><title>&#45;10&#45;&gt;6072</title>
<path fill="none" stroke="red" stroke-width="0.7" d="M248.415,-343.254C283.488,-336.502 374.819,-317.117 445.81,-286.191 449.207,-284.711 452.665,-282.979 456.047,-281.138"/>
<polygon fill="red" stroke="red" stroke-width="0.7" points="457.835,-284.146 464.73,-276.102 454.323,-278.091 457.835,-284.146"/>
</g>
<!-- &#45;11 -->
<g id="node11" class="node"><title>&#45;11</title>
<polygon fill="lightgray" stroke="black" points="816.31,-511.186 787.31,-511.186 787.31,-493.186 816.31,-493.186 816.31,-511.186"/>
<text text-anchor="middle" x="801.81" y="-499.986" font-family="Times New Roman,serif" font-size="9.00">&#45;11</text>
</g>
<!-- &#45;12 -->
<g id="node12" class="node"><title>&#45;12</title>
<polygon fill="lightgray" stroke="black" points="92.3096,-270.442 63.3096,-270.442 63.3096,-252.442 92.3096,-252.442 92.3096,-270.442"/>
<text text-anchor="middle" x="77.8096" y="-259.242" font-family="Times New Roman,serif" font-size="9.00">&#45;12</text>
</g>
<!-- 4211 -->
<g id="node34" class="node"><title>4211</title>
<ellipse fill="white" stroke="black" cx="77.8096" cy="-175.945" rx="25" ry="25"/>
<text text-anchor="middle" x="77.8096" y="-173.745" font-family="Times New Roman,serif" font-size="9.00">4211</text>
</g>
<!-- &#45;12&#45;&gt;4211 -->
<g id="edge24" class="edge"><title>&#45;12&#45;&gt;4211</title>
<path fill="none" stroke="red" stroke-width="0.341296" d="M77.8096,-252.436C77.8096,-242.885 77.8096,-226.295 77.8096,-211.096"/>
<polygon fill="red" stroke="red" stroke-width="0.341296" points="81.3097,-210.9 77.8096,-200.9 74.3097,-210.9 81.3097,-210.9"/>
</g>
<!-- &#45;13 -->
<g id="node13" class="node"><title>&#45;13</title>
<polygon fill="lightgray" stroke="black" points="403.31,-270.442 374.31,-270.442 374.31,-252.442 403.31,-252.442 403.31,-270.442"/>
<text text-anchor="middle" x="388.81" y="-259.242" font-family="Times New Roman,serif" font-size="9.00">&#45;13</text>
</g>
<!-- &#45;13&#45;&gt;0 -->
<g id="edge7" class="edge"><title>&#45;13&#45;&gt;0</title>
<path fill="none" stroke="red" stroke-width="0.454654" d="M398.449,-252.419C417.105,-236.863 456.523,-203.846 458.81,-200.693 478.026,-174.198 490.77,-138.29 497.644,-114.996"/>
<polygon fill="red" stroke="red" stroke-width="0.454654" points="501.044,-115.835 500.392,-105.261 494.307,-113.934 501.044,-115.835"/>
</g>
<!-- &#45;13&#45;&gt;1 -->
<g id="edge12" class="edge"><title>&#45;13&#45;&gt;1</title>
<path fill="none" stroke="green" stroke-width="0.181944" stroke-dasharray="1,5" d="M395.978,-252.264C404.994,-241.377 419.999,-221.112 425.81,-200.693 441.911,-144.108 424.467,-74.4624 413.063,-38.9917"/>
<polygon fill="green" stroke="green" stroke-width="0.181944" points="416.256,-37.5041 409.761,-29.133 409.618,-39.7269 416.256,-37.5041"/>
</g>
<!-- &#45;13&#45;&gt;982 -->
<g id="edge9" class="edge"><title>&#45;13&#45;&gt;982</title>
<path fill="none" stroke="red" stroke-width="0.166137" d="M378.934,-252.436C363.128,-239.623 331.7,-214.146 309.746,-196.349"/>
<polygon fill="red" stroke="red" stroke-width="0.166137" points="311.821,-193.525 301.849,-189.947 307.413,-198.963 311.821,-193.525"/>
</g>
<!-- &#45;14 -->
<g id="node14" class="node"><title>&#45;14</title>
<polygon fill="lightgray" stroke="black" points="784.31,-441.437 755.31,-441.437 755.31,-423.437 784.31,-423.437 784.31,-441.437"/>
<text text-anchor="middle" x="769.81" y="-430.237" font-family="Times New Roman,serif" font-size="9.00">&#45;14</text>
</g>
<!-- &#45;14&#45;&gt;0 -->
<g id="edge15" class="edge"><title>&#45;14&#45;&gt;0</title>
<path fill="none" stroke="green" stroke-width="0.202724" d="M769.239,-423.337C766.108,-385.47 747.561,-224.671 654.81,-151.196 608.822,-114.766 578.483,-144.762 527.81,-115.196 525.152,-113.645 522.574,-111.731 520.157,-109.669"/>
<polygon fill="green" stroke="green" stroke-width="0.202724" points="522.278,-106.851 512.665,-102.396 517.402,-111.873 522.278,-106.851"/>
</g>
<!-- &#45;14&#45;&gt;3 -->
<g id="edge3" class="edge"><title>&#45;14&#45;&gt;3</title>
<path fill="none" stroke="red" stroke-width="0.265431" d="M765.591,-423.431C759.094,-411.101 746.416,-387.044 737.113,-369.389"/>
<polygon fill="red" stroke="red" stroke-width="0.265431" points="740.11,-367.569 732.352,-360.354 733.917,-370.833 740.11,-367.569"/>
</g>
<!-- &#45;15 -->
<g id="node15" class="node"><title>&#45;15</title>
<polygon fill="lightgray" stroke="black" points="578.31,-184.945 549.31,-184.945 549.31,-166.945 578.31,-166.945 578.31,-184.945"/>
<text text-anchor="middle" x="563.81" y="-173.745" font-family="Times New Roman,serif" font-size="9.00">&#45;15</text>
</g>
<!-- &#45;15&#45;&gt;0 -->
<g id="edge20" class="edge"><title>&#45;15&#45;&gt;0</title>
<path fill="none" stroke="red" stroke-width="0.162321" d="M558.057,-166.939C548.965,-154.286 530.999,-129.285 518.236,-111.524"/>
<polygon fill="red" stroke="red" stroke-width="0.162321" points="520.789,-109.078 512.111,-103 515.104,-113.163 520.789,-109.078"/>
</g>
<!-- &#45;16 -->
<g id="node16" class="node"><title>&#45;16</title>
<polygon fill="lightgray" stroke="black" points="863.31,-511.186 834.31,-511.186 834.31,-493.186 863.31,-493.186 863.31,-511.186"/>
<text text-anchor="middle" x="848.81" y="-499.986" font-family="Times New Roman,serif" font-size="9.00">&#45;16</text>
</g>
<!-- &#45;17 -->
<g id="node17" class="node"><title>&#45;17</title>
<polygon fill="lightgray" stroke="black" points="910.31,-511.186 881.31,-511.186 881.31,-493.186 910.31,-493.186 910.31,-511.186"/>
<text text-anchor="middle" x="895.81" y="-499.986" font-family="Times New Roman,serif" font-size="9.00">&#45;17</text>
</g>
<!-- &#45;18 -->
<g id="node18" class="node"><title>&#45;18</title>
<polygon fill="lightgray" stroke="black" points="957.31,-511.186 928.31,-511.186 928.31,-493.186 957.31,-493.186 957.31,-511.186"/>
<text text-anchor="middle" x="942.81" y="-499.986" font-family="Times New Roman,serif" font-size="9.00">&#45;18</text>
</g>
<!-- &#45;19 -->
<g id="node19" class="node"><title>&#45;19</title>
<polygon fill="lightgray" stroke="black" points="497.31,-511.186 468.31,-511.186 468.31,-493.186 497.31,-493.186 497.31,-511.186"/>
<text text-anchor="middle" x="482.81" y="-499.986" font-family="Times New Roman,serif" font-size="9.00">&#45;19</text>
</g>
<!-- 5160 -->
<g id="node30" class="node"><title>5160</title>
<ellipse fill="white" stroke="black" cx="510.81" cy="-346.94" rx="25" ry="25"/>
<text text-anchor="middle" x="510.81" y="-344.74" font-family="Times New Roman,serif" font-size="9.00">5160</text>
</g>
<!-- &#45;19&#45;&gt;5160 -->
<g id="edge31" class="edge"><title>&#45;19&#45;&gt;5160</title>
<path fill="none" stroke="green" stroke-width="0.3" d="M484.315,-492.947C488.089,-472.294 498.119,-417.394 504.699,-381.384"/>
<polygon fill="green" stroke="green" stroke-width="0.3" points="508.183,-381.79 506.537,-371.324 501.297,-380.532 508.183,-381.79"/>
</g>
<!-- 4555 -->
<g id="node32" class="node"><title>4555</title>
<ellipse fill="white" stroke="black" cx="535.81" cy="-432.437" rx="25" ry="25"/>
<text text-anchor="middle" x="535.81" y="-430.237" font-family="Times New Roman,serif" font-size="9.00">4555</text>
</g>
<!-- &#45;19&#45;&gt;4555 -->
<g id="edge25" class="edge"><title>&#45;19&#45;&gt;4555</title>
<path fill="none" stroke="green" stroke-width="0.3" d="M489.098,-493.148C495.425,-485.06 505.537,-472.134 514.737,-460.374"/>
<polygon fill="green" stroke="green" stroke-width="0.3" points="517.498,-462.525 520.903,-452.492 511.985,-458.212 517.498,-462.525"/>
</g>
<!-- 6748 -->
<g id="node40" class="node"><title>6748</title>
<ellipse fill="white" stroke="black" cx="183.81" cy="-175.945" rx="25" ry="25"/>
<text text-anchor="middle" x="183.81" y="-173.745" font-family="Times New Roman,serif" font-size="9.00">6748</text>
</g>
<!-- &#45;19&#45;&gt;6748 -->
<g id="edge46" class="edge"><title>&#45;19&#45;&gt;6748</title>
<path fill="none" stroke="green" stroke-width="0.20337" d="M474.802,-493.109C454.809,-472.896 401.189,-418.396 357.81,-371.688 302.592,-312.234 239.541,-240.732 206.595,-203.084"/>
<polygon fill="green" stroke="green" stroke-width="0.20337" points="208.869,-200.368 199.653,-195.142 203.599,-204.975 208.869,-200.368"/>
</g>
<!-- &#45;20 -->
<g id="node20" class="node"><title>&#45;20</title>
<polygon fill="lightgray" stroke="black" points="1004.31,-511.186 975.31,-511.186 975.31,-493.186 1004.31,-493.186 1004.31,-511.186"/>
<text text-anchor="middle" x="989.81" y="-499.986" font-family="Times New Roman,serif" font-size="9.00">&#45;20</text>
</g>
<!-- &#45;21 -->
<g id="node21" class="node"><title>&#45;21</title>
<polygon fill="lightgray" stroke="black" points="642.31,-511.186 613.31,-511.186 613.31,-493.186 642.31,-493.186 642.31,-511.186"/>
<text text-anchor="middle" x="627.81" y="-499.986" font-family="Times New Roman,serif" font-size="9.00">&#45;21</text>
</g>
<!-- 5682 -->
<g id="node35" class="node"><title>5682</title>
<ellipse fill="white" stroke="black" cx="627.81" cy="-432.437" rx="25" ry="25"/>
<text text-anchor="middle" x="627.81" y="-430.237" font-family="Times New Roman,serif" font-size="9.00">5682</text>
</g>
<!-- &#45;21&#45;&gt;5682 -->
<g id="edge38" class="edge"><title>&#45;21&#45;&gt;5682</title>
<path fill="none" stroke="green" stroke-width="0.418251" d="M627.81,-493.148C627.81,-486.713 627.81,-477.215 627.81,-467.679"/>
<polygon fill="green" stroke="green" stroke-width="0.418251" points="631.31,-467.458 627.81,-457.458 624.31,-467.458 631.31,-467.458"/>
</g>
<!-- &#45;22 -->
<g id="node22" class="node"><title>&#45;22</title>
<polygon fill="lightgray" stroke="black" points="1051.31,-511.186 1022.31,-511.186 1022.31,-493.186 1051.31,-493.186 1051.31,-511.186"/>
<text text-anchor="middle" x="1036.81" y="-499.986" font-family="Times New Roman,serif" font-size="9.00">&#45;22</text>
</g>
<!-- &#45;23 -->
<g id="node23" class="node"><title>&#45;23</title>
<polygon fill="lightgray" stroke="black" points="396.31,-355.94 367.31,-355.94 367.31,-337.94 396.31,-337.94 396.31,-355.94"/>
<text text-anchor="middle" x="381.81" y="-344.74" font-family="Times New Roman,serif" font-size="9.00">&#45;23</text>
</g>
<!-- &#45;23&#45;&gt;2 -->
<g id="edge2" class="edge"><title>&#45;23&#45;&gt;2</title>
<path fill="none" stroke="red" stroke-width="0.192655" d="M367.078,-339.664C333.1,-325.189 249.055,-289.385 208.466,-272.094"/>
<polygon fill="red" stroke="red" stroke-width="0.192655" points="209.711,-268.82 199.139,-268.121 206.968,-275.26 209.711,-268.82"/>
</g>
<!-- 2136 -->
<g id="node38" class="node"><title>2136</title>
<ellipse fill="white" stroke="black" cx="620.81" cy="-175.945" rx="25" ry="25"/>
<text text-anchor="middle" x="620.81" y="-173.745" font-family="Times New Roman,serif" font-size="9.00">2136</text>
</g>
<!-- &#45;23&#45;&gt;2136 -->
<g id="edge18" class="edge"><title>&#45;23&#45;&gt;2136</title>
<path fill="none" stroke="green" stroke-width="0.101108" stroke-dasharray="1,5" d="M396.471,-342.493C423.25,-335.606 480.808,-318.006 518.81,-286.191 539.083,-269.218 534.324,-256.526 551.81,-236.693 564.306,-222.519 580.133,-208.585 593.475,-197.744"/>
<polygon fill="green" stroke="green" stroke-width="0.101108" points="595.772,-200.389 601.41,-191.418 591.409,-194.915 595.772,-200.389"/>
</g>
<!-- &#45;24 -->
<g id="node24" class="node"><title>&#45;24</title>
<polygon fill="lightgray" stroke="black" points="349.31,-270.442 320.31,-270.442 320.31,-252.442 349.31,-252.442 349.31,-270.442"/>
<text text-anchor="middle" x="334.81" y="-259.242" font-family="Times New Roman,serif" font-size="9.00">&#45;24</text>
</g>
<!-- 5061 -->
<g id="node29" class="node"><title>5061</title>
<ellipse fill="white" stroke="black" cx="349.81" cy="-175.945" rx="25" ry="25"/>
<text text-anchor="middle" x="349.81" y="-173.745" font-family="Times New Roman,serif" font-size="9.00">5061</text>
</g>
<!-- &#45;24&#45;&gt;5061 -->
<g id="edge29" class="edge"><title>&#45;24&#45;&gt;5061</title>
<path fill="none" stroke="green" stroke-width="0.3" d="M336.248,-252.436C337.976,-242.818 340.985,-226.065 343.731,-210.78"/>
<polygon fill="green" stroke="green" stroke-width="0.3" points="347.248,-211 345.571,-200.539 340.358,-209.762 347.248,-211"/>
</g>
<!-- &#45;24&#45;&gt;4042 -->
<g id="edge22" class="edge"><title>&#45;24&#45;&gt;4042</title>
<path fill="none" stroke="green" stroke-width="0.3" d="M321.407,-252.336C304.745,-241.828 276.035,-222.274 255.81,-200.693 233.284,-176.658 213.174,-144.797 199.971,-121.689"/>
<polygon fill="green" stroke="green" stroke-width="0.3" points="202.863,-119.69 194.919,-112.679 196.758,-123.113 202.863,-119.69"/>
</g>
<!-- 2&#45;&gt;4042 -->
<g id="edge33" class="edge"><title>2&#45;&gt;4042</title>
<path fill="none" stroke="green" stroke-width="0.173786" stroke-dasharray="1,5" d="M176.608,-249.413C167.764,-238.034 154.999,-219.362 149.81,-200.693 143.918,-179.498 144.182,-172.463 149.81,-151.196 152.725,-140.179 158.195,-129.068 163.909,-119.466"/>
<polygon fill="green" stroke="green" stroke-width="0.173786" points="167.016,-121.101 169.387,-110.775 161.094,-117.369 167.016,-121.101"/>
</g>
<!-- 2&#45;&gt;6748 -->
<g id="edge44" class="edge"><title>2&#45;&gt;6748</title>
<path fill="none" stroke="green" stroke-width="0.3" d="M185.47,-246.278C185.239,-236.609 184.922,-223.367 184.626,-211.045"/>
<polygon fill="green" stroke="green" stroke-width="0.3" points="188.125,-210.923 184.386,-201.01 181.127,-211.091 188.125,-210.923"/>
</g>
<!-- 5160&#45;&gt;6072 -->
<g id="edge40" class="edge"><title>5160&#45;&gt;6072</title>
<path fill="none" stroke="green" stroke-width="0.3" d="M503.705,-323.124C501.011,-314.471 497.888,-304.443 494.967,-295.061"/>
<polygon fill="green" stroke="green" stroke-width="0.3" points="498.221,-293.738 491.906,-285.231 491.537,-295.819 498.221,-293.738"/>
</g>
<!-- 5160&#45;&gt;2136 -->
<g id="edge32" class="edge"><title>5160&#45;&gt;2136</title>
<path fill="none" stroke="red" stroke-width="0.375768" stroke-dasharray="1,5" d="M524.667,-326.152C532.703,-314.577 542.953,-299.639 551.81,-286.191 569.485,-259.351 588.987,-228.339 602.735,-206.229"/>
<polygon fill="red" stroke="red" stroke-width="0.375768" points="605.771,-207.974 608.07,-197.632 599.823,-204.283 605.771,-207.974"/>
</g>
<!-- 4042&#45;&gt;1 -->
<g id="edge23" class="edge"><title>4042&#45;&gt;1</title>
<path fill="none" stroke="red" stroke-width="0.130635" d="M207.043,-81.7101C249.428,-67.5947 338.846,-37.8166 381.378,-23.6525"/>
<polygon fill="red" stroke="red" stroke-width="0.130635" points="382.508,-26.9653 390.89,-20.4849 380.296,-20.3239 382.508,-26.9653"/>
</g>
<!-- 4555&#45;&gt;5160 -->
<g id="edge35" class="edge"><title>4555&#45;&gt;5160</title>
<path fill="none" stroke="green" stroke-width="0.344822" d="M528.978,-408.621C526.409,-400.04 523.434,-390.105 520.645,-380.79"/>
<polygon fill="green" stroke="green" stroke-width="0.344822" points="523.941,-379.594 517.72,-371.018 517.235,-381.602 523.941,-379.594"/>
</g>
<!-- 4825 -->
<g id="node39" class="node"><title>4825</title>
<ellipse fill="white" stroke="black" cx="628.81" cy="-261.442" rx="25" ry="25"/>
<text text-anchor="middle" x="628.81" y="-259.242" font-family="Times New Roman,serif" font-size="9.00">4825</text>
</g>
<!-- 4555&#45;&gt;4825 -->
<g id="edge26" class="edge"><title>4555&#45;&gt;4825</title>
<path fill="none" stroke="green" stroke-width="0.3" d="M547.202,-410.009C558.984,-387.927 577.981,-352.542 594.81,-322.191 600.248,-312.383 606.275,-301.725 611.726,-292.162"/>
<polygon fill="green" stroke="green" stroke-width="0.3" points="614.814,-293.812 616.737,-283.393 608.736,-290.339 614.814,-293.812"/>
</g>
<!-- 4850&#45;&gt;4825 -->
<g id="edge39" class="edge"><title>4850&#45;&gt;4825</title>
<path fill="none" stroke="red" stroke-width="0.556391" d="M628.81,-321.789C628.81,-313.845 628.81,-304.86 628.81,-296.33"/>
<polygon fill="red" stroke="red" stroke-width="0.556391" points="632.31,-296.25 628.81,-286.25 625.31,-296.251 632.31,-296.25"/>
</g>
<!-- 4211&#45;&gt;4042 -->
<g id="edge34" class="edge"><title>4211&#45;&gt;4042</title>
<path fill="none" stroke="red" stroke-width="0.206857" d="M96.7603,-160.017C113.463,-146.86 137.991,-127.539 156.757,-112.757"/>
<polygon fill="red" stroke="red" stroke-width="0.206857" points="158.976,-115.465 164.666,-106.527 154.644,-109.966 158.976,-115.465"/>
</g>
<!-- 5682&#45;&gt;4850 -->
<g id="edge37" class="edge"><title>5682&#45;&gt;4850</title>
<path fill="none" stroke="green" stroke-width="0.3" d="M628.099,-407.286C628.194,-399.342 628.302,-390.358 628.404,-381.827"/>
<polygon fill="green" stroke="green" stroke-width="0.3" points="631.904,-381.789 628.524,-371.748 624.905,-381.705 631.904,-381.789"/>
</g>
<!-- 982&#45;&gt;0 -->
<g id="edge10" class="edge"><title>982&#45;&gt;0</title>
<path fill="none" stroke="red" stroke-width="0.229582" stroke-dasharray="1,5" d="M301.254,-160.984C305.725,-157.438 310.765,-153.878 315.81,-151.196 370.579,-122.076 441.955,-104.253 479.024,-96.3182"/>
<polygon fill="red" stroke="red" stroke-width="0.229582" points="479.87,-99.7171 488.949,-94.256 478.446,-92.8635 479.87,-99.7171"/>
</g>
<!-- 982&#45;&gt;1 -->
<g id="edge8" class="edge"><title>982&#45;&gt;1</title>
<path fill="none" stroke="red" stroke-width="0.5297" d="M298.096,-158.518C320.243,-128.91 366.744,-66.7405 390.37,-35.1535"/>
<polygon fill="red" stroke="red" stroke-width="0.5297" points="393.201,-37.212 396.388,-27.1078 387.596,-33.0192 393.201,-37.212"/>
</g>
<!-- 6072&#45;&gt;5061 -->
<g id="edge42" class="edge"><title>6072&#45;&gt;5061</title>
<path fill="none" stroke="red" stroke-width="0.305809" d="M463.638,-248.538C443.005,-236.793 410.876,-218.117 383.81,-200.693 381.94,-199.49 380.027,-198.232 378.109,-196.949"/>
<polygon fill="red" stroke="red" stroke-width="0.305809" points="380.008,-194.008 369.775,-191.264 376.063,-199.791 380.008,-194.008"/>
</g>
<!-- 6072&#45;&gt;2136 -->
<g id="edge41" class="edge"><title>6072&#45;&gt;2136</title>
<path fill="none" stroke="red" stroke-width="0.375768" d="M505.795,-247.516C511.61,-243.975 517.938,-240.158 523.81,-236.693 551.584,-220.305 559.563,-217.945 586.81,-200.693 588.688,-199.504 590.608,-198.256 592.532,-196.982"/>
<polygon fill="red" stroke="red" stroke-width="0.375768" points="594.57,-199.828 600.877,-191.315 590.638,-194.037 594.57,-199.828"/>
</g>
<!-- 2136&#45;&gt;0 -->
<g id="edge16" class="edge"><title>2136&#45;&gt;0</title>
<path fill="none" stroke="green" stroke-width="0.430805" d="M600.814,-160.672C596.248,-157.498 591.39,-154.189 586.81,-151.196 561.095,-134.393 552.001,-134.127 527.81,-115.196 525.473,-113.367 523.121,-111.333 520.853,-109.246"/>
<polygon fill="green" stroke="green" stroke-width="0.430805" points="523.202,-106.648 513.6,-102.17 518.314,-111.659 523.202,-106.648"/>
</g>
<!-- 4825&#45;&gt;2136 -->
<g id="edge27" class="edge"><title>4825&#45;&gt;2136</title>
<path fill="none" stroke="red" stroke-width="0.375768" d="M626.539,-236.738C625.77,-228.718 624.896,-219.596 624.066,-210.937"/>
<polygon fill="red" stroke="red" stroke-width="0.375768" points="627.524,-210.328 623.086,-200.708 620.556,-210.996 627.524,-210.328"/>
</g>
<!-- 6748&#45;&gt;4042 -->
<g id="edge45" class="edge"><title>6748&#45;&gt;4042</title>
<path fill="none" stroke="green" stroke-width="0.173786" d="M183.81,-150.794C183.81,-142.85 183.81,-133.865 183.81,-125.335"/>
<polygon fill="green" stroke="green" stroke-width="0.173786" points="187.31,-125.255 183.81,-115.256 180.31,-125.256 187.31,-125.255"/>
</g>
</g>
</svg>
