<?xml version="1.0" encoding="UTF-8" standalone="no"?>
<!DOCTYPE svg PUBLIC "-//W3C//DTD SVG 1.1//EN"
 "http://www.w3.org/Graphics/SVG/1.1/DTD/svg11.dtd">
<!-- Generated by graphviz version 2.38.0 (20140413.2041)
 -->
<!-- Title: %3 Pages: 1 -->
<svg width="995pt" height="539pt"
 viewBox="0.00 0.00 995.25 538.98" xmlns="http://www.w3.org/2000/svg" xmlns:xlink="http://www.w3.org/1999/xlink">
<g id="graph0" class="graph" transform="scale(1 1) rotate(0) translate(4 534.985)">
<title>%3</title>
<polygon fill="white" stroke="none" points="-4,4 -4,-534.985 991.249,-534.985 991.249,4 -4,4"/>
<!-- &#45;1 -->
<g id="node1" class="node"><title>&#45;1</title>
<polygon fill="lightgray" stroke="black" points="477.749,-461.236 453.749,-461.236 453.749,-443.236 477.749,-443.236 477.749,-461.236"/>
<text text-anchor="middle" x="465.749" y="-450.036" font-family="Times New Roman,serif" font-size="9.00">&#45;1</text>
</g>
<!-- 913 -->
<g id="node33" class="node"><title>913</title>
<ellipse fill="white" stroke="black" cx="480.749" cy="-195.744" rx="21.4286" ry="21.4286"/>
<text text-anchor="middle" x="480.749" y="-193.544" font-family="Times New Roman,serif" font-size="9.00">913</text>
</g>
<!-- &#45;1&#45;&gt;913 -->
<g id="edge16" class="edge"><title>&#45;1&#45;&gt;913</title>
<path fill="none" stroke="green" stroke-width="0.161662" stroke-dasharray="1,5" d="M459.716,-443.132C440.183,-415.837 381.69,-325.127 412.749,-256.492 421.198,-237.821 438.684,-222.668 453.808,-212.294"/>
<polygon fill="green" stroke="green" stroke-width="0.161662" points="455.871,-215.128 462.354,-206.748 452.06,-209.256 455.871,-215.128"/>
</g>
<!-- 2590 -->
<g id="node35" class="node"><title>2590</title>
<ellipse fill="white" stroke="black" cx="446.749" cy="-281.241" rx="25" ry="25"/>
<text text-anchor="middle" x="446.749" y="-279.041" font-family="Times New Roman,serif" font-size="9.00">2590</text>
</g>
<!-- &#45;1&#45;&gt;2590 -->
<g id="edge48" class="edge"><title>&#45;1&#45;&gt;2590</title>
<path fill="none" stroke="green" stroke-width="0.3" d="M461.092,-443.063C455,-431.855 444.644,-410.89 440.749,-391.487 435.736,-366.521 437.619,-337.743 440.55,-315.993"/>
<polygon fill="green" stroke="green" stroke-width="0.3" points="444.038,-316.334 442.047,-305.928 437.114,-315.304 444.038,-316.334"/>
</g>
<!-- 1875 -->
<g id="node41" class="node"><title>1875</title>
<ellipse fill="white" stroke="black" cx="610.749" cy="-366.739" rx="25" ry="25"/>
<text text-anchor="middle" x="610.749" y="-364.539" font-family="Times New Roman,serif" font-size="9.00">1875</text>
</g>
<!-- &#45;1&#45;&gt;1875 -->
<g id="edge22" class="edge"><title>&#45;1&#45;&gt;1875</title>
<path fill="none" stroke="green" stroke-width="0.3" d="M477.813,-445.464C498.662,-435.345 542.578,-413.388 577.749,-391.487 579.411,-390.452 581.101,-389.362 582.793,-388.242"/>
<polygon fill="green" stroke="green" stroke-width="0.3" points="584.893,-391.045 591.15,-382.495 580.927,-385.277 584.893,-391.045"/>
</g>
<!-- &#45;2 -->
<g id="node2" class="node"><title>&#45;2</title>
<polygon fill="lightgray" stroke="black" points="296.749,-375.739 272.749,-375.739 272.749,-357.739 296.749,-357.739 296.749,-375.739"/>
<text text-anchor="middle" x="284.749" y="-364.539" font-family="Times New Roman,serif" font-size="9.00">&#45;2</text>
</g>
<!-- 3 -->
<g id="node28" class="node"><title>3</title>
<ellipse fill="lightblue" stroke="black" cx="350.749" cy="-281.241" rx="14.7" ry="14.7"/>
<text text-anchor="middle" x="350.749" y="-279.041" font-family="Times New Roman,serif" font-size="9.00">3</text>
</g>
<!-- &#45;2&#45;&gt;3 -->
<g id="edge19" class="edge"><title>&#45;2&#45;&gt;3</title>
<path fill="none" stroke="red" stroke-width="0.122916" d="M291.077,-357.733C301.225,-344.894 321.424,-319.34 335.496,-301.538"/>
<polygon fill="red" stroke="red" stroke-width="0.122916" points="338.385,-303.527 341.84,-293.511 332.893,-299.186 338.385,-303.527"/>
</g>
<!-- 2568 -->
<g id="node31" class="node"><title>2568</title>
<ellipse fill="white" stroke="black" cx="285.749" cy="-110.246" rx="25" ry="25"/>
<text text-anchor="middle" x="285.749" y="-108.046" font-family="Times New Roman,serif" font-size="9.00">2568</text>
</g>
<!-- &#45;2&#45;&gt;2568 -->
<g id="edge45" class="edge"><title>&#45;2&#45;&gt;2568</title>
<path fill="none" stroke="green" stroke-width="0.3" d="M284.781,-357.559C284.908,-325.215 285.38,-205.1 285.615,-145.391"/>
<polygon fill="green" stroke="green" stroke-width="0.3" points="289.115,-145.335 285.654,-135.322 282.115,-145.308 289.115,-145.335"/>
</g>
<!-- 2504 -->
<g id="node38" class="node"><title>2504</title>
<ellipse fill="white" stroke="black" cx="216.749" cy="-281.241" rx="25" ry="25"/>
<text text-anchor="middle" x="216.749" y="-279.041" font-family="Times New Roman,serif" font-size="9.00">2504</text>
</g>
<!-- &#45;2&#45;&gt;2504 -->
<g id="edge43" class="edge"><title>&#45;2&#45;&gt;2504</title>
<path fill="none" stroke="green" stroke-width="0.3" d="M278.229,-357.733C269.144,-346.578 252.242,-325.824 238.456,-308.896"/>
<polygon fill="green" stroke="green" stroke-width="0.3" points="241.015,-306.496 231.987,-300.952 235.588,-310.916 241.015,-306.496"/>
</g>
<!-- 1490 -->
<g id="node40" class="node"><title>1490</title>
<ellipse fill="white" stroke="black" cx="336.749" cy="-24.7487" rx="25" ry="25"/>
<text text-anchor="middle" x="336.749" y="-22.5487" font-family="Times New Roman,serif" font-size="9.00">1490</text>
</g>
<!-- &#45;2&#45;&gt;1490 -->
<g id="edge20" class="edge"><title>&#45;2&#45;&gt;1490</title>
<path fill="none" stroke="red" stroke-width="0.362176" stroke-dasharray="1,5" d="M287.827,-357.7C302.365,-319.666 363.626,-158.638 367.749,-134.995 371.528,-113.323 372.963,-106.869 367.749,-85.4975 365.173,-74.9391 360.377,-64.1668 355.315,-54.7294"/>
<polygon fill="red" stroke="red" stroke-width="0.362176" points="358.22,-52.7583 350.236,-45.7944 352.135,-56.2176 358.22,-52.7583"/>
</g>
<!-- &#45;3 -->
<g id="node3" class="node"><title>&#45;3</title>
<polygon fill="lightgray" stroke="black" points="520.749,-375.739 496.749,-375.739 496.749,-357.739 520.749,-357.739 520.749,-375.739"/>
<text text-anchor="middle" x="508.749" y="-364.539" font-family="Times New Roman,serif" font-size="9.00">&#45;3</text>
</g>
<!-- 2297 -->
<g id="node44" class="node"><title>2297</title>
<ellipse fill="white" stroke="black" cx="513.749" cy="-281.241" rx="25" ry="25"/>
<text text-anchor="middle" x="513.749" y="-279.041" font-family="Times New Roman,serif" font-size="9.00">2297</text>
</g>
<!-- &#45;3&#45;&gt;2297 -->
<g id="edge42" class="edge"><title>&#45;3&#45;&gt;2297</title>
<path fill="none" stroke="green" stroke-width="0.245889" d="M509.228,-357.733C509.8,-348.181 510.794,-331.592 511.704,-316.393"/>
<polygon fill="green" stroke="green" stroke-width="0.245889" points="515.21,-316.388 512.314,-306.196 508.223,-315.969 515.21,-316.388"/>
</g>
<!-- &#45;4 -->
<g id="node4" class="node"><title>&#45;4</title>
<polygon fill="lightgray" stroke="black" points="667.749,-530.985 643.749,-530.985 643.749,-512.985 667.749,-512.985 667.749,-530.985"/>
<text text-anchor="middle" x="655.749" y="-519.785" font-family="Times New Roman,serif" font-size="9.00">&#45;4</text>
</g>
<!-- &#45;5 -->
<g id="node5" class="node"><title>&#45;5</title>
<polygon fill="lightgray" stroke="black" points="715.749,-375.739 691.749,-375.739 691.749,-357.739 715.749,-357.739 715.749,-375.739"/>
<text text-anchor="middle" x="703.749" y="-364.539" font-family="Times New Roman,serif" font-size="9.00">&#45;5</text>
</g>
<!-- 2059 -->
<g id="node32" class="node"><title>2059</title>
<ellipse fill="white" stroke="black" cx="699.749" cy="-281.241" rx="25" ry="25"/>
<text text-anchor="middle" x="699.749" y="-279.041" font-family="Times New Roman,serif" font-size="9.00">2059</text>
</g>
<!-- &#45;5&#45;&gt;2059 -->
<g id="edge41" class="edge"><title>&#45;5&#45;&gt;2059</title>
<path fill="none" stroke="red" stroke-width="0.19246" d="M703.365,-357.733C702.908,-348.181 702.113,-331.592 701.385,-316.393"/>
<polygon fill="red" stroke="red" stroke-width="0.19246" points="704.871,-316.017 700.896,-306.196 697.879,-316.352 704.871,-316.017"/>
</g>
<!-- &#45;6 -->
<g id="node6" class="node"><title>&#45;6</title>
<polygon fill="lightgray" stroke="black" points="321.749,-204.744 297.749,-204.744 297.749,-186.744 321.749,-186.744 321.749,-204.744"/>
<text text-anchor="middle" x="309.749" y="-193.544" font-family="Times New Roman,serif" font-size="9.00">&#45;6</text>
</g>
<!-- 1 -->
<g id="node26" class="node"><title>1</title>
<ellipse fill="lightblue" stroke="black" cx="343.749" cy="-110.246" rx="14.7" ry="14.7"/>
<text text-anchor="middle" x="343.749" y="-108.046" font-family="Times New Roman,serif" font-size="9.00">1</text>
</g>
<!-- &#45;6&#45;&gt;1 -->
<g id="edge6" class="edge"><title>&#45;6&#45;&gt;1</title>
<path fill="none" stroke="red" stroke-width="0.289567" d="M313.009,-186.738C317.927,-174.659 327.429,-151.324 334.573,-133.78"/>
<polygon fill="red" stroke="red" stroke-width="0.289567" points="337.925,-134.83 338.454,-124.248 331.441,-132.19 337.925,-134.83"/>
</g>
<!-- &#45;6&#45;&gt;2568 -->
<g id="edge53" class="edge"><title>&#45;6&#45;&gt;2568</title>
<path fill="none" stroke="red" stroke-width="0.126352" d="M307.448,-186.738C304.618,-176.893 299.64,-159.573 295.165,-144.005"/>
<polygon fill="red" stroke="red" stroke-width="0.126352" points="298.451,-142.767 292.324,-134.123 291.723,-144.7 298.451,-142.767"/>
</g>
<!-- &#45;7 -->
<g id="node7" class="node"><title>&#45;7</title>
<polygon fill="lightgray" stroke="black" points="709.749,-530.985 685.749,-530.985 685.749,-512.985 709.749,-512.985 709.749,-530.985"/>
<text text-anchor="middle" x="697.749" y="-519.785" font-family="Times New Roman,serif" font-size="9.00">&#45;7</text>
</g>
<!-- &#45;8 -->
<g id="node8" class="node"><title>&#45;8</title>
<polygon fill="lightgray" stroke="black" points="656.749,-290.241 632.749,-290.241 632.749,-272.241 656.749,-272.241 656.749,-290.241"/>
<text text-anchor="middle" x="644.749" y="-279.041" font-family="Times New Roman,serif" font-size="9.00">&#45;8</text>
</g>
<!-- 889 -->
<g id="node43" class="node"><title>889</title>
<ellipse fill="white" stroke="black" cx="670.749" cy="-195.744" rx="21.4286" ry="21.4286"/>
<text text-anchor="middle" x="670.749" y="-193.544" font-family="Times New Roman,serif" font-size="9.00">889</text>
</g>
<!-- &#45;8&#45;&gt;889 -->
<g id="edge34" class="edge"><title>&#45;8&#45;&gt;889</title>
<path fill="none" stroke="red" stroke-width="0.181177" d="M647.242,-272.235C650.547,-261.621 656.558,-242.316 661.674,-225.886"/>
<polygon fill="red" stroke="red" stroke-width="0.181177" points="665.08,-226.719 664.712,-216.131 658.397,-224.638 665.08,-226.719"/>
</g>
<!-- &#45;9 -->
<g id="node9" class="node"><title>&#45;9</title>
<polygon fill="lightgray" stroke="black" points="751.749,-530.985 727.749,-530.985 727.749,-512.985 751.749,-512.985 751.749,-530.985"/>
<text text-anchor="middle" x="739.749" y="-519.785" font-family="Times New Roman,serif" font-size="9.00">&#45;9</text>
</g>
<!-- &#45;10 -->
<g id="node10" class="node"><title>&#45;10</title>
<polygon fill="lightgray" stroke="black" points="229.249,-375.739 200.249,-375.739 200.249,-357.739 229.249,-357.739 229.249,-375.739"/>
<text text-anchor="middle" x="214.749" y="-364.539" font-family="Times New Roman,serif" font-size="9.00">&#45;10</text>
</g>
<!-- 0 -->
<g id="node25" class="node"><title>0</title>
<ellipse fill="lightblue" stroke="black" cx="158.749" cy="-281.241" rx="14.7" ry="14.7"/>
<text text-anchor="middle" x="158.749" y="-279.041" font-family="Times New Roman,serif" font-size="9.00">0</text>
</g>
<!-- &#45;10&#45;&gt;0 -->
<g id="edge17" class="edge"><title>&#45;10&#45;&gt;0</title>
<path fill="none" stroke="red" stroke-width="0.101849" d="M209.379,-357.733C200.94,-345.15 184.31,-320.353 172.41,-302.611"/>
<polygon fill="red" stroke="red" stroke-width="0.101849" points="175.165,-300.434 166.688,-294.078 169.351,-304.333 175.165,-300.434"/>
</g>
<!-- &#45;11 -->
<g id="node11" class="node"><title>&#45;11</title>
<polygon fill="lightgray" stroke="black" points="568.249,-375.739 539.249,-375.739 539.249,-357.739 568.249,-357.739 568.249,-375.739"/>
<text text-anchor="middle" x="553.749" y="-364.539" font-family="Times New Roman,serif" font-size="9.00">&#45;11</text>
</g>
<!-- &#45;11&#45;&gt;2059 -->
<g id="edge39" class="edge"><title>&#45;11&#45;&gt;2059</title>
<path fill="none" stroke="red" stroke-width="0.402513" d="M560.287,-357.4C564.547,-352.405 570.465,-346.223 576.749,-341.99 612.135,-318.148 628.243,-326.336 665.749,-305.99 667.754,-304.902 669.784,-303.72 671.802,-302.483"/>
<polygon fill="red" stroke="red" stroke-width="0.402513" points="673.993,-305.232 680.454,-296.835 670.167,-299.37 673.993,-305.232"/>
</g>
<!-- &#45;11&#45;&gt;913 -->
<g id="edge35" class="edge"><title>&#45;11&#45;&gt;913</title>
<path fill="none" stroke="red" stroke-width="0.275026" stroke-dasharray="1,5" d="M555.33,-357.541C558.564,-338.621 564.311,-290.893 547.749,-256.492 538.989,-238.297 521.933,-223.215 507.222,-212.755"/>
<polygon fill="red" stroke="red" stroke-width="0.275026" points="509.159,-209.839 498.913,-207.142 505.24,-215.64 509.159,-209.839"/>
</g>
<!-- &#45;11&#45;&gt;2297 -->
<g id="edge37" class="edge"><title>&#45;11&#45;&gt;2297</title>
<path fill="none" stroke="green" stroke-width="0.3" d="M549.913,-357.733C545.01,-347.496 536.233,-329.176 528.555,-313.147"/>
<polygon fill="green" stroke="green" stroke-width="0.3" points="531.675,-311.559 524.198,-304.053 525.362,-314.584 531.675,-311.559"/>
</g>
<!-- &#45;12 -->
<g id="node12" class="node"><title>&#45;12</title>
<polygon fill="lightgray" stroke="black" points="608.249,-461.236 579.249,-461.236 579.249,-443.236 608.249,-443.236 608.249,-461.236"/>
<text text-anchor="middle" x="593.749" y="-450.036" font-family="Times New Roman,serif" font-size="9.00">&#45;12</text>
</g>
<!-- &#45;12&#45;&gt;3 -->
<g id="edge4" class="edge"><title>&#45;12&#45;&gt;3</title>
<path fill="none" stroke="red" stroke-width="0.120371" d="M579.056,-448.131C550.313,-441.522 485.547,-423.945 440.749,-391.487 407.195,-367.177 378.797,-327.496 363.32,-303.24"/>
<polygon fill="red" stroke="red" stroke-width="0.120371" points="366.115,-301.106 357.858,-294.467 360.173,-304.806 366.115,-301.106"/>
</g>
<!-- 2652 -->
<g id="node42" class="node"><title>2652</title>
<ellipse fill="white" stroke="black" cx="758.749" cy="-366.739" rx="25" ry="25"/>
<text text-anchor="middle" x="758.749" y="-364.539" font-family="Times New Roman,serif" font-size="9.00">2652</text>
</g>
<!-- &#45;12&#45;&gt;2652 -->
<g id="edge54" class="edge"><title>&#45;12&#45;&gt;2652</title>
<path fill="none" stroke="green" stroke-width="0.172442" d="M608.322,-445.606C632.967,-435.863 684.156,-414.666 724.749,-391.487 726.73,-390.356 728.742,-389.141 730.746,-387.88"/>
<polygon fill="green" stroke="green" stroke-width="0.172442" points="732.958,-390.614 739.368,-382.178 729.096,-384.775 732.958,-390.614"/>
</g>
<!-- &#45;13 -->
<g id="node13" class="node"><title>&#45;13</title>
<polygon fill="lightgray" stroke="black" points="182.249,-375.739 153.249,-375.739 153.249,-357.739 182.249,-357.739 182.249,-375.739"/>
<text text-anchor="middle" x="167.749" y="-364.539" font-family="Times New Roman,serif" font-size="9.00">&#45;13</text>
</g>
<!-- &#45;13&#45;&gt;0 -->
<g id="edge13" class="edge"><title>&#45;13&#45;&gt;0</title>
<path fill="none" stroke="red" stroke-width="0.100958" d="M166.886,-357.733C165.618,-345.969 163.199,-323.531 161.327,-306.162"/>
<polygon fill="red" stroke="red" stroke-width="0.100958" points="164.799,-305.711 160.247,-296.143 157.839,-306.461 164.799,-305.711"/>
</g>
<!-- &#45;14 -->
<g id="node14" class="node"><title>&#45;14</title>
<polygon fill="lightgray" stroke="black" points="625.249,-530.985 596.249,-530.985 596.249,-512.985 625.249,-512.985 625.249,-530.985"/>
<text text-anchor="middle" x="610.749" y="-519.785" font-family="Times New Roman,serif" font-size="9.00">&#45;14</text>
</g>
<!-- 2 -->
<g id="node27" class="node"><title>2</title>
<ellipse fill="lightblue" stroke="black" cx="800.749" cy="-110.246" rx="14.7" ry="14.7"/>
<text text-anchor="middle" x="800.749" y="-108.046" font-family="Times New Roman,serif" font-size="9.00">2</text>
</g>
<!-- &#45;14&#45;&gt;2 -->
<g id="edge2" class="edge"><title>&#45;14&#45;&gt;2</title>
<path fill="none" stroke="red" stroke-width="0.337584" stroke-dasharray="1,5" d="M625.458,-516.034C628.525,-515.015 631.74,-513.957 634.749,-512.985 685.711,-496.516 704.557,-505.726 749.749,-476.985 805.291,-441.66 849.749,-433.563 849.749,-367.739 849.749,-367.739 849.749,-367.739 849.749,-280.241 849.749,-225.663 825.882,-164.953 811.462,-133.253"/>
<polygon fill="red" stroke="red" stroke-width="0.337584" points="814.556,-131.606 807.155,-124.025 808.213,-134.567 814.556,-131.606"/>
</g>
<!-- 1666 -->
<g id="node29" class="node"><title>1666</title>
<ellipse fill="white" stroke="black" cx="24.7487" cy="-366.739" rx="25" ry="25"/>
<text text-anchor="middle" x="24.7487" y="-364.539" font-family="Times New Roman,serif" font-size="9.00">1666</text>
</g>
<!-- &#45;14&#45;&gt;1666 -->
<g id="edge18" class="edge"><title>&#45;14&#45;&gt;1666</title>
<path fill="none" stroke="green" stroke-width="0.3" stroke-dasharray="1,5" d="M596.224,-519.426C531.539,-512.105 264.062,-477.791 63.7487,-391.487 60.3451,-390.021 56.884,-388.298 53.4999,-386.461"/>
<polygon fill="green" stroke="green" stroke-width="0.3" points="55.222,-383.414 44.8143,-381.432 51.714,-389.472 55.222,-383.414"/>
</g>
<!-- 2068 -->
<g id="node34" class="node"><title>2068</title>
<ellipse fill="white" stroke="black" cx="410.749" cy="-452.236" rx="25" ry="25"/>
<text text-anchor="middle" x="410.749" y="-450.036" font-family="Times New Roman,serif" font-size="9.00">2068</text>
</g>
<!-- &#45;14&#45;&gt;2068 -->
<g id="edge31" class="edge"><title>&#45;14&#45;&gt;2068</title>
<path fill="none" stroke="green" stroke-width="0.3" d="M595.948,-518.849C566.198,-514.175 497.487,-501.454 444.749,-476.985 442.679,-476.025 440.601,-474.938 438.548,-473.772"/>
<polygon fill="green" stroke="green" stroke-width="0.3" points="440.144,-470.641 429.814,-468.286 436.421,-476.569 440.144,-470.641"/>
</g>
<!-- 847 -->
<g id="node39" class="node"><title>847</title>
<ellipse fill="white" stroke="black" cx="756.749" cy="-195.744" rx="21.4286" ry="21.4286"/>
<text text-anchor="middle" x="756.749" y="-193.544" font-family="Times New Roman,serif" font-size="9.00">847</text>
</g>
<!-- &#45;14&#45;&gt;847 -->
<g id="edge7" class="edge"><title>&#45;14&#45;&gt;847</title>
<path fill="none" stroke="green" stroke-width="0.3" d="M625.468,-515.928C661.984,-502.481 756.396,-461.968 792.749,-391.487 821.081,-336.556 791.871,-262.743 771.962,-223.653"/>
<polygon fill="green" stroke="green" stroke-width="0.3" points="774.897,-221.714 767.142,-214.496 768.703,-224.975 774.897,-221.714"/>
</g>
<!-- &#45;15 -->
<g id="node15" class="node"><title>&#45;15</title>
<polygon fill="lightgray" stroke="black" points="771.249,-290.241 742.249,-290.241 742.249,-272.241 771.249,-272.241 771.249,-290.241"/>
<text text-anchor="middle" x="756.749" y="-279.041" font-family="Times New Roman,serif" font-size="9.00">&#45;15</text>
</g>
<!-- &#45;15&#45;&gt;847 -->
<g id="edge27" class="edge"><title>&#45;15&#45;&gt;847</title>
<path fill="none" stroke="green" stroke-width="0.115973" d="M756.749,-272.235C756.749,-261.922 756.749,-243.404 756.749,-227.291"/>
<polygon fill="green" stroke="green" stroke-width="0.115973" points="760.249,-227.159 756.749,-217.159 753.249,-227.159 760.249,-227.159"/>
</g>
<!-- &#45;15&#45;&gt;889 -->
<g id="edge14" class="edge"><title>&#45;15&#45;&gt;889</title>
<path fill="none" stroke="red" stroke-width="0.243872" d="M748.745,-271.803C744.362,-267.227 738.808,-261.499 733.749,-256.492 720.565,-243.446 705.5,-229.137 693.408,-217.794"/>
<polygon fill="red" stroke="red" stroke-width="0.243872" points="695.636,-215.085 685.941,-210.811 690.854,-220.198 695.636,-215.085"/>
</g>
<!-- &#45;16 -->
<g id="node16" class="node"><title>&#45;16</title>
<polygon fill="lightgray" stroke="black" points="799.249,-530.985 770.249,-530.985 770.249,-512.985 799.249,-512.985 799.249,-530.985"/>
<text text-anchor="middle" x="784.749" y="-519.785" font-family="Times New Roman,serif" font-size="9.00">&#45;16</text>
</g>
<!-- &#45;17 -->
<g id="node17" class="node"><title>&#45;17</title>
<polygon fill="lightgray" stroke="black" points="846.249,-530.985 817.249,-530.985 817.249,-512.985 846.249,-512.985 846.249,-530.985"/>
<text text-anchor="middle" x="831.749" y="-519.785" font-family="Times New Roman,serif" font-size="9.00">&#45;17</text>
</g>
<!-- &#45;18 -->
<g id="node18" class="node"><title>&#45;18</title>
<polygon fill="lightgray" stroke="black" points="478.249,-375.739 449.249,-375.739 449.249,-357.739 478.249,-357.739 478.249,-375.739"/>
<text text-anchor="middle" x="463.749" y="-364.539" font-family="Times New Roman,serif" font-size="9.00">&#45;18</text>
</g>
<!-- &#45;18&#45;&gt;2297 -->
<g id="edge47" class="edge"><title>&#45;18&#45;&gt;2297</title>
<path fill="none" stroke="green" stroke-width="0.168615" d="M468.543,-357.733C474.854,-347.194 486.295,-328.087 496.088,-311.734"/>
<polygon fill="green" stroke="green" stroke-width="0.168615" points="499.181,-313.381 501.316,-303.003 493.176,-309.785 499.181,-313.381"/>
</g>
<!-- &#45;19 -->
<g id="node19" class="node"><title>&#45;19</title>
<polygon fill="lightgray" stroke="black" points="241.249,-204.744 212.249,-204.744 212.249,-186.744 241.249,-186.744 241.249,-204.744"/>
<text text-anchor="middle" x="226.749" y="-193.544" font-family="Times New Roman,serif" font-size="9.00">&#45;19</text>
</g>
<!-- &#45;19&#45;&gt;1 -->
<g id="edge1" class="edge"><title>&#45;19&#45;&gt;1</title>
<path fill="none" stroke="red" stroke-width="0.444075" d="M241.241,-186.708C260.092,-175.975 293.692,-155.877 319.749,-134.995 322.064,-133.139 324.403,-131.089 326.664,-128.993"/>
<polygon fill="red" stroke="red" stroke-width="0.444075" points="329.206,-131.403 333.912,-121.911 324.314,-126.396 329.206,-131.403"/>
</g>
<!-- 575 -->
<g id="node36" class="node"><title>575</title>
<ellipse fill="white" stroke="black" cx="183.749" cy="-110.246" rx="21.4286" ry="21.4286"/>
<text text-anchor="middle" x="183.749" y="-108.046" font-family="Times New Roman,serif" font-size="9.00">575</text>
</g>
<!-- &#45;19&#45;&gt;575 -->
<g id="edge11" class="edge"><title>&#45;19&#45;&gt;575</title>
<path fill="none" stroke="green" stroke-width="0.323267" d="M222.626,-186.738C216.95,-175.717 206.449,-155.326 197.79,-138.512"/>
<polygon fill="green" stroke="green" stroke-width="0.323267" points="200.902,-136.91 193.212,-129.622 194.679,-140.115 200.902,-136.91"/>
</g>
<!-- &#45;19&#45;&gt;1490 -->
<g id="edge28" class="edge"><title>&#45;19&#45;&gt;1490</title>
<path fill="none" stroke="green" stroke-width="0.185956" d="M226.691,-186.567C226.937,-167.28 229.832,-118.122 251.749,-85.4975 265,-65.7717 287.123,-50.5251 305.478,-40.3715"/>
<polygon fill="green" stroke="green" stroke-width="0.185956" points="307.187,-43.4271 314.397,-35.6642 303.92,-37.2364 307.187,-43.4271"/>
</g>
<!-- &#45;20 -->
<g id="node20" class="node"><title>&#45;20</title>
<polygon fill="lightgray" stroke="black" points="893.249,-530.985 864.249,-530.985 864.249,-512.985 893.249,-512.985 893.249,-530.985"/>
<text text-anchor="middle" x="878.749" y="-519.785" font-family="Times New Roman,serif" font-size="9.00">&#45;20</text>
</g>
<!-- &#45;21 -->
<g id="node21" class="node"><title>&#45;21</title>
<polygon fill="lightgray" stroke="black" points="940.249,-530.985 911.249,-530.985 911.249,-512.985 940.249,-512.985 940.249,-530.985"/>
<text text-anchor="middle" x="925.749" y="-519.785" font-family="Times New Roman,serif" font-size="9.00">&#45;21</text>
</g>
<!-- &#45;22 -->
<g id="node22" class="node"><title>&#45;22</title>
<polygon fill="lightgray" stroke="black" points="907.249,-204.744 878.249,-204.744 878.249,-186.744 907.249,-186.744 907.249,-204.744"/>
<text text-anchor="middle" x="892.749" y="-193.544" font-family="Times New Roman,serif" font-size="9.00">&#45;22</text>
</g>
<!-- &#45;22&#45;&gt;2 -->
<g id="edge5" class="edge"><title>&#45;22&#45;&gt;2</title>
<path fill="none" stroke="red" stroke-width="0.298844" d="M883.927,-186.738C868.986,-173.177 838.413,-145.429 818.785,-127.616"/>
<polygon fill="red" stroke="red" stroke-width="0.298844" points="821.123,-125.011 811.365,-120.882 816.418,-130.194 821.123,-125.011"/>
</g>
<!-- &#45;23 -->
<g id="node23" class="node"><title>&#45;23</title>
<polygon fill="lightgray" stroke="black" points="987.249,-530.985 958.249,-530.985 958.249,-512.985 987.249,-512.985 987.249,-530.985"/>
<text text-anchor="middle" x="972.749" y="-519.785" font-family="Times New Roman,serif" font-size="9.00">&#45;23</text>
</g>
<!-- &#45;24 -->
<g id="node24" class="node"><title>&#45;24</title>
<polygon fill="lightgray" stroke="black" points="135.249,-375.739 106.249,-375.739 106.249,-357.739 135.249,-357.739 135.249,-375.739"/>
<text text-anchor="middle" x="120.749" y="-364.539" font-family="Times New Roman,serif" font-size="9.00">&#45;24</text>
</g>
<!-- &#45;24&#45;&gt;0 -->
<g id="edge3" class="edge"><title>&#45;24&#45;&gt;0</title>
<path fill="none" stroke="red" stroke-width="0.195988" d="M124.392,-357.733C129.921,-345.585 140.629,-322.055 148.629,-304.478"/>
<polygon fill="red" stroke="red" stroke-width="0.195988" points="152.009,-305.5 152.966,-294.948 145.638,-302.6 152.009,-305.5"/>
</g>
<!-- 1925 -->
<g id="node30" class="node"><title>1925</title>
<ellipse fill="white" stroke="black" cx="122.749" cy="-195.744" rx="25" ry="25"/>
<text text-anchor="middle" x="122.749" y="-193.544" font-family="Times New Roman,serif" font-size="9.00">1925</text>
</g>
<!-- &#45;24&#45;&gt;1925 -->
<g id="edge50" class="edge"><title>&#45;24&#45;&gt;1925</title>
<path fill="none" stroke="red" stroke-width="0.208103" d="M120.845,-357.588C121.112,-335.073 121.869,-271.042 122.345,-230.889"/>
<polygon fill="red" stroke="red" stroke-width="0.208103" points="125.846,-230.784 122.465,-220.743 118.847,-230.701 125.846,-230.784"/>
</g>
<!-- 0&#45;&gt;1925 -->
<g id="edge24" class="edge"><title>0&#45;&gt;1925</title>
<path fill="none" stroke="green" stroke-width="0.3" d="M153.124,-267.195C148.636,-256.787 142.16,-241.765 136.339,-228.265"/>
<polygon fill="green" stroke="green" stroke-width="0.3" points="139.428,-226.588 132.254,-218.791 133,-229.359 139.428,-226.588"/>
</g>
<!-- 321 -->
<g id="node37" class="node"><title>321</title>
<ellipse fill="white" stroke="black" cx="458.749" cy="-110.246" rx="21.4286" ry="21.4286"/>
<text text-anchor="middle" x="458.749" y="-108.046" font-family="Times New Roman,serif" font-size="9.00">321</text>
</g>
<!-- 0&#45;&gt;321 -->
<g id="edge10" class="edge"><title>0&#45;&gt;321</title>
<path fill="none" stroke="red" stroke-width="0.609862" d="M167.546,-269.191C171.707,-264.64 177.017,-259.694 182.749,-256.492 241.851,-223.482 270.472,-251.305 330.749,-220.492 373.705,-198.534 414.502,-159.449 438.052,-134.469"/>
<polygon fill="red" stroke="red" stroke-width="0.609862" points="440.842,-136.607 445.073,-126.893 435.708,-131.848 440.842,-136.607"/>
</g>
<!-- 3&#45;&gt;913 -->
<g id="edge9" class="edge"><title>3&#45;&gt;913</title>
<path fill="none" stroke="green" stroke-width="0.3" d="M361.458,-270.814C366.802,-266.282 373.456,-260.893 379.749,-256.492 403.784,-239.687 432.725,-222.889 453.454,-211.404"/>
<polygon fill="green" stroke="green" stroke-width="0.3" points="455.271,-214.399 462.353,-206.52 451.903,-208.263 455.271,-214.399"/>
</g>
<!-- 1925&#45;&gt;575 -->
<g id="edge25" class="edge"><title>1925&#45;&gt;575</title>
<path fill="none" stroke="red" stroke-width="0.13533" d="M136.897,-175.378C145.418,-163.713 156.358,-148.739 165.523,-136.194"/>
<polygon fill="red" stroke="red" stroke-width="0.13533" points="168.46,-138.107 171.533,-127.968 162.808,-133.978 168.46,-138.107"/>
</g>
<!-- 2568&#45;&gt;1490 -->
<g id="edge46" class="edge"><title>2568&#45;&gt;1490</title>
<path fill="none" stroke="red" stroke-width="0.362176" d="M298.355,-88.6064C304.593,-78.3939 312.228,-65.8946 319.041,-54.7396"/>
<polygon fill="red" stroke="red" stroke-width="0.362176" points="322.061,-56.5096 324.287,-46.1511 316.088,-52.8608 322.061,-56.5096"/>
</g>
<!-- 2059&#45;&gt;913 -->
<g id="edge30" class="edge"><title>2059&#45;&gt;913</title>
<path fill="none" stroke="green" stroke-width="0.161662" d="M680.589,-265.387C675.9,-262.172 670.778,-258.991 665.749,-256.492 614.081,-230.826 548.934,-212.797 511.342,-203.65"/>
<polygon fill="green" stroke="green" stroke-width="0.161662" points="512.043,-200.219 501.504,-201.306 510.421,-207.028 512.043,-200.219"/>
</g>
<!-- 2059&#45;&gt;847 -->
<g id="edge40" class="edge"><title>2059&#45;&gt;847</title>
<path fill="none" stroke="green" stroke-width="0.26673" d="M713.257,-260.453C721.045,-249.044 730.922,-234.576 739.294,-222.312"/>
<polygon fill="green" stroke="green" stroke-width="0.26673" points="742.326,-224.079 745.073,-213.847 736.544,-220.133 742.326,-224.079"/>
</g>
<!-- 913&#45;&gt;1 -->
<g id="edge12" class="edge"><title>913&#45;&gt;1</title>
<path fill="none" stroke="red" stroke-width="0.284603" d="M462.838,-183.828C437.535,-168.406 391.423,-140.302 364.608,-123.959"/>
<polygon fill="red" stroke="red" stroke-width="0.284603" points="366.354,-120.925 355.993,-118.709 362.711,-126.902 366.354,-120.925"/>
</g>
<!-- 913&#45;&gt;2 -->
<g id="edge21" class="edge"><title>913&#45;&gt;2</title>
<path fill="none" stroke="red" stroke-width="0.267487" d="M501.253,-189.394C557.86,-174.623 716.118,-133.329 776.72,-117.516"/>
<polygon fill="red" stroke="red" stroke-width="0.267487" points="777.744,-120.866 786.536,-114.955 775.977,-114.093 777.744,-120.866"/>
</g>
<!-- 913&#45;&gt;321 -->
<g id="edge26" class="edge"><title>913&#45;&gt;321</title>
<path fill="none" stroke="green" stroke-width="0.12187" d="M475.535,-174.956C472.85,-164.765 469.522,-152.134 466.539,-140.813"/>
<polygon fill="green" stroke="green" stroke-width="0.12187" points="469.857,-139.67 463.925,-130.892 463.088,-141.454 469.857,-139.67"/>
</g>
<!-- 2068&#45;&gt;1666 -->
<g id="edge32" class="edge"><title>2068&#45;&gt;1666</title>
<path fill="none" stroke="green" stroke-width="0.3" d="M386.209,-447.556C312.146,-436.373 94.0849,-402.862 63.7487,-391.487 60.2786,-390.186 56.7753,-388.568 53.3666,-386.793"/>
<polygon fill="green" stroke="green" stroke-width="0.3" points="55.0748,-383.738 44.6525,-381.833 51.6125,-389.822 55.0748,-383.738"/>
</g>
<!-- 2068&#45;&gt;1925 -->
<g id="edge33" class="edge"><title>2068&#45;&gt;1925</title>
<path fill="none" stroke="red" stroke-width="0.159156" d="M386.525,-447.05C313.699,-434.41 101.437,-397.152 96.7487,-391.487 58.0095,-344.682 85.7674,-268.728 106.24,-226.849"/>
<polygon fill="red" stroke="red" stroke-width="0.159156" points="109.471,-228.216 110.857,-217.713 103.223,-225.059 109.471,-228.216"/>
</g>
<!-- 2068&#45;&gt;2059 -->
<g id="edge36" class="edge"><title>2068&#45;&gt;2059</title>
<path fill="none" stroke="green" stroke-width="0.305693" stroke-dasharray="1,5" d="M429.681,-435.884C434.381,-432.689 439.563,-429.643 444.749,-427.487 528.149,-392.824 572.373,-445.515 644.749,-391.487 669.426,-373.067 683.794,-340.459 691.614,-315.648"/>
<polygon fill="green" stroke="green" stroke-width="0.305693" points="695.019,-316.476 694.484,-305.895 688.304,-314.5 695.019,-316.476"/>
</g>
<!-- 2068&#45;&gt;2652 -->
<g id="edge51" class="edge"><title>2068&#45;&gt;2652</title>
<path fill="none" stroke="green" stroke-width="0.3" d="M429.605,-435.694C434.308,-432.507 439.51,-429.512 444.749,-427.487 561.781,-382.257 607.716,-436.717 724.749,-391.487 726.877,-390.665 728.999,-389.682 731.084,-388.591"/>
<polygon fill="green" stroke="green" stroke-width="0.3" points="733.136,-391.441 739.892,-383.28 729.521,-385.447 733.136,-391.441"/>
</g>
<!-- 2590&#45;&gt;913 -->
<g id="edge49" class="edge"><title>2590&#45;&gt;913</title>
<path fill="none" stroke="green" stroke-width="0.161662" d="M455.86,-257.865C459.956,-247.806 464.838,-235.817 469.188,-225.134"/>
<polygon fill="green" stroke="green" stroke-width="0.161662" points="472.467,-226.364 472.996,-215.782 465.983,-223.724 472.467,-226.364"/>
</g>
<!-- 321&#45;&gt;1490 -->
<g id="edge15" class="edge"><title>321&#45;&gt;1490</title>
<path fill="none" stroke="green" stroke-width="0.3" d="M441.528,-97.4602C421.726,-83.9074 388.914,-61.451 365.28,-45.2756"/>
<polygon fill="green" stroke="green" stroke-width="0.3" points="366.947,-42.1751 356.717,-39.4154 362.993,-47.9517 366.947,-42.1751"/>
</g>
<!-- 2504&#45;&gt;575 -->
<g id="edge55" class="edge"><title>2504&#45;&gt;575</title>
<path fill="none" stroke="green" stroke-width="0.241684" d="M210.983,-257.043C208.324,-246.005 205.218,-232.602 202.749,-220.492 197.327,-193.908 192.116,-163.483 188.528,-141.504"/>
<polygon fill="green" stroke="green" stroke-width="0.241684" points="191.953,-140.761 186.902,-131.447 185.042,-141.877 191.953,-140.761"/>
</g>
<!-- 847&#45;&gt;2 -->
<g id="edge8" class="edge"><title>847&#45;&gt;2</title>
<path fill="none" stroke="red" stroke-width="0.337584" d="M766.296,-176.626C773.089,-163.735 782.244,-146.362 789.409,-132.765"/>
<polygon fill="red" stroke="red" stroke-width="0.337584" points="792.647,-134.128 794.213,-123.649 786.454,-130.865 792.647,-134.128"/>
</g>
<!-- 847&#45;&gt;321 -->
<g id="edge44" class="edge"><title>847&#45;&gt;321</title>
<path fill="none" stroke="red" stroke-width="0.105099" d="M737.859,-185.845C727.136,-181.019 713.373,-175.2 700.749,-170.995 626.283,-146.187 535.861,-126.54 489.47,-117.194"/>
<polygon fill="red" stroke="red" stroke-width="0.105099" points="489.95,-113.721 479.459,-115.2 488.583,-120.586 489.95,-113.721"/>
</g>
<!-- 1875&#45;&gt;2059 -->
<g id="edge29" class="edge"><title>1875&#45;&gt;2059</title>
<path fill="none" stroke="green" stroke-width="0.3" d="M628.332,-349.242C641.619,-336.777 660.034,-319.5 674.837,-305.613"/>
<polygon fill="green" stroke="green" stroke-width="0.3" points="677.304,-308.098 682.202,-298.703 672.514,-302.993 677.304,-308.098"/>
</g>
<!-- 1875&#45;&gt;913 -->
<g id="edge23" class="edge"><title>1875&#45;&gt;913</title>
<path fill="none" stroke="green" stroke-width="0.161662" stroke-dasharray="1,5" d="M605.548,-342.404C599.386,-318.803 587.275,-282.229 566.749,-256.492 551.039,-236.795 527.135,-220.914 508.512,-210.49"/>
<polygon fill="green" stroke="green" stroke-width="0.161662" points="510.054,-207.345 499.591,-205.681 506.733,-213.507 510.054,-207.345"/>
</g>
<!-- 2652&#45;&gt;2059 -->
<g id="edge52" class="edge"><title>2652&#45;&gt;2059</title>
<path fill="none" stroke="green" stroke-width="0.305693" d="M744.767,-345.951C737.198,-335.24 727.725,-321.834 719.424,-310.086"/>
<polygon fill="green" stroke="green" stroke-width="0.305693" points="722.26,-308.034 713.631,-301.887 716.543,-312.074 722.26,-308.034"/>
</g>
<!-- 2297&#45;&gt;913 -->
<g id="edge38" class="edge"><title>2297&#45;&gt;913</title>
<path fill="none" stroke="red" stroke-width="0.275026" d="M504.905,-257.865C500.929,-247.806 496.192,-235.817 491.969,-225.134"/>
<polygon fill="red" stroke="red" stroke-width="0.275026" points="495.204,-223.796 488.273,-215.782 488.694,-226.368 495.204,-223.796"/>
</g>
</g>
</svg>
