<?xml version="1.0" encoding="UTF-8" standalone="no"?>
<!DOCTYPE svg PUBLIC "-//W3C//DTD SVG 1.1//EN"
 "http://www.w3.org/Graphics/SVG/1.1/DTD/svg11.dtd">
<!-- Generated by graphviz version 2.38.0 (20140413.2041)
 -->
<!-- Title: %3 Pages: 1 -->
<svg width="958pt" height="624pt"
 viewBox="0.00 0.00 958.25 624.48" xmlns="http://www.w3.org/2000/svg" xmlns:xlink="http://www.w3.org/1999/xlink">
<g id="graph0" class="graph" transform="scale(1 1) rotate(0) translate(4 620.482)">
<title>%3</title>
<polygon fill="white" stroke="none" points="-4,4 -4,-620.482 954.249,-620.482 954.249,4 -4,4"/>
<!-- &#45;1 -->
<g id="node1" class="node"><title>&#45;1</title>
<polygon fill="lightgray" stroke="black" points="154.5,-616.482 130.5,-616.482 130.5,-598.482 154.5,-598.482 154.5,-616.482"/>
<text text-anchor="middle" x="142.5" y="-605.282" font-family="Times New Roman,serif" font-size="9.00">&#45;1</text>
</g>
<!-- 913 -->
<g id="node33" class="node"><title>913</title>
<ellipse fill="white" stroke="black" cx="196.5" cy="-195.744" rx="21.4286" ry="21.4286"/>
<text text-anchor="middle" x="196.5" y="-193.544" font-family="Times New Roman,serif" font-size="9.00">913</text>
</g>
<!-- &#45;1&#45;&gt;913 -->
<g id="edge12" class="edge"><title>&#45;1&#45;&gt;913</title>
<path fill="none" stroke="green" stroke-width="0.161662" stroke-dasharray="1,5" d="M138.993,-598.353C129.586,-575.783 104.5,-510.251 104.5,-453.236 104.5,-453.236 104.5,-453.236 104.5,-365.739 104.5,-307.168 147.655,-249.555 174.852,-219.062"/>
<polygon fill="green" stroke="green" stroke-width="0.161662" points="177.551,-221.297 181.719,-211.556 172.386,-216.572 177.551,-221.297"/>
</g>
<!-- 2490 -->
<g id="node36" class="node"><title>2490</title>
<ellipse fill="white" stroke="black" cx="187.5" cy="-452.236" rx="25" ry="25"/>
<text text-anchor="middle" x="187.5" y="-450.036" font-family="Times New Roman,serif" font-size="9.00">2490</text>
</g>
<!-- &#45;1&#45;&gt;2490 -->
<g id="edge34" class="edge"><title>&#45;1&#45;&gt;2490</title>
<path fill="none" stroke="green" stroke-width="0.3" stroke-dasharray="1,5" d="M143.568,-598.333C145.847,-581.914 151.786,-543.789 161.5,-512.985 164.555,-503.296 168.666,-493.052 172.717,-483.835"/>
<polygon fill="green" stroke="green" stroke-width="0.3" points="175.931,-485.221 176.869,-474.668 169.555,-482.333 175.931,-485.221"/>
</g>
<!-- 2813 -->
<g id="node46" class="node"><title>2813</title>
<ellipse fill="white" stroke="black" cx="195.5" cy="-537.734" rx="25" ry="25"/>
<text text-anchor="middle" x="195.5" y="-535.534" font-family="Times New Roman,serif" font-size="9.00">2813</text>
</g>
<!-- &#45;1&#45;&gt;2813 -->
<g id="edge50" class="edge"><title>&#45;1&#45;&gt;2813</title>
<path fill="none" stroke="green" stroke-width="0.3" d="M148.788,-598.445C155.115,-590.357 165.227,-577.431 174.427,-565.67"/>
<polygon fill="green" stroke="green" stroke-width="0.3" points="177.188,-567.821 180.593,-557.788 171.675,-563.508 177.188,-567.821"/>
</g>
<!-- &#45;2 -->
<g id="node2" class="node"><title>&#45;2</title>
<polygon fill="lightgray" stroke="black" points="563.5,-375.739 539.5,-375.739 539.5,-357.739 563.5,-357.739 563.5,-375.739"/>
<text text-anchor="middle" x="551.5" y="-364.539" font-family="Times New Roman,serif" font-size="9.00">&#45;2</text>
</g>
<!-- 3 -->
<g id="node28" class="node"><title>3</title>
<ellipse fill="lightblue" stroke="black" cx="397.5" cy="-281.241" rx="14.7" ry="14.7"/>
<text text-anchor="middle" x="397.5" y="-279.041" font-family="Times New Roman,serif" font-size="9.00">3</text>
</g>
<!-- &#45;2&#45;&gt;3 -->
<g id="edge16" class="edge"><title>&#45;2&#45;&gt;3</title>
<path fill="none" stroke="red" stroke-width="0.122916" d="M539.277,-361.047C516.302,-351.982 465.479,-330.757 426.5,-305.99 422.956,-303.738 419.355,-301.112 415.953,-298.444"/>
<polygon fill="red" stroke="red" stroke-width="0.122916" points="417.985,-295.583 408.046,-291.914 413.527,-300.981 417.985,-295.583"/>
</g>
<!-- 2690 -->
<g id="node31" class="node"><title>2690</title>
<ellipse fill="white" stroke="black" cx="743.5" cy="-195.744" rx="25" ry="25"/>
<text text-anchor="middle" x="743.5" y="-193.544" font-family="Times New Roman,serif" font-size="9.00">2690</text>
</g>
<!-- &#45;2&#45;&gt;2690 -->
<g id="edge41" class="edge"><title>&#45;2&#45;&gt;2690</title>
<path fill="none" stroke="green" stroke-width="0.3" d="M563.737,-359.545C582.284,-349.79 618.044,-329.516 643.5,-305.99 663.868,-287.166 663.019,-277.172 681.5,-256.492 692.831,-243.814 706.333,-230.606 717.84,-219.842"/>
<polygon fill="green" stroke="green" stroke-width="0.3" points="720.471,-222.176 725.437,-212.817 715.718,-217.037 720.471,-222.176"/>
</g>
<!-- &#45;3 -->
<g id="node3" class="node"><title>&#45;3</title>
<polygon fill="lightgray" stroke="black" points="849.5,-290.241 825.5,-290.241 825.5,-272.241 849.5,-272.241 849.5,-290.241"/>
<text text-anchor="middle" x="837.5" y="-279.041" font-family="Times New Roman,serif" font-size="9.00">&#45;3</text>
</g>
<!-- &#45;3&#45;&gt;2690 -->
<g id="edge44" class="edge"><title>&#45;3&#45;&gt;2690</title>
<path fill="none" stroke="green" stroke-width="0.301716" d="M830.807,-272.031C826.826,-267.315 821.576,-261.378 816.5,-256.492 802.332,-242.854 785.394,-228.865 771.402,-217.854"/>
<polygon fill="green" stroke="green" stroke-width="0.301716" points="773.164,-214.79 763.122,-211.413 768.866,-220.316 773.164,-214.79"/>
</g>
<!-- &#45;4 -->
<g id="node4" class="node"><title>&#45;4</title>
<polygon fill="lightgray" stroke="black" points="196.5,-616.482 172.5,-616.482 172.5,-598.482 196.5,-598.482 196.5,-616.482"/>
<text text-anchor="middle" x="184.5" y="-605.282" font-family="Times New Roman,serif" font-size="9.00">&#45;4</text>
</g>
<!-- &#45;5 -->
<g id="node5" class="node"><title>&#45;5</title>
<polygon fill="lightgray" stroke="black" points="753.5,-461.236 729.5,-461.236 729.5,-443.236 753.5,-443.236 753.5,-461.236"/>
<text text-anchor="middle" x="741.5" y="-450.036" font-family="Times New Roman,serif" font-size="9.00">&#45;5</text>
</g>
<!-- 2221 -->
<g id="node35" class="node"><title>2221</title>
<ellipse fill="white" stroke="black" cx="715.5" cy="-366.739" rx="25" ry="25"/>
<text text-anchor="middle" x="715.5" y="-364.539" font-family="Times New Roman,serif" font-size="9.00">2221</text>
</g>
<!-- &#45;5&#45;&gt;2221 -->
<g id="edge25" class="edge"><title>&#45;5&#45;&gt;2221</title>
<path fill="none" stroke="green" stroke-width="0.3" d="M739.007,-443.23C735.942,-433.386 730.548,-416.066 725.701,-400.497"/>
<polygon fill="green" stroke="green" stroke-width="0.3" points="728.938,-399.122 722.623,-390.615 722.255,-401.203 728.938,-399.122"/>
</g>
<!-- 1498 -->
<g id="node42" class="node"><title>1498</title>
<ellipse fill="white" stroke="black" cx="782.5" cy="-281.241" rx="25" ry="25"/>
<text text-anchor="middle" x="782.5" y="-279.041" font-family="Times New Roman,serif" font-size="9.00">1498</text>
</g>
<!-- &#45;5&#45;&gt;1498 -->
<g id="edge21" class="edge"><title>&#45;5&#45;&gt;1498</title>
<path fill="none" stroke="green" stroke-width="0.188824" stroke-dasharray="1,5" d="M743.478,-443.085C748.981,-420.401 764.709,-355.574 774.435,-315.485"/>
<polygon fill="green" stroke="green" stroke-width="0.188824" points="777.871,-316.166 776.827,-305.623 771.068,-314.516 777.871,-316.166"/>
</g>
<!-- &#45;6 -->
<g id="node6" class="node"><title>&#45;6</title>
<polygon fill="lightgray" stroke="black" points="634.5,-290.241 610.5,-290.241 610.5,-272.241 634.5,-272.241 634.5,-290.241"/>
<text text-anchor="middle" x="622.5" y="-279.041" font-family="Times New Roman,serif" font-size="9.00">&#45;6</text>
</g>
<!-- 1 -->
<g id="node26" class="node"><title>1</title>
<ellipse fill="lightblue" stroke="black" cx="647.5" cy="-195.744" rx="14.7" ry="14.7"/>
<text text-anchor="middle" x="647.5" y="-193.544" font-family="Times New Roman,serif" font-size="9.00">1</text>
</g>
<!-- &#45;6&#45;&gt;1 -->
<g id="edge6" class="edge"><title>&#45;6&#45;&gt;1</title>
<path fill="none" stroke="red" stroke-width="0.289567" d="M624.897,-272.235C628.439,-260.404 635.215,-237.776 640.427,-220.366"/>
<polygon fill="red" stroke="red" stroke-width="0.289567" points="643.913,-220.927 643.428,-210.343 637.207,-218.919 643.913,-220.927"/>
</g>
<!-- &#45;7 -->
<g id="node7" class="node"><title>&#45;7</title>
<polygon fill="lightgray" stroke="black" points="278.5,-119.246 254.5,-119.246 254.5,-101.246 278.5,-101.246 278.5,-119.246"/>
<text text-anchor="middle" x="266.5" y="-108.046" font-family="Times New Roman,serif" font-size="9.00">&#45;7</text>
</g>
<!-- 1925 -->
<g id="node30" class="node"><title>1925</title>
<ellipse fill="white" stroke="black" cx="286.5" cy="-24.7487" rx="25" ry="25"/>
<text text-anchor="middle" x="286.5" y="-22.5487" font-family="Times New Roman,serif" font-size="9.00">1925</text>
</g>
<!-- &#45;7&#45;&gt;1925 -->
<g id="edge30" class="edge"><title>&#45;7&#45;&gt;1925</title>
<path fill="none" stroke="red" stroke-width="0.255159" d="M268.418,-101.24C270.76,-91.463 274.868,-74.3113 278.577,-58.8251"/>
<polygon fill="red" stroke="red" stroke-width="0.255159" points="282.009,-59.5234 280.935,-48.9832 275.202,-57.8928 282.009,-59.5234"/>
</g>
<!-- &#45;8 -->
<g id="node8" class="node"><title>&#45;8</title>
<polygon fill="lightgray" stroke="black" points="238.5,-616.482 214.5,-616.482 214.5,-598.482 238.5,-598.482 238.5,-616.482"/>
<text text-anchor="middle" x="226.5" y="-605.282" font-family="Times New Roman,serif" font-size="9.00">&#45;8</text>
</g>
<!-- &#45;9 -->
<g id="node9" class="node"><title>&#45;9</title>
<polygon fill="lightgray" stroke="black" points="38.5,-119.246 14.5,-119.246 14.5,-101.246 38.5,-101.246 38.5,-119.246"/>
<text text-anchor="middle" x="26.5" y="-108.046" font-family="Times New Roman,serif" font-size="9.00">&#45;9</text>
</g>
<!-- &#45;9&#45;&gt;1925 -->
<g id="edge52" class="edge"><title>&#45;9&#45;&gt;1925</title>
<path fill="none" stroke="green" stroke-width="0.564124" d="M33.4603,-101.088C38.3033,-95.9033 45.184,-89.4477 52.5,-85.4975 117.67,-50.3098 204.313,-35.2347 251.769,-29.2697"/>
<polygon fill="green" stroke="green" stroke-width="0.564124" points="252.323,-32.7285 261.837,-28.0679 251.493,-25.7779 252.323,-32.7285"/>
</g>
<!-- &#45;10 -->
<g id="node10" class="node"><title>&#45;10</title>
<polygon fill="lightgray" stroke="black" points="29,-546.734 0,-546.734 0,-528.734 29,-528.734 29,-546.734"/>
<text text-anchor="middle" x="14.5" y="-535.534" font-family="Times New Roman,serif" font-size="9.00">&#45;10</text>
</g>
<!-- 0 -->
<g id="node25" class="node"><title>0</title>
<ellipse fill="lightblue" stroke="black" cx="61.5" cy="-452.236" rx="14.7" ry="14.7"/>
<text text-anchor="middle" x="61.5" y="-450.036" font-family="Times New Roman,serif" font-size="9.00">0</text>
</g>
<!-- &#45;10&#45;&gt;0 -->
<g id="edge13" class="edge"><title>&#45;10&#45;&gt;0</title>
<path fill="none" stroke="red" stroke-width="0.101849" d="M19.0066,-528.727C25.9468,-516.398 39.4882,-492.341 49.4264,-474.685"/>
<polygon fill="red" stroke="red" stroke-width="0.101849" points="52.6568,-476.082 54.512,-465.651 46.5567,-472.648 52.6568,-476.082"/>
</g>
<!-- &#45;11 -->
<g id="node11" class="node"><title>&#45;11</title>
<polygon fill="lightgray" stroke="black" points="286,-616.482 257,-616.482 257,-598.482 286,-598.482 286,-616.482"/>
<text text-anchor="middle" x="271.5" y="-605.282" font-family="Times New Roman,serif" font-size="9.00">&#45;11</text>
</g>
<!-- &#45;12 -->
<g id="node12" class="node"><title>&#45;12</title>
<polygon fill="lightgray" stroke="black" points="412,-375.739 383,-375.739 383,-357.739 412,-357.739 412,-375.739"/>
<text text-anchor="middle" x="397.5" y="-364.539" font-family="Times New Roman,serif" font-size="9.00">&#45;12</text>
</g>
<!-- &#45;12&#45;&gt;3 -->
<g id="edge4" class="edge"><title>&#45;12&#45;&gt;3</title>
<path fill="none" stroke="red" stroke-width="0.120371" d="M397.5,-357.733C397.5,-345.969 397.5,-323.531 397.5,-306.162"/>
<polygon fill="red" stroke="red" stroke-width="0.120371" points="401,-306.143 397.5,-296.143 394,-306.143 401,-306.143"/>
</g>
<!-- &#45;13 -->
<g id="node13" class="node"><title>&#45;13</title>
<polygon fill="lightgray" stroke="black" points="284,-546.734 255,-546.734 255,-528.734 284,-528.734 284,-546.734"/>
<text text-anchor="middle" x="269.5" y="-535.534" font-family="Times New Roman,serif" font-size="9.00">&#45;13</text>
</g>
<!-- &#45;13&#45;&gt;0 -->
<g id="edge11" class="edge"><title>&#45;13&#45;&gt;0</title>
<path fill="none" stroke="red" stroke-width="0.100958" d="M257.23,-528.603C249.484,-523.686 239.151,-517.513 229.5,-512.985 179.936,-489.727 118.672,-470.088 85.5297,-460.168"/>
<polygon fill="red" stroke="red" stroke-width="0.100958" points="86.3897,-456.773 75.8079,-457.296 84.4068,-463.486 86.3897,-456.773"/>
</g>
<!-- &#45;13&#45;&gt;2221 -->
<g id="edge36" class="edge"><title>&#45;13&#45;&gt;2221</title>
<path fill="none" stroke="green" stroke-width="0.168628" d="M284.339,-531.111C347.358,-507.232 593.652,-413.909 682.943,-380.075"/>
<polygon fill="green" stroke="green" stroke-width="0.168628" points="684.436,-383.252 692.547,-376.436 681.956,-376.706 684.436,-383.252"/>
</g>
<!-- &#45;13&#45;&gt;2490 -->
<g id="edge40" class="edge"><title>&#45;13&#45;&gt;2490</title>
<path fill="none" stroke="red" stroke-width="0.158768" d="M261.637,-528.727C250.305,-517.188 228.885,-495.376 211.971,-478.154"/>
<polygon fill="red" stroke="red" stroke-width="0.158768" points="214.074,-475.3 204.57,-470.618 209.079,-480.205 214.074,-475.3"/>
</g>
<!-- 847 -->
<g id="node40" class="node"><title>847</title>
<ellipse fill="white" stroke="black" cx="257.5" cy="-195.744" rx="21.4286" ry="21.4286"/>
<text text-anchor="middle" x="257.5" y="-193.544" font-family="Times New Roman,serif" font-size="9.00">847</text>
</g>
<!-- &#45;13&#45;&gt;847 -->
<g id="edge28" class="edge"><title>&#45;13&#45;&gt;847</title>
<path fill="none" stroke="green" stroke-width="0.428681" d="M269.587,-528.566C269.835,-501.799 270.358,-414.29 267.5,-341.99 265.926,-302.176 262.499,-256.319 260.097,-226.96"/>
<polygon fill="green" stroke="green" stroke-width="0.428681" points="263.58,-226.607 259.264,-216.931 256.604,-227.186 263.58,-226.607"/>
</g>
<!-- &#45;14 -->
<g id="node14" class="node"><title>&#45;14</title>
<polygon fill="lightgray" stroke="black" points="498,-290.241 469,-290.241 469,-272.241 498,-272.241 498,-290.241"/>
<text text-anchor="middle" x="483.5" y="-279.041" font-family="Times New Roman,serif" font-size="9.00">&#45;14</text>
</g>
<!-- 2 -->
<g id="node27" class="node"><title>2</title>
<ellipse fill="lightblue" stroke="black" cx="349.5" cy="-110.246" rx="14.7" ry="14.7"/>
<text text-anchor="middle" x="349.5" y="-108.046" font-family="Times New Roman,serif" font-size="9.00">2</text>
</g>
<!-- &#45;14&#45;&gt;2 -->
<g id="edge2" class="edge"><title>&#45;14&#45;&gt;2</title>
<path fill="none" stroke="red" stroke-width="0.337584" stroke-dasharray="1,5" d="M474.892,-271.987C469.384,-267.024 461.905,-260.846 454.5,-256.492 417.005,-234.451 390.194,-254.832 363.5,-220.492 344.571,-196.142 343.937,-159.107 346.059,-135.039"/>
<polygon fill="red" stroke="red" stroke-width="0.337584" points="349.55,-135.31 347.172,-124.985 342.593,-134.539 349.55,-135.31"/>
</g>
<!-- 1666 -->
<g id="node29" class="node"><title>1666</title>
<ellipse fill="white" stroke="black" cx="483.5" cy="-195.744" rx="25" ry="25"/>
<text text-anchor="middle" x="483.5" y="-193.544" font-family="Times New Roman,serif" font-size="9.00">1666</text>
</g>
<!-- &#45;14&#45;&gt;1666 -->
<g id="edge14" class="edge"><title>&#45;14&#45;&gt;1666</title>
<path fill="none" stroke="green" stroke-width="0.3" d="M483.5,-272.235C483.5,-262.684 483.5,-246.094 483.5,-230.895"/>
<polygon fill="green" stroke="green" stroke-width="0.3" points="487,-230.699 483.5,-220.699 480,-230.699 487,-230.699"/>
</g>
<!-- &#45;14&#45;&gt;847 -->
<g id="edge7" class="edge"><title>&#45;14&#45;&gt;847</title>
<path fill="none" stroke="green" stroke-width="0.3" d="M468.994,-274.607C456.445,-269.752 437.804,-262.585 421.5,-256.492 374.423,-238.902 319.514,-219.027 286.678,-207.21"/>
<polygon fill="green" stroke="green" stroke-width="0.3" points="287.824,-203.903 277.229,-203.813 285.455,-210.49 287.824,-203.903"/>
</g>
<!-- &#45;15 -->
<g id="node15" class="node"><title>&#45;15</title>
<polygon fill="lightgray" stroke="black" points="349,-375.739 320,-375.739 320,-357.739 349,-357.739 349,-375.739"/>
<text text-anchor="middle" x="334.5" y="-364.539" font-family="Times New Roman,serif" font-size="9.00">&#45;15</text>
</g>
<!-- 2637 -->
<g id="node39" class="node"><title>2637</title>
<ellipse fill="white" stroke="black" cx="339.5" cy="-281.241" rx="25" ry="25"/>
<text text-anchor="middle" x="339.5" y="-279.041" font-family="Times New Roman,serif" font-size="9.00">2637</text>
</g>
<!-- &#45;15&#45;&gt;2637 -->
<g id="edge38" class="edge"><title>&#45;15&#45;&gt;2637</title>
<path fill="none" stroke="green" stroke-width="0.3" d="M334.979,-357.733C335.551,-348.181 336.545,-331.592 337.455,-316.393"/>
<polygon fill="green" stroke="green" stroke-width="0.3" points="340.961,-316.388 338.066,-306.196 333.974,-315.969 340.961,-316.388"/>
</g>
<!-- &#45;15&#45;&gt;847 -->
<g id="edge19" class="edge"><title>&#45;15&#45;&gt;847</title>
<path fill="none" stroke="green" stroke-width="0.115973" stroke-dasharray="1,5" d="M330.462,-357.667C324.767,-346.229 314.11,-324.62 305.5,-305.99 292.913,-278.756 279.206,-247.374 269.675,-225.252"/>
<polygon fill="green" stroke="green" stroke-width="0.115973" points="272.772,-223.594 265.608,-215.788 266.34,-226.357 272.772,-223.594"/>
</g>
<!-- &#45;16 -->
<g id="node16" class="node"><title>&#45;16</title>
<polygon fill="lightgray" stroke="black" points="897,-290.241 868,-290.241 868,-272.241 897,-272.241 897,-290.241"/>
<text text-anchor="middle" x="882.5" y="-279.041" font-family="Times New Roman,serif" font-size="9.00">&#45;16</text>
</g>
<!-- 2188 -->
<g id="node32" class="node"><title>2188</title>
<ellipse fill="white" stroke="black" cx="887.5" cy="-195.744" rx="25" ry="25"/>
<text text-anchor="middle" x="887.5" y="-193.544" font-family="Times New Roman,serif" font-size="9.00">2188</text>
</g>
<!-- &#45;16&#45;&gt;2188 -->
<g id="edge59" class="edge"><title>&#45;16&#45;&gt;2188</title>
<path fill="none" stroke="green" stroke-width="0.249533" d="M882.979,-272.235C883.551,-262.684 884.545,-246.094 885.455,-230.895"/>
<polygon fill="green" stroke="green" stroke-width="0.249533" points="888.961,-230.89 886.066,-220.699 881.974,-230.472 888.961,-230.89"/>
</g>
<!-- 1490 -->
<g id="node41" class="node"><title>1490</title>
<ellipse fill="white" stroke="black" cx="647.5" cy="-110.246" rx="25" ry="25"/>
<text text-anchor="middle" x="647.5" y="-108.046" font-family="Times New Roman,serif" font-size="9.00">1490</text>
</g>
<!-- &#45;16&#45;&gt;1490 -->
<g id="edge48" class="edge"><title>&#45;16&#45;&gt;1490</title>
<path fill="none" stroke="green" stroke-width="0.294549" d="M874.103,-271.843C869.516,-267.278 863.722,-261.548 858.5,-256.492 841.786,-240.31 836.592,-237.294 820.5,-220.492 800.343,-199.447 800.818,-188.472 777.5,-170.995 747.76,-148.705 708.376,-132.061 680.78,-122.076"/>
<polygon fill="green" stroke="green" stroke-width="0.294549" points="681.781,-118.718 671.186,-118.701 679.458,-125.321 681.781,-118.718"/>
</g>
<!-- 889 -->
<g id="node45" class="node"><title>889</title>
<ellipse fill="white" stroke="black" cx="619.5" cy="-24.7487" rx="21.4286" ry="21.4286"/>
<text text-anchor="middle" x="619.5" y="-22.5487" font-family="Times New Roman,serif" font-size="9.00">889</text>
</g>
<!-- &#45;16&#45;&gt;889 -->
<g id="edge27" class="edge"><title>&#45;16&#45;&gt;889</title>
<path fill="none" stroke="red" stroke-width="0.328849" d="M878.6,-272.163C869.137,-253.089 843.441,-204.358 812.5,-170.995 760.889,-115.344 685.786,-65.7831 646.206,-41.5174"/>
<polygon fill="red" stroke="red" stroke-width="0.328849" points="647.768,-38.3711 637.402,-36.1789 644.138,-44.3567 647.768,-38.3711"/>
</g>
<!-- &#45;17 -->
<g id="node17" class="node"><title>&#45;17</title>
<polygon fill="lightgray" stroke="black" points="333,-616.482 304,-616.482 304,-598.482 333,-598.482 333,-616.482"/>
<text text-anchor="middle" x="318.5" y="-605.282" font-family="Times New Roman,serif" font-size="9.00">&#45;17</text>
</g>
<!-- &#45;18 -->
<g id="node18" class="node"><title>&#45;18</title>
<polygon fill="lightgray" stroke="black" points="545,-290.241 516,-290.241 516,-272.241 545,-272.241 545,-290.241"/>
<text text-anchor="middle" x="530.5" y="-279.041" font-family="Times New Roman,serif" font-size="9.00">&#45;18</text>
</g>
<!-- &#45;18&#45;&gt;913 -->
<g id="edge10" class="edge"><title>&#45;18&#45;&gt;913</title>
<path fill="none" stroke="red" stroke-width="0.230851" d="M524.677,-271.784C520.533,-266.474 514.478,-259.99 507.5,-256.492 395.333,-200.27 343.509,-268.286 227.5,-220.492 224.944,-219.439 222.415,-218.119 219.97,-216.643"/>
<polygon fill="red" stroke="red" stroke-width="0.230851" points="221.793,-213.648 211.583,-210.819 217.8,-219.398 221.793,-213.648"/>
</g>
<!-- 2399 -->
<g id="node44" class="node"><title>2399</title>
<ellipse fill="white" stroke="black" cx="589.5" cy="-195.744" rx="25" ry="25"/>
<text text-anchor="middle" x="589.5" y="-193.544" font-family="Times New Roman,serif" font-size="9.00">2399</text>
</g>
<!-- &#45;18&#45;&gt;2399 -->
<g id="edge29" class="edge"><title>&#45;18&#45;&gt;2399</title>
<path fill="none" stroke="green" stroke-width="0.3" d="M536.157,-272.235C543.82,-261.39 557.894,-241.472 569.662,-224.818"/>
<polygon fill="green" stroke="green" stroke-width="0.3" points="572.647,-226.659 575.56,-216.472 566.931,-222.619 572.647,-226.659"/>
</g>
<!-- &#45;18&#45;&gt;889 -->
<g id="edge47" class="edge"><title>&#45;18&#45;&gt;889</title>
<path fill="none" stroke="green" stroke-width="0.150669" d="M531.808,-272.148C534.886,-253.834 543.259,-207.933 555.5,-170.995 569.518,-128.694 591.365,-81.8752 605.556,-53.1269"/>
<polygon fill="green" stroke="green" stroke-width="0.150669" points="608.725,-54.6143 610.053,-44.1029 602.46,-51.4923 608.725,-54.6143"/>
</g>
<!-- &#45;19 -->
<g id="node19" class="node"><title>&#45;19</title>
<polygon fill="lightgray" stroke="black" points="592,-290.241 563,-290.241 563,-272.241 592,-272.241 592,-290.241"/>
<text text-anchor="middle" x="577.5" y="-279.041" font-family="Times New Roman,serif" font-size="9.00">&#45;19</text>
</g>
<!-- &#45;19&#45;&gt;1 -->
<g id="edge1" class="edge"><title>&#45;19&#45;&gt;1</title>
<path fill="none" stroke="red" stroke-width="0.444075" d="M584.212,-272.235C595.034,-259.326 616.633,-233.563 631.566,-215.75"/>
<polygon fill="red" stroke="red" stroke-width="0.444075" points="634.543,-217.647 638.286,-207.735 629.179,-213.149 634.543,-217.647"/>
</g>
<!-- &#45;19&#45;&gt;2399 -->
<g id="edge37" class="edge"><title>&#45;19&#45;&gt;2399</title>
<path fill="none" stroke="red" stroke-width="0.322949" d="M578.651,-272.235C580.033,-262.617 582.441,-245.864 584.637,-230.579"/>
<polygon fill="red" stroke="red" stroke-width="0.322949" points="588.151,-230.734 586.109,-220.338 581.222,-229.738 588.151,-230.734"/>
</g>
<!-- &#45;20 -->
<g id="node20" class="node"><title>&#45;20</title>
<polygon fill="lightgray" stroke="black" points="380,-616.482 351,-616.482 351,-598.482 380,-598.482 380,-616.482"/>
<text text-anchor="middle" x="365.5" y="-605.282" font-family="Times New Roman,serif" font-size="9.00">&#45;20</text>
</g>
<!-- &#45;21 -->
<g id="node21" class="node"><title>&#45;21</title>
<polygon fill="lightgray" stroke="black" points="427,-616.482 398,-616.482 398,-598.482 427,-598.482 427,-616.482"/>
<text text-anchor="middle" x="412.5" y="-605.282" font-family="Times New Roman,serif" font-size="9.00">&#45;21</text>
</g>
<!-- &#45;22 -->
<g id="node22" class="node"><title>&#45;22</title>
<polygon fill="lightgray" stroke="black" points="402,-204.744 373,-204.744 373,-186.744 402,-186.744 402,-204.744"/>
<text text-anchor="middle" x="387.5" y="-193.544" font-family="Times New Roman,serif" font-size="9.00">&#45;22</text>
</g>
<!-- &#45;22&#45;&gt;2 -->
<g id="edge5" class="edge"><title>&#45;22&#45;&gt;2</title>
<path fill="none" stroke="red" stroke-width="0.298844" d="M383.856,-186.738C378.328,-174.59 367.62,-151.06 359.62,-133.483"/>
<polygon fill="red" stroke="red" stroke-width="0.298844" points="362.611,-131.605 355.283,-123.953 356.24,-134.505 362.611,-131.605"/>
</g>
<!-- &#45;22&#45;&gt;889 -->
<g id="edge31" class="edge"><title>&#45;22&#45;&gt;889</title>
<path fill="none" stroke="green" stroke-width="0.24867" d="M387.147,-186.603C386.74,-166.522 388.575,-114.18 416.5,-85.4975 462.43,-38.3206 543.545,-27.9154 588.069,-25.9176"/>
<polygon fill="green" stroke="green" stroke-width="0.24867" points="588.416,-29.4081 598.295,-25.5789 588.185,-22.4119 588.416,-29.4081"/>
</g>
<!-- &#45;23 -->
<g id="node23" class="node"><title>&#45;23</title>
<polygon fill="lightgray" stroke="black" points="474,-616.482 445,-616.482 445,-598.482 474,-598.482 474,-616.482"/>
<text text-anchor="middle" x="459.5" y="-605.282" font-family="Times New Roman,serif" font-size="9.00">&#45;23</text>
</g>
<!-- &#45;24 -->
<g id="node24" class="node"><title>&#45;24</title>
<polygon fill="lightgray" stroke="black" points="76,-546.734 47,-546.734 47,-528.734 76,-528.734 76,-546.734"/>
<text text-anchor="middle" x="61.5" y="-535.534" font-family="Times New Roman,serif" font-size="9.00">&#45;24</text>
</g>
<!-- &#45;24&#45;&gt;0 -->
<g id="edge3" class="edge"><title>&#45;24&#45;&gt;0</title>
<path fill="none" stroke="red" stroke-width="0.195988" d="M61.5,-528.727C61.5,-516.964 61.5,-494.526 61.5,-477.157"/>
<polygon fill="red" stroke="red" stroke-width="0.195988" points="65.0001,-477.138 61.5,-467.138 58.0001,-477.138 65.0001,-477.138"/>
</g>
<!-- 0&#45;&gt;1925 -->
<g id="edge18" class="edge"><title>0&#45;&gt;1925</title>
<path fill="none" stroke="green" stroke-width="0.3" d="M62.1952,-437.219C63.5691,-408.27 66.5,-339.772 66.5,-282.241 66.5,-282.241 66.5,-282.241 66.5,-194.744 66.5,-101.902 191.243,-53.058 252.865,-34.5934"/>
<polygon fill="green" stroke="green" stroke-width="0.3" points="253.907,-37.9355 262.537,-31.7898 251.958,-31.2123 253.907,-37.9355"/>
</g>
<!-- 1&#45;&gt;1490 -->
<g id="edge54" class="edge"><title>1&#45;&gt;1490</title>
<path fill="none" stroke="red" stroke-width="0.37069" d="M647.5,-180.579C647.5,-170.91 647.5,-157.668 647.5,-145.347"/>
<polygon fill="red" stroke="red" stroke-width="0.37069" points="651,-145.311 647.5,-135.311 644,-145.311 651,-145.311"/>
</g>
<!-- 2&#45;&gt;1925 -->
<g id="edge22" class="edge"><title>2&#45;&gt;1925</title>
<path fill="none" stroke="green" stroke-width="0.134859" stroke-dasharray="1,5" d="M341.004,-97.9854C332.389,-86.5675 318.726,-68.46 307.236,-53.2313"/>
<polygon fill="green" stroke="green" stroke-width="0.134859" points="309.939,-51.0024 301.122,-45.1277 304.351,-55.2185 309.939,-51.0024"/>
</g>
<!-- 2&#45;&gt;889 -->
<g id="edge53" class="edge"><title>2&#45;&gt;889</title>
<path fill="none" stroke="red" stroke-width="0.310948" d="M359.711,-98.9826C364.937,-94.2526 371.635,-88.9381 378.5,-85.4975 448.723,-50.3027 541.08,-34.9391 588.483,-29.0066"/>
<polygon fill="red" stroke="red" stroke-width="0.310948" points="588.923,-32.479 598.438,-27.818 588.093,-25.5284 588.923,-32.479"/>
</g>
<!-- 3&#45;&gt;913 -->
<g id="edge9" class="edge"><title>3&#45;&gt;913</title>
<path fill="none" stroke="green" stroke-width="0.3" d="M388.698,-269.199C384.536,-264.65 379.227,-259.703 373.5,-256.492 315.203,-223.811 287.745,-249.426 227.5,-220.492 225.147,-219.362 222.801,-218.035 220.512,-216.596"/>
<polygon fill="green" stroke="green" stroke-width="0.3" points="222.274,-213.556 212.081,-210.666 218.247,-219.281 222.274,-213.556"/>
</g>
<!-- 3&#45;&gt;889 -->
<g id="edge24" class="edge"><title>3&#45;&gt;889</title>
<path fill="none" stroke="red" stroke-width="0.335347" d="M401.825,-266.81C409.23,-245.154 425.859,-201.836 449.5,-170.995 491.519,-116.179 557.247,-67.399 593.431,-42.7429"/>
<polygon fill="red" stroke="red" stroke-width="0.335347" points="595.618,-45.4905 601.962,-37.0052 591.711,-39.6822 595.618,-45.4905"/>
</g>
<!-- 1666&#45;&gt;2 -->
<g id="edge15" class="edge"><title>1666&#45;&gt;2</title>
<path fill="none" stroke="red" stroke-width="0.337584" d="M462.856,-181.88C437.859,-166.304 395.975,-140.205 370.721,-124.469"/>
<polygon fill="red" stroke="red" stroke-width="0.337584" points="372.264,-121.307 361.926,-118.989 368.562,-127.248 372.264,-121.307"/>
</g>
<!-- 1666&#45;&gt;1490 -->
<g id="edge20" class="edge"><title>1666&#45;&gt;1490</title>
<path fill="none" stroke="green" stroke-width="0.381423" d="M505.278,-183.656C533.827,-169.121 584.082,-143.534 616.569,-126.994"/>
<polygon fill="green" stroke="green" stroke-width="0.381423" points="618.309,-130.036 625.632,-122.38 615.132,-123.798 618.309,-130.036"/>
</g>
<!-- 2690&#45;&gt;1490 -->
<g id="edge42" class="edge"><title>2690&#45;&gt;1490</title>
<path fill="none" stroke="red" stroke-width="0.362176" d="M724.99,-178.645C710.381,-165.938 689.822,-148.057 673.551,-133.905"/>
<polygon fill="red" stroke="red" stroke-width="0.362176" points="675.795,-131.218 665.953,-127.296 671.201,-136.499 675.795,-131.218"/>
</g>
<!-- 2474 -->
<g id="node34" class="node"><title>2474</title>
<ellipse fill="white" stroke="black" cx="925.5" cy="-110.246" rx="25" ry="25"/>
<text text-anchor="middle" x="925.5" y="-108.046" font-family="Times New Roman,serif" font-size="9.00">2474</text>
</g>
<!-- 2188&#45;&gt;2474 -->
<g id="edge32" class="edge"><title>2188&#45;&gt;2474</title>
<path fill="none" stroke="green" stroke-width="0.3" d="M897.484,-172.806C901.717,-163.505 906.727,-152.497 911.331,-142.38"/>
<polygon fill="green" stroke="green" stroke-width="0.3" points="914.626,-143.589 915.583,-133.038 908.255,-140.69 914.626,-143.589"/>
</g>
<!-- 2188&#45;&gt;889 -->
<g id="edge23" class="edge"><title>2188&#45;&gt;889</title>
<path fill="none" stroke="red" stroke-width="0.243872" stroke-dasharray="1,5" d="M885.382,-170.745C881.898,-145.896 872.706,-107.67 848.5,-85.4975 793.008,-34.6692 699.707,-25.9872 651.099,-25.162"/>
<polygon fill="red" stroke="red" stroke-width="0.243872" points="650.896,-21.6607 640.873,-25.0948 650.849,-28.6606 650.896,-21.6607"/>
</g>
<!-- 913&#45;&gt;2 -->
<g id="edge17" class="edge"><title>913&#45;&gt;2</title>
<path fill="none" stroke="red" stroke-width="0.267487" d="M212.476,-181.543C217.18,-177.925 222.428,-174.137 227.5,-170.995 260.453,-150.584 301.379,-131.754 326.459,-120.888"/>
<polygon fill="red" stroke="red" stroke-width="0.267487" points="328.042,-124.017 335.86,-116.867 325.289,-117.581 328.042,-124.017"/>
</g>
<!-- 2474&#45;&gt;889 -->
<g id="edge33" class="edge"><title>2474&#45;&gt;889</title>
<path fill="none" stroke="red" stroke-width="0.243872" d="M905.515,-95.3598C899.599,-91.7302 892.969,-88.1081 886.5,-85.4975 804.869,-52.5555 701.507,-35.9967 650.653,-29.3642"/>
<polygon fill="red" stroke="red" stroke-width="0.243872" points="650.985,-25.8784 640.625,-28.0972 650.108,-32.8232 650.985,-25.8784"/>
</g>
<!-- 2221&#45;&gt;1925 -->
<g id="edge43" class="edge"><title>2221&#45;&gt;1925</title>
<path fill="none" stroke="green" stroke-width="0.147885" stroke-dasharray="1,5" d="M691.004,-362.112C634.938,-353.48 499.147,-330.588 460.5,-305.99 436.873,-290.952 443.53,-273.786 421.5,-256.492 391.149,-232.667 367.698,-249.713 342.5,-220.492 302.895,-174.564 291.236,-102.182 287.844,-59.8011"/>
<polygon fill="green" stroke="green" stroke-width="0.147885" points="291.328,-59.4426 287.149,-49.707 284.345,-59.9241 291.328,-59.4426"/>
</g>
<!-- 2221&#45;&gt;1498 -->
<g id="edge26" class="edge"><title>2221&#45;&gt;1498</title>
<path fill="none" stroke="green" stroke-width="0.188824" d="M730.703,-346.792C739.612,-335.689 751.012,-321.483 760.847,-309.225"/>
<polygon fill="green" stroke="green" stroke-width="0.188824" points="763.828,-311.103 767.357,-301.113 758.369,-306.722 763.828,-311.103"/>
</g>
<!-- 2906 -->
<g id="node43" class="node"><title>2906</title>
<ellipse fill="white" stroke="black" cx="715.5" cy="-281.241" rx="25" ry="25"/>
<text text-anchor="middle" x="715.5" y="-279.041" font-family="Times New Roman,serif" font-size="9.00">2906</text>
</g>
<!-- 2221&#45;&gt;2906 -->
<g id="edge57" class="edge"><title>2221&#45;&gt;2906</title>
<path fill="none" stroke="green" stroke-width="0.3" d="M715.5,-341.588C715.5,-333.644 715.5,-324.659 715.5,-316.129"/>
<polygon fill="green" stroke="green" stroke-width="0.3" points="719,-316.049 715.5,-306.049 712,-316.049 719,-316.049"/>
</g>
<!-- 2490&#45;&gt;913 -->
<g id="edge35" class="edge"><title>2490&#45;&gt;913</title>
<path fill="none" stroke="green" stroke-width="0.161662" stroke-dasharray="1,5" d="M178.901,-428.956C166.026,-392.378 144.931,-317.558 161.5,-256.492 164.86,-244.109 171.502,-231.665 178.106,-221.364"/>
<polygon fill="green" stroke="green" stroke-width="0.161662" points="181.114,-223.164 183.816,-212.919 175.315,-219.243 181.114,-223.164"/>
</g>
<!-- 2881 -->
<g id="node37" class="node"><title>2881</title>
<ellipse fill="white" stroke="black" cx="233.5" cy="-366.739" rx="25" ry="25"/>
<text text-anchor="middle" x="233.5" y="-364.539" font-family="Times New Roman,serif" font-size="9.00">2881</text>
</g>
<!-- 2490&#45;&gt;2881 -->
<g id="edge55" class="edge"><title>2490&#45;&gt;2881</title>
<path fill="none" stroke="green" stroke-width="0.3" d="M199.108,-430.166C204.501,-420.376 211.013,-408.557 216.912,-397.848"/>
<polygon fill="green" stroke="green" stroke-width="0.3" points="220.136,-399.25 221.896,-388.802 214.005,-395.872 220.136,-399.25"/>
</g>
<!-- 2761 -->
<g id="node38" class="node"><title>2761</title>
<ellipse fill="white" stroke="black" cx="195.5" cy="-281.241" rx="25" ry="25"/>
<text text-anchor="middle" x="195.5" y="-279.041" font-family="Times New Roman,serif" font-size="9.00">2761</text>
</g>
<!-- 2490&#45;&gt;2761 -->
<g id="edge45" class="edge"><title>2490&#45;&gt;2761</title>
<path fill="none" stroke="green" stroke-width="0.3" stroke-dasharray="1,5" d="M188.629,-427.382C190.005,-398.319 192.338,-349.026 193.899,-316.058"/>
<polygon fill="green" stroke="green" stroke-width="0.3" points="197.4,-316.129 194.377,-305.974 190.407,-315.798 197.4,-316.129"/>
</g>
<!-- 2881&#45;&gt;2761 -->
<g id="edge56" class="edge"><title>2881&#45;&gt;2761</title>
<path fill="none" stroke="green" stroke-width="0.3" d="M223.516,-343.801C219.283,-334.5 214.273,-323.492 209.669,-313.375"/>
<polygon fill="green" stroke="green" stroke-width="0.3" points="212.745,-311.685 205.417,-304.033 206.374,-314.584 212.745,-311.685"/>
</g>
<!-- 2761&#45;&gt;913 -->
<g id="edge46" class="edge"><title>2761&#45;&gt;913</title>
<path fill="none" stroke="green" stroke-width="0.161662" d="M195.789,-256.09C195.897,-247.132 196.02,-236.85 196.133,-227.389"/>
<polygon fill="green" stroke="green" stroke-width="0.161662" points="199.635,-227.211 196.255,-217.169 192.636,-227.127 199.635,-227.211"/>
</g>
<!-- 2637&#45;&gt;847 -->
<g id="edge39" class="edge"><title>2637&#45;&gt;847</title>
<path fill="none" stroke="green" stroke-width="0.115973" d="M322.51,-262.94C309.923,-250.124 292.675,-232.561 279.108,-218.746"/>
<polygon fill="green" stroke="green" stroke-width="0.115973" points="281.506,-216.193 272.002,-211.511 276.512,-221.098 281.506,-216.193"/>
</g>
<!-- 847&#45;&gt;2 -->
<g id="edge8" class="edge"><title>847&#45;&gt;2</title>
<path fill="none" stroke="red" stroke-width="0.337584" d="M273.107,-180.579C289.231,-165.945 314.374,-143.126 331.37,-127.7"/>
<polygon fill="red" stroke="red" stroke-width="0.337584" points="333.931,-130.102 338.984,-120.79 329.227,-124.919 333.931,-130.102"/>
</g>
<!-- 1490&#45;&gt;889 -->
<g id="edge60" class="edge"><title>1490&#45;&gt;889</title>
<path fill="none" stroke="green" stroke-width="0.388195" d="M639.849,-86.4302C636.56,-76.6237 632.679,-65.0492 629.192,-54.6522"/>
<polygon fill="green" stroke="green" stroke-width="0.388195" points="632.501,-53.5092 626.003,-45.1409 625.864,-55.7348 632.501,-53.5092"/>
</g>
<!-- 1498&#45;&gt;2690 -->
<g id="edge49" class="edge"><title>1498&#45;&gt;2690</title>
<path fill="none" stroke="green" stroke-width="0.471189" d="M772.253,-258.303C767.909,-249.003 762.767,-237.995 758.042,-227.877"/>
<polygon fill="green" stroke="green" stroke-width="0.471189" points="761.081,-226.114 753.678,-218.535 754.739,-229.077 761.081,-226.114"/>
</g>
<!-- 2906&#45;&gt;1925 -->
<g id="edge58" class="edge"><title>2906&#45;&gt;1925</title>
<path fill="none" stroke="green" stroke-width="0.147885" d="M711.732,-256.69C706.649,-232.217 695.326,-194.3 671.5,-170.995 644.945,-145.021 407.417,-65.3809 319.249,-36.4197"/>
<polygon fill="green" stroke="green" stroke-width="0.147885" points="320.334,-33.0922 309.741,-33.3031 318.153,-39.744 320.334,-33.0922"/>
</g>
<!-- 2906&#45;&gt;2690 -->
<g id="edge61" class="edge"><title>2906&#45;&gt;2690</title>
<path fill="none" stroke="red" stroke-width="0.300682" d="M723.151,-257.425C726.083,-248.681 729.487,-238.531 732.662,-229.064"/>
<polygon fill="red" stroke="red" stroke-width="0.300682" points="735.997,-230.126 735.858,-219.532 729.36,-227.9 735.997,-230.126"/>
</g>
<!-- 2813&#45;&gt;2490 -->
<g id="edge51" class="edge"><title>2813&#45;&gt;2490</title>
<path fill="none" stroke="green" stroke-width="0.3" d="M193.229,-513.03C192.46,-505.009 191.587,-495.888 190.757,-487.228"/>
<polygon fill="green" stroke="green" stroke-width="0.3" points="194.215,-486.62 189.777,-476.999 187.247,-487.287 194.215,-486.62"/>
</g>
</g>
</svg>
