<?xml version="1.0" encoding="UTF-8" standalone="no"?>
<!DOCTYPE svg PUBLIC "-//W3C//DTD SVG 1.1//EN"
 "http://www.w3.org/Graphics/SVG/1.1/DTD/svg11.dtd">
<!-- Generated by graphviz version 2.38.0 (20140413.2041)
 -->
<!-- Title: %3 Pages: 1 -->
<svg width="464pt" height="92pt"
 viewBox="0.00 0.00 463.50 91.70" xmlns="http://www.w3.org/2000/svg" xmlns:xlink="http://www.w3.org/1999/xlink">
<g id="graph0" class="graph" transform="scale(1 1) rotate(0) translate(4 87.6985)">
<title>%3</title>
<polygon fill="white" stroke="none" points="-4,4 -4,-87.6985 459.5,-87.6985 459.5,4 -4,4"/>
<!-- &#45;1 -->
<g id="node1" class="node"><title>&#45;1</title>
<polygon fill="lightgray" stroke="black" points="71.5,-83.6985 47.5,-83.6985 47.5,-65.6985 71.5,-65.6985 71.5,-83.6985"/>
<text text-anchor="middle" x="59.5" y="-72.4985" font-family="Times New Roman,serif" font-size="9.00">&#45;1</text>
</g>
<!-- 0 -->
<g id="node12" class="node"><title>0</title>
<ellipse fill="lightblue" stroke="black" cx="197.5" cy="-14.8492" rx="14.7" ry="14.7"/>
<text text-anchor="middle" x="197.5" y="-12.6492" font-family="Times New Roman,serif" font-size="9.00">0</text>
</g>
<!-- &#45;1&#45;&gt;0 -->
<g id="edge1" class="edge"><title>&#45;1&#45;&gt;0</title>
<path fill="none" stroke="green" stroke-width="0.293476" d="M71.511,-69.1201C99.8058,-58.3269 168.643,-32.0199 173.5,-29.6985 174.336,-29.2991 175.181,-28.8815 176.03,-28.4507"/>
<polygon fill="green" stroke="green" stroke-width="0.293476" points="177.894,-31.4207 184.993,-23.5555 174.539,-25.2774 177.894,-31.4207"/>
</g>
<!-- 1 -->
<g id="node13" class="node"><title>1</title>
<ellipse fill="lightblue" stroke="black" cx="101.5" cy="-14.8492" rx="14.7" ry="14.7"/>
<text text-anchor="middle" x="101.5" y="-12.6492" font-family="Times New Roman,serif" font-size="9.00">1</text>
</g>
<!-- &#45;1&#45;&gt;1 -->
<g id="edge2" class="edge"><title>&#45;1&#45;&gt;1</title>
<path fill="none" stroke="green" stroke-width="0.374869" d="M65.3399,-65.6548C70.9749,-57.8934 79.7282,-45.8369 87.2111,-35.5302"/>
<polygon fill="green" stroke="green" stroke-width="0.374869" points="90.0587,-37.5653 93.1016,-27.4169 84.3942,-33.4527 90.0587,-37.5653"/>
</g>
<!-- 2 -->
<g id="node14" class="node"><title>2</title>
<ellipse fill="lightblue" stroke="black" cx="245.5" cy="-14.8492" rx="14.7" ry="14.7"/>
<text text-anchor="middle" x="245.5" y="-12.6492" font-family="Times New Roman,serif" font-size="9.00">2</text>
</g>
<!-- &#45;1&#45;&gt;2 -->
<g id="edge3" class="edge"><title>&#45;1&#45;&gt;2</title>
<path fill="none" stroke="red" stroke-width="0.189169" d="M71.8544,-68.724C74.6744,-67.6635 77.6735,-66.5945 80.5,-65.6985 142.153,-46.1544 161.598,-54.089 221.5,-29.6985 222.358,-29.3493 223.222,-28.9742 224.087,-28.5793"/>
<polygon fill="red" stroke="red" stroke-width="0.189169" points="225.886,-31.5885 233.124,-23.8515 222.641,-25.3861 225.886,-31.5885"/>
</g>
<!-- 3 -->
<g id="node15" class="node"><title>3</title>
<ellipse fill="lightblue" stroke="black" cx="293.5" cy="-14.8492" rx="14.7" ry="14.7"/>
<text text-anchor="middle" x="293.5" y="-12.6492" font-family="Times New Roman,serif" font-size="9.00">3</text>
</g>
<!-- &#45;1&#45;&gt;3 -->
<g id="edge4" class="edge"><title>&#45;1&#45;&gt;3</title>
<path fill="none" stroke="red" stroke-width="0.363721" d="M71.8153,-68.5939C74.6374,-67.5402 77.6472,-66.5068 80.5,-65.6985 162.772,-42.3879 189.345,-59.485 269.5,-29.6985 270.368,-29.3759 271.241,-29.0235 272.114,-28.6477"/>
<polygon fill="red" stroke="red" stroke-width="0.363721" points="273.875,-31.6781 281.185,-24.0089 270.688,-25.4458 273.875,-31.6781"/>
</g>
<!-- 4 -->
<g id="node16" class="node"><title>4</title>
<ellipse fill="lightblue" stroke="black" cx="341.5" cy="-14.8492" rx="14.7" ry="14.7"/>
<text text-anchor="middle" x="341.5" y="-12.6492" font-family="Times New Roman,serif" font-size="9.00">4</text>
</g>
<!-- &#45;1&#45;&gt;4 -->
<g id="edge5" class="edge"><title>&#45;1&#45;&gt;4</title>
<path fill="none" stroke="green" stroke-width="0.488972" d="M71.7936,-68.5144C74.6169,-67.4649 77.6326,-66.4532 80.5,-65.6985 183.533,-38.5803 216.953,-64.9333 317.5,-29.6985 318.374,-29.3922 319.252,-29.0537 320.129,-28.6895"/>
<polygon fill="green" stroke="green" stroke-width="0.488972" points="321.867,-31.7331 329.22,-24.1053 318.715,-25.4829 321.867,-31.7331"/>
</g>
<!-- 5 -->
<g id="node17" class="node"><title>5</title>
<ellipse fill="lightblue" stroke="black" cx="149.5" cy="-14.8492" rx="14.7" ry="14.7"/>
<text text-anchor="middle" x="149.5" y="-12.6492" font-family="Times New Roman,serif" font-size="9.00">5</text>
</g>
<!-- &#45;1&#45;&gt;5 -->
<g id="edge6" class="edge"><title>&#45;1&#45;&gt;5</title>
<path fill="none" stroke="green" stroke-width="0.14618" d="M71.6378,-65.8967C86.2652,-56.4946 111.078,-40.5455 128.762,-29.1793"/>
<polygon fill="green" stroke="green" stroke-width="0.14618" points="130.747,-32.0635 137.267,-23.7122 126.962,-26.175 130.747,-32.0635"/>
</g>
<!-- &#45;2 -->
<g id="node2" class="node"><title>&#45;2</title>
<polygon fill="lightgray" stroke="black" points="113.5,-83.6985 89.5,-83.6985 89.5,-65.6985 113.5,-65.6985 113.5,-83.6985"/>
<text text-anchor="middle" x="101.5" y="-72.4985" font-family="Times New Roman,serif" font-size="9.00">&#45;2</text>
</g>
<!-- &#45;2&#45;&gt;0 -->
<g id="edge7" class="edge"><title>&#45;2&#45;&gt;0</title>
<path fill="none" stroke="red" stroke-width="0.270578" d="M113.658,-66.3718C129.441,-56.8613 157.234,-40.1132 176.471,-28.5212"/>
<polygon fill="red" stroke="red" stroke-width="0.270578" points="178.378,-31.4583 185.137,-23.2991 174.765,-25.4627 178.378,-31.4583"/>
</g>
<!-- &#45;2&#45;&gt;1 -->
<g id="edge8" class="edge"><title>&#45;2&#45;&gt;1</title>
<path fill="none" stroke="green" stroke-width="0.110444" d="M101.5,-65.6548C101.5,-59.0498 101.5,-49.3344 101.5,-40.2339"/>
<polygon fill="green" stroke="green" stroke-width="0.110444" points="105,-40.0563 101.5,-30.0563 98.0001,-40.0564 105,-40.0563"/>
</g>
<!-- &#45;2&#45;&gt;2 -->
<g id="edge9" class="edge"><title>&#45;2&#45;&gt;2</title>
<path fill="none" stroke="green" stroke-width="0.302142" d="M113.925,-68.9293C116.742,-67.8583 119.721,-66.7329 122.5,-65.6985 166.377,-49.3644 179.063,-49.474 221.5,-29.6985 222.339,-29.3073 223.188,-28.8967 224.04,-28.4717"/>
<polygon fill="green" stroke="green" stroke-width="0.302142" points="225.894,-31.4481 233.016,-23.6039 222.557,-25.2948 225.894,-31.4481"/>
</g>
<!-- &#45;2&#45;&gt;3 -->
<g id="edge10" class="edge"><title>&#45;2&#45;&gt;3</title>
<path fill="none" stroke="green" stroke-width="0.110116" d="M113.848,-68.7034C116.668,-67.644 119.669,-66.5806 122.5,-65.6985 186.718,-45.6873 207.079,-54.7588 269.5,-29.6985 270.359,-29.3535 271.225,-28.982 272.092,-28.5901"/>
<polygon fill="green" stroke="green" stroke-width="0.110116" points="273.884,-31.6027 281.134,-23.8764 270.648,-25.3955 273.884,-31.6027"/>
</g>
<!-- &#45;2&#45;&gt;4 -->
<g id="edge11" class="edge"><title>&#45;2&#45;&gt;4</title>
<path fill="none" stroke="red" stroke-width="0.394116" d="M113.812,-68.5819C116.634,-67.5289 119.645,-66.4987 122.5,-65.6985 207.361,-41.9135 234.802,-60.164 317.5,-29.6985 318.369,-29.3784 319.243,-29.0281 320.116,-28.654"/>
<polygon fill="red" stroke="red" stroke-width="0.394116" points="321.874,-31.6864 329.19,-24.0234 318.692,-25.4513 321.874,-31.6864"/>
</g>
<!-- &#45;2&#45;&gt;5 -->
<g id="edge12" class="edge"><title>&#45;2&#45;&gt;5</title>
<path fill="none" stroke="green" stroke-width="0.111228" d="M108.174,-65.6548C114.76,-57.7178 125.072,-45.2891 133.748,-34.8334"/>
<polygon fill="green" stroke="green" stroke-width="0.111228" points="136.56,-36.9253 140.252,-26.9946 131.173,-32.4555 136.56,-36.9253"/>
</g>
<!-- &#45;3 -->
<g id="node3" class="node"><title>&#45;3</title>
<polygon fill="lightgray" stroke="black" points="155.5,-83.6985 131.5,-83.6985 131.5,-65.6985 155.5,-65.6985 155.5,-83.6985"/>
<text text-anchor="middle" x="143.5" y="-72.4985" font-family="Times New Roman,serif" font-size="9.00">&#45;3</text>
</g>
<!-- &#45;3&#45;&gt;0 -->
<g id="edge13" class="edge"><title>&#45;3&#45;&gt;0</title>
<path fill="none" stroke="red" stroke-width="0.199166" d="M151.008,-65.6548C158.675,-57.4413 170.832,-44.4177 180.792,-33.7481"/>
<polygon fill="red" stroke="red" stroke-width="0.199166" points="183.604,-35.8649 187.869,-26.1665 178.487,-31.0883 183.604,-35.8649"/>
</g>
<!-- &#45;3&#45;&gt;1 -->
<g id="edge14" class="edge"><title>&#45;3&#45;&gt;1</title>
<path fill="none" stroke="red" stroke-width="0.101776" d="M137.66,-65.6548C132.025,-57.8934 123.272,-45.8369 115.789,-35.5302"/>
<polygon fill="red" stroke="red" stroke-width="0.101776" points="118.606,-33.4527 109.898,-27.4169 112.941,-37.5653 118.606,-33.4527"/>
</g>
<!-- &#45;3&#45;&gt;2 -->
<g id="edge15" class="edge"><title>&#45;3&#45;&gt;2</title>
<path fill="none" stroke="red" stroke-width="0.206041" d="M155.68,-66.876C171.047,-58.2577 198.273,-42.951 221.5,-29.6985 222.304,-29.2396 223.123,-28.7714 223.95,-28.2978"/>
<polygon fill="red" stroke="red" stroke-width="0.206041" points="225.885,-31.223 232.809,-23.2036 222.395,-25.1548 225.885,-31.223"/>
</g>
<!-- &#45;3&#45;&gt;3 -->
<g id="edge16" class="edge"><title>&#45;3&#45;&gt;3</title>
<path fill="none" stroke="red" stroke-width="0.283811" d="M155.911,-68.8912C158.728,-67.8221 161.712,-66.7072 164.5,-65.6985 210.891,-48.9149 224.593,-50.1221 269.5,-29.6985 270.343,-29.3151 271.195,-28.9111 272.05,-28.4917"/>
<polygon fill="red" stroke="red" stroke-width="0.283811" points="273.893,-31.4741 281.037,-23.6498 270.573,-25.3115 273.893,-31.4741"/>
</g>
<!-- &#45;3&#45;&gt;4 -->
<g id="edge17" class="edge"><title>&#45;3&#45;&gt;4</title>
<path fill="none" stroke="red" stroke-width="0.437385" d="M155.842,-68.6843C158.663,-67.626 161.665,-66.5677 164.5,-65.6985 231.288,-45.2189 252.555,-55.4303 317.5,-29.6985 318.361,-29.3574 319.228,-28.9893 320.096,-28.6001"/>
<polygon fill="red" stroke="red" stroke-width="0.437385" points="321.883,-31.6158 329.143,-23.8994 318.656,-25.4042 321.883,-31.6158"/>
</g>
<!-- &#45;3&#45;&gt;5 -->
<g id="edge18" class="edge"><title>&#45;3&#45;&gt;5</title>
<path fill="none" stroke="red" stroke-width="0.348531" d="M144.334,-65.6548C145.019,-59.0498 146.027,-49.3344 146.971,-40.2339"/>
<polygon fill="red" stroke="red" stroke-width="0.348531" points="150.476,-40.3641 148.026,-30.0563 143.513,-39.6419 150.476,-40.3641"/>
</g>
<!-- &#45;4 -->
<g id="node4" class="node"><title>&#45;4</title>
<polygon fill="lightgray" stroke="black" points="197.5,-83.6985 173.5,-83.6985 173.5,-65.6985 197.5,-65.6985 197.5,-83.6985"/>
<text text-anchor="middle" x="185.5" y="-72.4985" font-family="Times New Roman,serif" font-size="9.00">&#45;4</text>
</g>
<!-- &#45;4&#45;&gt;0 -->
<g id="edge19" class="edge"><title>&#45;4&#45;&gt;0</title>
<path fill="none" stroke="green" stroke-width="0.185103" d="M187.169,-65.6548C188.572,-58.8878 190.653,-48.8559 192.58,-39.5653"/>
<polygon fill="green" stroke="green" stroke-width="0.185103" points="196.043,-40.107 194.647,-29.6046 189.188,-38.6852 196.043,-40.107"/>
</g>
<!-- &#45;4&#45;&gt;1 -->
<g id="edge20" class="edge"><title>&#45;4&#45;&gt;1</title>
<path fill="none" stroke="red" stroke-width="0.127899" d="M173.82,-65.6548C160.355,-56.3818 137.988,-40.978 121.688,-29.7523"/>
<polygon fill="red" stroke="red" stroke-width="0.127899" points="123.573,-26.8005 113.351,-24.0111 119.602,-32.5656 123.573,-26.8005"/>
</g>
<!-- &#45;4&#45;&gt;2 -->
<g id="edge21" class="edge"><title>&#45;4&#45;&gt;2</title>
<path fill="none" stroke="green" stroke-width="0.209088" d="M193.843,-65.6548C202.633,-57.1793 216.736,-43.5822 227.987,-32.7347"/>
<polygon fill="green" stroke="green" stroke-width="0.209088" points="230.45,-35.2215 235.22,-25.761 225.591,-30.1823 230.45,-35.2215"/>
</g>
<!-- &#45;4&#45;&gt;3 -->
<g id="edge22" class="edge"><title>&#45;4&#45;&gt;3</title>
<path fill="none" stroke="red" stroke-width="0.110449" d="M197.545,-67.585C213.93,-59.2241 244.113,-43.6645 269.5,-29.6985 270.311,-29.2521 271.136,-28.7946 271.969,-28.3301"/>
<polygon fill="red" stroke="red" stroke-width="0.110449" points="273.889,-31.2645 280.85,-23.2778 270.428,-25.18 273.889,-31.2645"/>
</g>
<!-- &#45;4&#45;&gt;4 -->
<g id="edge23" class="edge"><title>&#45;4&#45;&gt;4</title>
<path fill="none" stroke="green" stroke-width="0.116375" d="M197.899,-68.8567C200.717,-67.7894 203.703,-66.6839 206.5,-65.6985 255.415,-48.4615 270.113,-50.775 317.5,-29.6985 318.346,-29.3222 319.201,-28.9241 320.058,-28.5097"/>
<polygon fill="green" stroke="green" stroke-width="0.116375" points="321.892,-31.4976 329.056,-23.6914 318.588,-25.3267 321.892,-31.4976"/>
</g>
<!-- &#45;4&#45;&gt;5 -->
<g id="edge24" class="edge"><title>&#45;4&#45;&gt;5</title>
<path fill="none" stroke="red" stroke-width="0.11486" d="M180.494,-65.6548C175.82,-58.1437 168.643,-46.6101 162.371,-36.5326"/>
<polygon fill="red" stroke="red" stroke-width="0.11486" points="165.22,-34.4854 156.965,-27.8444 159.277,-38.1839 165.22,-34.4854"/>
</g>
<!-- &#45;5 -->
<g id="node5" class="node"><title>&#45;5</title>
<polygon fill="lightgray" stroke="black" points="239.5,-83.6985 215.5,-83.6985 215.5,-65.6985 239.5,-65.6985 239.5,-83.6985"/>
<text text-anchor="middle" x="227.5" y="-72.4985" font-family="Times New Roman,serif" font-size="9.00">&#45;5</text>
</g>
<!-- &#45;5&#45;&gt;0 -->
<g id="edge25" class="edge"><title>&#45;5&#45;&gt;0</title>
<path fill="none" stroke="red" stroke-width="0.208796" d="M223.329,-65.6548C219.522,-58.3144 213.723,-47.1324 208.584,-37.2221"/>
<polygon fill="red" stroke="red" stroke-width="0.208796" points="211.656,-35.5431 203.945,-28.2771 205.442,-38.7657 211.656,-35.5431"/>
</g>
<!-- &#45;5&#45;&gt;1 -->
<g id="edge26" class="edge"><title>&#45;5&#45;&gt;1</title>
<path fill="none" stroke="green" stroke-width="0.265712" d="M215.359,-68.9933C196.032,-61.3854 157.213,-45.6211 125.5,-29.6985 124.672,-29.283 123.834,-28.8516 122.99,-28.4092"/>
<polygon fill="green" stroke="green" stroke-width="0.265712" points="124.498,-25.2433 114.054,-23.4599 121.106,-31.3668 124.498,-25.2433"/>
</g>
<!-- &#45;5&#45;&gt;2 -->
<g id="edge27" class="edge"><title>&#45;5&#45;&gt;2</title>
<path fill="none" stroke="green" stroke-width="0.586162" d="M230.003,-65.6548C232.159,-58.7238 235.382,-48.3678 238.33,-38.8914"/>
<polygon fill="green" stroke="green" stroke-width="0.586162" points="241.73,-39.7457 241.359,-29.1573 235.046,-37.6659 241.73,-39.7457"/>
</g>
<!-- &#45;5&#45;&gt;3 -->
<g id="edge28" class="edge"><title>&#45;5&#45;&gt;3</title>
<path fill="none" stroke="red" stroke-width="0.274272" d="M236.677,-65.6548C246.556,-56.996 262.534,-42.9914 275.034,-32.0346"/>
<polygon fill="red" stroke="red" stroke-width="0.274272" points="277.434,-34.5849 282.648,-25.3614 272.82,-29.3208 277.434,-34.5849"/>
</g>
<!-- &#45;5&#45;&gt;4 -->
<g id="edge29" class="edge"><title>&#45;5&#45;&gt;4</title>
<path fill="none" stroke="green" stroke-width="0.44922" d="M239.57,-68.1206C256.966,-60.0085 290.017,-44.324 317.5,-29.6985 318.317,-29.2634 319.148,-28.8155 319.984,-28.3591"/>
<polygon fill="green" stroke="green" stroke-width="0.44922" points="321.891,-31.302 328.886,-23.3446 318.456,-25.203 321.891,-31.302"/>
</g>
<!-- &#45;5&#45;&gt;5 -->
<g id="edge30" class="edge"><title>&#45;5&#45;&gt;5</title>
<path fill="none" stroke="red" stroke-width="0.19692" d="M216.654,-65.6548C204.407,-56.5715 184.228,-41.6056 169.182,-30.4463"/>
<polygon fill="red" stroke="red" stroke-width="0.19692" points="171.131,-27.5348 161.014,-24.389 166.962,-33.1573 171.131,-27.5348"/>
</g>
<!-- &#45;6 -->
<g id="node6" class="node"><title>&#45;6</title>
<polygon fill="lightgray" stroke="black" points="281.5,-83.6985 257.5,-83.6985 257.5,-65.6985 281.5,-65.6985 281.5,-83.6985"/>
<text text-anchor="middle" x="269.5" y="-72.4985" font-family="Times New Roman,serif" font-size="9.00">&#45;6</text>
</g>
<!-- &#45;6&#45;&gt;0 -->
<g id="edge31" class="edge"><title>&#45;6&#45;&gt;0</title>
<path fill="none" stroke="red" stroke-width="0.169284" d="M259.489,-65.6548C248.481,-56.8107 230.532,-42.3896 216.774,-31.3354"/>
<polygon fill="red" stroke="red" stroke-width="0.169284" points="218.837,-28.5028 208.849,-24.9678 214.452,-33.9596 218.837,-28.5028"/>
</g>
<!-- &#45;6&#45;&gt;1 -->
<g id="edge32" class="edge"><title>&#45;6&#45;&gt;1</title>
<path fill="none" stroke="red" stroke-width="0.347463" d="M257.122,-68.7966C254.303,-67.7324 251.31,-66.6434 248.5,-65.6985 194.51,-47.5455 177.873,-52.0922 125.5,-29.6985 124.649,-29.3344 123.789,-28.9468 122.929,-28.5412"/>
<polygon fill="red" stroke="red" stroke-width="0.347463" points="124.388,-25.3534 113.913,-23.7638 121.11,-31.5387 124.388,-25.3534"/>
</g>
<!-- &#45;6&#45;&gt;2 -->
<g id="edge33" class="edge"><title>&#45;6&#45;&gt;2</title>
<path fill="none" stroke="red" stroke-width="0.177259" d="M266.163,-65.6548C263.219,-58.5579 258.785,-47.8701 254.778,-38.2124"/>
<polygon fill="red" stroke="red" stroke-width="0.177259" points="257.902,-36.6102 250.838,-28.7148 251.437,-39.2927 257.902,-36.6102"/>
</g>
<!-- &#45;6&#45;&gt;3 -->
<g id="edge34" class="edge"><title>&#45;6&#45;&gt;3</title>
<path fill="none" stroke="red" stroke-width="0.156247" d="M272.837,-65.6548C275.781,-58.5579 280.215,-47.8701 284.222,-38.2124"/>
<polygon fill="red" stroke="red" stroke-width="0.156247" points="287.563,-39.2927 288.162,-28.7148 281.098,-36.6102 287.563,-39.2927"/>
</g>
<!-- &#45;6&#45;&gt;4 -->
<g id="edge35" class="edge"><title>&#45;6&#45;&gt;4</title>
<path fill="none" stroke="red" stroke-width="0.175373" d="M279.511,-65.6548C290.519,-56.8107 308.468,-42.3896 322.226,-31.3354"/>
<polygon fill="red" stroke="red" stroke-width="0.175373" points="324.548,-33.9596 330.151,-24.9678 320.163,-28.5028 324.548,-33.9596"/>
</g>
<!-- &#45;6&#45;&gt;5 -->
<g id="edge36" class="edge"><title>&#45;6&#45;&gt;5</title>
<path fill="none" stroke="green" stroke-width="0.114261" d="M257.201,-68.5014C238.767,-60.6133 202.987,-44.9212 173.5,-29.6985 172.677,-29.2737 171.842,-28.8344 171.002,-28.3854"/>
<polygon fill="green" stroke="green" stroke-width="0.114261" points="172.519,-25.224 162.082,-23.4051 169.107,-31.336 172.519,-25.224"/>
</g>
<!-- &#45;7 -->
<g id="node7" class="node"><title>&#45;7</title>
<polygon fill="lightgray" stroke="black" points="455.5,-83.6985 431.5,-83.6985 431.5,-65.6985 455.5,-65.6985 455.5,-83.6985"/>
<text text-anchor="middle" x="443.5" y="-72.4985" font-family="Times New Roman,serif" font-size="9.00">&#45;7</text>
</g>
<!-- &#45;7&#45;&gt;0 -->
<g id="edge37" class="edge"><title>&#45;7&#45;&gt;0</title>
<path fill="none" stroke="green" stroke-width="0.148563" d="M431.191,-68.5706C428.369,-67.5182 425.357,-66.4911 422.5,-65.6985 335.048,-41.4386 306.743,-60.8437 221.5,-29.6985 220.63,-29.3807 219.755,-29.0324 218.882,-28.6599"/>
<polygon fill="green" stroke="green" stroke-width="0.148563" points="220.304,-25.4566 209.805,-24.0371 217.127,-31.6942 220.304,-25.4566"/>
</g>
<!-- &#45;7&#45;&gt;2 -->
<g id="edge38" class="edge"><title>&#45;7&#45;&gt;2</title>
<path fill="none" stroke="green" stroke-width="0.383814" d="M431.158,-68.6843C428.337,-67.626 425.335,-66.5677 422.5,-65.6985 355.712,-45.2189 334.445,-55.4303 269.5,-29.6985 268.639,-29.3574 267.772,-28.9893 266.904,-28.6001"/>
<polygon fill="green" stroke="green" stroke-width="0.383814" points="268.344,-25.4042 257.857,-23.8994 265.117,-31.6158 268.344,-25.4042"/>
</g>
<!-- &#45;7&#45;&gt;3 -->
<g id="edge39" class="edge"><title>&#45;7&#45;&gt;3</title>
<path fill="none" stroke="green" stroke-width="0.109414" d="M431.089,-68.8912C428.272,-67.8221 425.288,-66.7072 422.5,-65.6985 376.109,-48.9149 362.407,-50.1221 317.5,-29.6985 316.657,-29.3151 315.805,-28.9111 314.95,-28.4917"/>
<polygon fill="green" stroke="green" stroke-width="0.109414" points="316.427,-25.3115 305.963,-23.6498 313.107,-31.4741 316.427,-25.3115"/>
</g>
<!-- &#45;7&#45;&gt;4 -->
<g id="edge40" class="edge"><title>&#45;7&#45;&gt;4</title>
<path fill="none" stroke="red" stroke-width="0.315168" d="M431.399,-66.8352C414.558,-57.2841 383.786,-39.8316 362.991,-28.038"/>
<polygon fill="red" stroke="red" stroke-width="0.315168" points="364.65,-24.9551 354.225,-23.0662 361.197,-31.044 364.65,-24.9551"/>
</g>
<!-- &#45;7&#45;&gt;5 -->
<g id="edge41" class="edge"><title>&#45;7&#45;&gt;5</title>
<path fill="none" stroke="red" stroke-width="0.342167" d="M431.21,-68.4992C428.387,-67.4504 425.37,-66.4429 422.5,-65.6985 314.264,-37.625 279.157,-66.2999 173.5,-29.6985 172.625,-29.3954 171.746,-29.0595 170.868,-28.6976"/>
<polygon fill="red" stroke="red" stroke-width="0.342167" points="172.28,-25.49 161.774,-24.1238 169.135,-31.7437 172.28,-25.49"/>
</g>
<!-- &#45;8 -->
<g id="node8" class="node"><title>&#45;8</title>
<polygon fill="lightgray" stroke="black" points="323.5,-83.6985 299.5,-83.6985 299.5,-65.6985 323.5,-65.6985 323.5,-83.6985"/>
<text text-anchor="middle" x="311.5" y="-72.4985" font-family="Times New Roman,serif" font-size="9.00">&#45;8</text>
</g>
<!-- &#45;8&#45;&gt;0 -->
<g id="edge42" class="edge"><title>&#45;8&#45;&gt;0</title>
<path fill="none" stroke="green" stroke-width="0.197537" d="M299.43,-68.1206C282.034,-60.0085 248.983,-44.324 221.5,-29.6985 220.683,-29.2634 219.852,-28.8155 219.016,-28.3591"/>
<polygon fill="green" stroke="green" stroke-width="0.197537" points="220.544,-25.203 210.114,-23.3446 217.109,-31.302 220.544,-25.203"/>
</g>
<!-- &#45;8&#45;&gt;1 -->
<g id="edge43" class="edge"><title>&#45;8&#45;&gt;1</title>
<path fill="none" stroke="red" stroke-width="0.378733" d="M299.168,-68.6501C296.347,-67.5935 293.342,-66.5446 290.5,-65.6985 218.563,-44.2787 195.504,-56.7775 125.5,-29.6985 124.636,-29.3644 123.767,-29.0022 122.897,-28.6181"/>
<polygon fill="red" stroke="red" stroke-width="0.378733" points="124.332,-25.4199 113.841,-23.9409 121.12,-31.6394 124.332,-25.4199"/>
</g>
<!-- &#45;8&#45;&gt;2 -->
<g id="edge44" class="edge"><title>&#45;8&#45;&gt;2</title>
<path fill="none" stroke="red" stroke-width="0.101693" d="M302.323,-65.6548C292.444,-56.996 276.466,-42.9914 263.966,-32.0346"/>
<polygon fill="red" stroke="red" stroke-width="0.101693" points="266.18,-29.3208 256.352,-25.3614 261.566,-34.5849 266.18,-29.3208"/>
</g>
<!-- &#45;8&#45;&gt;3 -->
<g id="edge45" class="edge"><title>&#45;8&#45;&gt;3</title>
<path fill="none" stroke="green" stroke-width="0.206974" d="M308.997,-65.6548C306.841,-58.7238 303.618,-48.3678 300.67,-38.8914"/>
<polygon fill="green" stroke="green" stroke-width="0.206974" points="303.954,-37.6659 297.641,-29.1573 297.27,-39.7457 303.954,-37.6659"/>
</g>
<!-- &#45;8&#45;&gt;4 -->
<g id="edge46" class="edge"><title>&#45;8&#45;&gt;4</title>
<path fill="none" stroke="green" stroke-width="0.527431" d="M315.671,-65.6548C319.478,-58.3144 325.277,-47.1324 330.416,-37.2221"/>
<polygon fill="green" stroke="green" stroke-width="0.527431" points="333.558,-38.7657 335.055,-28.2771 327.344,-35.5431 333.558,-38.7657"/>
</g>
<!-- &#45;8&#45;&gt;5 -->
<g id="edge47" class="edge"><title>&#45;8&#45;&gt;5</title>
<path fill="none" stroke="green" stroke-width="0.233303" d="M299.112,-68.8253C296.294,-67.7596 293.304,-66.6628 290.5,-65.6985 239.052,-48.0049 223.376,-51.4319 173.5,-29.6985 172.651,-29.3286 171.794,-28.936 170.935,-28.5262"/>
<polygon fill="green" stroke="green" stroke-width="0.233303" points="172.399,-25.3407 161.928,-23.7292 169.109,-31.5191 172.399,-25.3407"/>
</g>
<!-- &#45;9 -->
<g id="node9" class="node"><title>&#45;9</title>
<polygon fill="lightgray" stroke="black" points="365.5,-83.6985 341.5,-83.6985 341.5,-65.6985 365.5,-65.6985 365.5,-83.6985"/>
<text text-anchor="middle" x="353.5" y="-72.4985" font-family="Times New Roman,serif" font-size="9.00">&#45;9</text>
</g>
<!-- &#45;9&#45;&gt;0 -->
<g id="edge48" class="edge"><title>&#45;9&#45;&gt;0</title>
<path fill="none" stroke="green" stroke-width="0.103818" d="M341.101,-68.8567C338.283,-67.7894 335.297,-66.6839 332.5,-65.6985 283.585,-48.4615 268.887,-50.775 221.5,-29.6985 220.654,-29.3222 219.799,-28.9241 218.942,-28.5097"/>
<polygon fill="green" stroke="green" stroke-width="0.103818" points="220.412,-25.3267 209.944,-23.6914 217.108,-31.4976 220.412,-25.3267"/>
</g>
<!-- &#45;9&#45;&gt;1 -->
<g id="edge49" class="edge"><title>&#45;9&#45;&gt;1</title>
<path fill="none" stroke="green" stroke-width="0.399471" d="M341.194,-68.56C338.372,-67.508 335.359,-66.4839 332.5,-65.6985 242.455,-40.9633 213.29,-61.524 125.5,-29.6985 124.629,-29.3829 123.754,-29.0364 122.88,-28.6655"/>
<polygon fill="green" stroke="green" stroke-width="0.399471" points="124.3,-25.4616 113.8,-24.05 121.128,-31.7016 124.3,-25.4616"/>
</g>
<!-- &#45;9&#45;&gt;2 -->
<g id="edge50" class="edge"><title>&#45;9&#45;&gt;2</title>
<path fill="none" stroke="red" stroke-width="0.254714" d="M341.455,-67.585C325.07,-59.2241 294.887,-43.6645 269.5,-29.6985 268.689,-29.2521 267.864,-28.7946 267.031,-28.3301"/>
<polygon fill="red" stroke="red" stroke-width="0.254714" points="268.572,-25.18 258.15,-23.2778 265.111,-31.2645 268.572,-25.18"/>
</g>
<!-- &#45;9&#45;&gt;3 -->
<g id="edge51" class="edge"><title>&#45;9&#45;&gt;3</title>
<path fill="none" stroke="green" stroke-width="0.279857" d="M345.157,-65.6548C336.367,-57.1793 322.264,-43.5822 311.013,-32.7347"/>
<polygon fill="green" stroke="green" stroke-width="0.279857" points="313.409,-30.1823 303.78,-25.761 308.55,-35.2215 313.409,-30.1823"/>
</g>
<!-- &#45;9&#45;&gt;4 -->
<g id="edge52" class="edge"><title>&#45;9&#45;&gt;4</title>
<path fill="none" stroke="red" stroke-width="0.406443" d="M351.831,-65.6548C350.428,-58.8878 348.347,-48.8559 346.42,-39.5653"/>
<polygon fill="red" stroke="red" stroke-width="0.406443" points="349.812,-38.6852 344.353,-29.6046 342.957,-40.107 349.812,-38.6852"/>
</g>
<!-- &#45;9&#45;&gt;5 -->
<g id="edge53" class="edge"><title>&#45;9&#45;&gt;5</title>
<path fill="none" stroke="red" stroke-width="0.202064" d="M341.163,-68.6666C338.342,-67.6091 335.338,-66.5558 332.5,-65.6985 263.139,-44.7493 240.973,-56.1032 173.5,-29.6985 172.638,-29.361 171.769,-28.996 170.901,-28.6094"/>
<polygon fill="red" stroke="red" stroke-width="0.202064" points="172.338,-25.4123 161.849,-23.9209 169.118,-31.628 172.338,-25.4123"/>
</g>
<!-- &#45;10 -->
<g id="node10" class="node"><title>&#45;10</title>
<polygon fill="lightgray" stroke="black" points="413,-83.6985 384,-83.6985 384,-65.6985 413,-65.6985 413,-83.6985"/>
<text text-anchor="middle" x="398.5" y="-72.4985" font-family="Times New Roman,serif" font-size="9.00">&#45;10</text>
</g>
<!-- &#45;10&#45;&gt;0 -->
<g id="edge54" class="edge"><title>&#45;10&#45;&gt;0</title>
<path fill="none" stroke="red" stroke-width="0.12175" d="M383.842,-68.5785C380.772,-67.5719 377.542,-66.5615 374.5,-65.6985 307.295,-46.6335 286.445,-55.4303 221.5,-29.6985 220.639,-29.3574 219.772,-28.9893 218.904,-28.6001"/>
<polygon fill="red" stroke="red" stroke-width="0.12175" points="220.344,-25.4042 209.857,-23.8994 217.117,-31.6158 220.344,-25.4042"/>
</g>
<!-- &#45;10&#45;&gt;1 -->
<g id="edge55" class="edge"><title>&#45;10&#45;&gt;1</title>
<path fill="none" stroke="green" stroke-width="0.421335" d="M383.896,-68.371C380.822,-67.3794 377.577,-66.4276 374.5,-65.6985 265.696,-39.9164 231.157,-66.2999 125.5,-29.6985 124.625,-29.3954 123.746,-29.0595 122.868,-28.6976"/>
<polygon fill="green" stroke="green" stroke-width="0.421335" points="124.28,-25.49 113.774,-24.1238 121.135,-31.7437 124.28,-25.49"/>
</g>
<!-- &#45;10&#45;&gt;2 -->
<g id="edge56" class="edge"><title>&#45;10&#45;&gt;2</title>
<path fill="none" stroke="red" stroke-width="0.222877" d="M383.945,-68.8186C351.351,-57.8789 274.914,-32.1555 269.5,-29.6985 268.657,-29.3158 267.805,-28.9123 266.95,-28.4934"/>
<polygon fill="red" stroke="red" stroke-width="0.222877" points="268.425,-25.313 257.961,-23.6538 265.107,-31.4763 268.425,-25.313"/>
</g>
<!-- &#45;10&#45;&gt;3 -->
<g id="edge57" class="edge"><title>&#45;10&#45;&gt;3</title>
<path fill="none" stroke="red" stroke-width="0.235753" d="M383.805,-65.8627C367.528,-57.1495 340.539,-42.6005 317.5,-29.6985 316.692,-29.246 315.87,-28.7833 315.04,-28.3144"/>
<polygon fill="red" stroke="red" stroke-width="0.235753" points="316.588,-25.1677 306.17,-23.2417 313.113,-31.2443 316.588,-25.1677"/>
</g>
<!-- &#45;10&#45;&gt;4 -->
<g id="edge58" class="edge"><title>&#45;10&#45;&gt;4</title>
<path fill="none" stroke="green" stroke-width="0.122875" d="M390.574,-65.6548C382.402,-57.3607 369.397,-44.1619 358.828,-33.435"/>
<polygon fill="green" stroke="green" stroke-width="0.122875" points="361.178,-30.8332 351.666,-26.1665 356.191,-35.7462 361.178,-30.8332"/>
</g>
<!-- &#45;10&#45;&gt;5 -->
<g id="edge59" class="edge"><title>&#45;10&#45;&gt;5</title>
<path fill="none" stroke="green" stroke-width="0.224017" d="M383.877,-68.451C380.803,-67.4537 377.564,-66.4793 374.5,-65.6985 286.555,-43.2904 258.743,-60.8437 173.5,-29.6985 172.63,-29.3807 171.755,-29.0324 170.882,-28.6599"/>
<polygon fill="green" stroke="green" stroke-width="0.224017" points="172.304,-25.4566 161.805,-24.0371 169.127,-31.6942 172.304,-25.4566"/>
</g>
<!-- &#45;11 -->
<g id="node11" class="node"><title>&#45;11</title>
<polygon fill="lightgray" stroke="black" points="29,-83.6985 0,-83.6985 0,-65.6985 29,-65.6985 29,-83.6985"/>
<text text-anchor="middle" x="14.5" y="-72.4985" font-family="Times New Roman,serif" font-size="9.00">&#45;11</text>
</g>
<!-- &#45;11&#45;&gt;0 -->
<g id="edge60" class="edge"><title>&#45;11&#45;&gt;0</title>
<path fill="none" stroke="red" stroke-width="0.134397" d="M29.1779,-68.6479C32.2471,-67.6363 35.4708,-66.6063 38.5,-65.6985 97.9828,-47.8718 116.113,-53.4211 173.5,-29.6985 174.356,-29.3447 175.219,-28.9658 176.083,-28.5676"/>
<polygon fill="red" stroke="red" stroke-width="0.134397" points="177.887,-31.5733 185.113,-23.8246 174.632,-25.3761 177.887,-31.5733"/>
</g>
<!-- &#45;11&#45;&gt;1 -->
<g id="edge61" class="edge"><title>&#45;11&#45;&gt;1</title>
<path fill="none" stroke="red" stroke-width="0.249871" d="M26.597,-65.6548C40.6215,-56.3294 63.9707,-40.8037 80.8766,-29.5624"/>
<polygon fill="red" stroke="red" stroke-width="0.249871" points="83.1166,-32.2762 89.5058,-23.8246 79.2406,-26.4472 83.1166,-32.2762"/>
</g>
<!-- &#45;11&#45;&gt;2 -->
<g id="edge62" class="edge"><title>&#45;11&#45;&gt;2</title>
<path fill="none" stroke="red" stroke-width="0.396356" d="M29.1338,-68.4914C32.2062,-67.4911 35.4424,-66.5053 38.5,-65.6985 118.649,-44.5491 143.887,-58.8068 221.5,-29.6985 222.367,-29.3733 223.239,-29.0187 224.111,-28.641"/>
<polygon fill="red" stroke="red" stroke-width="0.396356" points="225.876,-31.6694 233.179,-23.9935 222.684,-25.4399 225.876,-31.6694"/>
</g>
<!-- &#45;11&#45;&gt;3 -->
<g id="edge63" class="edge"><title>&#45;11&#45;&gt;3</title>
<path fill="none" stroke="green" stroke-width="0.624794" d="M29.11,-68.3972C32.1841,-67.4038 35.427,-66.4446 38.5,-65.6985 139.473,-41.1839 171.507,-64.2506 269.5,-29.6985 270.373,-29.3905 271.251,-29.0506 272.128,-28.6852"/>
<polygon fill="green" stroke="green" stroke-width="0.624794" points="273.868,-31.7275 281.216,-24.0953 270.712,-25.479 273.868,-31.7275"/>
</g>
<!-- &#45;11&#45;&gt;4 -->
<g id="edge64" class="edge"><title>&#45;11&#45;&gt;4</title>
<path fill="none" stroke="red" stroke-width="0.366252" d="M29.0952,-68.3346C32.1704,-67.3457 35.4175,-66.4041 38.5,-65.6985 160.376,-37.7994 199.051,-69.7216 317.5,-29.6985 318.377,-29.402 319.258,-29.0719 320.138,-28.7147"/>
<polygon fill="red" stroke="red" stroke-width="0.366252" points="321.861,-31.7662 329.24,-24.1633 318.73,-25.5054 321.861,-31.7662"/>
</g>
<!-- &#45;11&#45;&gt;5 -->
<g id="edge65" class="edge"><title>&#45;11&#45;&gt;5</title>
<path fill="none" stroke="green" stroke-width="0.201459" d="M29.1583,-68.6619C50.6778,-61.0957 91.9076,-45.9414 125.5,-29.6985 126.334,-29.2954 127.178,-28.8746 128.026,-28.441"/>
<polygon fill="green" stroke="green" stroke-width="0.201459" points="129.894,-31.4082 136.982,-23.5332 126.531,-25.2694 129.894,-31.4082"/>
</g>
</g>
</svg>
