<?xml version="1.0" encoding="UTF-8" standalone="no"?>
<!DOCTYPE svg PUBLIC "-//W3C//DTD SVG 1.1//EN"
 "http://www.w3.org/Graphics/SVG/1.1/DTD/svg11.dtd">
<!-- Generated by graphviz version 2.38.0 (20140413.2041)
 -->
<!-- Title: %3 Pages: 1 -->
<svg width="634pt" height="157pt"
 viewBox="0.00 0.00 633.80 157.40" xmlns="http://www.w3.org/2000/svg" xmlns:xlink="http://www.w3.org/1999/xlink">
<g id="graph0" class="graph" transform="scale(1 1) rotate(0) translate(4 153.397)">
<title>%3</title>
<polygon fill="white" stroke="none" points="-4,4 -4,-153.397 629.799,-153.397 629.799,4 -4,4"/>
<!-- &#45;1 -->
<g id="node1" class="node"><title>&#45;1</title>
<polygon fill="lightgray" stroke="black" points="322.849,-89.5477 298.849,-89.5477 298.849,-71.5477 322.849,-71.5477 322.849,-89.5477"/>
<text text-anchor="middle" x="310.849" y="-78.3477" font-family="Times New Roman,serif" font-size="9.00">&#45;1</text>
</g>
<!-- 0 -->
<g id="node12" class="node"><title>0</title>
<ellipse fill="lightblue" stroke="black" cx="442.849" cy="-14.8492" rx="14.7" ry="14.7"/>
<text text-anchor="middle" x="442.849" y="-12.6492" font-family="Times New Roman,serif" font-size="9.00">0</text>
</g>
<!-- &#45;1&#45;&gt;0 -->
<g id="edge1" class="edge"><title>&#45;1&#45;&gt;0</title>
<path fill="none" stroke="red" stroke-width="0.371762" d="M322.161,-71.5212C325.233,-69.4995 328.608,-67.4175 331.849,-65.6985 368.817,-46.0903 381.313,-48.1957 418.849,-29.6985 419.68,-29.2891 420.521,-28.8631 421.367,-28.4251"/>
<polygon fill="red" stroke="red" stroke-width="0.371762" points="423.244,-31.3874 430.313,-23.4965 419.866,-25.2563 423.244,-31.3874"/>
</g>
<!-- 1 -->
<g id="node13" class="node"><title>1</title>
<ellipse fill="lightblue" stroke="black" cx="490.849" cy="-14.8492" rx="14.7" ry="14.7"/>
<text text-anchor="middle" x="490.849" y="-12.6492" font-family="Times New Roman,serif" font-size="9.00">1</text>
</g>
<!-- &#45;1&#45;&gt;1 -->
<g id="edge2" class="edge"><title>&#45;1&#45;&gt;1</title>
<path fill="none" stroke="red" stroke-width="0.474812" d="M321.581,-71.5157C324.766,-69.4001 328.343,-67.2719 331.849,-65.6985 388.503,-40.2754 409.463,-53.4211 466.849,-29.6985 467.705,-29.3447 468.568,-28.9658 469.432,-28.5676"/>
<polygon fill="red" stroke="red" stroke-width="0.474812" points="471.236,-31.5733 478.462,-23.8246 467.981,-25.3761 471.236,-31.5733"/>
</g>
<!-- 2 -->
<g id="node14" class="node"><title>2</title>
<ellipse fill="lightblue" stroke="black" cx="346.849" cy="-14.8492" rx="14.7" ry="14.7"/>
<text text-anchor="middle" x="346.849" y="-12.6492" font-family="Times New Roman,serif" font-size="9.00">2</text>
</g>
<!-- &#45;1&#45;&gt;2 -->
<g id="edge3" class="edge"><title>&#45;1&#45;&gt;2</title>
<path fill="none" stroke="red" stroke-width="0.21041" d="M315.409,-71.4803C320.246,-62.9216 328.091,-49.0397 334.735,-37.2845"/>
<polygon fill="red" stroke="red" stroke-width="0.21041" points="337.851,-38.8834 339.725,-28.4554 331.757,-35.4392 337.851,-38.8834"/>
</g>
<!-- 3 -->
<g id="node15" class="node"><title>3</title>
<ellipse fill="lightblue" stroke="black" cx="394.849" cy="-14.8492" rx="14.7" ry="14.7"/>
<text text-anchor="middle" x="394.849" y="-12.6492" font-family="Times New Roman,serif" font-size="9.00">3</text>
</g>
<!-- &#45;1&#45;&gt;3 -->
<g id="edge4" class="edge"><title>&#45;1&#45;&gt;3</title>
<path fill="none" stroke="green" stroke-width="0.531706" d="M321.488,-71.4803C335.022,-61.2174 358.649,-43.3003 375.431,-30.5743"/>
<polygon fill="green" stroke="green" stroke-width="0.531706" points="377.64,-33.2918 383.493,-24.4606 373.41,-27.7141 377.64,-33.2918"/>
</g>
<!-- 4 -->
<g id="node16" class="node"><title>4</title>
<ellipse fill="lightblue" stroke="black" cx="298.849" cy="-14.8492" rx="14.7" ry="14.7"/>
<text text-anchor="middle" x="298.849" y="-12.6492" font-family="Times New Roman,serif" font-size="9.00">4</text>
</g>
<!-- &#45;1&#45;&gt;4 -->
<g id="edge5" class="edge"><title>&#45;1&#45;&gt;4</title>
<path fill="none" stroke="green" stroke-width="0.239919" d="M309.329,-71.4803C307.838,-63.565 305.489,-51.0967 303.393,-39.9685"/>
<polygon fill="green" stroke="green" stroke-width="0.239919" points="306.788,-39.0812 301.497,-29.9021 299.909,-40.3772 306.788,-39.0812"/>
</g>
<!-- 5 -->
<g id="node17" class="node"><title>5</title>
<ellipse fill="lightblue" stroke="black" cx="250.849" cy="-14.8492" rx="14.7" ry="14.7"/>
<text text-anchor="middle" x="250.849" y="-12.6492" font-family="Times New Roman,serif" font-size="9.00">5</text>
</g>
<!-- &#45;1&#45;&gt;5 -->
<g id="edge6" class="edge"><title>&#45;1&#45;&gt;5</title>
<path fill="none" stroke="red" stroke-width="0.186468" d="M303.25,-71.4803C294.352,-62.0334 279.345,-46.1011 267.665,-33.7018"/>
<polygon fill="red" stroke="red" stroke-width="0.186468" points="269.973,-31.047 260.568,-26.1676 264.877,-35.8467 269.973,-31.047"/>
</g>
<!-- &#45;2 -->
<g id="node2" class="node"><title>&#45;2</title>
<polygon fill="lightgray" stroke="black" points="364.849,-89.5477 340.849,-89.5477 340.849,-71.5477 364.849,-71.5477 364.849,-89.5477"/>
<text text-anchor="middle" x="352.849" y="-78.3477" font-family="Times New Roman,serif" font-size="9.00">&#45;2</text>
</g>
<!-- &#45;2&#45;&gt;0 -->
<g id="edge7" class="edge"><title>&#45;2&#45;&gt;0</title>
<path fill="none" stroke="green" stroke-width="0.171342" d="M364.248,-71.4803C378.829,-61.1604 404.345,-43.101 422.343,-30.3626"/>
<polygon fill="green" stroke="green" stroke-width="0.171342" points="424.831,-32.8895 430.972,-24.2555 420.787,-27.1758 424.831,-32.8895"/>
</g>
<!-- &#45;2&#45;&gt;1 -->
<g id="edge8" class="edge"><title>&#45;2&#45;&gt;1</title>
<path fill="none" stroke="green" stroke-width="0.143151" d="M364.135,-71.4705C367.207,-69.4492 370.589,-67.3801 373.849,-65.6985 413.241,-45.382 426.87,-48.8314 466.849,-29.6985 467.685,-29.2987 468.53,-28.8808 469.379,-28.4496"/>
<polygon fill="green" stroke="green" stroke-width="0.143151" points="471.244,-31.4194 478.341,-23.5531 467.887,-25.2765 471.244,-31.4194"/>
</g>
<!-- &#45;2&#45;&gt;2 -->
<g id="edge9" class="edge"><title>&#45;2&#45;&gt;2</title>
<path fill="none" stroke="red" stroke-width="0.175277" d="M352.089,-71.4803C351.344,-63.565 350.169,-51.0967 349.121,-39.9685"/>
<polygon fill="red" stroke="red" stroke-width="0.175277" points="352.595,-39.5297 348.173,-29.9021 345.626,-40.1863 352.595,-39.5297"/>
</g>
<!-- &#45;2&#45;&gt;3 -->
<g id="edge10" class="edge"><title>&#45;2&#45;&gt;3</title>
<path fill="none" stroke="green" stroke-width="0.337939" d="M358.169,-71.4803C363.938,-62.7301 373.376,-48.416 381.234,-36.4989"/>
<polygon fill="green" stroke="green" stroke-width="0.337939" points="384.265,-38.2603 386.847,-27.9851 378.421,-34.407 384.265,-38.2603"/>
</g>
<!-- &#45;2&#45;&gt;4 -->
<g id="edge11" class="edge"><title>&#45;2&#45;&gt;4</title>
<path fill="none" stroke="green" stroke-width="0.574054" d="M346.01,-71.4803C338.17,-62.2322 325.061,-46.7687 314.651,-34.4891"/>
<polygon fill="green" stroke="green" stroke-width="0.574054" points="317.11,-31.9767 307.973,-26.612 311.77,-36.5032 317.11,-31.9767"/>
</g>
<!-- &#45;2&#45;&gt;5 -->
<g id="edge12" class="edge"><title>&#45;2&#45;&gt;5</title>
<path fill="none" stroke="red" stroke-width="0.24307" d="M340.454,-71.2811C337.636,-69.4274 334.648,-67.4822 331.849,-65.6985 311.711,-52.8657 288.476,-38.6236 272.07,-28.6597"/>
<polygon fill="red" stroke="red" stroke-width="0.24307" points="273.641,-25.5191 263.275,-23.3304 270.014,-31.5059 273.641,-25.5191"/>
</g>
<!-- &#45;3 -->
<g id="node3" class="node"><title>&#45;3</title>
<polygon fill="lightgray" stroke="black" points="406.849,-89.5477 382.849,-89.5477 382.849,-71.5477 406.849,-71.5477 406.849,-89.5477"/>
<text text-anchor="middle" x="394.849" y="-78.3477" font-family="Times New Roman,serif" font-size="9.00">&#45;3</text>
</g>
<!-- &#45;3&#45;&gt;0 -->
<g id="edge13" class="edge"><title>&#45;3&#45;&gt;0</title>
<path fill="none" stroke="green" stroke-width="0.164652" d="M400.928,-71.4803C407.749,-62.4288 419.056,-47.4236 428.21,-35.2768"/>
<polygon fill="green" stroke="green" stroke-width="0.164652" points="431.176,-37.156 434.399,-27.0632 425.586,-32.9432 431.176,-37.156"/>
</g>
<!-- &#45;3&#45;&gt;1 -->
<g id="edge14" class="edge"><title>&#45;3&#45;&gt;1</title>
<path fill="none" stroke="green" stroke-width="0.312038" d="M407.008,-71.4803C422.949,-60.9028 451.144,-42.1945 470.399,-29.4188"/>
<polygon fill="green" stroke="green" stroke-width="0.312038" points="472.392,-32.2965 478.789,-23.8512 468.522,-26.4637 472.392,-32.2965"/>
</g>
<!-- &#45;3&#45;&gt;2 -->
<g id="edge15" class="edge"><title>&#45;3&#45;&gt;2</title>
<path fill="none" stroke="green" stroke-width="0.30404" d="M388.77,-71.4803C381.949,-62.4288 370.642,-47.4236 361.489,-35.2768"/>
<polygon fill="green" stroke="green" stroke-width="0.30404" points="364.113,-32.9432 355.3,-27.0632 358.522,-37.156 364.113,-32.9432"/>
</g>
<!-- &#45;3&#45;&gt;3 -->
<g id="edge16" class="edge"><title>&#45;3&#45;&gt;3</title>
<path fill="none" stroke="green" stroke-width="0.112954" d="M394.849,-71.4803C394.849,-63.565 394.849,-51.0967 394.849,-39.9685"/>
<polygon fill="green" stroke="green" stroke-width="0.112954" points="398.349,-39.902 394.849,-29.9021 391.349,-39.9021 398.349,-39.902"/>
</g>
<!-- &#45;3&#45;&gt;4 -->
<g id="edge17" class="edge"><title>&#45;3&#45;&gt;4</title>
<path fill="none" stroke="red" stroke-width="0.386773" d="M382.691,-71.4803C366.749,-60.9028 338.554,-42.1945 319.3,-29.4188"/>
<polygon fill="red" stroke="red" stroke-width="0.386773" points="321.177,-26.4637 310.909,-23.8512 317.306,-32.2965 321.177,-26.4637"/>
</g>
<!-- &#45;3&#45;&gt;5 -->
<g id="edge18" class="edge"><title>&#45;3&#45;&gt;5</title>
<path fill="none" stroke="green" stroke-width="0.348261" d="M383.587,-71.425C380.514,-69.404 377.127,-67.3465 373.849,-65.6985 332.02,-44.6665 317.287,-49.474 274.849,-29.6985 274.01,-29.3073 273.161,-28.8967 272.309,-28.4717"/>
<polygon fill="green" stroke="green" stroke-width="0.348261" points="273.793,-25.2948 263.334,-23.6039 270.455,-31.4481 273.793,-25.2948"/>
</g>
<!-- &#45;4 -->
<g id="node4" class="node"><title>&#45;4</title>
<polygon fill="lightgray" stroke="black" points="145.849,-149.397 121.849,-149.397 121.849,-131.397 145.849,-131.397 145.849,-149.397"/>
<text text-anchor="middle" x="133.849" y="-138.197" font-family="Times New Roman,serif" font-size="9.00">&#45;4</text>
</g>
<!-- &#45;4&#45;&gt;0 -->
<g id="edge19" class="edge"><title>&#45;4&#45;&gt;0</title>
<path fill="none" stroke="red" stroke-width="0.263702" d="M145.887,-139.207C215.958,-137.982 569.261,-130.101 600.849,-95.397 609.734,-85.6357 608.881,-76.1729 600.849,-65.6985 563.325,-16.7621 523.817,-53.31 466.849,-29.6985 465.994,-29.3439 465.131,-28.9644 464.268,-28.5656"/>
<polygon fill="red" stroke="red" stroke-width="0.263702" points="465.719,-25.3743 455.238,-23.8199 462.462,-31.5706 465.719,-25.3743"/>
</g>
<!-- &#45;4&#45;&gt;1 -->
<g id="edge20" class="edge"><title>&#45;4&#45;&gt;1</title>
<path fill="none" stroke="green" stroke-width="0.535362" d="M145.855,-139.249C217.347,-138.25 584.991,-131.377 617.849,-95.397 651.957,-58.0475 561.015,-31.5488 515.285,-20.9607"/>
<polygon fill="green" stroke="green" stroke-width="0.535362" points="515.768,-17.4826 505.246,-18.7236 514.245,-24.315 515.768,-17.4826"/>
</g>
<!-- &#45;4&#45;&gt;2 -->
<g id="edge21" class="edge"><title>&#45;4&#45;&gt;2</title>
<path fill="none" stroke="red" stroke-width="0.171135" d="M133.382,-131.171C132.999,-115.926 134.523,-83.2418 152.849,-65.6985 208.638,-12.2921 250.734,-57.3402 322.849,-29.6985 323.714,-29.367 324.584,-29.0071 325.455,-28.6249"/>
<polygon fill="red" stroke="red" stroke-width="0.171135" points="327.228,-31.6483 334.514,-23.9565 324.022,-25.4258 327.228,-31.6483"/>
</g>
<!-- &#45;4&#45;&gt;3 -->
<g id="edge22" class="edge"><title>&#45;4&#45;&gt;3</title>
<path fill="none" stroke="red" stroke-width="0.273416" d="M145.893,-139.162C214.454,-137.704 553.526,-128.83 583.849,-95.397 592.717,-85.62 592.128,-75.9786 583.849,-65.6985 536.77,-7.24032 488.853,-56.7775 418.849,-29.6985 417.986,-29.3644 417.116,-29.0022 416.247,-28.6181"/>
<polygon fill="red" stroke="red" stroke-width="0.273416" points="417.681,-25.4199 407.19,-23.9409 414.469,-31.6394 417.681,-25.4199"/>
</g>
<!-- &#45;4&#45;&gt;4 -->
<g id="edge23" class="edge"><title>&#45;4&#45;&gt;4</title>
<path fill="none" stroke="green" stroke-width="0.307669" d="M128.468,-131.091C119.625,-116.285 104.458,-85.0743 119.849,-65.6985 163.839,-10.3214 209.062,-55.6544 274.849,-29.6985 275.711,-29.3586 276.578,-28.9916 277.446,-28.6033"/>
<polygon fill="green" stroke="green" stroke-width="0.307669" points="279.232,-31.62 286.495,-23.9068 276.007,-25.4069 279.232,-31.62"/>
</g>
<!-- &#45;4&#45;&gt;5 -->
<g id="edge24" class="edge"><title>&#45;4&#45;&gt;5</title>
<path fill="none" stroke="green" stroke-width="0.156374" stroke-dasharray="1,5" d="M121.69,-133.25C109.055,-126.101 90.0095,-112.991 81.8492,-95.397 76.2957,-83.4228 73.9457,-76.27 81.8492,-65.6985 99.2048,-42.4844 183.472,-26.3229 226.078,-19.4932"/>
<polygon fill="green" stroke="green" stroke-width="0.156374" points="226.842,-22.9167 236.186,-17.9233 225.767,-15.9996 226.842,-22.9167"/>
</g>
<!-- 6 -->
<g id="node18" class="node"><title>6</title>
<ellipse fill="white" stroke="black" cx="14.8492" cy="-80.5477" rx="14.7" ry="14.7"/>
<text text-anchor="middle" x="14.8492" y="-78.3477" font-family="Times New Roman,serif" font-size="9.00">6</text>
</g>
<!-- &#45;4&#45;&gt;6 -->
<g id="edge67" class="edge"><title>&#45;4&#45;&gt;6</title>
<path fill="none" stroke="green" stroke-width="0.124988" d="M121.562,-133.424C101.641,-123.74 62.0129,-104.475 37.0544,-92.3423"/>
<polygon fill="green" stroke="green" stroke-width="0.124988" points="38.495,-89.151 27.9711,-87.9266 35.4345,-95.4465 38.495,-89.151"/>
</g>
<!-- &#45;5 -->
<g id="node5" class="node"><title>&#45;5</title>
<polygon fill="lightgray" stroke="black" points="448.849,-89.5477 424.849,-89.5477 424.849,-71.5477 448.849,-71.5477 448.849,-89.5477"/>
<text text-anchor="middle" x="436.849" y="-78.3477" font-family="Times New Roman,serif" font-size="9.00">&#45;5</text>
</g>
<!-- &#45;5&#45;&gt;0 -->
<g id="edge25" class="edge"><title>&#45;5&#45;&gt;0</title>
<path fill="none" stroke="red" stroke-width="0.211554" d="M437.609,-71.4803C438.355,-63.565 439.529,-51.0967 440.577,-39.9685"/>
<polygon fill="red" stroke="red" stroke-width="0.211554" points="444.072,-40.1863 441.526,-29.9021 437.103,-39.5297 444.072,-40.1863"/>
</g>
<!-- &#45;5&#45;&gt;1 -->
<g id="edge26" class="edge"><title>&#45;5&#45;&gt;1</title>
<path fill="none" stroke="green" stroke-width="0.452319" d="M443.688,-71.4803C451.528,-62.2322 464.637,-46.7687 475.047,-34.4891"/>
<polygon fill="green" stroke="green" stroke-width="0.452319" points="477.928,-36.5032 481.725,-26.612 472.589,-31.9767 477.928,-36.5032"/>
</g>
<!-- &#45;5&#45;&gt;2 -->
<g id="edge27" class="edge"><title>&#45;5&#45;&gt;2</title>
<path fill="none" stroke="red" stroke-width="0.385762" d="M425.451,-71.4803C410.87,-61.1604 385.353,-43.101 367.355,-30.3626"/>
<polygon fill="red" stroke="red" stroke-width="0.385762" points="368.911,-27.1758 358.727,-24.2555 364.867,-32.8895 368.911,-27.1758"/>
</g>
<!-- &#45;5&#45;&gt;3 -->
<g id="edge28" class="edge"><title>&#45;5&#45;&gt;3</title>
<path fill="none" stroke="red" stroke-width="0.277207" d="M431.53,-71.4803C425.76,-62.7301 416.322,-48.416 408.465,-36.4989"/>
<polygon fill="red" stroke="red" stroke-width="0.277207" points="411.278,-34.407 402.851,-27.9851 405.434,-38.2603 411.278,-34.407"/>
</g>
<!-- &#45;5&#45;&gt;4 -->
<g id="edge29" class="edge"><title>&#45;5&#45;&gt;4</title>
<path fill="none" stroke="red" stroke-width="0.180922" d="M425.564,-71.4705C422.491,-69.4492 419.11,-67.3801 415.849,-65.6985 376.458,-45.382 362.829,-48.8314 322.849,-29.6985 322.014,-29.2987 321.169,-28.8808 320.319,-28.4496"/>
<polygon fill="red" stroke="red" stroke-width="0.180922" points="321.811,-25.2765 311.358,-23.5531 318.455,-31.4194 321.811,-25.2765"/>
</g>
<!-- &#45;5&#45;&gt;5 -->
<g id="edge30" class="edge"><title>&#45;5&#45;&gt;5</title>
<path fill="none" stroke="green" stroke-width="0.204707" d="M426.128,-71.4917C422.944,-69.3757 419.364,-67.2533 415.849,-65.6985 356.701,-39.5328 334.751,-54.089 274.849,-29.6985 273.992,-29.3493 273.127,-28.9742 272.262,-28.5793"/>
<polygon fill="green" stroke="green" stroke-width="0.204707" points="273.709,-25.3861 263.226,-23.8515 270.464,-31.5885 273.709,-25.3861"/>
</g>
<!-- &#45;6 -->
<g id="node6" class="node"><title>&#45;6</title>
<polygon fill="lightgray" stroke="black" points="490.849,-89.5477 466.849,-89.5477 466.849,-71.5477 490.849,-71.5477 490.849,-89.5477"/>
<text text-anchor="middle" x="478.849" y="-78.3477" font-family="Times New Roman,serif" font-size="9.00">&#45;6</text>
</g>
<!-- &#45;6&#45;&gt;0 -->
<g id="edge31" class="edge"><title>&#45;6&#45;&gt;0</title>
<path fill="none" stroke="green" stroke-width="0.416864" d="M474.29,-71.4803C469.453,-62.9216 461.607,-49.0397 454.964,-37.2845"/>
<polygon fill="green" stroke="green" stroke-width="0.416864" points="457.941,-35.4392 449.974,-28.4554 451.847,-38.8834 457.941,-35.4392"/>
</g>
<!-- &#45;6&#45;&gt;1 -->
<g id="edge32" class="edge"><title>&#45;6&#45;&gt;1</title>
<path fill="none" stroke="red" stroke-width="0.249567" d="M480.369,-71.4803C481.86,-63.565 484.209,-51.0967 486.305,-39.9685"/>
<polygon fill="red" stroke="red" stroke-width="0.249567" points="489.79,-40.3772 488.202,-29.9021 482.911,-39.0812 489.79,-40.3772"/>
</g>
<!-- &#45;6&#45;&gt;2 -->
<g id="edge33" class="edge"><title>&#45;6&#45;&gt;2</title>
<path fill="none" stroke="green" stroke-width="0.285206" d="M467.537,-71.5212C464.465,-69.4995 461.09,-67.4175 457.849,-65.6985 420.881,-46.0903 408.385,-48.1957 370.849,-29.6985 370.019,-29.2891 369.177,-28.8631 368.331,-28.4251"/>
<polygon fill="green" stroke="green" stroke-width="0.285206" points="369.833,-25.2563 359.385,-23.4965 366.455,-31.3874 369.833,-25.2563"/>
</g>
<!-- &#45;6&#45;&gt;3 -->
<g id="edge34" class="edge"><title>&#45;6&#45;&gt;3</title>
<path fill="none" stroke="green" stroke-width="0.222609" d="M468.211,-71.4803C454.677,-61.2174 431.049,-43.3003 414.267,-30.5743"/>
<polygon fill="green" stroke="green" stroke-width="0.222609" points="416.288,-27.7141 406.205,-24.4606 412.058,-33.2918 416.288,-27.7141"/>
</g>
<!-- &#45;6&#45;&gt;4 -->
<g id="edge35" class="edge"><title>&#45;6&#45;&gt;4</title>
<path fill="none" stroke="red" stroke-width="0.11647" d="M468.118,-71.5157C464.933,-69.4001 461.356,-67.2719 457.849,-65.6985 401.195,-40.2754 380.236,-53.4211 322.849,-29.6985 321.993,-29.3447 321.131,-28.9658 320.267,-28.5676"/>
<polygon fill="red" stroke="red" stroke-width="0.11647" points="321.717,-25.3761 311.237,-23.8246 318.462,-31.5733 321.717,-25.3761"/>
</g>
<!-- &#45;6&#45;&gt;5 -->
<g id="edge36" class="edge"><title>&#45;6&#45;&gt;5</title>
<path fill="none" stroke="red" stroke-width="0.138268" d="M468.183,-71.3643C464.999,-69.2463 461.406,-67.1548 457.849,-65.6985 381.138,-34.289 352.463,-58.8068 274.849,-29.6985 273.982,-29.3733 273.11,-29.0187 272.238,-28.641"/>
<polygon fill="red" stroke="red" stroke-width="0.138268" points="273.666,-25.4399 263.17,-23.9935 270.473,-31.6694 273.666,-25.4399"/>
</g>
<!-- &#45;7 -->
<g id="node7" class="node"><title>&#45;7</title>
<polygon fill="lightgray" stroke="black" points="532.849,-89.5477 508.849,-89.5477 508.849,-71.5477 532.849,-71.5477 532.849,-89.5477"/>
<text text-anchor="middle" x="520.849" y="-78.3477" font-family="Times New Roman,serif" font-size="9.00">&#45;7</text>
</g>
<!-- &#45;7&#45;&gt;0 -->
<g id="edge37" class="edge"><title>&#45;7&#45;&gt;0</title>
<path fill="none" stroke="red" stroke-width="0.314605" d="M510.97,-71.4803C498.657,-61.4245 477.345,-44.0204 461.832,-31.3511"/>
<polygon fill="red" stroke="red" stroke-width="0.314605" points="463.862,-28.4908 453.903,-24.8764 459.435,-33.9126 463.862,-28.4908"/>
</g>
<!-- &#45;7&#45;&gt;1 -->
<g id="edge38" class="edge"><title>&#45;7&#45;&gt;1</title>
<path fill="none" stroke="red" stroke-width="0.138193" d="M517.05,-71.4803C513.108,-63.1109 506.769,-49.6513 501.313,-38.0678"/>
<polygon fill="red" stroke="red" stroke-width="0.138193" points="504.438,-36.4874 497.011,-28.9318 498.105,-39.47 504.438,-36.4874"/>
</g>
<!-- &#45;7&#45;&gt;2 -->
<g id="edge39" class="edge"><title>&#45;7&#45;&gt;2</title>
<path fill="none" stroke="green" stroke-width="0.364377" d="M510.106,-71.5419C506.921,-69.4267 503.346,-67.2922 499.849,-65.6985 445.684,-41.0156 425.726,-52.7554 370.849,-29.6985 369.995,-29.3398 369.134,-28.9567 368.272,-28.555"/>
<polygon fill="green" stroke="green" stroke-width="0.364377" points="369.727,-25.3652 359.249,-23.7955 366.461,-31.5567 369.727,-25.3652"/>
</g>
<!-- &#45;7&#45;&gt;3 -->
<g id="edge40" class="edge"><title>&#45;7&#45;&gt;3</title>
<path fill="none" stroke="red" stroke-width="0.162555" d="M509.066,-71.2884C506.115,-69.3567 502.914,-67.3754 499.849,-65.6985 465.288,-46.7899 453.959,-47.5682 418.849,-29.6985 418.024,-29.2784 417.187,-28.8432 416.345,-28.3976"/>
<polygon fill="red" stroke="red" stroke-width="0.162555" points="417.857,-25.2339 407.417,-23.4332 414.456,-31.3518 417.857,-25.2339"/>
</g>
<!-- &#45;7&#45;&gt;4 -->
<g id="edge41" class="edge"><title>&#45;7&#45;&gt;4</title>
<path fill="none" stroke="green" stroke-width="0.25815" d="M510.177,-71.3791C506.993,-69.2613 503.401,-67.1661 499.849,-65.6985 425.656,-35.0418 397.923,-58.1294 322.849,-29.6985 321.983,-29.3705 321.112,-29.0136 320.24,-28.6338"/>
<polygon fill="green" stroke="green" stroke-width="0.25815" points="321.67,-25.4336 311.176,-23.9771 318.472,-31.66 321.67,-25.4336"/>
</g>
<!-- &#45;7&#45;&gt;5 -->
<g id="edge42" class="edge"><title>&#45;7&#45;&gt;5</title>
<path fill="none" stroke="red" stroke-width="0.231694" d="M510.215,-71.2823C507.032,-69.163 503.431,-67.0912 499.849,-65.6985 405.461,-28.9981 370.289,-63.5683 274.849,-29.6985 273.977,-29.3888 273.099,-29.0473 272.223,-28.6807"/>
<polygon fill="red" stroke="red" stroke-width="0.231694" points="273.64,-25.475 263.137,-24.0849 270.481,-31.7215 273.64,-25.475"/>
</g>
<!-- &#45;8 -->
<g id="node8" class="node"><title>&#45;8</title>
<polygon fill="lightgray" stroke="black" points="574.849,-89.5477 550.849,-89.5477 550.849,-71.5477 574.849,-71.5477 574.849,-89.5477"/>
<text text-anchor="middle" x="562.849" y="-78.3477" font-family="Times New Roman,serif" font-size="9.00">&#45;8</text>
</g>
<!-- &#45;8&#45;&gt;0 -->
<g id="edge43" class="edge"><title>&#45;8&#45;&gt;0</title>
<path fill="none" stroke="green" stroke-width="0.353185" d="M551.031,-71.3518C548.08,-69.4182 544.889,-67.4201 541.849,-65.6985 509.676,-47.4786 499.552,-46.9509 466.849,-29.6985 466.03,-29.2664 465.199,-28.821 464.361,-28.3667"/>
<polygon fill="green" stroke="green" stroke-width="0.353185" points="465.886,-25.209 455.454,-23.362 462.457,-31.3118 465.886,-25.209"/>
</g>
<!-- &#45;8&#45;&gt;1 -->
<g id="edge44" class="edge"><title>&#45;8&#45;&gt;1</title>
<path fill="none" stroke="green" stroke-width="0.270503" d="M553.73,-71.4803C542.596,-61.6296 523.491,-44.7271 509.254,-32.1319"/>
<polygon fill="green" stroke="green" stroke-width="0.270503" points="511.34,-29.3043 501.531,-25.2996 506.702,-34.5471 511.34,-29.3043"/>
</g>
<!-- &#45;8&#45;&gt;2 -->
<g id="edge45" class="edge"><title>&#45;8&#45;&gt;2</title>
<path fill="none" stroke="red" stroke-width="0.272197" d="M552.17,-71.3947C548.986,-69.2772 545.396,-67.1783 541.849,-65.6985 470.171,-35.7936 443.387,-57.4529 370.849,-29.6985 369.984,-29.3676 369.114,-29.0081 368.243,-28.6262"/>
<polygon fill="red" stroke="red" stroke-width="0.272197" points="369.676,-25.427 359.183,-23.9596 366.47,-31.65 369.676,-25.427"/>
</g>
<!-- &#45;8&#45;&gt;3 -->
<g id="edge46" class="edge"><title>&#45;8&#45;&gt;3</title>
<path fill="none" stroke="red" stroke-width="0.308805" d="M551.656,-71.2818C548.583,-69.2619 545.178,-67.2407 541.849,-65.6985 490.167,-41.7532 471.223,-52.0922 418.849,-29.6985 417.998,-29.3344 417.139,-28.9468 416.278,-28.5412"/>
<polygon fill="red" stroke="red" stroke-width="0.308805" points="417.737,-25.3534 407.262,-23.7638 414.459,-31.5387 417.737,-25.3534"/>
</g>
<!-- &#45;8&#45;&gt;4 -->
<g id="edge47" class="edge"><title>&#45;8&#45;&gt;4</title>
<path fill="none" stroke="red" stroke-width="0.203072" d="M552.212,-71.2922C549.028,-69.173 545.428,-67.0989 541.849,-65.6985 449.991,-29.7558 415.738,-62.8864 322.849,-29.6985 321.977,-29.3869 321.101,-29.0439 320.225,-28.6759"/>
<polygon fill="red" stroke="red" stroke-width="0.203072" points="321.643,-25.4707 311.141,-24.0739 318.48,-31.7152 321.643,-25.4707"/>
</g>
<!-- &#45;8&#45;&gt;5 -->
<g id="edge48" class="edge"><title>&#45;8&#45;&gt;5</title>
<path fill="none" stroke="red" stroke-width="0.144595" d="M552.669,-71.5146C549.382,-69.2935 545.612,-67.1083 541.849,-65.6985 429.722,-23.6829 388.179,-68.3521 274.849,-29.6985 273.973,-29.3995 273.092,-29.0673 272.214,-28.7083"/>
<polygon fill="red" stroke="red" stroke-width="0.144595" points="273.623,-25.4996 263.114,-24.1485 270.487,-31.7578 273.623,-25.4996"/>
</g>
<!-- &#45;9 -->
<g id="node9" class="node"><title>&#45;9</title>
<polygon fill="lightgray" stroke="black" points="185.849,-89.5477 161.849,-89.5477 161.849,-71.5477 185.849,-71.5477 185.849,-89.5477"/>
<text text-anchor="middle" x="173.849" y="-78.3477" font-family="Times New Roman,serif" font-size="9.00">&#45;9</text>
</g>
<!-- &#45;9&#45;&gt;0 -->
<g id="edge49" class="edge"><title>&#45;9&#45;&gt;0</title>
<path fill="none" stroke="red" stroke-width="0.196962" d="M184.484,-71.2839C187.667,-69.1646 191.268,-67.0925 194.849,-65.6985 288.815,-29.1244 323.834,-63.4546 418.849,-29.6985 419.722,-29.3885 420.599,-29.0468 421.475,-28.6799"/>
<polygon fill="red" stroke="red" stroke-width="0.196962" points="423.218,-31.7205 430.561,-24.0831 420.058,-25.4743 423.218,-31.7205"/>
</g>
<!-- &#45;9&#45;&gt;1 -->
<g id="edge50" class="edge"><title>&#45;9&#45;&gt;1</title>
<path fill="none" stroke="red" stroke-width="0.239593" d="M184.028,-71.509C187.314,-69.2876 191.085,-67.1037 194.849,-65.6985 309.091,-23.0491 351.387,-68.9226 466.849,-29.6985 467.726,-29.4006 468.607,-29.0692 469.486,-28.7111"/>
<polygon fill="red" stroke="red" stroke-width="0.239593" points="471.211,-31.7614 478.586,-24.1548 468.077,-25.5021 471.211,-31.7614"/>
</g>
<!-- &#45;9&#45;&gt;2 -->
<g id="edge51" class="edge"><title>&#45;9&#45;&gt;2</title>
<path fill="none" stroke="red" stroke-width="0.278646" d="M184.595,-71.5464C187.78,-69.4313 191.354,-67.2957 194.849,-65.6985 248.6,-41.1387 268.39,-52.6447 322.849,-29.6985 323.703,-29.3389 324.563,-28.9551 325.426,-28.5528"/>
<polygon fill="red" stroke="red" stroke-width="0.278646" points="327.238,-31.5538 334.448,-23.7904 323.97,-25.3633 327.238,-31.5538"/>
</g>
<!-- &#45;9&#45;&gt;3 -->
<g id="edge52" class="edge"><title>&#45;9&#45;&gt;3</title>
<path fill="none" stroke="red" stroke-width="0.163144" d="M184.523,-71.3816C187.707,-69.2639 191.298,-67.1681 194.849,-65.6985 268.623,-35.1672 296.198,-58.0165 370.849,-29.6985 371.715,-29.37 372.586,-29.0127 373.458,-28.6326"/>
<polygon fill="red" stroke="red" stroke-width="0.163144" points="375.227,-31.6584 382.521,-23.9742 372.027,-25.4325 375.227,-31.6584"/>
</g>
<!-- &#45;9&#45;&gt;4 -->
<g id="edge53" class="edge"><title>&#45;9&#45;&gt;4</title>
<path fill="none" stroke="red" stroke-width="0.324915" d="M185.638,-71.2985C188.589,-69.3665 191.788,-67.3825 194.849,-65.6985 229.011,-46.9055 240.142,-47.4646 274.849,-29.6985 275.674,-29.2765 276.51,-28.8397 277.351,-28.3927"/>
<polygon fill="red" stroke="red" stroke-width="0.324915" points="279.243,-31.3454 286.276,-23.4219 275.837,-25.2299 279.243,-31.3454"/>
</g>
<!-- &#45;9&#45;&gt;5 -->
<g id="edge54" class="edge"><title>&#45;9&#45;&gt;5</title>
<path fill="none" stroke="red" stroke-width="0.498288" d="M183.601,-71.4803C195.689,-61.481 216.559,-44.2157 231.852,-31.565"/>
<polygon fill="red" stroke="red" stroke-width="0.498288" points="234.208,-34.1581 239.682,-25.0871 229.746,-28.7644 234.208,-34.1581"/>
</g>
<!-- &#45;10 -->
<g id="node10" class="node"><title>&#45;10</title>
<polygon fill="lightgray" stroke="black" points="233.349,-89.5477 204.349,-89.5477 204.349,-71.5477 233.349,-71.5477 233.349,-89.5477"/>
<text text-anchor="middle" x="218.849" y="-78.3477" font-family="Times New Roman,serif" font-size="9.00">&#45;10</text>
</g>
<!-- &#45;10&#45;&gt;0 -->
<g id="edge55" class="edge"><title>&#45;10&#45;&gt;0</title>
<path fill="none" stroke="green" stroke-width="0.135667" d="M230.626,-71.4057C234.115,-69.2884 238.027,-67.1868 241.849,-65.6985 316.656,-36.57 343.775,-58.1294 418.849,-29.6985 419.715,-29.3705 420.587,-29.0136 421.458,-28.6338"/>
<polygon fill="green" stroke="green" stroke-width="0.135667" points="423.227,-31.66 430.522,-23.9771 420.028,-25.4336 423.227,-31.66"/>
</g>
<!-- &#45;10&#45;&gt;1 -->
<g id="edge56" class="edge"><title>&#45;10&#45;&gt;1</title>
<path fill="none" stroke="red" stroke-width="0.33942" d="M230.587,-71.3016C234.075,-69.1826 237.997,-67.1062 241.849,-65.6985 336.97,-30.9418 371.409,-63.5683 466.849,-29.6985 467.722,-29.3888 468.599,-29.0473 469.475,-28.6807"/>
<polygon fill="red" stroke="red" stroke-width="0.33942" points="471.218,-31.7215 478.562,-24.0849 468.059,-25.475 471.218,-31.7215"/>
</g>
<!-- &#45;10&#45;&gt;2 -->
<g id="edge57" class="edge"><title>&#45;10&#45;&gt;2</title>
<path fill="none" stroke="red" stroke-width="0.279642" d="M231.825,-71.3527C235.056,-69.4191 238.542,-67.4207 241.849,-65.6985 276.791,-47.5027 287.74,-47.5682 322.849,-29.6985 323.675,-29.2784 324.511,-28.8432 325.353,-28.3976"/>
<polygon fill="red" stroke="red" stroke-width="0.279642" points="327.243,-31.3518 334.282,-23.4332 323.841,-25.2339 327.243,-31.3518"/>
</g>
<!-- &#45;10&#45;&gt;3 -->
<g id="edge58" class="edge"><title>&#45;10&#45;&gt;3</title>
<path fill="none" stroke="red" stroke-width="0.206085" d="M231.176,-71.2925C234.542,-69.2726 238.254,-67.2486 241.849,-65.6985 296.509,-42.1318 315.972,-52.7554 370.849,-29.6985 371.703,-29.3398 372.564,-28.9567 373.426,-28.555"/>
<polygon fill="red" stroke="red" stroke-width="0.206085" points="375.238,-31.5567 382.45,-23.7955 371.972,-25.3652 375.238,-31.5567"/>
</g>
<!-- &#45;10&#45;&gt;4 -->
<g id="edge59" class="edge"><title>&#45;10&#45;&gt;4</title>
<path fill="none" stroke="green" stroke-width="0.234589" d="M228.981,-71.4803C241.61,-61.4245 263.469,-44.0204 279.38,-31.3511"/>
<polygon fill="green" stroke="green" stroke-width="0.234589" points="281.869,-33.8435 287.512,-24.8764 277.509,-28.3673 281.869,-33.8435"/>
</g>
<!-- &#45;10&#45;&gt;5 -->
<g id="edge60" class="edge"><title>&#45;10&#45;&gt;5</title>
<path fill="none" stroke="green" stroke-width="0.331026" d="M222.902,-71.4803C227.159,-63.0063 234.038,-49.314 239.905,-37.6343"/>
<polygon fill="green" stroke="green" stroke-width="0.331026" points="243.155,-38.9624 244.516,-28.4554 236.9,-35.82 243.155,-38.9624"/>
</g>
<!-- &#45;11 -->
<g id="node11" class="node"><title>&#45;11</title>
<polygon fill="lightgray" stroke="black" points="280.349,-89.5477 251.349,-89.5477 251.349,-71.5477 280.349,-71.5477 280.349,-89.5477"/>
<text text-anchor="middle" x="265.849" y="-78.3477" font-family="Times New Roman,serif" font-size="9.00">&#45;11</text>
</g>
<!-- &#45;11&#45;&gt;0 -->
<g id="edge61" class="edge"><title>&#45;11&#45;&gt;0</title>
<path fill="none" stroke="green" stroke-width="0.147994" d="M278.748,-71.313C282.259,-69.2929 286.124,-67.2638 289.849,-65.6985 344.726,-42.6416 363.972,-52.7554 418.849,-29.6985 419.703,-29.3398 420.564,-28.9567 421.426,-28.555"/>
<polygon fill="green" stroke="green" stroke-width="0.147994" points="423.238,-31.5567 430.45,-23.7955 419.972,-25.3652 423.238,-31.5567"/>
</g>
<!-- &#45;11&#45;&gt;1 -->
<g id="edge62" class="edge"><title>&#45;11&#45;&gt;1</title>
<path fill="none" stroke="red" stroke-width="0.121098" d="M278.176,-71.4199C281.817,-69.3028 285.89,-67.1978 289.849,-65.6985 364.923,-37.2676 391.775,-58.1294 466.849,-29.6985 467.715,-29.3705 468.587,-29.0136 469.458,-28.6338"/>
<polygon fill="red" stroke="red" stroke-width="0.121098" points="471.227,-31.66 478.522,-23.9771 468.028,-25.4336 471.227,-31.66"/>
</g>
<!-- &#45;11&#45;&gt;2 -->
<g id="edge63" class="edge"><title>&#45;11&#45;&gt;2</title>
<path fill="none" stroke="red" stroke-width="0.468938" d="M276.108,-71.4803C288.967,-61.368 311.275,-43.8246 327.408,-31.138"/>
<polygon fill="red" stroke="red" stroke-width="0.468938" points="329.939,-33.6003 335.636,-24.6676 325.612,-28.0979 329.939,-33.6003"/>
</g>
<!-- &#45;11&#45;&gt;3 -->
<g id="edge64" class="edge"><title>&#45;11&#45;&gt;3</title>
<path fill="none" stroke="green" stroke-width="0.537877" d="M279.419,-71.3859C282.79,-69.4513 286.419,-67.4442 289.849,-65.6985 324.959,-47.8288 335.74,-47.5682 370.849,-29.6985 371.675,-29.2784 372.511,-28.8432 373.353,-28.3976"/>
<polygon fill="green" stroke="green" stroke-width="0.537877" points="375.243,-31.3518 382.282,-23.4332 371.841,-25.2339 375.243,-31.3518"/>
</g>
<!-- &#45;11&#45;&gt;4 -->
<g id="edge65" class="edge"><title>&#45;11&#45;&gt;4</title>
<path fill="none" stroke="green" stroke-width="0.133441" d="M270.029,-71.4803C274.419,-63.0063 281.512,-49.314 287.563,-37.6343"/>
<polygon fill="green" stroke="green" stroke-width="0.133441" points="290.826,-38.9446 292.318,-28.4554 284.611,-35.7246 290.826,-38.9446"/>
</g>
<!-- &#45;11&#45;&gt;5 -->
<g id="edge66" class="edge"><title>&#45;11&#45;&gt;5</title>
<path fill="none" stroke="red" stroke-width="0.144275" d="M263.949,-71.4803C262.042,-63.3809 259.012,-50.5142 256.347,-39.1941"/>
<polygon fill="red" stroke="red" stroke-width="0.144275" points="259.743,-38.3456 254.044,-29.4141 252.929,-39.9501 259.743,-38.3456"/>
</g>
<!-- 6&#45;&gt;5 -->
<g id="edge68" class="edge"><title>6&#45;&gt;5</title>
<path fill="none" stroke="green" stroke-width="0.323932" d="M27.5959,-72.7503C32.5692,-70.2881 38.3807,-67.6386 43.8492,-65.6985 108.014,-42.9341 187,-27.1226 226.267,-20.0428"/>
<polygon fill="green" stroke="green" stroke-width="0.323932" points="227.005,-23.4665 236.243,-18.2789 225.786,-16.5734 227.005,-23.4665"/>
</g>
</g>
</svg>
