<?xml version="1.0" encoding="UTF-8" standalone="no"?>
<!DOCTYPE svg PUBLIC "-//W3C//DTD SVG 1.1//EN"
 "http://www.w3.org/Graphics/SVG/1.1/DTD/svg11.dtd">
<!-- Generated by graphviz version 2.38.0 (20140413.2041)
 -->
<!-- Title: %3 Pages: 1 -->
<svg width="592pt" height="157pt"
 viewBox="0.00 0.00 591.68 157.40" xmlns="http://www.w3.org/2000/svg" xmlns:xlink="http://www.w3.org/1999/xlink">
<g id="graph0" class="graph" transform="scale(1 1) rotate(0) translate(4 153.397)">
<title>%3</title>
<polygon fill="white" stroke="none" points="-4,4 -4,-153.397 587.676,-153.397 587.676,4 -4,4"/>
<!-- &#45;1 -->
<g id="node1" class="node"><title>&#45;1</title>
<polygon fill="lightgray" stroke="black" points="360.761,-89.5477 336.761,-89.5477 336.761,-71.5477 360.761,-71.5477 360.761,-89.5477"/>
<text text-anchor="middle" x="348.761" y="-78.3477" font-family="Times New Roman,serif" font-size="9.00">&#45;1</text>
</g>
<!-- 0 -->
<g id="node12" class="node"><title>0</title>
<ellipse fill="lightblue" stroke="black" cx="369.761" cy="-14.8492" rx="14.7" ry="14.7"/>
<text text-anchor="middle" x="369.761" y="-12.6492" font-family="Times New Roman,serif" font-size="9.00">0</text>
</g>
<!-- &#45;1&#45;&gt;0 -->
<g id="edge1" class="edge"><title>&#45;1&#45;&gt;0</title>
<path fill="none" stroke="red" stroke-width="0.103625" d="M351.421,-71.4803C354.091,-63.3809 358.333,-50.5142 362.065,-39.1941"/>
<polygon fill="red" stroke="red" stroke-width="0.103625" points="365.482,-40.0072 365.289,-29.4141 358.834,-37.8154 365.482,-40.0072"/>
</g>
<!-- 1 -->
<g id="node13" class="node"><title>1</title>
<ellipse fill="lightblue" stroke="black" cx="225.761" cy="-14.8492" rx="14.7" ry="14.7"/>
<text text-anchor="middle" x="225.761" y="-12.6492" font-family="Times New Roman,serif" font-size="9.00">1</text>
</g>
<!-- &#45;1&#45;&gt;1 -->
<g id="edge2" class="edge"><title>&#45;1&#45;&gt;1</title>
<path fill="none" stroke="green" stroke-width="0.263673" d="M336.961,-71.3192C334.01,-69.3866 330.814,-67.3971 327.761,-65.6985 294.397,-47.1358 283.665,-47.2582 249.761,-29.6985 248.939,-29.2726 248.105,-28.8324 247.265,-28.3826"/>
<polygon fill="green" stroke="green" stroke-width="0.263673" points="248.783,-25.2218 238.346,-23.3987 245.368,-31.3323 248.783,-25.2218"/>
</g>
<!-- 2 -->
<g id="node14" class="node"><title>2</title>
<ellipse fill="lightblue" stroke="black" cx="273.761" cy="-14.8492" rx="14.7" ry="14.7"/>
<text text-anchor="middle" x="273.761" y="-12.6492" font-family="Times New Roman,serif" font-size="9.00">2</text>
</g>
<!-- &#45;1&#45;&gt;2 -->
<g id="edge3" class="edge"><title>&#45;1&#45;&gt;2</title>
<path fill="none" stroke="green" stroke-width="0.311704" d="M339.262,-71.4803C327.556,-61.5375 307.39,-44.4106 292.518,-31.7799"/>
<polygon fill="green" stroke="green" stroke-width="0.311704" points="294.776,-29.1054 284.888,-25.2996 290.245,-34.4408 294.776,-29.1054"/>
</g>
<!-- 3 -->
<g id="node15" class="node"><title>3</title>
<ellipse fill="lightblue" stroke="black" cx="129.761" cy="-14.8492" rx="14.7" ry="14.7"/>
<text text-anchor="middle" x="129.761" y="-12.6492" font-family="Times New Roman,serif" font-size="9.00">3</text>
</g>
<!-- &#45;1&#45;&gt;3 -->
<g id="edge4" class="edge"><title>&#45;1&#45;&gt;3</title>
<path fill="none" stroke="red" stroke-width="0.378485" d="M338.085,-71.3868C334.901,-69.2691 331.311,-67.1721 327.761,-65.6985 254.826,-35.4179 227.567,-57.791 153.761,-29.6985 152.896,-29.3691 152.025,-29.0109 151.154,-28.6301"/>
<polygon fill="red" stroke="red" stroke-width="0.378485" points="152.585,-25.4303 142.091,-23.9685 149.383,-31.6551 152.585,-25.4303"/>
</g>
<!-- 4 -->
<g id="node16" class="node"><title>4</title>
<ellipse fill="lightblue" stroke="black" cx="177.761" cy="-14.8492" rx="14.7" ry="14.7"/>
<text text-anchor="middle" x="177.761" y="-12.6492" font-family="Times New Roman,serif" font-size="9.00">4</text>
</g>
<!-- &#45;1&#45;&gt;4 -->
<g id="edge5" class="edge"><title>&#45;1&#45;&gt;4</title>
<path fill="none" stroke="green" stroke-width="0.298636" d="M337.575,-71.2673C334.502,-69.2475 331.095,-67.23 327.761,-65.6985 274.838,-41.3847 255.386,-52.4235 201.761,-29.6985 200.909,-29.3372 200.048,-28.9519 199.187,-28.5482"/>
<polygon fill="green" stroke="green" stroke-width="0.298636" points="200.644,-25.3594 190.167,-23.78 197.372,-31.5479 200.644,-25.3594"/>
</g>
<!-- 5 -->
<g id="node17" class="node"><title>5</title>
<ellipse fill="lightblue" stroke="black" cx="321.761" cy="-14.8492" rx="14.7" ry="14.7"/>
<text text-anchor="middle" x="321.761" y="-12.6492" font-family="Times New Roman,serif" font-size="9.00">5</text>
</g>
<!-- &#45;1&#45;&gt;5 -->
<g id="edge6" class="edge"><title>&#45;1&#45;&gt;5</title>
<path fill="none" stroke="red" stroke-width="0.274744" d="M345.342,-71.4803C341.83,-63.1946 336.203,-49.92 331.327,-38.4159"/>
<polygon fill="red" stroke="red" stroke-width="0.274744" points="334.432,-36.7729 327.307,-28.9318 327.987,-39.5048 334.432,-36.7729"/>
</g>
<!-- &#45;2 -->
<g id="node2" class="node"><title>&#45;2</title>
<polygon fill="lightgray" stroke="black" points="402.761,-89.5477 378.761,-89.5477 378.761,-71.5477 402.761,-71.5477 402.761,-89.5477"/>
<text text-anchor="middle" x="390.761" y="-78.3477" font-family="Times New Roman,serif" font-size="9.00">&#45;2</text>
</g>
<!-- &#45;2&#45;&gt;0 -->
<g id="edge7" class="edge"><title>&#45;2&#45;&gt;0</title>
<path fill="none" stroke="green" stroke-width="0.126779" d="M388.102,-71.4803C385.431,-63.3809 381.19,-50.5142 377.458,-39.1941"/>
<polygon fill="green" stroke="green" stroke-width="0.126779" points="380.688,-37.8154 374.233,-29.4141 374.04,-40.0072 380.688,-37.8154"/>
</g>
<!-- &#45;2&#45;&gt;1 -->
<g id="edge8" class="edge"><title>&#45;2&#45;&gt;1</title>
<path fill="none" stroke="green" stroke-width="0.126878" d="M379.561,-71.2969C376.488,-69.2769 373.085,-67.2519 369.761,-65.6985 319.318,-42.1208 300.885,-51.7617 249.761,-29.6985 248.911,-29.3316 248.053,-28.9415 247.193,-28.5339"/>
<polygon fill="green" stroke="green" stroke-width="0.126878" points="248.655,-25.3472 238.181,-23.7469 245.371,-31.5291 248.655,-25.3472"/>
</g>
<!-- &#45;2&#45;&gt;2 -->
<g id="edge9" class="edge"><title>&#45;2&#45;&gt;2</title>
<path fill="none" stroke="red" stroke-width="0.431494" d="M378.923,-71.3865C375.973,-69.4518 372.787,-67.4446 369.761,-65.6985 338.773,-47.8182 329.269,-46.6468 297.761,-29.6985 296.946,-29.2598 296.117,-28.8088 295.282,-28.3498"/>
<polygon fill="red" stroke="red" stroke-width="0.431494" points="296.814,-25.1956 286.386,-23.3231 293.371,-31.2899 296.814,-25.1956"/>
</g>
<!-- &#45;2&#45;&gt;3 -->
<g id="edge10" class="edge"><title>&#45;2&#45;&gt;3</title>
<path fill="none" stroke="red" stroke-width="0.190729" d="M380.122,-71.2973C376.938,-69.1782 373.339,-67.1029 369.761,-65.6985 279.168,-30.1344 245.375,-62.5456 153.761,-29.6985 152.89,-29.3859 152.013,-29.0421 151.138,-28.6734"/>
<polygon fill="red" stroke="red" stroke-width="0.190729" points="152.556,-25.4685 142.055,-24.0682 149.391,-31.7119 152.556,-25.4685"/>
</g>
<!-- &#45;2&#45;&gt;4 -->
<g id="edge11" class="edge"><title>&#45;2&#45;&gt;4</title>
<path fill="none" stroke="green" stroke-width="0.144902" d="M380.079,-71.403C376.894,-69.2856 373.305,-67.1847 369.761,-65.6985 299.34,-36.1691 273.031,-57.115 201.761,-29.6985 200.897,-29.366 200.027,-29.0052 199.157,-28.6223"/>
<polygon fill="green" stroke="green" stroke-width="0.144902" points="200.59,-25.4235 190.098,-23.9504 197.382,-31.6448 200.59,-25.4235"/>
</g>
<!-- &#45;2&#45;&gt;5 -->
<g id="edge12" class="edge"><title>&#45;2&#45;&gt;5</title>
<path fill="none" stroke="green" stroke-width="0.424665" d="M382.022,-71.4803C371.473,-61.7415 353.458,-45.1104 339.866,-32.5629"/>
<polygon fill="green" stroke="green" stroke-width="0.424665" points="342.186,-29.9415 332.464,-25.7301 337.438,-35.085 342.186,-29.9415"/>
</g>
<!-- &#45;3 -->
<g id="node3" class="node"><title>&#45;3</title>
<polygon fill="lightgray" stroke="black" points="444.761,-89.5477 420.761,-89.5477 420.761,-71.5477 444.761,-71.5477 444.761,-89.5477"/>
<text text-anchor="middle" x="432.761" y="-78.3477" font-family="Times New Roman,serif" font-size="9.00">&#45;3</text>
</g>
<!-- &#45;3&#45;&gt;0 -->
<g id="edge13" class="edge"><title>&#45;3&#45;&gt;0</title>
<path fill="none" stroke="green" stroke-width="0.158007" d="M424.782,-71.4803C415.35,-61.9434 399.381,-45.797 387.069,-33.3485"/>
<polygon fill="green" stroke="green" stroke-width="0.158007" points="389.487,-30.8164 379.966,-26.1676 384.51,-35.7388 389.487,-30.8164"/>
</g>
<!-- &#45;3&#45;&gt;1 -->
<g id="edge14" class="edge"><title>&#45;3&#45;&gt;1</title>
<path fill="none" stroke="red" stroke-width="0.375736" d="M422.071,-71.4203C418.887,-69.3032 415.3,-67.1981 411.761,-65.6985 343.851,-36.9192 318.499,-56.4402 249.761,-29.6985 248.898,-29.3627 248.029,-28.9992 247.16,-28.6139"/>
<polygon fill="red" stroke="red" stroke-width="0.375736" points="248.596,-25.4161 238.106,-23.9311 245.38,-31.6338 248.596,-25.4161"/>
</g>
<!-- &#45;3&#45;&gt;2 -->
<g id="edge15" class="edge"><title>&#45;3&#45;&gt;2</title>
<path fill="none" stroke="green" stroke-width="0.37694" d="M421.546,-71.3293C418.473,-69.3091 415.073,-67.2758 411.761,-65.6985 363.79,-42.8535 346.392,-51.103 297.761,-29.6985 296.914,-29.3254 296.058,-28.9302 295.2,-28.5182"/>
<polygon fill="green" stroke="green" stroke-width="0.37694" points="296.667,-25.3338 286.197,-23.7108 293.37,-31.5086 296.667,-25.3338"/>
</g>
<!-- &#45;3&#45;&gt;3 -->
<g id="edge16" class="edge"><title>&#45;3&#45;&gt;3</title>
<path fill="none" stroke="red" stroke-width="0.59472" d="M422.577,-71.5253C419.29,-69.3046 415.52,-67.117 411.761,-65.6985 303.439,-24.8233 263.254,-67.3257 153.761,-29.6985 152.885,-29.3975 152.006,-29.0635 151.127,-28.7031"/>
<polygon fill="red" stroke="red" stroke-width="0.59472" points="152.538,-25.495 142.031,-24.1366 149.397,-31.751 152.538,-25.495"/>
</g>
<!-- &#45;3&#45;&gt;4 -->
<g id="edge17" class="edge"><title>&#45;3&#45;&gt;4</title>
<path fill="none" stroke="green" stroke-width="0.252361" d="M422.117,-71.308C418.934,-69.1891 415.335,-67.1111 411.761,-65.6985 323.696,-30.8913 290.826,-61.8644 201.761,-29.6985 200.89,-29.3839 200.015,-29.0384 199.14,-28.6682"/>
<polygon fill="green" stroke="green" stroke-width="0.252361" points="200.56,-25.4639 190.059,-24.0563 197.39,-31.7052 200.56,-25.4639"/>
</g>
<!-- &#45;3&#45;&gt;5 -->
<g id="edge18" class="edge"><title>&#45;3&#45;&gt;5</title>
<path fill="none" stroke="red" stroke-width="0.209106" d="M420.878,-71.4627C417.93,-69.5257 414.756,-67.4983 411.761,-65.6985 383.123,-48.4857 374.9,-46.0497 345.761,-29.6985 344.954,-29.2453 344.132,-28.782 343.302,-28.3126"/>
<polygon fill="red" stroke="red" stroke-width="0.209106" points="344.851,-25.1663 334.433,-23.2376 341.375,-31.242 344.851,-25.1663"/>
</g>
<!-- &#45;4 -->
<g id="node4" class="node"><title>&#45;4</title>
<polygon fill="lightgray" stroke="black" points="108.761,-89.5477 84.7612,-89.5477 84.7612,-71.5477 108.761,-71.5477 108.761,-89.5477"/>
<text text-anchor="middle" x="96.7612" y="-78.3477" font-family="Times New Roman,serif" font-size="9.00">&#45;4</text>
</g>
<!-- &#45;4&#45;&gt;0 -->
<g id="edge19" class="edge"><title>&#45;4&#45;&gt;0</title>
<path fill="none" stroke="red" stroke-width="0.165208" d="M107.393,-71.2775C110.577,-69.1581 114.178,-67.0876 117.761,-65.6985 213.415,-28.6191 249.045,-63.9094 345.761,-29.6985 346.634,-29.3897 347.512,-29.049 348.388,-28.683"/>
<polygon fill="red" stroke="red" stroke-width="0.165208" points="350.129,-31.7245 357.476,-24.0902 346.972,-25.477 350.129,-31.7245"/>
</g>
<!-- &#45;4&#45;&gt;1 -->
<g id="edge20" class="edge"><title>&#45;4&#45;&gt;1</title>
<path fill="none" stroke="green" stroke-width="0.103914" d="M108.529,-71.2594C111.481,-69.3286 114.685,-67.3549 117.761,-65.6985 153.524,-46.4413 165.441,-47.8808 201.761,-29.6985 202.589,-29.2839 203.429,-28.8534 204.273,-28.4117"/>
<polygon fill="green" stroke="green" stroke-width="0.103914" points="206.155,-31.3701 213.21,-23.4657 202.766,-25.2454 206.155,-31.3701"/>
</g>
<!-- &#45;4&#45;&gt;2 -->
<g id="edge21" class="edge"><title>&#45;4&#45;&gt;2</title>
<path fill="none" stroke="red" stroke-width="0.295159" d="M107.498,-71.5285C110.684,-69.4131 114.259,-67.2818 117.761,-65.6985 173.17,-40.6458 193.63,-53.088 249.761,-29.6985 250.616,-29.3423 251.478,-28.9614 252.341,-28.5614"/>
<polygon fill="red" stroke="red" stroke-width="0.295159" points="254.149,-31.5652 261.368,-23.8104 250.889,-25.3707 254.149,-31.5652"/>
</g>
<!-- &#45;4&#45;&gt;3 -->
<g id="edge22" class="edge"><title>&#45;4&#45;&gt;3</title>
<path fill="none" stroke="red" stroke-width="0.136105" d="M100.941,-71.4803C105.331,-63.0063 112.424,-49.314 118.475,-37.6343"/>
<polygon fill="red" stroke="red" stroke-width="0.136105" points="121.738,-38.9446 123.23,-28.4554 115.523,-35.7246 121.738,-38.9446"/>
</g>
<!-- &#45;4&#45;&gt;4 -->
<g id="edge23" class="edge"><title>&#45;4&#45;&gt;4</title>
<path fill="none" stroke="red" stroke-width="0.129273" d="M107.02,-71.4803C119.879,-61.368 142.187,-43.8246 158.32,-31.138"/>
<polygon fill="red" stroke="red" stroke-width="0.129273" points="160.851,-33.6003 166.548,-24.6676 156.524,-28.0979 160.851,-33.6003"/>
</g>
<!-- &#45;4&#45;&gt;5 -->
<g id="edge24" class="edge"><title>&#45;4&#45;&gt;5</title>
<path fill="none" stroke="green" stroke-width="0.433262" d="M107.431,-71.3716C110.615,-69.2537 114.207,-67.1604 117.761,-65.6985 193.213,-34.6655 221.418,-58.4679 297.761,-29.6985 298.628,-29.3719 299.5,-29.0162 300.371,-28.6375"/>
<polygon fill="green" stroke="green" stroke-width="0.433262" points="302.138,-31.6648 309.437,-23.9854 298.943,-25.4368 302.138,-31.6648"/>
</g>
<!-- &#45;5 -->
<g id="node5" class="node"><title>&#45;5</title>
<polygon fill="lightgray" stroke="black" points="150.761,-89.5477 126.761,-89.5477 126.761,-71.5477 150.761,-71.5477 150.761,-89.5477"/>
<text text-anchor="middle" x="138.761" y="-78.3477" font-family="Times New Roman,serif" font-size="9.00">&#45;5</text>
</g>
<!-- &#45;5&#45;&gt;0 -->
<g id="edge25" class="edge"><title>&#45;5&#45;&gt;0</title>
<path fill="none" stroke="green" stroke-width="0.500888" d="M149.425,-71.3573C152.609,-69.2392 156.202,-67.1493 159.761,-65.6985 237.732,-33.9123 266.878,-59.1458 345.761,-29.6985 346.629,-29.3746 347.502,-29.0212 348.374,-28.6444"/>
<polygon fill="green" stroke="green" stroke-width="0.500888" points="350.137,-31.6738 357.443,-24.0013 346.947,-25.4429 350.137,-31.6738"/>
</g>
<!-- &#45;5&#45;&gt;1 -->
<g id="edge26" class="edge"><title>&#45;5&#45;&gt;1</title>
<path fill="none" stroke="green" stroke-width="0.190099" d="M149.78,-71.4803C163.797,-61.2174 188.268,-43.3003 205.65,-30.5743"/>
<polygon fill="green" stroke="green" stroke-width="0.190099" points="207.999,-33.1921 214,-24.4606 203.864,-27.5442 207.999,-33.1921"/>
</g>
<!-- &#45;5&#45;&gt;2 -->
<g id="edge27" class="edge"><title>&#45;5&#45;&gt;2</title>
<path fill="none" stroke="green" stroke-width="0.143291" d="M150.059,-71.4951C153.132,-69.4736 156.51,-67.3983 159.761,-65.6985 197.939,-45.7372 211.005,-48.5126 249.761,-29.6985 250.594,-29.2941 251.438,-28.8722 252.285,-28.4377"/>
<polygon fill="green" stroke="green" stroke-width="0.143291" points="254.156,-31.4038 261.24,-23.5255 250.789,-25.2666 254.156,-31.4038"/>
</g>
<!-- &#45;5&#45;&gt;3 -->
<g id="edge28" class="edge"><title>&#45;5&#45;&gt;3</title>
<path fill="none" stroke="green" stroke-width="0.328786" d="M137.621,-71.4803C136.503,-63.565 134.741,-51.0967 133.169,-39.9685"/>
<polygon fill="green" stroke="green" stroke-width="0.328786" points="136.611,-39.314 131.747,-29.9021 129.68,-40.2934 136.611,-39.314"/>
</g>
<!-- &#45;5&#45;&gt;4 -->
<g id="edge29" class="edge"><title>&#45;5&#45;&gt;4</title>
<path fill="none" stroke="red" stroke-width="0.173433" d="M143.701,-71.4803C149.005,-62.8159 157.65,-48.6961 164.903,-36.8501"/>
<polygon fill="red" stroke="red" stroke-width="0.173433" points="168.094,-38.3411 170.331,-27.9851 162.124,-34.686 168.094,-38.3411"/>
</g>
<!-- &#45;5&#45;&gt;5 -->
<g id="edge30" class="edge"><title>&#45;5&#45;&gt;5</title>
<path fill="none" stroke="red" stroke-width="0.388769" d="M149.487,-71.5035C152.672,-69.3876 156.251,-67.2624 159.761,-65.6985 217.662,-39.9043 239.118,-53.7548 297.761,-29.6985 298.618,-29.347 299.482,-28.9701 300.346,-28.5736"/>
<polygon fill="red" stroke="red" stroke-width="0.388769" points="302.148,-31.5811 309.38,-23.8383 298.898,-25.3812 302.148,-31.5811"/>
</g>
<!-- &#45;6 -->
<g id="node6" class="node"><title>&#45;6</title>
<polygon fill="lightgray" stroke="black" points="192.761,-89.5477 168.761,-89.5477 168.761,-71.5477 192.761,-71.5477 192.761,-89.5477"/>
<text text-anchor="middle" x="180.761" y="-78.3477" font-family="Times New Roman,serif" font-size="9.00">&#45;6</text>
</g>
<!-- &#45;6&#45;&gt;0 -->
<g id="edge31" class="edge"><title>&#45;6&#45;&gt;0</title>
<path fill="none" stroke="red" stroke-width="0.241926" d="M191.477,-71.4803C194.662,-69.3641 198.243,-67.2445 201.761,-65.6985 262.158,-39.1607 284.6,-54.4237 345.761,-29.6985 346.62,-29.3514 347.485,-28.9782 348.351,-28.5848"/>
<polygon fill="red" stroke="red" stroke-width="0.241926" points="350.146,-31.5957 357.39,-23.8642 346.906,-25.3909 350.146,-31.5957"/>
</g>
<!-- &#45;6&#45;&gt;1 -->
<g id="edge32" class="edge"><title>&#45;6&#45;&gt;1</title>
<path fill="none" stroke="red" stroke-width="0.162644" d="M186.461,-71.4803C192.779,-62.5366 203.204,-47.78 211.729,-35.7118"/>
<polygon fill="red" stroke="red" stroke-width="0.162644" points="214.604,-37.7079 217.516,-27.5209 208.887,-33.6689 214.604,-37.7079"/>
</g>
<!-- &#45;6&#45;&gt;2 -->
<g id="edge33" class="edge"><title>&#45;6&#45;&gt;2</title>
<path fill="none" stroke="red" stroke-width="0.430938" d="M192.54,-71.4803C207.829,-61.0082 234.754,-42.5665 253.389,-29.8025"/>
<polygon fill="red" stroke="red" stroke-width="0.430938" points="255.512,-32.5909 261.785,-24.0524 251.556,-26.8157 255.512,-32.5909"/>
</g>
<!-- &#45;6&#45;&gt;3 -->
<g id="edge34" class="edge"><title>&#45;6&#45;&gt;3</title>
<path fill="none" stroke="red" stroke-width="0.396137" d="M174.302,-71.4803C166.985,-62.341 154.807,-47.1317 145.033,-34.9238"/>
<polygon fill="red" stroke="red" stroke-width="0.396137" points="147.722,-32.6819 138.74,-27.0632 142.258,-37.057 147.722,-32.6819"/>
</g>
<!-- &#45;6&#45;&gt;4 -->
<g id="edge35" class="edge"><title>&#45;6&#45;&gt;4</title>
<path fill="none" stroke="green" stroke-width="0.160992" d="M180.381,-71.4803C180.009,-63.565 179.421,-51.0967 178.897,-39.9685"/>
<polygon fill="green" stroke="green" stroke-width="0.160992" points="182.39,-39.7263 178.423,-29.9021 175.398,-40.0557 182.39,-39.7263"/>
</g>
<!-- &#45;6&#45;&gt;5 -->
<g id="edge36" class="edge"><title>&#45;6&#45;&gt;5</title>
<path fill="none" stroke="green" stroke-width="0.238888" d="M192.035,-71.4472C195.107,-69.426 198.492,-67.3628 201.761,-65.6985 242.37,-45.0251 256.554,-49.1519 297.761,-29.6985 298.599,-29.3031 299.446,-28.889 300.297,-28.461"/>
<polygon fill="green" stroke="green" stroke-width="0.238888" points="302.155,-31.4341 309.265,-23.5792 298.809,-25.2859 302.155,-31.4341"/>
</g>
<!-- &#45;7 -->
<g id="node7" class="node"><title>&#45;7</title>
<polygon fill="lightgray" stroke="black" points="234.761,-89.5477 210.761,-89.5477 210.761,-71.5477 234.761,-71.5477 234.761,-89.5477"/>
<text text-anchor="middle" x="222.761" y="-78.3477" font-family="Times New Roman,serif" font-size="9.00">&#45;7</text>
</g>
<!-- &#45;7&#45;&gt;0 -->
<g id="edge37" class="edge"><title>&#45;7&#45;&gt;0</title>
<path fill="none" stroke="green" stroke-width="0.137628" d="M234.013,-71.4039C237.086,-69.3831 240.476,-67.3309 243.761,-65.6985 286.813,-44.3064 302.09,-49.7974 345.761,-29.6985 346.602,-29.3113 347.453,-28.9041 348.306,-28.482"/>
<polygon fill="green" stroke="green" stroke-width="0.137628" points="350.155,-31.4614 357.288,-23.6274 346.826,-25.3034 350.155,-31.4614"/>
</g>
<!-- &#45;7&#45;&gt;1 -->
<g id="edge38" class="edge"><title>&#45;7&#45;&gt;1</title>
<path fill="none" stroke="green" stroke-width="0.195107" d="M223.141,-71.4803C223.514,-63.565 224.101,-51.0967 224.625,-39.9685"/>
<polygon fill="green" stroke="green" stroke-width="0.195107" points="228.125,-40.0557 225.099,-29.9021 221.133,-39.7263 228.125,-40.0557"/>
</g>
<!-- &#45;7&#45;&gt;2 -->
<g id="edge39" class="edge"><title>&#45;7&#45;&gt;2</title>
<path fill="none" stroke="red" stroke-width="0.128387" d="M229.22,-71.4803C236.538,-62.341 248.715,-47.1317 258.489,-34.9238"/>
<polygon fill="red" stroke="red" stroke-width="0.128387" points="261.265,-37.057 264.783,-27.0632 255.801,-32.6819 261.265,-37.057"/>
</g>
<!-- &#45;7&#45;&gt;3 -->
<g id="edge40" class="edge"><title>&#45;7&#45;&gt;3</title>
<path fill="none" stroke="red" stroke-width="0.126446" d="M210.983,-71.4803C195.693,-61.0082 168.769,-42.5665 150.133,-29.8025"/>
<polygon fill="red" stroke="red" stroke-width="0.126446" points="151.966,-26.8157 141.738,-24.0524 148.01,-32.5909 151.966,-26.8157"/>
</g>
<!-- &#45;7&#45;&gt;4 -->
<g id="edge41" class="edge"><title>&#45;7&#45;&gt;4</title>
<path fill="none" stroke="green" stroke-width="0.441965" d="M217.062,-71.4803C210.744,-62.5366 200.319,-47.78 191.793,-35.7118"/>
<polygon fill="green" stroke="green" stroke-width="0.441965" points="194.635,-33.6689 186.007,-27.5209 188.918,-37.7079 194.635,-33.6689"/>
</g>
<!-- &#45;7&#45;&gt;5 -->
<g id="edge42" class="edge"><title>&#45;7&#45;&gt;5</title>
<path fill="none" stroke="green" stroke-width="0.157923" d="M235.179,-71.3162C237.996,-69.4608 240.977,-67.5059 243.761,-65.6985 263.142,-53.1158 285.357,-38.9424 301.109,-28.9343"/>
<polygon fill="green" stroke="green" stroke-width="0.157923" points="302.999,-31.8802 309.567,-23.5665 299.248,-25.97 302.999,-31.8802"/>
</g>
<!-- &#45;8 -->
<g id="node8" class="node"><title>&#45;8</title>
<polygon fill="lightgray" stroke="black" points="276.761,-89.5477 252.761,-89.5477 252.761,-71.5477 276.761,-71.5477 276.761,-89.5477"/>
<text text-anchor="middle" x="264.761" y="-78.3477" font-family="Times New Roman,serif" font-size="9.00">&#45;8</text>
</g>
<!-- &#45;8&#45;&gt;0 -->
<g id="edge43" class="edge"><title>&#45;8&#45;&gt;0</title>
<path fill="none" stroke="red" stroke-width="0.231528" d="M276.691,-71.5392C279.638,-69.5999 282.8,-67.5523 285.761,-65.6985 306.864,-52.4886 331.389,-38.0354 348.471,-28.1094"/>
<polygon fill="red" stroke="red" stroke-width="0.231528" points="350.226,-31.1375 357.126,-23.0974 346.718,-25.0799 350.226,-31.1375"/>
</g>
<!-- &#45;8&#45;&gt;1 -->
<g id="edge44" class="edge"><title>&#45;8&#45;&gt;1</title>
<path fill="none" stroke="red" stroke-width="0.486758" d="M259.822,-71.4803C254.517,-62.8159 245.872,-48.6961 238.619,-36.8501"/>
<polygon fill="red" stroke="red" stroke-width="0.486758" points="241.398,-34.686 233.192,-27.9851 235.428,-38.3411 241.398,-34.686"/>
</g>
<!-- &#45;8&#45;&gt;2 -->
<g id="edge45" class="edge"><title>&#45;8&#45;&gt;2</title>
<path fill="none" stroke="red" stroke-width="0.122638" d="M265.901,-71.4803C267.019,-63.565 268.781,-51.0967 270.353,-39.9685"/>
<polygon fill="red" stroke="red" stroke-width="0.122638" points="273.842,-40.2934 271.776,-29.9021 266.911,-39.314 273.842,-40.2934"/>
</g>
<!-- &#45;8&#45;&gt;3 -->
<g id="edge46" class="edge"><title>&#45;8&#45;&gt;3</title>
<path fill="none" stroke="red" stroke-width="0.354333" d="M253.463,-71.4951C250.391,-69.4736 247.012,-67.3983 243.761,-65.6985 205.583,-45.7372 192.517,-48.5126 153.761,-29.6985 152.928,-29.2941 152.085,-28.8722 151.237,-28.4377"/>
<polygon fill="red" stroke="red" stroke-width="0.354333" points="152.734,-25.2666 142.283,-23.5255 149.367,-31.4038 152.734,-25.2666"/>
</g>
<!-- &#45;8&#45;&gt;4 -->
<g id="edge47" class="edge"><title>&#45;8&#45;&gt;4</title>
<path fill="none" stroke="green" stroke-width="0.142966" d="M253.743,-71.4803C239.725,-61.2174 215.254,-43.3003 197.873,-30.5743"/>
<polygon fill="green" stroke="green" stroke-width="0.142966" points="199.659,-27.5442 189.523,-24.4606 195.524,-33.1921 199.659,-27.5442"/>
</g>
<!-- &#45;8&#45;&gt;5 -->
<g id="edge48" class="edge"><title>&#45;8&#45;&gt;5</title>
<path fill="none" stroke="red" stroke-width="0.261453" d="M271.98,-71.4803C280.335,-62.1432 294.36,-46.4707 305.398,-34.1358"/>
<polygon fill="red" stroke="red" stroke-width="0.261453" points="308.07,-36.398 312.13,-26.612 302.854,-31.7301 308.07,-36.398"/>
</g>
<!-- &#45;9 -->
<g id="node9" class="node"><title>&#45;9</title>
<polygon fill="lightgray" stroke="black" points="318.761,-89.5477 294.761,-89.5477 294.761,-71.5477 318.761,-71.5477 318.761,-89.5477"/>
<text text-anchor="middle" x="306.761" y="-78.3477" font-family="Times New Roman,serif" font-size="9.00">&#45;9</text>
</g>
<!-- &#45;9&#45;&gt;0 -->
<g id="edge49" class="edge"><title>&#45;9&#45;&gt;0</title>
<path fill="none" stroke="green" stroke-width="0.504468" d="M314.74,-71.4803C324.173,-61.9434 340.142,-45.797 352.454,-33.3485"/>
<polygon fill="green" stroke="green" stroke-width="0.504468" points="355.013,-35.7388 359.556,-26.1676 350.036,-30.8164 355.013,-35.7388"/>
</g>
<!-- &#45;9&#45;&gt;1 -->
<g id="edge50" class="edge"><title>&#45;9&#45;&gt;1</title>
<path fill="none" stroke="green" stroke-width="0.375432" d="M296.503,-71.4803C283.644,-61.368 261.335,-43.8246 245.203,-31.138"/>
<polygon fill="green" stroke="green" stroke-width="0.375432" points="246.999,-28.0979 236.975,-24.6676 242.672,-33.6003 246.999,-28.0979"/>
</g>
<!-- &#45;9&#45;&gt;2 -->
<g id="edge51" class="edge"><title>&#45;9&#45;&gt;2</title>
<path fill="none" stroke="red" stroke-width="0.132917" d="M302.582,-71.4803C298.192,-63.0063 291.098,-49.314 285.047,-37.6343"/>
<polygon fill="red" stroke="red" stroke-width="0.132917" points="288,-35.7246 280.292,-28.4554 281.784,-38.9446 288,-35.7246"/>
</g>
<!-- &#45;9&#45;&gt;3 -->
<g id="edge52" class="edge"><title>&#45;9&#45;&gt;3</title>
<path fill="none" stroke="red" stroke-width="0.352554" d="M296.024,-71.5285C292.839,-69.4131 289.263,-67.2818 285.761,-65.6985 230.352,-40.6458 209.892,-53.088 153.761,-29.6985 152.906,-29.3423 152.044,-28.9614 151.181,-28.5614"/>
<polygon fill="red" stroke="red" stroke-width="0.352554" points="152.634,-25.3707 142.154,-23.8104 149.373,-31.5652 152.634,-25.3707"/>
</g>
<!-- &#45;9&#45;&gt;4 -->
<g id="edge53" class="edge"><title>&#45;9&#45;&gt;4</title>
<path fill="none" stroke="red" stroke-width="0.359385" d="M294.994,-71.2594C292.042,-69.3286 288.837,-67.3549 285.761,-65.6985 249.999,-46.4413 238.082,-47.8808 201.761,-29.6985 200.933,-29.2839 200.094,-28.8534 199.25,-28.4117"/>
<polygon fill="red" stroke="red" stroke-width="0.359385" points="200.757,-25.2454 190.312,-23.4657 197.367,-31.3701 200.757,-25.2454"/>
</g>
<!-- &#45;9&#45;&gt;5 -->
<g id="edge54" class="edge"><title>&#45;9&#45;&gt;5</title>
<path fill="none" stroke="red" stroke-width="0.172811" d="M308.661,-71.4803C310.568,-63.3809 313.598,-50.5142 316.264,-39.1941"/>
<polygon fill="red" stroke="red" stroke-width="0.172811" points="319.682,-39.9501 318.567,-29.4141 312.868,-38.3456 319.682,-39.9501"/>
</g>
<!-- &#45;10 -->
<g id="node10" class="node"><title>&#45;10</title>
<polygon fill="lightgray" stroke="black" points="487.261,-149.397 458.261,-149.397 458.261,-131.397 487.261,-131.397 487.261,-149.397"/>
<text text-anchor="middle" x="472.761" y="-138.197" font-family="Times New Roman,serif" font-size="9.00">&#45;10</text>
</g>
<!-- &#45;10&#45;&gt;0 -->
<g id="edge55" class="edge"><title>&#45;10&#45;&gt;0</title>
<path fill="none" stroke="green" stroke-width="0.386986" stroke-dasharray="1,5" d="M487.453,-138.192C511.197,-135.364 557.4,-126.006 577.761,-95.397 585.072,-84.4071 585.935,-76.0625 577.761,-65.6985 555.16,-37.0405 444.625,-23.0013 394.527,-18.0277"/>
<polygon fill="green" stroke="green" stroke-width="0.386986" points="394.82,-14.54 384.534,-17.0772 394.158,-21.5085 394.82,-14.54"/>
</g>
<!-- &#45;10&#45;&gt;1 -->
<g id="edge56" class="edge"><title>&#45;10&#45;&gt;1</title>
<path fill="none" stroke="red" stroke-width="0.317333" d="M458.062,-139.088C384.353,-137.39 57.342,-128.047 27.7612,-95.397 18.899,-85.6152 19.4269,-75.9337 27.7612,-65.6985 77.6256,-4.46131 127.956,-57.791 201.761,-29.6985 202.627,-29.3691 203.498,-29.0109 204.369,-28.6301"/>
<polygon fill="red" stroke="red" stroke-width="0.317333" points="206.14,-31.6551 213.431,-23.9685 202.938,-25.4303 206.14,-31.6551"/>
</g>
<!-- &#45;10&#45;&gt;2 -->
<g id="edge57" class="edge"><title>&#45;10&#45;&gt;2</title>
<path fill="none" stroke="red" stroke-width="0.290886" d="M473.199,-131.202C473.532,-116.008 471.928,-83.4071 453.761,-65.6985 402.809,-16.0299 363.97,-55.7666 297.761,-29.6985 296.9,-29.3592 296.032,-28.9927 295.164,-28.6049"/>
<polygon fill="red" stroke="red" stroke-width="0.290886" points="296.602,-25.4083 286.114,-23.9104 293.379,-31.622 296.602,-25.4083"/>
</g>
<!-- &#45;10&#45;&gt;3 -->
<g id="edge58" class="edge"><title>&#45;10&#45;&gt;3</title>
<path fill="none" stroke="red" stroke-width="0.241388" d="M458.159,-139.155C382.654,-137.759 38.8329,-129.548 7.76125,-95.397 -25.1635,-59.2097 61.3747,-32.2821 105.601,-21.2892"/>
<polygon fill="red" stroke="red" stroke-width="0.241388" points="106.429,-24.6898 115.338,-18.956 104.798,-17.8825 106.429,-24.6898"/>
</g>
<!-- &#45;10&#45;&gt;4 -->
<g id="edge59" class="edge"><title>&#45;10&#45;&gt;4</title>
<path fill="none" stroke="red" stroke-width="0.138754" d="M458.227,-139.125C383.848,-137.586 48.1029,-128.814 17.7612,-95.397 8.88846,-85.6248 9.71016,-76.158 17.7612,-65.6985 55.8999,-16.1508 95.9557,-53.5323 153.761,-29.6985 154.617,-29.3455 155.48,-28.9673 156.345,-28.5696"/>
<polygon fill="red" stroke="red" stroke-width="0.138754" points="158.148,-31.5759 165.376,-23.8293 154.895,-25.3778 158.148,-31.5759"/>
</g>
<!-- &#45;10&#45;&gt;5 -->
<g id="edge60" class="edge"><title>&#45;10&#45;&gt;5</title>
<path fill="none" stroke="red" stroke-width="0.266921" d="M478.1,-131.124C486.876,-116.371 501.941,-85.2406 486.761,-65.6985 447.086,-14.6204 405.663,-54.089 345.761,-29.6985 344.904,-29.3493 344.039,-28.9742 343.174,-28.5793"/>
<polygon fill="red" stroke="red" stroke-width="0.266921" points="344.621,-25.3861 334.138,-23.8515 341.376,-31.5885 344.621,-25.3861"/>
</g>
<!-- 8 -->
<g id="node18" class="node"><title>8</title>
<ellipse fill="white" stroke="black" cx="553.761" cy="-80.5477" rx="14.7" ry="14.7"/>
<text text-anchor="middle" x="553.761" y="-78.3477" font-family="Times New Roman,serif" font-size="9.00">8</text>
</g>
<!-- &#45;10&#45;&gt;8 -->
<g id="edge66" class="edge"><title>&#45;10&#45;&gt;8</title>
<path fill="none" stroke="green" stroke-width="0.3" d="M484.024,-131.353C496.815,-122.218 517.937,-107.133 533.59,-95.9538"/>
<polygon fill="green" stroke="green" stroke-width="0.3" points="535.966,-98.5578 542.07,-89.8977 531.898,-92.8614 535.966,-98.5578"/>
</g>
<!-- &#45;11 -->
<g id="node11" class="node"><title>&#45;11</title>
<polygon fill="lightgray" stroke="black" points="66.2612,-89.5477 37.2612,-89.5477 37.2612,-71.5477 66.2612,-71.5477 66.2612,-89.5477"/>
<text text-anchor="middle" x="51.7612" y="-78.3477" font-family="Times New Roman,serif" font-size="9.00">&#45;11</text>
</g>
<!-- &#45;11&#45;&gt;1 -->
<g id="edge61" class="edge"><title>&#45;11&#45;&gt;1</title>
<path fill="none" stroke="red" stroke-width="0.267774" d="M64.6664,-71.3285C68.1777,-69.3083 72.0406,-67.2752 75.7612,-65.6985 129.386,-42.9735 148.137,-52.4235 201.761,-29.6985 202.614,-29.3372 203.474,-28.9519 204.336,-28.5482"/>
<polygon fill="red" stroke="red" stroke-width="0.267774" points="206.15,-31.5479 213.355,-23.78 202.879,-25.3594 206.15,-31.5479"/>
</g>
<!-- &#45;11&#45;&gt;2 -->
<g id="edge62" class="edge"><title>&#45;11&#45;&gt;2</title>
<path fill="none" stroke="red" stroke-width="0.127974" d="M64.0914,-71.4285C67.7325,-69.3115 71.8048,-67.2044 75.7612,-65.6985 149.567,-37.606 175.956,-57.791 249.761,-29.6985 250.627,-29.3691 251.498,-29.0109 252.369,-28.6301"/>
<polygon fill="red" stroke="red" stroke-width="0.127974" points="254.14,-31.6551 261.431,-23.9685 250.938,-25.4303 254.14,-31.6551"/>
</g>
<!-- &#45;11&#45;&gt;3 -->
<g id="edge63" class="edge"><title>&#45;11&#45;&gt;3</title>
<path fill="none" stroke="red" stroke-width="0.342038" d="M61.64,-71.4803C73.9534,-61.4245 95.2651,-44.0204 110.779,-31.3511"/>
<polygon fill="red" stroke="red" stroke-width="0.342038" points="113.176,-33.9126 118.707,-24.8764 108.748,-28.4908 113.176,-33.9126"/>
</g>
<!-- &#45;11&#45;&gt;4 -->
<g id="edge64" class="edge"><title>&#45;11&#45;&gt;4</title>
<path fill="none" stroke="green" stroke-width="0.230846" d="M65.3492,-71.4203C68.7186,-69.4846 72.3439,-67.4684 75.7612,-65.6985 109.665,-48.1388 119.858,-47.2582 153.761,-29.6985 154.584,-29.2726 155.418,-28.8324 156.258,-28.3826"/>
<polygon fill="green" stroke="green" stroke-width="0.230846" points="158.154,-31.3323 165.176,-23.3987 154.739,-25.2218 158.154,-31.3323"/>
</g>
<!-- &#45;11&#45;&gt;5 -->
<g id="edge65" class="edge"><title>&#45;11&#45;&gt;5</title>
<path fill="none" stroke="green" stroke-width="0.129065" d="M64.0506,-71.3175C67.6909,-69.1987 71.7732,-67.1185 75.7612,-65.6985 169.926,-32.1697 203.597,-63.2272 297.761,-29.6985 298.634,-29.3879 299.511,-29.0456 300.386,-28.6783"/>
<polygon fill="green" stroke="green" stroke-width="0.129065" points="302.13,-31.7184 309.472,-24.0795 298.969,-25.4729 302.13,-31.7184"/>
</g>
<!-- 8&#45;&gt;0 -->
<g id="edge67" class="edge"><title>8&#45;&gt;0</title>
<path fill="none" stroke="green" stroke-width="0.386986" d="M540.934,-72.9653C535.951,-70.5294 530.153,-67.8419 524.761,-65.6985 479.411,-47.6718 424.734,-31.2876 393.935,-22.5291"/>
<polygon fill="green" stroke="green" stroke-width="0.386986" points="394.666,-19.0988 384.091,-19.7589 392.769,-25.8371 394.666,-19.0988"/>
</g>
</g>
</svg>
