<?xml version="1.0" encoding="UTF-8" standalone="no"?>
<!DOCTYPE svg PUBLIC "-//W3C//DTD SVG 1.1//EN"
 "http://www.w3.org/Graphics/SVG/1.1/DTD/svg11.dtd">
<!-- Generated by graphviz version 2.38.0 (20140413.2041)
 -->
<!-- Title: %3 Pages: 1 -->
<svg width="644pt" height="170pt"
 viewBox="0.00 0.00 644.11 170.12" xmlns="http://www.w3.org/2000/svg" xmlns:xlink="http://www.w3.org/1999/xlink">
<g id="graph0" class="graph" transform="scale(1 1) rotate(0) translate(4 166.125)">
<title>%3</title>
<polygon fill="white" stroke="none" points="-4,4 -4,-166.125 640.107,-166.125 640.107,4 -4,4"/>
<!-- &#45;1 -->
<g id="node1" class="node"><title>&#45;1</title>
<polygon fill="lightgray" stroke="black" points="330.213,-95.9117 306.213,-95.9117 306.213,-77.9117 330.213,-77.9117 330.213,-95.9117"/>
<text text-anchor="middle" x="318.213" y="-84.7117" font-family="Times New Roman,serif" font-size="9.00">&#45;1</text>
</g>
<!-- 0 -->
<g id="node12" class="node"><title>0</title>
<ellipse fill="lightblue" stroke="black" cx="450.213" cy="-14.8492" rx="14.7" ry="14.7"/>
<text text-anchor="middle" x="450.213" y="-12.6492" font-family="Times New Roman,serif" font-size="9.00">0</text>
</g>
<!-- &#45;1&#45;&gt;0 -->
<g id="edge1" class="edge"><title>&#45;1&#45;&gt;0</title>
<path fill="none" stroke="green" stroke-width="0.106297" d="M325.394,-77.6735C329.2,-73.672 334.132,-69.0229 339.213,-65.6985 374.232,-42.7894 388.677,-48.1957 426.213,-29.6985 427.044,-29.2891 427.885,-28.8631 428.731,-28.4251"/>
<polygon fill="green" stroke="green" stroke-width="0.106297" points="430.608,-31.3874 437.677,-23.4965 427.23,-25.2563 430.608,-31.3874"/>
</g>
<!-- 1 -->
<g id="node13" class="node"><title>1</title>
<ellipse fill="lightblue" stroke="black" cx="258.213" cy="-14.8492" rx="14.7" ry="14.7"/>
<text text-anchor="middle" x="258.213" y="-12.6492" font-family="Times New Roman,serif" font-size="9.00">1</text>
</g>
<!-- &#45;1&#45;&gt;1 -->
<g id="edge2" class="edge"><title>&#45;1&#45;&gt;1</title>
<path fill="none" stroke="green" stroke-width="0.143538" d="M311.33,-77.8746C302.376,-67.4184 286.449,-48.8208 274.364,-34.7089"/>
<polygon fill="green" stroke="green" stroke-width="0.143538" points="276.937,-32.3326 267.774,-27.0138 271.62,-36.8858 276.937,-32.3326"/>
</g>
<!-- 2 -->
<g id="node14" class="node"><title>2</title>
<ellipse fill="lightblue" stroke="black" cx="498.213" cy="-14.8492" rx="14.7" ry="14.7"/>
<text text-anchor="middle" x="498.213" y="-12.6492" font-family="Times New Roman,serif" font-size="9.00">2</text>
</g>
<!-- &#45;1&#45;&gt;2 -->
<g id="edge3" class="edge"><title>&#45;1&#45;&gt;2</title>
<path fill="none" stroke="red" stroke-width="0.310979" d="M324.846,-77.7898C328.65,-73.6193 333.748,-68.7806 339.213,-65.6985 393.303,-35.1972 416.826,-53.4211 474.213,-29.6985 475.069,-29.3447 475.932,-28.9658 476.796,-28.5676"/>
<polygon fill="red" stroke="red" stroke-width="0.310979" points="478.6,-31.5733 485.826,-23.8246 475.345,-25.3761 478.6,-31.5733"/>
</g>
<!-- 3 -->
<g id="node15" class="node"><title>3</title>
<ellipse fill="lightblue" stroke="black" cx="354.213" cy="-14.8492" rx="14.7" ry="14.7"/>
<text text-anchor="middle" x="354.213" y="-12.6492" font-family="Times New Roman,serif" font-size="9.00">3</text>
</g>
<!-- &#45;1&#45;&gt;3 -->
<g id="edge4" class="edge"><title>&#45;1&#45;&gt;3</title>
<path fill="none" stroke="green" stroke-width="0.2919" d="M322.343,-77.8746C327.366,-68.0985 336.046,-51.2057 343.08,-37.5161"/>
<polygon fill="green" stroke="green" stroke-width="0.2919" points="346.378,-38.7557 347.835,-28.2615 340.152,-35.5565 346.378,-38.7557"/>
</g>
<!-- 4 -->
<g id="node16" class="node"><title>4</title>
<ellipse fill="lightblue" stroke="black" cx="402.213" cy="-14.8492" rx="14.7" ry="14.7"/>
<text text-anchor="middle" x="402.213" y="-12.6492" font-family="Times New Roman,serif" font-size="9.00">4</text>
</g>
<!-- &#45;1&#45;&gt;4 -->
<g id="edge5" class="edge"><title>&#45;1&#45;&gt;4</title>
<path fill="none" stroke="red" stroke-width="0.184791" d="M326.218,-77.8522C330.066,-74.0717 334.792,-69.5596 339.213,-65.6985 353.382,-53.325 370.109,-40.1526 382.765,-30.4577"/>
<polygon fill="red" stroke="red" stroke-width="0.184791" points="384.951,-33.1918 390.795,-24.354 380.715,-27.619 384.951,-33.1918"/>
</g>
<!-- 5 -->
<g id="node17" class="node"><title>5</title>
<ellipse fill="lightblue" stroke="black" cx="306.213" cy="-14.8492" rx="14.7" ry="14.7"/>
<text text-anchor="middle" x="306.213" y="-12.6492" font-family="Times New Roman,serif" font-size="9.00">5</text>
</g>
<!-- &#45;1&#45;&gt;5 -->
<g id="edge6" class="edge"><title>&#45;1&#45;&gt;5</title>
<path fill="none" stroke="green" stroke-width="0.543029" d="M316.837,-77.8746C315.243,-68.572 312.546,-52.8252 310.269,-39.5264"/>
<polygon fill="green" stroke="green" stroke-width="0.543029" points="313.699,-38.8212 308.561,-29.5556 306.799,-40.0029 313.699,-38.8212"/>
</g>
<!-- &#45;2 -->
<g id="node2" class="node"><title>&#45;2</title>
<polygon fill="lightgray" stroke="black" points="372.213,-95.9117 348.213,-95.9117 348.213,-77.9117 372.213,-77.9117 372.213,-95.9117"/>
<text text-anchor="middle" x="360.213" y="-84.7117" font-family="Times New Roman,serif" font-size="9.00">&#45;2</text>
</g>
<!-- &#45;2&#45;&gt;0 -->
<g id="edge7" class="edge"><title>&#45;2&#45;&gt;0</title>
<path fill="none" stroke="green" stroke-width="0.24608" d="M368.144,-77.7646C371.974,-73.965 376.708,-69.4619 381.213,-65.6985 396.843,-52.6409 415.641,-39.1957 429.667,-29.5642"/>
<polygon fill="green" stroke="green" stroke-width="0.24608" points="431.807,-32.3416 438.113,-23.828 427.874,-26.5508 431.807,-32.3416"/>
</g>
<!-- &#45;2&#45;&gt;1 -->
<g id="edge8" class="edge"><title>&#45;2&#45;&gt;1</title>
<path fill="none" stroke="green" stroke-width="0.286474" d="M352.405,-77.6129C348.601,-73.78 343.854,-69.2928 339.213,-65.6985 328.789,-57.6247 299.846,-40.2235 279.548,-28.2752"/>
<polygon fill="green" stroke="green" stroke-width="0.286474" points="281.059,-25.1043 270.662,-23.0673 277.52,-31.1435 281.059,-25.1043"/>
</g>
<!-- &#45;2&#45;&gt;2 -->
<g id="edge9" class="edge"><title>&#45;2&#45;&gt;2</title>
<path fill="none" stroke="red" stroke-width="0.241926" d="M367.362,-77.6238C371.16,-73.6097 376.094,-68.9642 381.213,-65.6985 418.58,-41.8622 434.234,-48.8314 474.213,-29.6985 475.049,-29.2987 475.894,-28.8808 476.743,-28.4496"/>
<polygon fill="red" stroke="red" stroke-width="0.241926" points="478.608,-31.4194 485.705,-23.5531 475.251,-25.2765 478.608,-31.4194"/>
</g>
<!-- &#45;2&#45;&gt;3 -->
<g id="edge10" class="edge"><title>&#45;2&#45;&gt;3</title>
<path fill="none" stroke="red" stroke-width="0.286552" d="M359.525,-77.8746C358.741,-68.7202 357.423,-53.3256 356.295,-40.1641"/>
<polygon fill="red" stroke="red" stroke-width="0.286552" points="359.75,-39.4845 355.41,-29.8197 352.776,-40.0819 359.75,-39.4845"/>
</g>
<!-- &#45;2&#45;&gt;4 -->
<g id="edge11" class="edge"><title>&#45;2&#45;&gt;4</title>
<path fill="none" stroke="green" stroke-width="0.264517" d="M365.031,-77.8746C370.983,-67.9452 381.337,-50.6741 389.609,-36.8744"/>
<polygon fill="green" stroke="green" stroke-width="0.264517" points="392.785,-38.3847 394.924,-28.0082 386.781,-34.7856 392.785,-38.3847"/>
</g>
<!-- &#45;2&#45;&gt;5 -->
<g id="edge12" class="edge"><title>&#45;2&#45;&gt;5</title>
<path fill="none" stroke="green" stroke-width="0.38637" d="M354.019,-77.8746C346.035,-67.5161 331.893,-49.1677 321.055,-35.1057"/>
<polygon fill="green" stroke="green" stroke-width="0.38637" points="323.695,-32.7976 314.818,-27.0138 318.151,-37.0709 323.695,-32.7976"/>
</g>
<!-- &#45;3 -->
<g id="node3" class="node"><title>&#45;3</title>
<polygon fill="lightgray" stroke="black" points="414.213,-95.9117 390.213,-95.9117 390.213,-77.9117 414.213,-77.9117 414.213,-95.9117"/>
<text text-anchor="middle" x="402.213" y="-84.7117" font-family="Times New Roman,serif" font-size="9.00">&#45;3</text>
</g>
<!-- &#45;3&#45;&gt;0 -->
<g id="edge13" class="edge"><title>&#45;3&#45;&gt;0</title>
<path fill="none" stroke="green" stroke-width="0.245621" d="M407.719,-77.8746C414.668,-67.7318 426.866,-49.9283 436.415,-35.9895"/>
<polygon fill="green" stroke="green" stroke-width="0.245621" points="439.462,-37.7349 442.226,-27.5071 433.687,-33.7786 439.462,-37.7349"/>
</g>
<!-- &#45;3&#45;&gt;1 -->
<g id="edge14" class="edge"><title>&#45;3&#45;&gt;1</title>
<path fill="none" stroke="green" stroke-width="0.213877" d="M395.093,-77.5791C391.302,-73.5536 386.366,-68.9114 381.213,-65.6985 341.485,-40.9266 324.651,-49.474 282.213,-29.6985 281.374,-29.3073 280.525,-28.8967 279.673,-28.4717"/>
<polygon fill="green" stroke="green" stroke-width="0.213877" points="281.157,-25.2948 270.697,-23.6039 277.819,-31.4481 281.157,-25.2948"/>
</g>
<!-- &#45;3&#45;&gt;2 -->
<g id="edge15" class="edge"><title>&#45;3&#45;&gt;2</title>
<path fill="none" stroke="green" stroke-width="0.533621" d="M410.079,-77.6851C413.895,-73.868 418.636,-69.3733 423.213,-65.6985 440.478,-51.838 461.591,-38.0584 477.013,-28.5114"/>
<polygon fill="green" stroke="green" stroke-width="0.533621" points="479.082,-31.3488 485.794,-23.1511 475.435,-25.374 479.082,-31.3488"/>
</g>
<!-- &#45;3&#45;&gt;3 -->
<g id="edge16" class="edge"><title>&#45;3&#45;&gt;3</title>
<path fill="none" stroke="green" stroke-width="0.251105" d="M396.707,-77.8746C389.758,-67.7318 377.561,-49.9283 368.011,-35.9895"/>
<polygon fill="green" stroke="green" stroke-width="0.251105" points="370.739,-33.7786 362.2,-27.5071 364.965,-37.7349 370.739,-33.7786"/>
</g>
<!-- &#45;3&#45;&gt;4 -->
<g id="edge17" class="edge"><title>&#45;3&#45;&gt;4</title>
<path fill="none" stroke="green" stroke-width="0.113746" d="M402.213,-77.8746C402.213,-68.7202 402.213,-53.3256 402.213,-40.1641"/>
<polygon fill="green" stroke="green" stroke-width="0.113746" points="405.713,-39.8196 402.213,-29.8197 398.713,-39.8197 405.713,-39.8196"/>
</g>
<!-- &#45;3&#45;&gt;5 -->
<g id="edge18" class="edge"><title>&#45;3&#45;&gt;5</title>
<path fill="none" stroke="red" stroke-width="0.349305" d="M394.348,-77.6851C390.531,-73.868 385.791,-69.3733 381.213,-65.6985 363.949,-51.838 342.835,-38.0584 327.414,-28.5114"/>
<polygon fill="red" stroke="red" stroke-width="0.349305" points="328.991,-25.374 318.632,-23.1511 325.344,-31.3488 328.991,-25.374"/>
</g>
<!-- &#45;4 -->
<g id="node4" class="node"><title>&#45;4</title>
<polygon fill="lightgray" stroke="black" points="456.213,-95.9117 432.213,-95.9117 432.213,-77.9117 456.213,-77.9117 456.213,-95.9117"/>
<text text-anchor="middle" x="444.213" y="-84.7117" font-family="Times New Roman,serif" font-size="9.00">&#45;4</text>
</g>
<!-- &#45;4&#45;&gt;0 -->
<g id="edge19" class="edge"><title>&#45;4&#45;&gt;0</title>
<path fill="none" stroke="green" stroke-width="0.312263" d="M444.901,-77.8746C445.685,-68.7202 447.004,-53.3256 448.131,-40.1641"/>
<polygon fill="green" stroke="green" stroke-width="0.312263" points="451.651,-40.0819 449.017,-29.8197 444.676,-39.4845 451.651,-40.0819"/>
</g>
<!-- &#45;4&#45;&gt;1 -->
<g id="edge20" class="edge"><title>&#45;4&#45;&gt;1</title>
<path fill="none" stroke="red" stroke-width="0.354031" d="M437.594,-77.7666C433.793,-73.5893 428.695,-68.7515 423.213,-65.6985 366.708,-34.2295 342.115,-54.089 282.213,-29.6985 281.356,-29.3493 280.491,-28.9742 279.626,-28.5793"/>
<polygon fill="red" stroke="red" stroke-width="0.354031" points="281.073,-25.3861 270.589,-23.8515 277.827,-31.5885 281.073,-25.3861"/>
</g>
<!-- &#45;4&#45;&gt;2 -->
<g id="edge21" class="edge"><title>&#45;4&#45;&gt;2</title>
<path fill="none" stroke="green" stroke-width="0.578942" d="M450.408,-77.8746C458.391,-67.5161 472.533,-49.1677 483.371,-35.1057"/>
<polygon fill="green" stroke="green" stroke-width="0.578942" points="486.276,-37.0709 489.608,-27.0138 480.731,-32.7976 486.276,-37.0709"/>
</g>
<!-- &#45;4&#45;&gt;3 -->
<g id="edge22" class="edge"><title>&#45;4&#45;&gt;3</title>
<path fill="none" stroke="red" stroke-width="0.107954" d="M436.283,-77.7646C432.452,-73.965 427.718,-69.4619 423.213,-65.6985 407.583,-52.6409 388.785,-39.1957 374.76,-29.5642"/>
<polygon fill="red" stroke="red" stroke-width="0.107954" points="376.552,-26.5508 366.313,-23.828 372.62,-32.3416 376.552,-26.5508"/>
</g>
<!-- &#45;4&#45;&gt;4 -->
<g id="edge23" class="edge"><title>&#45;4&#45;&gt;4</title>
<path fill="none" stroke="red" stroke-width="0.279968" d="M439.395,-77.8746C433.443,-67.9452 423.09,-50.6741 414.817,-36.8744"/>
<polygon fill="red" stroke="red" stroke-width="0.279968" points="417.646,-34.7856 409.502,-28.0082 411.642,-38.3847 417.646,-34.7856"/>
</g>
<!-- &#45;4&#45;&gt;5 -->
<g id="edge24" class="edge"><title>&#45;4&#45;&gt;5</title>
<path fill="none" stroke="green" stroke-width="0.285766" d="M437.065,-77.6238C433.267,-73.6097 428.333,-68.9642 423.213,-65.6985 385.846,-41.8622 370.193,-48.8314 330.213,-29.6985 329.378,-29.2987 328.532,-28.8808 327.683,-28.4496"/>
<polygon fill="green" stroke="green" stroke-width="0.285766" points="329.175,-25.2765 318.721,-23.5531 325.819,-31.4194 329.175,-25.2765"/>
</g>
<!-- &#45;5 -->
<g id="node5" class="node"><title>&#45;5</title>
<polygon fill="lightgray" stroke="black" points="498.213,-95.9117 474.213,-95.9117 474.213,-77.9117 498.213,-77.9117 498.213,-95.9117"/>
<text text-anchor="middle" x="486.213" y="-84.7117" font-family="Times New Roman,serif" font-size="9.00">&#45;5</text>
</g>
<!-- &#45;5&#45;&gt;0 -->
<g id="edge25" class="edge"><title>&#45;5&#45;&gt;0</title>
<path fill="none" stroke="green" stroke-width="0.332734" d="M482.084,-77.8746C477.06,-68.0985 468.38,-51.2057 461.346,-37.5161"/>
<polygon fill="green" stroke="green" stroke-width="0.332734" points="464.274,-35.5565 456.591,-28.2615 458.048,-38.7557 464.274,-35.5565"/>
</g>
<!-- &#45;5&#45;&gt;1 -->
<g id="edge26" class="edge"><title>&#45;5&#45;&gt;1</title>
<path fill="none" stroke="green" stroke-width="0.183574" d="M479.66,-77.6438C475.879,-73.4306 470.778,-68.5976 465.213,-65.6985 391.699,-27.4004 359.826,-58.8068 282.213,-29.6985 281.346,-29.3733 280.474,-29.0187 279.602,-28.641"/>
<polygon fill="green" stroke="green" stroke-width="0.183574" points="281.03,-25.4399 270.534,-23.9935 277.837,-31.6694 281.03,-25.4399"/>
</g>
<!-- &#45;5&#45;&gt;2 -->
<g id="edge27" class="edge"><title>&#45;5&#45;&gt;2</title>
<path fill="none" stroke="green" stroke-width="0.296038" d="M487.59,-77.8746C489.183,-68.572 491.88,-52.8252 494.158,-39.5264"/>
<polygon fill="green" stroke="green" stroke-width="0.296038" points="497.627,-40.0029 495.866,-29.5556 490.728,-38.8212 497.627,-40.0029"/>
</g>
<!-- &#45;5&#45;&gt;3 -->
<g id="edge28" class="edge"><title>&#45;5&#45;&gt;3</title>
<path fill="none" stroke="red" stroke-width="0.185834" d="M479.033,-77.6735C475.227,-73.672 470.295,-69.0229 465.213,-65.6985 430.195,-42.7894 415.749,-48.1957 378.213,-29.6985 377.383,-29.2891 376.541,-28.8631 375.695,-28.4251"/>
<polygon fill="red" stroke="red" stroke-width="0.185834" points="377.197,-25.2563 366.749,-23.4965 373.819,-31.3874 377.197,-25.2563"/>
</g>
<!-- &#45;5&#45;&gt;4 -->
<g id="edge29" class="edge"><title>&#45;5&#45;&gt;4</title>
<path fill="none" stroke="green" stroke-width="0.182362" d="M478.208,-77.8522C474.361,-74.0717 469.635,-69.5596 465.213,-65.6985 451.044,-53.325 434.318,-40.1526 421.662,-30.4577"/>
<polygon fill="green" stroke="green" stroke-width="0.182362" points="423.711,-27.619 413.632,-24.354 419.475,-33.1918 423.711,-27.619"/>
</g>
<!-- &#45;5&#45;&gt;5 -->
<g id="edge30" class="edge"><title>&#45;5&#45;&gt;5</title>
<path fill="none" stroke="green" stroke-width="0.122769" d="M479.581,-77.7898C475.777,-73.6193 470.679,-68.7806 465.213,-65.6985 411.124,-35.1972 387.6,-53.4211 330.213,-29.6985 329.357,-29.3447 328.495,-28.9658 327.631,-28.5676"/>
<polygon fill="green" stroke="green" stroke-width="0.122769" points="329.081,-25.3761 318.6,-23.8246 325.826,-31.5733 329.081,-25.3761"/>
</g>
<!-- &#45;6 -->
<g id="node6" class="node"><title>&#45;6</title>
<polygon fill="lightgray" stroke="black" points="540.213,-95.9117 516.213,-95.9117 516.213,-77.9117 540.213,-77.9117 540.213,-95.9117"/>
<text text-anchor="middle" x="528.213" y="-84.7117" font-family="Times New Roman,serif" font-size="9.00">&#45;6</text>
</g>
<!-- &#45;6&#45;&gt;0 -->
<g id="edge31" class="edge"><title>&#45;6&#45;&gt;0</title>
<path fill="none" stroke="red" stroke-width="0.341689" d="M519.719,-77.5572C515.931,-73.8782 511.389,-69.5303 507.213,-65.6985 494.709,-54.2245 480.321,-41.6464 469.129,-31.9954"/>
<polygon fill="red" stroke="red" stroke-width="0.341689" points="471.144,-29.1126 461.278,-25.2525 466.584,-34.423 471.144,-29.1126"/>
</g>
<!-- &#45;6&#45;&gt;1 -->
<g id="edge32" class="edge"><title>&#45;6&#45;&gt;1</title>
<path fill="none" stroke="red" stroke-width="0.336571" d="M521.7,-77.5645C517.931,-73.328 512.829,-68.4981 507.213,-65.6985 416.58,-20.5139 377.653,-63.5683 282.213,-29.6985 281.34,-29.3888 280.463,-29.0473 279.587,-28.6807"/>
<polygon fill="red" stroke="red" stroke-width="0.336571" points="281.004,-25.475 270.501,-24.0849 277.845,-31.7215 281.004,-25.475"/>
</g>
<!-- &#45;6&#45;&gt;2 -->
<g id="edge33" class="edge"><title>&#45;6&#45;&gt;2</title>
<path fill="none" stroke="red" stroke-width="0.209049" d="M524.772,-77.8746C520.635,-68.2142 513.523,-51.6046 507.699,-38.0034"/>
<polygon fill="red" stroke="red" stroke-width="0.209049" points="510.901,-36.5888 503.747,-28.7738 504.466,-39.3442 510.901,-36.5888"/>
</g>
<!-- &#45;6&#45;&gt;3 -->
<g id="edge34" class="edge"><title>&#45;6&#45;&gt;3</title>
<path fill="none" stroke="red" stroke-width="0.173707" d="M521.566,-77.8149C517.758,-73.6518 512.661,-68.8121 507.213,-65.6985 455.534,-36.1621 433.09,-52.7554 378.213,-29.6985 377.359,-29.3398 376.498,-28.9567 375.636,-28.555"/>
<polygon fill="red" stroke="red" stroke-width="0.173707" points="377.091,-25.3652 366.613,-23.7955 373.825,-31.5567 377.091,-25.3652"/>
</g>
<!-- &#45;6&#45;&gt;4 -->
<g id="edge35" class="edge"><title>&#45;6&#45;&gt;4</title>
<path fill="none" stroke="green" stroke-width="0.366571" d="M520.996,-77.729C517.18,-73.7416 512.251,-69.0884 507.213,-65.6985 474.528,-43.7062 461.323,-47.5682 426.213,-29.6985 425.388,-29.2784 424.551,-28.8432 423.709,-28.3976"/>
<polygon fill="green" stroke="green" stroke-width="0.366571" points="425.221,-25.2339 414.781,-23.4332 421.82,-31.3518 425.221,-25.2339"/>
</g>
<!-- &#45;6&#45;&gt;5 -->
<g id="edge36" class="edge"><title>&#45;6&#45;&gt;5</title>
<path fill="none" stroke="red" stroke-width="0.393765" d="M521.652,-77.6581C517.869,-73.449 512.769,-68.6154 507.213,-65.6985 436.137,-28.3804 405.287,-58.1294 330.213,-29.6985 329.347,-29.3705 328.476,-29.0136 327.604,-28.6338"/>
<polygon fill="red" stroke="red" stroke-width="0.393765" points="329.034,-25.4336 318.54,-23.9771 325.836,-31.66 329.034,-25.4336"/>
</g>
<!-- &#45;7 -->
<g id="node7" class="node"><title>&#45;7</title>
<polygon fill="lightgray" stroke="black" points="582.213,-95.9117 558.213,-95.9117 558.213,-77.9117 582.213,-77.9117 582.213,-95.9117"/>
<text text-anchor="middle" x="570.213" y="-84.7117" font-family="Times New Roman,serif" font-size="9.00">&#45;7</text>
</g>
<!-- &#45;7&#45;&gt;0 -->
<g id="edge37" class="edge"><title>&#45;7&#45;&gt;0</title>
<path fill="none" stroke="green" stroke-width="0.399327" d="M562.953,-77.7911C559.127,-73.8196 554.201,-69.1618 549.213,-65.6985 518.842,-44.6106 506.916,-46.9509 474.213,-29.6985 473.394,-29.2664 472.563,-28.821 471.725,-28.3667"/>
<polygon fill="green" stroke="green" stroke-width="0.399327" points="473.25,-25.209 462.818,-23.362 469.821,-31.3118 473.25,-25.209"/>
</g>
<!-- &#45;7&#45;&gt;1 -->
<g id="edge38" class="edge"><title>&#45;7&#45;&gt;1</title>
<path fill="none" stroke="red" stroke-width="0.227806" d="M563.727,-77.5092C559.966,-73.2565 554.863,-68.4287 549.213,-65.6985 441.402,-13.5976 395.543,-68.3521 282.213,-29.6985 281.337,-29.3995 280.456,-29.0673 279.578,-28.7083"/>
<polygon fill="red" stroke="red" stroke-width="0.227806" points="280.987,-25.4996 270.478,-24.1485 277.851,-31.7578 280.987,-25.4996"/>
</g>
<!-- &#45;7&#45;&gt;2 -->
<g id="edge39" class="edge"><title>&#45;7&#45;&gt;2</title>
<path fill="none" stroke="red" stroke-width="0.169011" d="M561.954,-77.8746C550.859,-67.0781 530.844,-47.6015 516.193,-33.3456"/>
<polygon fill="red" stroke="red" stroke-width="0.169011" points="518.305,-30.5166 508.697,-26.051 513.423,-35.5334 518.305,-30.5166"/>
</g>
<!-- &#45;7&#45;&gt;3 -->
<g id="edge40" class="edge"><title>&#45;7&#45;&gt;3</title>
<path fill="none" stroke="green" stroke-width="0.114122" d="M563.644,-77.6732C559.859,-73.4686 554.759,-68.6344 549.213,-65.6985 480.573,-29.3593 450.751,-57.4529 378.213,-29.6985 377.348,-29.3676 376.478,-29.0081 375.607,-28.6262"/>
<polygon fill="green" stroke="green" stroke-width="0.114122" points="377.04,-25.427 366.547,-23.9596 373.834,-31.65 377.04,-25.427"/>
</g>
<!-- &#45;7&#45;&gt;4 -->
<g id="edge41" class="edge"><title>&#45;7&#45;&gt;4</title>
<path fill="none" stroke="red" stroke-width="0.183342" d="M563.551,-77.8422C559.738,-73.6871 554.641,-68.8463 549.213,-65.6985 499.939,-37.1238 478.587,-52.0922 426.213,-29.6985 425.362,-29.3344 424.503,-28.9468 423.642,-28.5412"/>
<polygon fill="red" stroke="red" stroke-width="0.183342" points="425.101,-25.3534 414.626,-23.7638 421.823,-31.5387 425.101,-25.3534"/>
</g>
<!-- &#45;7&#45;&gt;5 -->
<g id="edge42" class="edge"><title>&#45;7&#45;&gt;5</title>
<path fill="none" stroke="red" stroke-width="0.122561" d="M563.695,-77.5741C559.925,-73.3404 554.823,-68.5101 549.213,-65.6985 461.03,-21.4999 423.102,-62.8864 330.213,-29.6985 329.341,-29.3869 328.465,-29.0439 327.589,-28.6759"/>
<polygon fill="red" stroke="red" stroke-width="0.122561" points="329.007,-25.4707 318.505,-24.0739 325.844,-31.7152 329.007,-25.4707"/>
</g>
<!-- &#45;8 -->
<g id="node8" class="node"><title>&#45;8</title>
<polygon fill="lightgray" stroke="black" points="198.213,-95.9117 174.213,-95.9117 174.213,-77.9117 198.213,-77.9117 198.213,-95.9117"/>
<text text-anchor="middle" x="186.213" y="-84.7117" font-family="Times New Roman,serif" font-size="9.00">&#45;8</text>
</g>
<!-- &#45;8&#45;&gt;0 -->
<g id="edge43" class="edge"><title>&#45;8&#45;&gt;0</title>
<path fill="none" stroke="red" stroke-width="0.362928" d="M192.731,-77.5741C196.501,-73.3404 201.604,-68.5101 207.213,-65.6985 295.396,-21.4999 333.324,-62.8864 426.213,-29.6985 427.085,-29.3869 427.962,-29.0439 428.837,-28.6759"/>
<polygon fill="red" stroke="red" stroke-width="0.362928" points="430.583,-31.7152 437.922,-24.0739 427.42,-25.4707 430.583,-31.7152"/>
</g>
<!-- &#45;8&#45;&gt;1 -->
<g id="edge44" class="edge"><title>&#45;8&#45;&gt;1</title>
<path fill="none" stroke="green" stroke-width="0.554727" d="M194.473,-77.8746C205.568,-67.0781 225.583,-47.6015 240.233,-33.3456"/>
<polygon fill="green" stroke="green" stroke-width="0.554727" points="243.003,-35.5334 247.729,-26.051 238.122,-30.5166 243.003,-35.5334"/>
</g>
<!-- &#45;8&#45;&gt;2 -->
<g id="edge45" class="edge"><title>&#45;8&#45;&gt;2</title>
<path fill="none" stroke="green" stroke-width="0.102634" d="M192.699,-77.5092C196.46,-73.2565 201.564,-68.4287 207.213,-65.6985 315.024,-13.5976 360.883,-68.3521 474.213,-29.6985 475.09,-29.3995 475.97,-29.0673 476.849,-28.7083"/>
<polygon fill="green" stroke="green" stroke-width="0.102634" points="478.576,-31.7578 485.948,-24.1485 475.44,-25.4996 478.576,-31.7578"/>
</g>
<!-- &#45;8&#45;&gt;3 -->
<g id="edge46" class="edge"><title>&#45;8&#45;&gt;3</title>
<path fill="none" stroke="green" stroke-width="0.335796" d="M192.876,-77.8422C196.688,-73.6871 201.785,-68.8463 207.213,-65.6985 256.487,-37.1238 277.84,-52.0922 330.213,-29.6985 331.065,-29.3344 331.924,-28.9468 332.785,-28.5412"/>
<polygon fill="green" stroke="green" stroke-width="0.335796" points="334.603,-31.5387 341.8,-23.7638 331.325,-25.3534 334.603,-31.5387"/>
</g>
<!-- &#45;8&#45;&gt;4 -->
<g id="edge47" class="edge"><title>&#45;8&#45;&gt;4</title>
<path fill="none" stroke="red" stroke-width="0.295836" d="M192.782,-77.6732C196.567,-73.4686 201.668,-68.6344 207.213,-65.6985 275.853,-29.3593 305.676,-57.4529 378.213,-29.6985 379.078,-29.3676 379.949,-29.0081 380.819,-28.6262"/>
<polygon fill="red" stroke="red" stroke-width="0.295836" points="382.592,-31.65 389.88,-23.9596 379.387,-25.427 382.592,-31.65"/>
</g>
<!-- &#45;8&#45;&gt;5 -->
<g id="edge48" class="edge"><title>&#45;8&#45;&gt;5</title>
<path fill="none" stroke="green" stroke-width="0.328203" d="M193.473,-77.7911C197.299,-73.8196 202.225,-69.1618 207.213,-65.6985 237.584,-44.6106 249.511,-46.9509 282.213,-29.6985 283.032,-29.2664 283.864,-28.821 284.701,-28.3667"/>
<polygon fill="green" stroke="green" stroke-width="0.328203" points="286.605,-31.3118 293.609,-23.362 283.176,-25.209 286.605,-31.3118"/>
</g>
<!-- &#45;9 -->
<g id="node9" class="node"><title>&#45;9</title>
<polygon fill="lightgray" stroke="black" points="240.213,-95.9117 216.213,-95.9117 216.213,-77.9117 240.213,-77.9117 240.213,-95.9117"/>
<text text-anchor="middle" x="228.213" y="-84.7117" font-family="Times New Roman,serif" font-size="9.00">&#45;9</text>
</g>
<!-- &#45;9&#45;&gt;0 -->
<g id="edge49" class="edge"><title>&#45;9&#45;&gt;0</title>
<path fill="none" stroke="green" stroke-width="0.200703" d="M234.774,-77.6581C238.557,-73.449 243.658,-68.6154 249.213,-65.6985 320.289,-28.3804 351.139,-58.1294 426.213,-29.6985 427.079,-29.3705 427.951,-29.0136 428.822,-28.6338"/>
<polygon fill="green" stroke="green" stroke-width="0.200703" points="430.591,-31.66 437.886,-23.9771 427.392,-25.4336 430.591,-31.66"/>
</g>
<!-- &#45;9&#45;&gt;1 -->
<g id="edge50" class="edge"><title>&#45;9&#45;&gt;1</title>
<path fill="none" stroke="green" stroke-width="0.401591" d="M231.655,-77.8746C235.791,-68.2142 242.903,-51.6046 248.727,-38.0034"/>
<polygon fill="green" stroke="green" stroke-width="0.401591" points="251.96,-39.3442 252.679,-28.7738 245.525,-36.5888 251.96,-39.3442"/>
</g>
<!-- &#45;9&#45;&gt;2 -->
<g id="edge51" class="edge"><title>&#45;9&#45;&gt;2</title>
<path fill="none" stroke="green" stroke-width="0.239157" d="M234.726,-77.5645C238.495,-73.328 243.598,-68.4981 249.213,-65.6985 339.846,-20.5139 378.773,-63.5683 474.213,-29.6985 475.086,-29.3888 475.963,-29.0473 476.839,-28.6807"/>
<polygon fill="green" stroke="green" stroke-width="0.239157" points="478.582,-31.7215 485.926,-24.0849 475.423,-25.475 478.582,-31.7215"/>
</g>
<!-- &#45;9&#45;&gt;3 -->
<g id="edge52" class="edge"><title>&#45;9&#45;&gt;3</title>
<path fill="none" stroke="red" stroke-width="0.32065" d="M235.431,-77.729C239.246,-73.7416 244.175,-69.0884 249.213,-65.6985 281.899,-43.7062 295.104,-47.5682 330.213,-29.6985 331.039,-29.2784 331.875,-28.8432 332.717,-28.3976"/>
<polygon fill="red" stroke="red" stroke-width="0.32065" points="334.607,-31.3518 341.646,-23.4332 331.205,-25.2339 334.607,-31.3518"/>
</g>
<!-- &#45;9&#45;&gt;4 -->
<g id="edge53" class="edge"><title>&#45;9&#45;&gt;4</title>
<path fill="none" stroke="green" stroke-width="0.115679" d="M234.86,-77.8149C238.668,-73.6518 243.765,-68.8121 249.213,-65.6985 300.892,-36.1621 323.336,-52.7554 378.213,-29.6985 379.067,-29.3398 379.928,-28.9567 380.79,-28.555"/>
<polygon fill="green" stroke="green" stroke-width="0.115679" points="382.602,-31.5567 389.814,-23.7955 379.336,-25.3652 382.602,-31.5567"/>
</g>
<!-- &#45;9&#45;&gt;5 -->
<g id="edge54" class="edge"><title>&#45;9&#45;&gt;5</title>
<path fill="none" stroke="red" stroke-width="0.412089" d="M236.708,-77.5572C240.496,-73.8782 245.037,-69.5303 249.213,-65.6985 261.718,-54.2245 276.106,-41.6464 287.297,-31.9954"/>
<polygon fill="red" stroke="red" stroke-width="0.412089" points="289.843,-34.423 295.149,-25.2525 285.282,-29.1126 289.843,-34.423"/>
</g>
<!-- &#45;10 -->
<g id="node10" class="node"><title>&#45;10</title>
<polygon fill="lightgray" stroke="black" points="287.713,-95.9117 258.713,-95.9117 258.713,-77.9117 287.713,-77.9117 287.713,-95.9117"/>
<text text-anchor="middle" x="273.213" y="-84.7117" font-family="Times New Roman,serif" font-size="9.00">&#45;10</text>
</g>
<!-- &#45;10&#45;&gt;0 -->
<g id="edge55" class="edge"><title>&#45;10&#45;&gt;0</title>
<path fill="none" stroke="red" stroke-width="0.107204" d="M281.012,-77.8484C285.423,-73.695 291.241,-68.854 297.213,-65.6985 349.843,-37.8925 371.336,-52.7554 426.213,-29.6985 427.067,-29.3398 427.928,-28.9567 428.79,-28.555"/>
<polygon fill="red" stroke="red" stroke-width="0.107204" points="430.602,-31.5567 437.814,-23.7955 427.336,-25.3652 430.602,-31.5567"/>
</g>
<!-- &#45;10&#45;&gt;1 -->
<g id="edge56" class="edge"><title>&#45;10&#45;&gt;1</title>
<path fill="none" stroke="red" stroke-width="0.124094" d="M271.493,-77.8746C269.501,-68.572 266.13,-52.8252 263.282,-39.5264"/>
<polygon fill="red" stroke="red" stroke-width="0.124094" points="266.664,-38.6012 261.148,-29.5556 259.819,-40.0667 266.664,-38.6012"/>
</g>
<!-- &#45;10&#45;&gt;2 -->
<g id="edge57" class="edge"><title>&#45;10&#45;&gt;2</title>
<path fill="none" stroke="red" stroke-width="0.210746" d="M280.925,-77.6765C285.311,-73.4728 291.132,-68.6385 297.213,-65.6985 369.488,-30.7585 399.139,-58.1294 474.213,-29.6985 475.079,-29.3705 475.951,-29.0136 476.822,-28.6338"/>
<polygon fill="red" stroke="red" stroke-width="0.210746" points="478.591,-31.66 485.886,-23.9771 475.392,-25.4336 478.591,-31.66"/>
</g>
<!-- &#45;10&#45;&gt;3 -->
<g id="edge58" class="edge"><title>&#45;10&#45;&gt;3</title>
<path fill="none" stroke="red" stroke-width="0.109693" d="M282.505,-77.8746C295.315,-66.7944 318.694,-46.5723 335.272,-32.2332"/>
<polygon fill="red" stroke="red" stroke-width="0.109693" points="337.955,-34.5397 343.229,-25.3506 333.376,-29.2454 337.955,-34.5397"/>
</g>
<!-- &#45;10&#45;&gt;4 -->
<g id="edge59" class="edge"><title>&#45;10&#45;&gt;4</title>
<path fill="none" stroke="green" stroke-width="0.416416" d="M281.645,-77.7946C286.052,-73.8239 291.671,-69.1658 297.213,-65.6985 330.61,-44.8025 343.104,-47.5682 378.213,-29.6985 379.039,-29.2784 379.875,-28.8432 380.717,-28.3976"/>
<polygon fill="green" stroke="green" stroke-width="0.416416" points="382.607,-31.3518 389.646,-23.4332 379.205,-25.2339 382.607,-31.3518"/>
</g>
<!-- &#45;10&#45;&gt;5 -->
<g id="edge60" class="edge"><title>&#45;10&#45;&gt;5</title>
<path fill="none" stroke="red" stroke-width="0.610081" d="M276.999,-77.8746C281.576,-68.1564 289.466,-51.4054 295.893,-37.7594"/>
<polygon fill="red" stroke="red" stroke-width="0.610081" points="299.152,-39.0549 300.247,-28.5167 292.819,-36.0721 299.152,-39.0549"/>
</g>
<!-- &#45;11 -->
<g id="node11" class="node"><title>&#45;11</title>
<polygon fill="lightgray" stroke="black" points="160.713,-162.125 131.713,-162.125 131.713,-144.125 160.713,-144.125 160.713,-162.125"/>
<text text-anchor="middle" x="146.213" y="-150.925" font-family="Times New Roman,serif" font-size="9.00">&#45;11</text>
</g>
<!-- &#45;11&#45;&gt;0 -->
<g id="edge61" class="edge"><title>&#45;11&#45;&gt;0</title>
<path fill="none" stroke="red" stroke-width="0.103505" d="M160.753,-151.878C235.934,-150.456 578.281,-142.136 609.213,-108.125 621.9,-94.1751 620.701,-80.6512 609.213,-65.6985 571.382,-16.4565 531.6,-53.4211 474.213,-29.6985 473.357,-29.3447 472.495,-28.9658 471.631,-28.5676"/>
<polygon fill="red" stroke="red" stroke-width="0.103505" points="473.081,-25.3761 462.6,-23.8246 469.826,-31.5733 473.081,-25.3761"/>
</g>
<!-- &#45;11&#45;&gt;1 -->
<g id="edge62" class="edge"><title>&#45;11&#45;&gt;1</title>
<path fill="none" stroke="green" stroke-width="0.161787" stroke-dasharray="1,5" d="M131.676,-144.604C119.137,-137.213 101.876,-124.646 94.2132,-108.125 86.2795,-91.019 82.9848,-80.8471 94.2132,-65.6985 126.47,-22.1799 195.773,-15.3459 233.129,-15.0298"/>
<polygon fill="green" stroke="green" stroke-width="0.161787" points="233.168,-18.5301 243.191,-15.0978 233.215,-11.5302 233.168,-18.5301"/>
</g>
<!-- &#45;11&#45;&gt;2 -->
<g id="edge63" class="edge"><title>&#45;11&#45;&gt;2</title>
<path fill="none" stroke="green" stroke-width="0.249832" d="M161.061,-151.928C238.629,-150.749 594.991,-143.429 627.213,-108.125 639.925,-94.1975 637.876,-81.2503 627.213,-65.6985 603.875,-31.6602 553.719,-20.8576 523.281,-17.4335"/>
<polygon fill="green" stroke="green" stroke-width="0.249832" points="523.327,-13.9227 513.045,-16.4765 522.675,-20.8923 523.327,-13.9227"/>
</g>
<!-- &#45;11&#45;&gt;3 -->
<g id="edge64" class="edge"><title>&#45;11&#45;&gt;3</title>
<path fill="none" stroke="red" stroke-width="0.22544" d="M145.363,-143.876C144.09,-126.735 143.796,-87.0821 165.213,-65.6985 218.33,-12.6661 260.21,-56.7775 330.213,-29.6985 331.077,-29.3644 331.946,-29.0022 332.816,-28.6181"/>
<polygon fill="red" stroke="red" stroke-width="0.22544" points="334.593,-31.6394 341.872,-23.9409 331.381,-25.4199 334.593,-31.6394"/>
</g>
<!-- &#45;11&#45;&gt;4 -->
<g id="edge65" class="edge"><title>&#45;11&#45;&gt;4</title>
<path fill="none" stroke="green" stroke-width="0.515061" d="M160.912,-151.816C234.621,-150.118 561.632,-140.775 591.213,-108.125 603.874,-94.151 603.04,-80.3843 591.213,-65.6985 544.134,-7.24032 496.217,-56.7775 426.213,-29.6985 425.35,-29.3644 424.48,-29.0022 423.61,-28.6181"/>
<polygon fill="green" stroke="green" stroke-width="0.515061" points="425.045,-25.4199 414.554,-23.9409 421.833,-31.6394 425.045,-25.4199"/>
</g>
<!-- &#45;11&#45;&gt;5 -->
<g id="edge66" class="edge"><title>&#45;11&#45;&gt;5</title>
<path fill="none" stroke="red" stroke-width="0.2453" d="M141.227,-143.963C131.774,-127.327 113.768,-89.0942 132.213,-65.6985 174.66,-11.8589 218.53,-55.0943 282.213,-29.6985 283.073,-29.3555 283.94,-28.9857 284.807,-28.5952"/>
<polygon fill="red" stroke="red" stroke-width="0.2453" points="286.597,-31.6094 293.852,-23.8881 283.365,-25.3999 286.597,-31.6094"/>
</g>
<!-- 160 -->
<g id="node18" class="node"><title>160</title>
<ellipse fill="white" stroke="black" cx="21.2132" cy="-86.9117" rx="21.4286" ry="21.4286"/>
<text text-anchor="middle" x="21.2132" y="-84.7117" font-family="Times New Roman,serif" font-size="9.00">160</text>
</g>
<!-- &#45;11&#45;&gt;160 -->
<g id="edge67" class="edge"><title>&#45;11&#45;&gt;160</title>
<path fill="none" stroke="green" stroke-width="0.3" d="M131.403,-145.269C113.436,-136.863 82.3119,-122.02 56.2132,-108.125 53.5131,-106.687 50.7176,-105.153 47.9376,-103.597"/>
<polygon fill="green" stroke="green" stroke-width="0.3" points="49.6666,-100.554 39.2455,-98.6431 46.2003,-106.636 49.6666,-100.554"/>
</g>
<!-- 160&#45;&gt;1 -->
<g id="edge68" class="edge"><title>160&#45;&gt;1</title>
<path fill="none" stroke="green" stroke-width="0.161787" d="M38.5286,-74.6228C44.0205,-71.3988 50.225,-68.11 56.2132,-65.6985 117.511,-41.0137 194.356,-26.1524 233.225,-19.6805"/>
<polygon fill="green" stroke="green" stroke-width="0.161787" points="234.26,-23.0586 243.574,-18.0078 233.144,-16.1483 234.26,-23.0586"/>
</g>
</g>
</svg>
