<?xml version="1.0" encoding="UTF-8" standalone="no"?>
<!DOCTYPE svg PUBLIC "-//W3C//DTD SVG 1.1//EN"
 "http://www.w3.org/Graphics/SVG/1.1/DTD/svg11.dtd">
<!-- Generated by graphviz version 2.38.0 (20140413.2041)
 -->
<!-- Title: %3 Pages: 1 -->
<svg width="463pt" height="92pt"
 viewBox="0.00 0.00 463.00 91.70" xmlns="http://www.w3.org/2000/svg" xmlns:xlink="http://www.w3.org/1999/xlink">
<g id="graph0" class="graph" transform="scale(1 1) rotate(0) translate(4 87.6985)">
<title>%3</title>
<polygon fill="white" stroke="none" points="-4,4 -4,-87.6985 459,-87.6985 459,4 -4,4"/>
<!-- &#45;1 -->
<g id="node1" class="node"><title>&#45;1</title>
<polygon fill="lightgray" stroke="black" points="245,-83.6985 221,-83.6985 221,-65.6985 245,-65.6985 245,-83.6985"/>
<text text-anchor="middle" x="233" y="-72.4985" font-family="Times New Roman,serif" font-size="9.00">&#45;1</text>
</g>
<!-- 0 -->
<g id="node12" class="node"><title>0</title>
<ellipse fill="lightblue" stroke="black" cx="107" cy="-14.8492" rx="14.7" ry="14.7"/>
<text text-anchor="middle" x="107" y="-12.6492" font-family="Times New Roman,serif" font-size="9.00">0</text>
</g>
<!-- &#45;1&#45;&gt;0 -->
<g id="edge1" class="edge"><title>&#45;1&#45;&gt;0</title>
<path fill="none" stroke="green" stroke-width="0.32951" d="M220.859,-68.9933C201.532,-61.3854 162.713,-45.6211 131,-29.6985 130.172,-29.283 129.334,-28.8516 128.49,-28.4092"/>
<polygon fill="green" stroke="green" stroke-width="0.32951" points="129.998,-25.2433 119.554,-23.4599 126.606,-31.3668 129.998,-25.2433"/>
</g>
<!-- 1 -->
<g id="node13" class="node"><title>1</title>
<ellipse fill="lightblue" stroke="black" cx="155" cy="-14.8492" rx="14.7" ry="14.7"/>
<text text-anchor="middle" x="155" y="-12.6492" font-family="Times New Roman,serif" font-size="9.00">1</text>
</g>
<!-- &#45;1&#45;&gt;1 -->
<g id="edge2" class="edge"><title>&#45;1&#45;&gt;1</title>
<path fill="none" stroke="red" stroke-width="0.20297" d="M222.154,-65.6548C209.907,-56.5715 189.728,-41.6056 174.682,-30.4463"/>
<polygon fill="red" stroke="red" stroke-width="0.20297" points="176.631,-27.5348 166.514,-24.389 172.462,-33.1573 176.631,-27.5348"/>
</g>
<!-- 2 -->
<g id="node14" class="node"><title>2</title>
<ellipse fill="lightblue" stroke="black" cx="203" cy="-14.8492" rx="14.7" ry="14.7"/>
<text text-anchor="middle" x="203" y="-12.6492" font-family="Times New Roman,serif" font-size="9.00">2</text>
</g>
<!-- &#45;1&#45;&gt;2 -->
<g id="edge3" class="edge"><title>&#45;1&#45;&gt;2</title>
<path fill="none" stroke="green" stroke-width="0.130536" d="M228.829,-65.6548C225.022,-58.3144 219.223,-47.1324 214.084,-37.2221"/>
<polygon fill="green" stroke="green" stroke-width="0.130536" points="217.156,-35.5431 209.445,-28.2771 210.942,-38.7657 217.156,-35.5431"/>
</g>
<!-- 3 -->
<g id="node15" class="node"><title>3</title>
<ellipse fill="lightblue" stroke="black" cx="251" cy="-14.8492" rx="14.7" ry="14.7"/>
<text text-anchor="middle" x="251" y="-12.6492" font-family="Times New Roman,serif" font-size="9.00">3</text>
</g>
<!-- &#45;1&#45;&gt;3 -->
<g id="edge4" class="edge"><title>&#45;1&#45;&gt;3</title>
<path fill="none" stroke="red" stroke-width="0.313351" d="M235.503,-65.6548C237.659,-58.7238 240.882,-48.3678 243.83,-38.8914"/>
<polygon fill="red" stroke="red" stroke-width="0.313351" points="247.23,-39.7457 246.859,-29.1573 240.546,-37.6659 247.23,-39.7457"/>
</g>
<!-- 4 -->
<g id="node16" class="node"><title>4</title>
<ellipse fill="lightblue" stroke="black" cx="299" cy="-14.8492" rx="14.7" ry="14.7"/>
<text text-anchor="middle" x="299" y="-12.6492" font-family="Times New Roman,serif" font-size="9.00">4</text>
</g>
<!-- &#45;1&#45;&gt;4 -->
<g id="edge5" class="edge"><title>&#45;1&#45;&gt;4</title>
<path fill="none" stroke="red" stroke-width="0.243949" d="M242.177,-65.6548C252.056,-56.996 268.034,-42.9914 280.534,-32.0346"/>
<polygon fill="red" stroke="red" stroke-width="0.243949" points="282.934,-34.5849 288.148,-25.3614 278.32,-29.3208 282.934,-34.5849"/>
</g>
<!-- 5 -->
<g id="node17" class="node"><title>5</title>
<ellipse fill="lightblue" stroke="black" cx="347" cy="-14.8492" rx="14.7" ry="14.7"/>
<text text-anchor="middle" x="347" y="-12.6492" font-family="Times New Roman,serif" font-size="9.00">5</text>
</g>
<!-- &#45;1&#45;&gt;5 -->
<g id="edge6" class="edge"><title>&#45;1&#45;&gt;5</title>
<path fill="none" stroke="red" stroke-width="0.388254" d="M245.07,-68.1206C262.466,-60.0085 295.517,-44.324 323,-29.6985 323.817,-29.2634 324.648,-28.8155 325.484,-28.3591"/>
<polygon fill="red" stroke="red" stroke-width="0.388254" points="327.391,-31.302 334.386,-23.3446 323.956,-25.203 327.391,-31.302"/>
</g>
<!-- &#45;2 -->
<g id="node2" class="node"><title>&#45;2</title>
<polygon fill="lightgray" stroke="black" points="287,-83.6985 263,-83.6985 263,-65.6985 287,-65.6985 287,-83.6985"/>
<text text-anchor="middle" x="275" y="-72.4985" font-family="Times New Roman,serif" font-size="9.00">&#45;2</text>
</g>
<!-- &#45;2&#45;&gt;0 -->
<g id="edge7" class="edge"><title>&#45;2&#45;&gt;0</title>
<path fill="none" stroke="red" stroke-width="0.10948" d="M262.622,-68.7966C259.803,-67.7324 256.81,-66.6434 254,-65.6985 200.01,-47.5455 183.373,-52.0922 131,-29.6985 130.149,-29.3344 129.289,-28.9468 128.429,-28.5412"/>
<polygon fill="red" stroke="red" stroke-width="0.10948" points="129.888,-25.3534 119.413,-23.7638 126.61,-31.5387 129.888,-25.3534"/>
</g>
<!-- &#45;2&#45;&gt;1 -->
<g id="edge8" class="edge"><title>&#45;2&#45;&gt;1</title>
<path fill="none" stroke="red" stroke-width="0.253331" d="M262.701,-68.5014C244.267,-60.6133 208.487,-44.9212 179,-29.6985 178.177,-29.2737 177.342,-28.8344 176.502,-28.3854"/>
<polygon fill="red" stroke="red" stroke-width="0.253331" points="178.019,-25.224 167.582,-23.4051 174.607,-31.336 178.019,-25.224"/>
</g>
<!-- &#45;2&#45;&gt;2 -->
<g id="edge9" class="edge"><title>&#45;2&#45;&gt;2</title>
<path fill="none" stroke="green" stroke-width="0.205403" d="M264.989,-65.6548C253.981,-56.8107 236.032,-42.3896 222.274,-31.3354"/>
<polygon fill="green" stroke="green" stroke-width="0.205403" points="224.337,-28.5028 214.349,-24.9678 219.952,-33.9596 224.337,-28.5028"/>
</g>
<!-- &#45;2&#45;&gt;3 -->
<g id="edge10" class="edge"><title>&#45;2&#45;&gt;3</title>
<path fill="none" stroke="red" stroke-width="0.122868" d="M271.663,-65.6548C268.719,-58.5579 264.285,-47.8701 260.278,-38.2124"/>
<polygon fill="red" stroke="red" stroke-width="0.122868" points="263.402,-36.6102 256.338,-28.7148 256.937,-39.2927 263.402,-36.6102"/>
</g>
<!-- &#45;2&#45;&gt;4 -->
<g id="edge11" class="edge"><title>&#45;2&#45;&gt;4</title>
<path fill="none" stroke="red" stroke-width="0.408745" d="M278.337,-65.6548C281.281,-58.5579 285.715,-47.8701 289.722,-38.2124"/>
<polygon fill="red" stroke="red" stroke-width="0.408745" points="293.063,-39.2927 293.662,-28.7148 286.598,-36.6102 293.063,-39.2927"/>
</g>
<!-- &#45;2&#45;&gt;5 -->
<g id="edge12" class="edge"><title>&#45;2&#45;&gt;5</title>
<path fill="none" stroke="red" stroke-width="0.247035" d="M285.011,-65.6548C296.019,-56.8107 313.968,-42.3896 327.726,-31.3354"/>
<polygon fill="red" stroke="red" stroke-width="0.247035" points="330.048,-33.9596 335.651,-24.9678 325.663,-28.5028 330.048,-33.9596"/>
</g>
<!-- &#45;3 -->
<g id="node3" class="node"><title>&#45;3</title>
<polygon fill="lightgray" stroke="black" points="329,-83.6985 305,-83.6985 305,-65.6985 329,-65.6985 329,-83.6985"/>
<text text-anchor="middle" x="317" y="-72.4985" font-family="Times New Roman,serif" font-size="9.00">&#45;3</text>
</g>
<!-- &#45;3&#45;&gt;0 -->
<g id="edge13" class="edge"><title>&#45;3&#45;&gt;0</title>
<path fill="none" stroke="green" stroke-width="0.250266" d="M304.668,-68.6501C301.847,-67.5935 298.842,-66.5446 296,-65.6985 224.063,-44.2787 201.004,-56.7775 131,-29.6985 130.136,-29.3644 129.267,-29.0022 128.397,-28.6181"/>
<polygon fill="green" stroke="green" stroke-width="0.250266" points="129.832,-25.4199 119.341,-23.9409 126.62,-31.6394 129.832,-25.4199"/>
</g>
<!-- &#45;3&#45;&gt;1 -->
<g id="edge14" class="edge"><title>&#45;3&#45;&gt;1</title>
<path fill="none" stroke="red" stroke-width="0.151077" d="M304.612,-68.8253C301.794,-67.7596 298.804,-66.6628 296,-65.6985 244.552,-48.0049 228.876,-51.4319 179,-29.6985 178.151,-29.3286 177.294,-28.936 176.435,-28.5262"/>
<polygon fill="red" stroke="red" stroke-width="0.151077" points="177.899,-25.3407 167.428,-23.7292 174.609,-31.5191 177.899,-25.3407"/>
</g>
<!-- &#45;3&#45;&gt;2 -->
<g id="edge15" class="edge"><title>&#45;3&#45;&gt;2</title>
<path fill="none" stroke="red" stroke-width="0.149759" d="M304.93,-68.1206C287.534,-60.0085 254.483,-44.324 227,-29.6985 226.183,-29.2634 225.352,-28.8155 224.516,-28.3591"/>
<polygon fill="red" stroke="red" stroke-width="0.149759" points="226.044,-25.203 215.614,-23.3446 222.609,-31.302 226.044,-25.203"/>
</g>
<!-- &#45;3&#45;&gt;3 -->
<g id="edge16" class="edge"><title>&#45;3&#45;&gt;3</title>
<path fill="none" stroke="red" stroke-width="0.592502" d="M307.823,-65.6548C297.944,-56.996 281.966,-42.9914 269.466,-32.0346"/>
<polygon fill="red" stroke="red" stroke-width="0.592502" points="271.68,-29.3208 261.852,-25.3614 267.066,-34.5849 271.68,-29.3208"/>
</g>
<!-- &#45;3&#45;&gt;4 -->
<g id="edge17" class="edge"><title>&#45;3&#45;&gt;4</title>
<path fill="none" stroke="green" stroke-width="0.46158" d="M314.497,-65.6548C312.341,-58.7238 309.118,-48.3678 306.17,-38.8914"/>
<polygon fill="green" stroke="green" stroke-width="0.46158" points="309.454,-37.6659 303.141,-29.1573 302.77,-39.7457 309.454,-37.6659"/>
</g>
<!-- &#45;3&#45;&gt;5 -->
<g id="edge18" class="edge"><title>&#45;3&#45;&gt;5</title>
<path fill="none" stroke="green" stroke-width="0.160177" d="M321.171,-65.6548C324.978,-58.3144 330.777,-47.1324 335.916,-37.2221"/>
<polygon fill="green" stroke="green" stroke-width="0.160177" points="339.058,-38.7657 340.555,-28.2771 332.844,-35.5431 339.058,-38.7657"/>
</g>
<!-- &#45;4 -->
<g id="node4" class="node"><title>&#45;4</title>
<polygon fill="lightgray" stroke="black" points="371,-83.6985 347,-83.6985 347,-65.6985 371,-65.6985 371,-83.6985"/>
<text text-anchor="middle" x="359" y="-72.4985" font-family="Times New Roman,serif" font-size="9.00">&#45;4</text>
</g>
<!-- &#45;4&#45;&gt;0 -->
<g id="edge19" class="edge"><title>&#45;4&#45;&gt;0</title>
<path fill="none" stroke="red" stroke-width="0.493635" d="M346.694,-68.56C343.872,-67.508 340.859,-66.4839 338,-65.6985 247.955,-40.9633 218.79,-61.524 131,-29.6985 130.129,-29.3829 129.254,-29.0364 128.38,-28.6655"/>
<polygon fill="red" stroke="red" stroke-width="0.493635" points="129.8,-25.4616 119.3,-24.05 126.628,-31.7016 129.8,-25.4616"/>
</g>
<!-- &#45;4&#45;&gt;1 -->
<g id="edge20" class="edge"><title>&#45;4&#45;&gt;1</title>
<path fill="none" stroke="green" stroke-width="0.373309" d="M346.663,-68.6666C343.842,-67.6091 340.838,-66.5558 338,-65.6985 268.639,-44.7493 246.473,-56.1032 179,-29.6985 178.138,-29.361 177.269,-28.996 176.401,-28.6094"/>
<polygon fill="green" stroke="green" stroke-width="0.373309" points="177.838,-25.4123 167.349,-23.9209 174.618,-31.628 177.838,-25.4123"/>
</g>
<!-- &#45;4&#45;&gt;2 -->
<g id="edge21" class="edge"><title>&#45;4&#45;&gt;2</title>
<path fill="none" stroke="green" stroke-width="0.231745" d="M346.601,-68.8567C343.783,-67.7894 340.797,-66.6839 338,-65.6985 289.085,-48.4615 274.387,-50.775 227,-29.6985 226.154,-29.3222 225.299,-28.9241 224.442,-28.5097"/>
<polygon fill="green" stroke="green" stroke-width="0.231745" points="225.912,-25.3267 215.444,-23.6914 222.608,-31.4976 225.912,-25.3267"/>
</g>
<!-- &#45;4&#45;&gt;3 -->
<g id="edge22" class="edge"><title>&#45;4&#45;&gt;3</title>
<path fill="none" stroke="green" stroke-width="0.253939" d="M346.955,-67.585C330.57,-59.2241 300.387,-43.6645 275,-29.6985 274.189,-29.2521 273.364,-28.7946 272.531,-28.3301"/>
<polygon fill="green" stroke="green" stroke-width="0.253939" points="274.072,-25.18 263.65,-23.2778 270.611,-31.2645 274.072,-25.18"/>
</g>
<!-- &#45;4&#45;&gt;4 -->
<g id="edge23" class="edge"><title>&#45;4&#45;&gt;4</title>
<path fill="none" stroke="red" stroke-width="0.48985" d="M350.657,-65.6548C341.867,-57.1793 327.764,-43.5822 316.513,-32.7347"/>
<polygon fill="red" stroke="red" stroke-width="0.48985" points="318.909,-30.1823 309.28,-25.761 314.05,-35.2215 318.909,-30.1823"/>
</g>
<!-- &#45;4&#45;&gt;5 -->
<g id="edge24" class="edge"><title>&#45;4&#45;&gt;5</title>
<path fill="none" stroke="red" stroke-width="0.42968" d="M357.331,-65.6548C355.928,-58.8878 353.847,-48.8559 351.92,-39.5653"/>
<polygon fill="red" stroke="red" stroke-width="0.42968" points="355.312,-38.6852 349.853,-29.6046 348.457,-40.107 355.312,-38.6852"/>
</g>
<!-- &#45;5 -->
<g id="node5" class="node"><title>&#45;5</title>
<polygon fill="lightgray" stroke="black" points="413,-83.6985 389,-83.6985 389,-65.6985 413,-65.6985 413,-83.6985"/>
<text text-anchor="middle" x="401" y="-72.4985" font-family="Times New Roman,serif" font-size="9.00">&#45;5</text>
</g>
<!-- &#45;5&#45;&gt;0 -->
<g id="edge25" class="edge"><title>&#45;5&#45;&gt;0</title>
<path fill="none" stroke="red" stroke-width="0.167872" d="M388.71,-68.4992C385.887,-67.4504 382.87,-66.4429 380,-65.6985 271.764,-37.625 236.657,-66.2999 131,-29.6985 130.125,-29.3954 129.246,-29.0595 128.368,-28.6976"/>
<polygon fill="red" stroke="red" stroke-width="0.167872" points="129.78,-25.49 119.274,-24.1238 126.635,-31.7437 129.78,-25.49"/>
</g>
<!-- &#45;5&#45;&gt;1 -->
<g id="edge26" class="edge"><title>&#45;5&#45;&gt;1</title>
<path fill="none" stroke="green" stroke-width="0.453351" d="M388.691,-68.5706C385.869,-67.5182 382.857,-66.4911 380,-65.6985 292.548,-41.4386 264.243,-60.8437 179,-29.6985 178.13,-29.3807 177.255,-29.0324 176.382,-28.6599"/>
<polygon fill="green" stroke="green" stroke-width="0.453351" points="177.804,-25.4566 167.305,-24.0371 174.627,-31.6942 177.804,-25.4566"/>
</g>
<!-- &#45;5&#45;&gt;2 -->
<g id="edge27" class="edge"><title>&#45;5&#45;&gt;2</title>
<path fill="none" stroke="red" stroke-width="0.296859" d="M388.658,-68.6843C385.837,-67.626 382.835,-66.5677 380,-65.6985 313.212,-45.2189 291.945,-55.4303 227,-29.6985 226.139,-29.3574 225.272,-28.9893 224.404,-28.6001"/>
<polygon fill="red" stroke="red" stroke-width="0.296859" points="225.844,-25.4042 215.357,-23.8994 222.617,-31.6158 225.844,-25.4042"/>
</g>
<!-- &#45;5&#45;&gt;3 -->
<g id="edge28" class="edge"><title>&#45;5&#45;&gt;3</title>
<path fill="none" stroke="red" stroke-width="0.221244" d="M388.589,-68.8912C385.772,-67.8221 382.788,-66.7072 380,-65.6985 333.609,-48.9149 319.907,-50.1221 275,-29.6985 274.157,-29.3151 273.305,-28.9111 272.45,-28.4917"/>
<polygon fill="red" stroke="red" stroke-width="0.221244" points="273.927,-25.3115 263.463,-23.6498 270.607,-31.4741 273.927,-25.3115"/>
</g>
<!-- &#45;5&#45;&gt;4 -->
<g id="edge29" class="edge"><title>&#45;5&#45;&gt;4</title>
<path fill="none" stroke="green" stroke-width="0.22747" d="M388.82,-66.876C373.453,-58.2577 346.227,-42.951 323,-29.6985 322.196,-29.2396 321.377,-28.7714 320.55,-28.2978"/>
<polygon fill="green" stroke="green" stroke-width="0.22747" points="322.105,-25.1548 311.691,-23.2036 318.615,-31.223 322.105,-25.1548"/>
</g>
<!-- &#45;5&#45;&gt;5 -->
<g id="edge30" class="edge"><title>&#45;5&#45;&gt;5</title>
<path fill="none" stroke="green" stroke-width="0.252776" d="M393.492,-65.6548C385.825,-57.4413 373.668,-44.4177 363.708,-33.7481"/>
<polygon fill="green" stroke="green" stroke-width="0.252776" points="366.013,-31.0883 356.631,-26.1665 360.896,-35.8649 366.013,-31.0883"/>
</g>
<!-- &#45;6 -->
<g id="node6" class="node"><title>&#45;6</title>
<polygon fill="lightgray" stroke="black" points="455,-83.6985 431,-83.6985 431,-65.6985 455,-65.6985 455,-83.6985"/>
<text text-anchor="middle" x="443" y="-72.4985" font-family="Times New Roman,serif" font-size="9.00">&#45;6</text>
</g>
<!-- &#45;6&#45;&gt;0 -->
<g id="edge31" class="edge"><title>&#45;6&#45;&gt;0</title>
<path fill="none" stroke="green" stroke-width="0.256763" d="M430.721,-68.4555C427.897,-67.409 424.878,-66.4135 422,-65.6985 295.526,-34.2743 254.571,-71.092 131,-29.6985 130.122,-29.4043 129.24,-29.0761 128.36,-28.7206"/>
<polygon fill="green" stroke="green" stroke-width="0.256763" points="129.766,-25.5107 119.256,-24.1768 126.64,-31.774 129.766,-25.5107"/>
</g>
<!-- &#45;6&#45;&gt;1 -->
<g id="edge32" class="edge"><title>&#45;6&#45;&gt;1</title>
<path fill="none" stroke="green" stroke-width="0.324826" d="M430.708,-68.5066C427.885,-67.4575 424.869,-66.4479 422,-65.6985 316.366,-38.1028 282.101,-65.6165 179,-29.6985 178.126,-29.3938 177.247,-29.0567 176.37,-28.6937"/>
<polygon fill="green" stroke="green" stroke-width="0.324826" points="177.783,-25.4865 167.277,-24.1148 174.634,-31.7385 177.783,-25.4865"/>
</g>
<!-- &#45;6&#45;&gt;2 -->
<g id="edge33" class="edge"><title>&#45;6&#45;&gt;2</title>
<path fill="none" stroke="green" stroke-width="0.303762" d="M430.688,-68.5819C427.866,-67.5289 424.855,-66.4987 422,-65.6985 337.139,-41.9135 309.698,-60.164 227,-29.6985 226.131,-29.3784 225.257,-29.0281 224.384,-28.654"/>
<polygon fill="green" stroke="green" stroke-width="0.303762" points="225.808,-25.4513 215.31,-24.0234 222.626,-31.6864 225.808,-25.4513"/>
</g>
<!-- &#45;6&#45;&gt;3 -->
<g id="edge34" class="edge"><title>&#45;6&#45;&gt;3</title>
<path fill="none" stroke="red" stroke-width="0.397059" d="M430.652,-68.7034C427.832,-67.644 424.831,-66.5806 422,-65.6985 357.782,-45.6873 337.421,-54.7588 275,-29.6985 274.141,-29.3535 273.275,-28.982 272.408,-28.5901"/>
<polygon fill="red" stroke="red" stroke-width="0.397059" points="273.852,-25.3955 263.366,-23.8764 270.616,-31.6027 273.852,-25.3955"/>
</g>
<!-- &#45;6&#45;&gt;4 -->
<g id="edge35" class="edge"><title>&#45;6&#45;&gt;4</title>
<path fill="none" stroke="red" stroke-width="0.157878" d="M430.575,-68.9293C427.758,-67.8583 424.779,-66.7329 422,-65.6985 378.123,-49.3644 365.437,-49.474 323,-29.6985 322.161,-29.3073 321.312,-28.8967 320.46,-28.4717"/>
<polygon fill="red" stroke="red" stroke-width="0.157878" points="321.943,-25.2948 311.484,-23.6039 318.606,-31.4481 321.943,-25.2948"/>
</g>
<!-- &#45;6&#45;&gt;5 -->
<g id="edge36" class="edge"><title>&#45;6&#45;&gt;5</title>
<path fill="none" stroke="green" stroke-width="0.294069" d="M430.842,-66.3718C415.059,-56.8613 387.266,-40.1132 368.029,-28.5212"/>
<polygon fill="green" stroke="green" stroke-width="0.294069" points="369.735,-25.4627 359.363,-23.2991 366.122,-31.4583 369.735,-25.4627"/>
</g>
<!-- &#45;7 -->
<g id="node7" class="node"><title>&#45;7</title>
<polygon fill="lightgray" stroke="black" points="24,-83.6985 0,-83.6985 0,-65.6985 24,-65.6985 24,-83.6985"/>
<text text-anchor="middle" x="12" y="-72.4985" font-family="Times New Roman,serif" font-size="9.00">&#45;7</text>
</g>
<!-- &#45;7&#45;&gt;0 -->
<g id="edge37" class="edge"><title>&#45;7&#45;&gt;0</title>
<path fill="none" stroke="green" stroke-width="0.252782" d="M24.0318,-66.3718C39.6499,-56.8613 67.1538,-40.1132 86.1901,-28.5212"/>
<polygon fill="green" stroke="green" stroke-width="0.252782" points="88.0451,-31.4895 94.7658,-23.2991 84.4044,-25.5108 88.0451,-31.4895"/>
</g>
<!-- &#45;7&#45;&gt;1 -->
<g id="edge38" class="edge"><title>&#45;7&#45;&gt;1</title>
<path fill="none" stroke="green" stroke-width="0.209676" d="M24.4276,-68.9361C27.2439,-67.8647 30.2229,-66.7375 33,-65.6985 76.4593,-49.4389 88.9731,-49.3664 131,-29.6985 131.839,-29.306 132.687,-28.8942 133.539,-28.4682"/>
<polygon fill="green" stroke="green" stroke-width="0.209676" points="135.394,-31.4435 142.512,-23.5958 132.054,-25.2919 135.394,-31.4435"/>
</g>
<!-- &#45;7&#45;&gt;2 -->
<g id="edge39" class="edge"><title>&#45;7&#45;&gt;2</title>
<path fill="none" stroke="green" stroke-width="0.18778" d="M24.3489,-68.7067C27.1693,-67.6472 30.1699,-66.5828 33,-65.6985 96.7906,-45.7653 116.999,-54.647 179,-29.6985 179.859,-29.3528 180.725,-28.9808 181.591,-28.5884"/>
<polygon fill="green" stroke="green" stroke-width="0.18778" points="183.385,-31.6004 190.632,-23.8724 180.147,-25.394 183.385,-31.6004"/>
</g>
<!-- &#45;7&#45;&gt;3 -->
<g id="edge40" class="edge"><title>&#45;7&#45;&gt;3</title>
<path fill="none" stroke="green" stroke-width="0.156831" d="M24.3125,-68.5839C27.1348,-67.5307 30.1453,-66.5 33,-65.6985 117.429,-41.9926 144.726,-60.0508 227,-29.6985 227.869,-29.378 228.743,-29.0273 229.616,-28.653"/>
<polygon fill="green" stroke="green" stroke-width="0.156831" points="231.374,-31.6851 238.69,-24.0211 228.192,-25.4504 231.374,-31.6851"/>
</g>
<!-- &#45;7&#45;&gt;4 -->
<g id="edge41" class="edge"><title>&#45;7&#45;&gt;4</title>
<path fill="none" stroke="red" stroke-width="0.279547" d="M24.2919,-68.5079C27.1152,-67.4587 30.1314,-66.4488 33,-65.6985 138.2,-38.1824 172.324,-65.5026 275,-29.6985 275.874,-29.3936 276.753,-29.0562 277.63,-28.693"/>
<polygon fill="red" stroke="red" stroke-width="0.279547" points="279.366,-31.7377 286.723,-24.1132 276.217,-25.4859 279.366,-31.7377"/>
</g>
<!-- &#45;7&#45;&gt;5 -->
<g id="edge42" class="edge"><title>&#45;7&#45;&gt;5</title>
<path fill="none" stroke="red" stroke-width="0.104279" d="M24.2788,-68.4564C27.1028,-67.4098 30.1226,-66.4141 33,-65.6985 159.039,-34.3542 199.856,-70.9777 323,-29.6985 323.878,-29.4042 324.76,-29.0758 325.64,-28.7202"/>
<polygon fill="red" stroke="red" stroke-width="0.104279" points="327.36,-31.7734 334.744,-24.1758 324.233,-25.5102 327.36,-31.7734"/>
</g>
<!-- &#45;8 -->
<g id="node8" class="node"><title>&#45;8</title>
<polygon fill="lightgray" stroke="black" points="66,-83.6985 42,-83.6985 42,-65.6985 66,-65.6985 66,-83.6985"/>
<text text-anchor="middle" x="54" y="-72.4985" font-family="Times New Roman,serif" font-size="9.00">&#45;8</text>
</g>
<!-- &#45;8&#45;&gt;0 -->
<g id="edge43" class="edge"><title>&#45;8&#45;&gt;0</title>
<path fill="none" stroke="green" stroke-width="0.334704" d="M61.3694,-65.6548C68.8038,-57.5402 80.5394,-44.7309 90.2472,-34.1348"/>
<polygon fill="green" stroke="green" stroke-width="0.334704" points="92.9962,-36.3155 97.1708,-26.5778 87.8348,-31.5868 92.9962,-36.3155"/>
</g>
<!-- &#45;8&#45;&gt;1 -->
<g id="edge44" class="edge"><title>&#45;8&#45;&gt;1</title>
<path fill="none" stroke="green" stroke-width="0.423192" d="M66.0126,-66.855C81.17,-58.2151 108.035,-42.886 131,-29.6985 131.803,-29.2373 132.621,-28.7672 133.447,-28.2921"/>
<polygon fill="green" stroke="green" stroke-width="0.423192" points="135.384,-31.2156 142.301,-23.1905 131.889,-25.1504 135.384,-31.2156"/>
</g>
<!-- &#45;8&#45;&gt;2 -->
<g id="edge45" class="edge"><title>&#45;8&#45;&gt;2</title>
<path fill="none" stroke="green" stroke-width="0.316298" d="M66.4133,-68.8973C69.2303,-67.8279 72.2133,-66.7113 75,-65.6985 120.971,-48.9901 134.505,-50.0138 179,-29.6985 179.842,-29.3139 180.694,-28.9088 181.548,-28.4885"/>
<polygon fill="green" stroke="green" stroke-width="0.316298" points="183.393,-31.4699 190.534,-23.6425 180.071,-25.3088 183.393,-31.4699"/>
</g>
<!-- &#45;8&#45;&gt;3 -->
<g id="edge46" class="edge"><title>&#45;8&#45;&gt;3</title>
<path fill="none" stroke="red" stroke-width="0.268965" d="M66.3429,-68.6874C69.1636,-67.6289 72.1658,-66.5698 75,-65.6985 141.359,-45.2971 162.476,-55.3182 227,-29.6985 227.861,-29.3567 228.728,-28.9881 229.595,-28.5985"/>
<polygon fill="red" stroke="red" stroke-width="0.268965" points="231.383,-31.6137 238.642,-23.8957 228.154,-25.4028 231.383,-31.6137"/>
</g>
<!-- &#45;8&#45;&gt;4 -->
<g id="edge47" class="edge"><title>&#45;8&#45;&gt;4</title>
<path fill="none" stroke="red" stroke-width="0.376997" d="M66.3093,-68.5725C69.1317,-67.5199 72.1432,-66.4923 75,-65.6985 162.02,-41.5178 190.181,-60.7304 275,-29.6985 275.87,-29.3803 276.744,-29.0317 277.618,-28.659"/>
<polygon fill="red" stroke="red" stroke-width="0.376997" points="279.373,-31.693 286.695,-24.0349 276.195,-25.4557 279.373,-31.693"/>
</g>
<!-- &#45;8&#45;&gt;5 -->
<g id="edge48" class="edge"><title>&#45;8&#45;&gt;5</title>
<path fill="none" stroke="red" stroke-width="0.25024" d="M66.2899,-68.5004C69.1134,-67.4516 72.1301,-66.4437 75,-65.6985 182.802,-37.7046 217.769,-66.186 323,-29.6985 323.875,-29.3951 324.754,-29.0591 325.632,-28.6969"/>
<polygon fill="red" stroke="red" stroke-width="0.25024" points="327.365,-31.7429 334.726,-24.1223 324.219,-25.4895 327.365,-31.7429"/>
</g>
<!-- &#45;9 -->
<g id="node9" class="node"><title>&#45;9</title>
<polygon fill="lightgray" stroke="black" points="108,-83.6985 84,-83.6985 84,-65.6985 108,-65.6985 108,-83.6985"/>
<text text-anchor="middle" x="96" y="-72.4985" font-family="Times New Roman,serif" font-size="9.00">&#45;9</text>
</g>
<!-- &#45;9&#45;&gt;0 -->
<g id="edge49" class="edge"><title>&#45;9&#45;&gt;0</title>
<path fill="none" stroke="red" stroke-width="0.124134" d="M97.5295,-65.6548C98.8162,-58.8878 100.724,-48.8559 102.49,-39.5653"/>
<polygon fill="red" stroke="red" stroke-width="0.124134" points="105.955,-40.0824 104.384,-29.6046 99.0779,-38.7747 105.955,-40.0824"/>
</g>
<!-- &#45;9&#45;&gt;1 -->
<g id="edge50" class="edge"><title>&#45;9&#45;&gt;1</title>
<path fill="none" stroke="green" stroke-width="0.676714" d="M104.204,-65.6548C112.765,-57.2608 126.449,-43.8432 137.459,-33.0484"/>
<polygon fill="green" stroke="green" stroke-width="0.676714" points="140.201,-35.2613 144.891,-25.761 135.3,-30.263 140.201,-35.2613"/>
</g>
<!-- &#45;9&#45;&gt;2 -->
<g id="edge51" class="edge"><title>&#45;9&#45;&gt;2</title>
<path fill="none" stroke="green" stroke-width="0.342626" d="M108.17,-67.4214C124.411,-59.0044 154.027,-43.5173 179,-29.6985 179.81,-29.2501 180.634,-28.7909 181.466,-28.3249"/>
<polygon fill="green" stroke="green" stroke-width="0.342626" points="183.388,-31.2579 190.344,-23.266 179.922,-25.176 183.388,-31.2579"/>
</g>
<!-- &#45;9&#45;&gt;3 -->
<g id="edge52" class="edge"><title>&#45;9&#45;&gt;3</title>
<path fill="none" stroke="green" stroke-width="0.104877" d="M108.401,-68.8622C111.218,-67.7946 114.205,-66.6877 117,-65.6985 165.493,-48.5373 180.027,-50.6659 227,-29.6985 227.846,-29.321 228.7,-28.922 229.556,-28.5068"/>
<polygon fill="green" stroke="green" stroke-width="0.104877" points="231.392,-31.4939 238.553,-23.6847 228.085,-25.3243 231.392,-31.4939"/>
</g>
<!-- &#45;9&#45;&gt;4 -->
<g id="edge53" class="edge"><title>&#45;9&#45;&gt;4</title>
<path fill="none" stroke="green" stroke-width="0.175384" d="M108.337,-68.6695C111.158,-67.6119 114.162,-66.5577 117,-65.6985 185.932,-44.8277 207.949,-55.991 275,-29.6985 275.862,-29.3604 276.73,-28.9949 277.599,-28.6079"/>
<polygon fill="green" stroke="green" stroke-width="0.175384" points="279.382,-31.626 286.65,-23.9174 276.161,-25.411 279.382,-31.626"/>
</g>
<!-- &#45;9&#45;&gt;5 -->
<g id="edge54" class="edge"><title>&#45;9&#45;&gt;5</title>
<path fill="none" stroke="red" stroke-width="0.207362" d="M108.306,-68.5617C111.129,-67.5097 114.141,-66.4851 117,-65.6985 206.613,-41.0425 235.634,-61.4106 323,-29.6985 323.87,-29.3825 324.746,-29.0358 325.62,-28.6646"/>
<polygon fill="red" stroke="red" stroke-width="0.207362" points="327.372,-31.7004 334.699,-24.0479 324.199,-25.4608 327.372,-31.7004"/>
</g>
<!-- &#45;10 -->
<g id="node10" class="node"><title>&#45;10</title>
<polygon fill="lightgray" stroke="black" points="155.5,-83.6985 126.5,-83.6985 126.5,-65.6985 155.5,-65.6985 155.5,-83.6985"/>
<text text-anchor="middle" x="141" y="-72.4985" font-family="Times New Roman,serif" font-size="9.00">&#45;10</text>
</g>
<!-- &#45;10&#45;&gt;0 -->
<g id="edge55" class="edge"><title>&#45;10&#45;&gt;0</title>
<path fill="none" stroke="red" stroke-width="0.14074" d="M136.272,-65.6548C131.914,-58.2388 125.25,-46.9014 119.382,-36.916"/>
<polygon fill="red" stroke="red" stroke-width="0.14074" points="122.389,-35.1249 114.304,-28.2771 116.354,-38.6718 122.389,-35.1249"/>
</g>
<!-- &#45;10&#45;&gt;1 -->
<g id="edge56" class="edge"><title>&#45;10&#45;&gt;1</title>
<path fill="none" stroke="green" stroke-width="0.148926" d="M142.947,-65.6548C144.584,-58.8878 147.012,-48.8559 149.261,-39.5653"/>
<polygon fill="green" stroke="green" stroke-width="0.148926" points="152.721,-40.1473 151.671,-29.6046 145.917,-38.5007 152.721,-40.1473"/>
</g>
<!-- &#45;10&#45;&gt;2 -->
<g id="edge57" class="edge"><title>&#45;10&#45;&gt;2</title>
<path fill="none" stroke="green" stroke-width="0.199355" d="M149.621,-65.6548C158.704,-57.1793 173.277,-43.5822 184.903,-32.7347"/>
<polygon fill="green" stroke="green" stroke-width="0.199355" points="187.453,-35.1422 192.377,-25.761 182.678,-30.0241 187.453,-35.1422"/>
</g>
<!-- &#45;10&#45;&gt;3 -->
<g id="edge58" class="edge"><title>&#45;10&#45;&gt;3</title>
<path fill="none" stroke="red" stroke-width="0.395546" d="M155.726,-66.4475C172.946,-57.9029 202.248,-43.1606 227,-29.6985 227.814,-29.256 228.64,-28.8018 229.474,-28.3401"/>
<polygon fill="red" stroke="red" stroke-width="0.395546" points="231.39,-31.2774 238.363,-23.3008 227.937,-25.1879 231.39,-31.2774"/>
</g>
<!-- &#45;10&#45;&gt;4 -->
<g id="edge59" class="edge"><title>&#45;10&#45;&gt;4</title>
<path fill="none" stroke="red" stroke-width="0.482824" d="M155.585,-68.5735C158.375,-67.6079 161.275,-66.6142 164,-65.6985 213.162,-49.1785 227.613,-50.775 275,-29.6985 275.846,-29.3222 276.701,-28.9241 277.558,-28.5097"/>
<polygon fill="red" stroke="red" stroke-width="0.482824" points="279.392,-31.4976 286.556,-23.6914 276.088,-25.3267 279.392,-31.4976"/>
</g>
<!-- &#45;10&#45;&gt;5 -->
<g id="edge60" class="edge"><title>&#45;10&#45;&gt;5</title>
<path fill="none" stroke="green" stroke-width="0.300726" d="M155.522,-68.3716C158.318,-67.4245 161.236,-66.4894 164,-65.6985 233.66,-45.7657 255.527,-56.1032 323,-29.6985 323.862,-29.361 324.731,-28.996 325.599,-28.6094"/>
<polygon fill="green" stroke="green" stroke-width="0.300726" points="327.382,-31.628 334.651,-23.9209 324.162,-25.4123 327.382,-31.628"/>
</g>
<!-- &#45;11 -->
<g id="node11" class="node"><title>&#45;11</title>
<polygon fill="lightgray" stroke="black" points="202.5,-83.6985 173.5,-83.6985 173.5,-65.6985 202.5,-65.6985 202.5,-83.6985"/>
<text text-anchor="middle" x="188" y="-72.4985" font-family="Times New Roman,serif" font-size="9.00">&#45;11</text>
</g>
<!-- &#45;11&#45;&gt;0 -->
<g id="edge61" class="edge"><title>&#45;11&#45;&gt;0</title>
<path fill="none" stroke="green" stroke-width="0.494407" d="M176.737,-65.6548C163.946,-56.5196 142.824,-41.4343 127.171,-30.2554"/>
<polygon fill="green" stroke="green" stroke-width="0.494407" points="128.863,-27.1629 118.692,-24.1992 124.795,-32.8593 128.863,-27.1629"/>
</g>
<!-- &#45;11&#45;&gt;1 -->
<g id="edge62" class="edge"><title>&#45;11&#45;&gt;1</title>
<path fill="none" stroke="green" stroke-width="0.286701" d="M183.411,-65.6548C179.224,-58.3144 172.845,-47.1324 167.192,-37.2221"/>
<polygon fill="green" stroke="green" stroke-width="0.286701" points="170.085,-35.229 162.089,-28.2771 164.004,-38.6975 170.085,-35.229"/>
</g>
<!-- &#45;11&#45;&gt;2 -->
<g id="edge63" class="edge"><title>&#45;11&#45;&gt;2</title>
<path fill="none" stroke="green" stroke-width="0.471251" d="M190.086,-65.6548C191.84,-58.8878 194.442,-48.8559 196.851,-39.5653"/>
<polygon fill="green" stroke="green" stroke-width="0.471251" points="200.311,-40.1629 199.433,-29.6046 193.535,-38.4059 200.311,-40.1629"/>
</g>
<!-- &#45;11&#45;&gt;3 -->
<g id="edge64" class="edge"><title>&#45;11&#45;&gt;3</title>
<path fill="none" stroke="green" stroke-width="0.119201" d="M196.76,-65.6548C205.99,-57.1793 220.798,-43.5822 232.611,-32.7347"/>
<polygon fill="green" stroke="green" stroke-width="0.119201" points="235.207,-35.1026 240.206,-25.761 230.473,-29.9466 235.207,-35.1026"/>
</g>
<!-- &#45;11&#45;&gt;4 -->
<g id="edge65" class="edge"><title>&#45;11&#45;&gt;4</title>
<path fill="none" stroke="red" stroke-width="0.581769" d="M202.597,-66.6224C219.984,-58.1235 249.84,-43.307 275,-29.6985 275.815,-29.2579 276.642,-28.8053 277.477,-28.345"/>
<polygon fill="red" stroke="red" stroke-width="0.581769" points="279.39,-31.2837 286.369,-23.3121 275.942,-25.1918 279.39,-31.2837"/>
</g>
<!-- &#45;11&#45;&gt;5 -->
<g id="edge66" class="edge"><title>&#45;11&#45;&gt;5</title>
<path fill="none" stroke="red" stroke-width="0.184666" d="M202.717,-68.7719C205.783,-67.7513 208.996,-66.6863 212,-65.6985 261.268,-49.4981 275.613,-50.775 323,-29.6985 323.846,-29.3222 324.701,-28.9241 325.558,-28.5097"/>
<polygon fill="red" stroke="red" stroke-width="0.184666" points="327.392,-31.4976 334.556,-23.6914 324.088,-25.3267 327.392,-31.4976"/>
</g>
</g>
</svg>
