<?xml version="1.0" encoding="UTF-8" standalone="no"?>
<!DOCTYPE svg PUBLIC "-//W3C//DTD SVG 1.1//EN"
 "http://www.w3.org/Graphics/SVG/1.1/DTD/svg11.dtd">
<!-- Generated by graphviz version 2.38.0 (20140413.2041)
 -->
<!-- Title: %3 Pages: 1 -->
<svg width="640pt" height="164pt"
 viewBox="0.00 0.00 640.08 164.47" xmlns="http://www.w3.org/2000/svg" xmlns:xlink="http://www.w3.org/1999/xlink">
<g id="graph0" class="graph" transform="scale(1 1) rotate(0) translate(4 160.468)">
<title>%3</title>
<polygon fill="white" stroke="none" points="-4,4 -4,-160.468 636.083,-160.468 636.083,4 -4,4"/>
<!-- &#45;1 -->
<g id="node1" class="node"><title>&#45;1</title>
<polygon fill="lightgray" stroke="black" points="329.385,-93.0833 305.385,-93.0833 305.385,-75.0833 329.385,-75.0833 329.385,-93.0833"/>
<text text-anchor="middle" x="317.385" y="-81.8833" font-family="Times New Roman,serif" font-size="9.00">&#45;1</text>
</g>
<!-- 0 -->
<g id="node12" class="node"><title>0</title>
<ellipse fill="lightblue" stroke="black" cx="449.385" cy="-14.8492" rx="14.7" ry="14.7"/>
<text text-anchor="middle" x="449.385" y="-12.6492" font-family="Times New Roman,serif" font-size="9.00">0</text>
</g>
<!-- &#45;1&#45;&gt;0 -->
<g id="edge1" class="edge"><title>&#45;1&#45;&gt;0</title>
<path fill="none" stroke="red" stroke-width="0.244746" d="M325.935,-75.0137C329.584,-71.841 334.005,-68.335 338.385,-65.6985 374.235,-44.1151 387.849,-48.1957 425.385,-29.6985 426.215,-29.2891 427.057,-28.8631 427.903,-28.4251"/>
<polygon fill="red" stroke="red" stroke-width="0.244746" points="429.779,-31.3874 436.849,-23.4965 426.401,-25.2563 429.779,-31.3874"/>
</g>
<!-- 1 -->
<g id="node13" class="node"><title>1</title>
<ellipse fill="lightblue" stroke="black" cx="497.385" cy="-14.8492" rx="14.7" ry="14.7"/>
<text text-anchor="middle" x="497.385" y="-12.6492" font-family="Times New Roman,serif" font-size="9.00">1</text>
</g>
<!-- &#45;1&#45;&gt;1 -->
<g id="edge2" class="edge"><title>&#45;1&#45;&gt;1</title>
<path fill="none" stroke="red" stroke-width="0.161658" d="M325.371,-75.0755C329.065,-71.759 333.673,-68.1278 338.385,-65.6985 393.577,-37.2415 415.998,-53.4211 473.385,-29.6985 474.241,-29.3447 475.103,-28.9658 475.967,-28.5676"/>
<polygon fill="red" stroke="red" stroke-width="0.161658" points="477.772,-31.5733 484.997,-23.8246 474.517,-25.3761 477.772,-31.5733"/>
</g>
<!-- 2 -->
<g id="node14" class="node"><title>2</title>
<ellipse fill="lightblue" stroke="black" cx="353.385" cy="-14.8492" rx="14.7" ry="14.7"/>
<text text-anchor="middle" x="353.385" y="-12.6492" font-family="Times New Roman,serif" font-size="9.00">2</text>
</g>
<!-- &#45;1&#45;&gt;2 -->
<g id="edge3" class="edge"><title>&#45;1&#45;&gt;2</title>
<path fill="none" stroke="green" stroke-width="0.232412" d="M321.799,-74.8391C326.766,-65.5621 335.034,-50.1219 341.864,-37.3648"/>
<polygon fill="green" stroke="green" stroke-width="0.232412" points="345.094,-38.7469 346.729,-28.279 338.923,-35.4426 345.094,-38.7469"/>
</g>
<!-- 3 -->
<g id="node15" class="node"><title>3</title>
<ellipse fill="lightblue" stroke="black" cx="401.385" cy="-14.8492" rx="14.7" ry="14.7"/>
<text text-anchor="middle" x="401.385" y="-12.6492" font-family="Times New Roman,serif" font-size="9.00">3</text>
</g>
<!-- &#45;1&#45;&gt;3 -->
<g id="edge4" class="edge"><title>&#45;1&#45;&gt;3</title>
<path fill="none" stroke="green" stroke-width="0.160184" d="M327.177,-74.9014C330.697,-71.9803 334.706,-68.6762 338.385,-65.6985 353.007,-53.8636 369.709,-40.6622 382.24,-30.8194"/>
<polygon fill="green" stroke="green" stroke-width="0.160184" points="384.463,-33.5243 390.173,-24.5998 380.144,-28.0157 384.463,-33.5243"/>
</g>
<!-- 4 -->
<g id="node16" class="node"><title>4</title>
<ellipse fill="lightblue" stroke="black" cx="257.385" cy="-14.8492" rx="14.7" ry="14.7"/>
<text text-anchor="middle" x="257.385" y="-12.6492" font-family="Times New Roman,serif" font-size="9.00">4</text>
</g>
<!-- &#45;1&#45;&gt;4 -->
<g id="edge5" class="edge"><title>&#45;1&#45;&gt;4</title>
<path fill="none" stroke="red" stroke-width="0.241972" d="M310.028,-74.8391C301.01,-64.7337 285.465,-47.3152 273.598,-34.0178"/>
<polygon fill="red" stroke="red" stroke-width="0.241972" points="276.046,-31.5037 266.776,-26.373 270.823,-36.1645 276.046,-31.5037"/>
</g>
<!-- 5 -->
<g id="node17" class="node"><title>5</title>
<ellipse fill="lightblue" stroke="black" cx="305.385" cy="-14.8492" rx="14.7" ry="14.7"/>
<text text-anchor="middle" x="305.385" y="-12.6492" font-family="Times New Roman,serif" font-size="9.00">5</text>
</g>
<!-- &#45;1&#45;&gt;5 -->
<g id="edge6" class="edge"><title>&#45;1&#45;&gt;5</title>
<path fill="none" stroke="green" stroke-width="0.409142" d="M315.913,-74.8391C314.355,-66.1062 311.821,-51.9117 309.63,-39.6352"/>
<polygon fill="green" stroke="green" stroke-width="0.409142" points="313.028,-38.7554 307.826,-29.526 306.137,-39.9854 313.028,-38.7554"/>
</g>
<!-- &#45;2 -->
<g id="node2" class="node"><title>&#45;2</title>
<polygon fill="lightgray" stroke="black" points="371.385,-93.0833 347.385,-93.0833 347.385,-75.0833 371.385,-75.0833 371.385,-93.0833"/>
<text text-anchor="middle" x="359.385" y="-81.8833" font-family="Times New Roman,serif" font-size="9.00">&#45;2</text>
</g>
<!-- &#45;2&#45;&gt;0 -->
<g id="edge7" class="edge"><title>&#45;2&#45;&gt;0</title>
<path fill="none" stroke="red" stroke-width="0.200984" d="M369.105,-74.8109C372.618,-71.8813 376.642,-68.595 380.385,-65.6985 396.492,-53.2346 415.253,-39.7438 429.143,-29.9438"/>
<polygon fill="red" stroke="red" stroke-width="0.200984" points="431.317,-32.6945 437.491,-24.0846 427.295,-26.965 431.317,-32.6945"/>
</g>
<!-- &#45;2&#45;&gt;1 -->
<g id="edge8" class="edge"><title>&#45;2&#45;&gt;1</title>
<path fill="none" stroke="green" stroke-width="0.211462" d="M367.905,-74.9631C371.549,-71.7826 375.975,-68.2844 380.385,-65.6985 418.617,-43.2764 433.405,-48.8314 473.385,-29.6985 474.22,-29.2987 475.065,-28.8808 475.915,-28.4496"/>
<polygon fill="green" stroke="green" stroke-width="0.211462" points="477.779,-31.4194 484.876,-23.5531 474.423,-25.2765 477.779,-31.4194"/>
</g>
<!-- &#45;2&#45;&gt;2 -->
<g id="edge9" class="edge"><title>&#45;2&#45;&gt;2</title>
<path fill="none" stroke="red" stroke-width="0.131689" d="M358.649,-74.8391C357.875,-66.1604 356.619,-52.0878 355.528,-39.8642"/>
<polygon fill="red" stroke="red" stroke-width="0.131689" points="359.003,-39.4295 354.628,-29.7802 352.031,-40.0517 359.003,-39.4295"/>
</g>
<!-- &#45;2&#45;&gt;3 -->
<g id="edge10" class="edge"><title>&#45;2&#45;&gt;3</title>
<path fill="none" stroke="red" stroke-width="0.110402" d="M364.535,-74.8391C370.457,-65.3583 380.401,-49.4405 388.467,-36.528"/>
<polygon fill="red" stroke="red" stroke-width="0.110402" points="391.595,-38.1274 393.924,-27.7919 385.658,-34.4187 391.595,-38.1274"/>
</g>
<!-- &#45;2&#45;&gt;4 -->
<g id="edge11" class="edge"><title>&#45;2&#45;&gt;4</title>
<path fill="none" stroke="green" stroke-width="0.209948" d="M350.198,-75.0064C346.603,-71.9715 342.386,-68.5649 338.385,-65.6985 327.666,-58.0202 298.796,-40.5211 278.594,-28.443"/>
<polygon fill="green" stroke="green" stroke-width="0.209948" points="280.137,-25.2878 269.755,-23.1731 276.552,-31.3003 280.137,-25.2878"/>
</g>
<!-- &#45;2&#45;&gt;5 -->
<g id="edge12" class="edge"><title>&#45;2&#45;&gt;5</title>
<path fill="none" stroke="green" stroke-width="0.370472" d="M352.763,-74.8391C344.816,-64.9441 331.237,-48.0373 320.648,-34.8536"/>
<polygon fill="green" stroke="green" stroke-width="0.370472" points="323.202,-32.4437 314.211,-26.8387 317.744,-36.8271 323.202,-32.4437"/>
</g>
<!-- &#45;3 -->
<g id="node3" class="node"><title>&#45;3</title>
<polygon fill="lightgray" stroke="black" points="413.385,-93.0833 389.385,-93.0833 389.385,-75.0833 413.385,-75.0833 413.385,-93.0833"/>
<text text-anchor="middle" x="401.385" y="-81.8833" font-family="Times New Roman,serif" font-size="9.00">&#45;3</text>
</g>
<!-- &#45;3&#45;&gt;0 -->
<g id="edge13" class="edge"><title>&#45;3&#45;&gt;0</title>
<path fill="none" stroke="red" stroke-width="0.396809" d="M407.271,-74.8391C414.186,-65.1523 425.899,-48.7457 435.22,-35.6906"/>
<polygon fill="red" stroke="red" stroke-width="0.396809" points="438.24,-37.4841 441.201,-27.3117 432.542,-33.4168 438.24,-37.4841"/>
</g>
<!-- &#45;3&#45;&gt;1 -->
<g id="edge14" class="edge"><title>&#45;3&#45;&gt;1</title>
<path fill="none" stroke="red" stroke-width="0.178212" d="M410.625,-75.0798C414.227,-72.054 418.434,-68.6343 422.385,-65.6985 440.156,-52.4934 461.215,-38.6442 476.488,-28.904"/>
<polygon fill="red" stroke="red" stroke-width="0.178212" points="478.588,-31.7169 485.168,-23.4129 474.846,-25.8012 478.588,-31.7169"/>
</g>
<!-- &#45;3&#45;&gt;2 -->
<g id="edge15" class="edge"><title>&#45;3&#45;&gt;2</title>
<path fill="none" stroke="red" stroke-width="0.305238" d="M395.499,-74.8391C388.583,-65.1523 376.87,-48.7457 367.55,-35.6906"/>
<polygon fill="red" stroke="red" stroke-width="0.305238" points="370.227,-33.4168 361.568,-27.3117 364.53,-37.4841 370.227,-33.4168"/>
</g>
<!-- &#45;3&#45;&gt;3 -->
<g id="edge16" class="edge"><title>&#45;3&#45;&gt;3</title>
<path fill="none" stroke="red" stroke-width="0.296771" d="M401.385,-74.8391C401.385,-66.1604 401.385,-52.0878 401.385,-39.8642"/>
<polygon fill="red" stroke="red" stroke-width="0.296771" points="404.885,-39.7801 401.385,-29.7802 397.885,-39.7802 404.885,-39.7801"/>
</g>
<!-- &#45;3&#45;&gt;4 -->
<g id="edge17" class="edge"><title>&#45;3&#45;&gt;4</title>
<path fill="none" stroke="green" stroke-width="0.295151" d="M392.891,-74.9175C389.251,-71.73 384.82,-68.239 380.385,-65.6985 339.758,-42.4298 323.822,-49.474 281.385,-29.6985 280.545,-29.3073 279.697,-28.8967 278.844,-28.4717"/>
<polygon fill="green" stroke="green" stroke-width="0.295151" points="280.328,-25.2948 269.869,-23.6039 276.991,-31.4481 280.328,-25.2948"/>
</g>
<!-- &#45;3&#45;&gt;5 -->
<g id="edge18" class="edge"><title>&#45;3&#45;&gt;5</title>
<path fill="none" stroke="red" stroke-width="0.115895" d="M392.145,-75.0798C388.542,-72.054 384.336,-68.6343 380.385,-65.6985 362.614,-52.4934 341.554,-38.6442 326.282,-28.904"/>
<polygon fill="red" stroke="red" stroke-width="0.115895" points="327.924,-25.8012 317.602,-23.4129 324.182,-31.7169 327.924,-25.8012"/>
</g>
<!-- &#45;4 -->
<g id="node4" class="node"><title>&#45;4</title>
<polygon fill="lightgray" stroke="black" points="455.385,-93.0833 431.385,-93.0833 431.385,-75.0833 455.385,-75.0833 455.385,-93.0833"/>
<text text-anchor="middle" x="443.385" y="-81.8833" font-family="Times New Roman,serif" font-size="9.00">&#45;4</text>
</g>
<!-- &#45;4&#45;&gt;0 -->
<g id="edge19" class="edge"><title>&#45;4&#45;&gt;0</title>
<path fill="none" stroke="green" stroke-width="0.370742" d="M444.12,-74.8391C444.895,-66.1604 446.151,-52.0878 447.242,-39.8642"/>
<polygon fill="green" stroke="green" stroke-width="0.370742" points="450.739,-40.0517 448.142,-29.7802 443.766,-39.4295 450.739,-40.0517"/>
</g>
<!-- &#45;4&#45;&gt;1 -->
<g id="edge20" class="edge"><title>&#45;4&#45;&gt;1</title>
<path fill="none" stroke="green" stroke-width="0.182621" d="M450.006,-74.8391C457.954,-64.9441 471.532,-48.0373 482.121,-34.8536"/>
<polygon fill="green" stroke="green" stroke-width="0.182621" points="485.025,-36.8271 488.558,-26.8387 479.568,-32.4437 485.025,-36.8271"/>
</g>
<!-- &#45;4&#45;&gt;2 -->
<g id="edge21" class="edge"><title>&#45;4&#45;&gt;2</title>
<path fill="none" stroke="green" stroke-width="0.243751" d="M433.664,-74.8109C430.151,-71.8813 426.128,-68.595 422.385,-65.6985 406.278,-53.2346 387.516,-39.7438 373.626,-29.9438"/>
<polygon fill="green" stroke="green" stroke-width="0.243751" points="375.475,-26.965 365.279,-24.0846 371.453,-32.6945 375.475,-26.965"/>
</g>
<!-- &#45;4&#45;&gt;3 -->
<g id="edge22" class="edge"><title>&#45;4&#45;&gt;3</title>
<path fill="none" stroke="green" stroke-width="0.140643" d="M438.235,-74.8391C432.312,-65.3583 422.369,-49.4405 414.302,-36.528"/>
<polygon fill="green" stroke="green" stroke-width="0.140643" points="417.112,-34.4187 408.845,-27.7919 411.175,-38.1274 417.112,-34.4187"/>
</g>
<!-- &#45;4&#45;&gt;4 -->
<g id="edge23" class="edge"><title>&#45;4&#45;&gt;4</title>
<path fill="none" stroke="red" stroke-width="0.158232" d="M435.411,-75.0517C431.719,-71.7308 427.109,-68.1027 422.385,-65.6985 364.742,-36.3648 341.286,-54.089 281.385,-29.6985 280.527,-29.3493 279.663,-28.9742 278.797,-28.5793"/>
<polygon fill="red" stroke="red" stroke-width="0.158232" points="280.244,-25.3861 269.761,-23.8515 276.999,-31.5885 280.244,-25.3861"/>
</g>
<!-- &#45;4&#45;&gt;5 -->
<g id="edge24" class="edge"><title>&#45;4&#45;&gt;5</title>
<path fill="none" stroke="green" stroke-width="0.283618" d="M434.865,-74.9631C431.221,-71.7826 426.794,-68.2844 422.385,-65.6985 384.153,-43.2764 369.364,-48.8314 329.385,-29.6985 328.549,-29.2987 327.704,-28.8808 326.855,-28.4496"/>
<polygon fill="green" stroke="green" stroke-width="0.283618" points="328.347,-25.2765 317.893,-23.5531 324.99,-31.4194 328.347,-25.2765"/>
</g>
<!-- &#45;5 -->
<g id="node5" class="node"><title>&#45;5</title>
<polygon fill="lightgray" stroke="black" points="497.385,-93.0833 473.385,-93.0833 473.385,-75.0833 497.385,-75.0833 497.385,-93.0833"/>
<text text-anchor="middle" x="485.385" y="-81.8833" font-family="Times New Roman,serif" font-size="9.00">&#45;5</text>
</g>
<!-- &#45;5&#45;&gt;0 -->
<g id="edge25" class="edge"><title>&#45;5&#45;&gt;0</title>
<path fill="none" stroke="red" stroke-width="0.106738" d="M480.97,-74.8391C476.003,-65.5621 467.736,-50.1219 460.905,-37.3648"/>
<polygon fill="red" stroke="red" stroke-width="0.106738" points="463.846,-35.4426 456.04,-28.279 457.675,-38.7469 463.846,-35.4426"/>
</g>
<!-- &#45;5&#45;&gt;1 -->
<g id="edge26" class="edge"><title>&#45;5&#45;&gt;1</title>
<path fill="none" stroke="green" stroke-width="0.206868" d="M486.856,-74.8391C488.415,-66.1062 490.948,-51.9117 493.139,-39.6352"/>
<polygon fill="green" stroke="green" stroke-width="0.206868" points="496.632,-39.9854 494.944,-29.526 489.741,-38.7554 496.632,-39.9854"/>
</g>
<!-- &#45;5&#45;&gt;2 -->
<g id="edge27" class="edge"><title>&#45;5&#45;&gt;2</title>
<path fill="none" stroke="red" stroke-width="0.377909" d="M476.835,-75.0137C473.186,-71.841 468.764,-68.335 464.385,-65.6985 428.534,-44.1151 414.921,-48.1957 377.385,-29.6985 376.554,-29.2891 375.713,-28.8631 374.867,-28.4251"/>
<polygon fill="red" stroke="red" stroke-width="0.377909" points="376.368,-25.2563 365.921,-23.4965 372.99,-31.3874 376.368,-25.2563"/>
</g>
<!-- &#45;5&#45;&gt;3 -->
<g id="edge28" class="edge"><title>&#45;5&#45;&gt;3</title>
<path fill="none" stroke="green" stroke-width="0.189309" d="M475.593,-74.9014C472.073,-71.9803 468.064,-68.6762 464.385,-65.6985 449.763,-53.8636 433.061,-40.6622 420.529,-30.8194"/>
<polygon fill="green" stroke="green" stroke-width="0.189309" points="422.626,-28.0157 412.597,-24.5998 418.307,-33.5243 422.626,-28.0157"/>
</g>
<!-- &#45;5&#45;&gt;4 -->
<g id="edge29" class="edge"><title>&#45;5&#45;&gt;4</title>
<path fill="none" stroke="red" stroke-width="0.266418" d="M477.473,-74.9258C473.793,-71.5816 469.174,-67.9701 464.385,-65.6985 389.489,-30.1766 358.998,-58.8068 281.385,-29.6985 280.518,-29.3733 279.645,-29.0187 278.773,-28.641"/>
<polygon fill="red" stroke="red" stroke-width="0.266418" points="280.201,-25.4399 269.706,-23.9935 277.008,-31.6694 280.201,-25.4399"/>
</g>
<!-- &#45;5&#45;&gt;5 -->
<g id="edge30" class="edge"><title>&#45;5&#45;&gt;5</title>
<path fill="none" stroke="green" stroke-width="0.400488" d="M477.399,-75.0755C473.705,-71.759 469.096,-68.1278 464.385,-65.6985 409.192,-37.2415 386.772,-53.4211 329.385,-29.6985 328.529,-29.3447 327.666,-28.9658 326.802,-28.5676"/>
<polygon fill="green" stroke="green" stroke-width="0.400488" points="328.253,-25.3761 317.772,-23.8246 324.998,-31.5733 328.253,-25.3761"/>
</g>
<!-- &#45;6 -->
<g id="node6" class="node"><title>&#45;6</title>
<polygon fill="lightgray" stroke="black" points="539.385,-93.0833 515.385,-93.0833 515.385,-75.0833 539.385,-75.0833 539.385,-93.0833"/>
<text text-anchor="middle" x="527.385" y="-81.8833" font-family="Times New Roman,serif" font-size="9.00">&#45;6</text>
</g>
<!-- &#45;6&#45;&gt;0 -->
<g id="edge31" class="edge"><title>&#45;6&#45;&gt;0</title>
<path fill="none" stroke="red" stroke-width="0.250755" d="M517.82,-74.8391C505.532,-64.2471 483.924,-45.621 468.269,-32.1271"/>
<polygon fill="red" stroke="red" stroke-width="0.250755" points="470.141,-29.12 460.282,-25.2421 465.571,-34.4222 470.141,-29.12"/>
</g>
<!-- &#45;6&#45;&gt;1 -->
<g id="edge32" class="edge"><title>&#45;6&#45;&gt;1</title>
<path fill="none" stroke="red" stroke-width="0.141875" d="M523.706,-74.8391C519.657,-65.7637 512.976,-50.7902 507.358,-38.2003"/>
<polygon fill="red" stroke="red" stroke-width="0.141875" points="510.422,-36.4788 503.151,-28.7728 504.03,-39.3312 510.422,-36.4788"/>
</g>
<!-- &#45;6&#45;&gt;2 -->
<g id="edge33" class="edge"><title>&#45;6&#45;&gt;2</title>
<path fill="none" stroke="green" stroke-width="0.191065" d="M518.986,-74.7452C515.36,-71.5314 510.915,-68.0672 506.385,-65.6985 453.637,-38.1155 432.262,-52.7554 377.385,-29.6985 376.531,-29.3398 375.67,-28.9567 374.808,-28.555"/>
<polygon fill="green" stroke="green" stroke-width="0.191065" points="376.262,-25.3652 365.784,-23.7955 372.996,-31.5567 376.262,-25.3652"/>
</g>
<!-- &#45;6&#45;&gt;3 -->
<g id="edge34" class="edge"><title>&#45;6&#45;&gt;3</title>
<path fill="none" stroke="green" stroke-width="0.26589" d="M518.8,-75.0703C515.146,-71.9063 510.73,-68.3914 506.385,-65.6985 472.9,-44.9441 460.494,-47.5682 425.385,-29.6985 424.559,-29.2784 423.723,-28.8432 422.881,-28.3976"/>
<polygon fill="green" stroke="green" stroke-width="0.26589" points="424.393,-25.2339 413.952,-23.4332 420.991,-31.3518 424.393,-25.2339"/>
</g>
<!-- &#45;6&#45;&gt;4 -->
<g id="edge35" class="edge"><title>&#45;6&#45;&gt;4</title>
<path fill="none" stroke="green" stroke-width="0.33775" d="M519.51,-74.8446C515.837,-71.4854 511.214,-67.8845 506.385,-65.6985 414.125,-23.9352 376.825,-63.5683 281.385,-29.6985 280.512,-29.3888 279.635,-29.0473 278.759,-28.6807"/>
<polygon fill="green" stroke="green" stroke-width="0.33775" points="280.175,-25.475 269.672,-24.0849 277.016,-31.7215 280.175,-25.475"/>
</g>
<!-- &#45;6&#45;&gt;5 -->
<g id="edge36" class="edge"><title>&#45;6&#45;&gt;5</title>
<path fill="none" stroke="green" stroke-width="0.122635" d="M519.466,-74.9404C515.784,-71.5989 511.167,-67.9855 506.385,-65.6985 433.963,-31.0648 404.459,-58.1294 329.385,-29.6985 328.519,-29.3705 327.647,-29.0136 326.776,-28.6338"/>
<polygon fill="green" stroke="green" stroke-width="0.122635" points="328.206,-25.4336 317.712,-23.9771 325.007,-31.66 328.206,-25.4336"/>
</g>
<!-- &#45;7 -->
<g id="node7" class="node"><title>&#45;7</title>
<polygon fill="lightgray" stroke="black" points="581.385,-93.0833 557.385,-93.0833 557.385,-75.0833 581.385,-75.0833 581.385,-93.0833"/>
<text text-anchor="middle" x="569.385" y="-81.8833" font-family="Times New Roman,serif" font-size="9.00">&#45;7</text>
</g>
<!-- &#45;7&#45;&gt;0 -->
<g id="edge37" class="edge"><title>&#45;7&#45;&gt;0</title>
<path fill="none" stroke="green" stroke-width="0.252616" d="M560.351,-74.7819C556.773,-71.7195 552.53,-68.3527 548.385,-65.6985 517.246,-45.7613 506.087,-46.9509 473.385,-29.6985 472.566,-29.2664 471.734,-28.821 470.897,-28.3667"/>
<polygon fill="green" stroke="green" stroke-width="0.252616" points="472.422,-25.209 461.989,-23.362 468.993,-31.3118 472.422,-25.209"/>
</g>
<!-- &#45;7&#45;&gt;1 -->
<g id="edge38" class="edge"><title>&#45;7&#45;&gt;1</title>
<path fill="none" stroke="green" stroke-width="0.277143" d="M560.556,-74.8391C549.404,-64.4247 529.933,-46.2431 515.548,-32.8098"/>
<polygon fill="green" stroke="green" stroke-width="0.277143" points="517.862,-30.1818 508.164,-25.9149 513.084,-35.298 517.862,-30.1818"/>
</g>
<!-- &#45;7&#45;&gt;2 -->
<g id="edge39" class="edge"><title>&#45;7&#45;&gt;2</title>
<path fill="none" stroke="green" stroke-width="0.130636" d="M561.458,-74.9559C557.776,-71.6173 553.159,-68.0018 548.385,-65.6985 478.434,-31.9519 449.922,-57.4529 377.385,-29.6985 376.52,-29.3676 375.649,-29.0081 374.779,-28.6262"/>
<polygon fill="green" stroke="green" stroke-width="0.130636" points="376.211,-25.427 365.718,-23.9596 373.006,-31.65 376.211,-25.427"/>
</g>
<!-- &#45;7&#45;&gt;3 -->
<g id="edge40" class="edge"><title>&#45;7&#45;&gt;3</title>
<path fill="none" stroke="red" stroke-width="0.273258" d="M560.971,-74.7738C557.342,-71.5643 552.9,-68.0956 548.385,-65.6985 498.077,-38.9866 477.758,-52.0922 425.385,-29.6985 424.533,-29.3344 423.674,-28.9468 422.813,-28.5412"/>
<polygon fill="red" stroke="red" stroke-width="0.273258" points="424.273,-25.3534 413.798,-23.7638 420.995,-31.5387 424.273,-25.3534"/>
</g>
<!-- &#45;7&#45;&gt;4 -->
<g id="edge41" class="edge"><title>&#45;7&#45;&gt;4</title>
<path fill="none" stroke="red" stroke-width="0.191037" d="M561.536,-74.788C557.867,-71.4183 553.241,-67.8249 548.385,-65.6985 438.7,-17.6662 394.715,-68.3521 281.385,-29.6985 280.508,-29.3995 279.628,-29.0673 278.749,-28.7083"/>
<polygon fill="red" stroke="red" stroke-width="0.191037" points="280.158,-25.4996 269.65,-24.1485 277.022,-31.7578 280.158,-25.4996"/>
</g>
<!-- &#45;7&#45;&gt;5 -->
<g id="edge42" class="edge"><title>&#45;7&#45;&gt;5</title>
<path fill="none" stroke="red" stroke-width="0.161126" d="M561.506,-74.8544C557.832,-71.497 553.209,-67.8949 548.385,-65.6985 458.61,-24.8289 422.274,-62.8864 329.385,-29.6985 328.513,-29.3869 327.636,-29.0439 326.761,-28.6759"/>
<polygon fill="red" stroke="red" stroke-width="0.161126" points="328.178,-25.4707 317.676,-24.0739 325.015,-31.7152 328.178,-25.4707"/>
</g>
<!-- &#45;8 -->
<g id="node8" class="node"><title>&#45;8</title>
<polygon fill="lightgray" stroke="black" points="152.385,-156.468 128.385,-156.468 128.385,-138.468 152.385,-138.468 152.385,-156.468"/>
<text text-anchor="middle" x="140.385" y="-145.268" font-family="Times New Roman,serif" font-size="9.00">&#45;8</text>
</g>
<!-- &#45;8&#45;&gt;0 -->
<g id="edge43" class="edge"><title>&#45;8&#45;&gt;0</title>
<path fill="none" stroke="red" stroke-width="0.149225" d="M152.422,-146.278C222.493,-145.053 575.797,-137.172 607.385,-102.468 618.385,-90.3827 617.329,-78.6668 607.385,-65.6985 569.86,-16.7621 530.353,-53.31 473.385,-29.6985 472.529,-29.3439 471.667,-28.9644 470.803,-28.5656"/>
<polygon fill="red" stroke="red" stroke-width="0.149225" points="472.254,-25.3743 461.774,-23.8199 468.997,-31.5706 472.254,-25.3743"/>
</g>
<!-- &#45;8&#45;&gt;1 -->
<g id="edge44" class="edge"><title>&#45;8&#45;&gt;1</title>
<path fill="none" stroke="red" stroke-width="0.133099" d="M152.391,-146.321C223.883,-145.321 591.527,-138.449 624.385,-102.468 635.405,-90.4007 633.59,-79.2011 624.385,-65.6985 601.569,-32.2325 552.568,-21.2331 522.544,-17.6183"/>
<polygon fill="red" stroke="red" stroke-width="0.133099" points="522.727,-14.119 512.425,-16.5927 522.021,-21.0833 522.727,-14.119"/>
</g>
<!-- &#45;8&#45;&gt;2 -->
<g id="edge45" class="edge"><title>&#45;8&#45;&gt;2</title>
<path fill="none" stroke="green" stroke-width="0.303858" d="M139.686,-138.241C138.79,-121.922 139.301,-85.338 159.385,-65.6985 214.602,-11.7017 257.27,-57.3402 329.385,-29.6985 330.249,-29.367 331.12,-29.0071 331.99,-28.6249"/>
<polygon fill="green" stroke="green" stroke-width="0.303858" points="333.764,-31.6483 341.05,-23.9565 330.558,-25.4258 333.764,-31.6483"/>
</g>
<!-- &#45;8&#45;&gt;3 -->
<g id="edge46" class="edge"><title>&#45;8&#45;&gt;3</title>
<path fill="none" stroke="green" stroke-width="0.426805" d="M152.429,-146.233C220.99,-144.775 560.061,-135.901 590.385,-102.468 601.364,-90.3633 600.635,-78.4262 590.385,-65.6985 543.306,-7.24032 495.388,-56.7775 425.385,-29.6985 424.521,-29.3644 423.652,-29.0022 422.782,-28.6181"/>
<polygon fill="green" stroke="green" stroke-width="0.426805" points="424.217,-25.4199 413.726,-23.9409 421.005,-31.6394 424.217,-25.4199"/>
</g>
<!-- &#45;8&#45;&gt;4 -->
<g id="edge47" class="edge"><title>&#45;8&#45;&gt;4</title>
<path fill="none" stroke="red" stroke-width="0.152908" stroke-dasharray="1,5" d="M128.226,-140.322C115.591,-133.172 96.545,-120.062 88.3848,-102.468 81.5089,-87.6429 78.5994,-78.787 88.3848,-65.6985 105.74,-42.4844 190.008,-26.3229 232.614,-19.4932"/>
<polygon fill="red" stroke="red" stroke-width="0.152908" points="233.377,-22.9167 242.722,-17.9233 232.303,-15.9996 233.377,-22.9167"/>
</g>
<!-- &#45;8&#45;&gt;5 -->
<g id="edge48" class="edge"><title>&#45;8&#45;&gt;5</title>
<path fill="none" stroke="green" stroke-width="0.32196" d="M135.297,-138.354C126.107,-122.554 109.212,-87.3171 126.385,-65.6985 170.374,-10.3214 215.597,-55.6544 281.385,-29.6985 282.246,-29.3586 283.114,-28.9916 283.982,-28.6033"/>
<polygon fill="green" stroke="green" stroke-width="0.32196" points="285.767,-31.62 293.031,-23.9068 282.543,-25.4069 285.767,-31.62"/>
</g>
<!-- 64 -->
<g id="node18" class="node"><title>64</title>
<ellipse fill="white" stroke="black" cx="18.3848" cy="-84.0833" rx="18.2703" ry="18.2703"/>
<text text-anchor="middle" x="18.3848" y="-81.8833" font-family="Times New Roman,serif" font-size="9.00">64</text>
</g>
<!-- &#45;8&#45;&gt;64 -->
<g id="edge67" class="edge"><title>&#45;8&#45;&gt;64</title>
<path fill="none" stroke="green" stroke-width="0.3" d="M128.366,-140.794C111.031,-132.565 78.0535,-116.739 50.3848,-102.468 48.0739,-101.276 45.6797,-100.019 43.2886,-98.7471"/>
<polygon fill="green" stroke="green" stroke-width="0.3" points="44.728,-95.547 34.2644,-93.8847 41.4075,-101.709 44.728,-95.547"/>
</g>
<!-- &#45;9 -->
<g id="node9" class="node"><title>&#45;9</title>
<polygon fill="lightgray" stroke="black" points="192.385,-93.0833 168.385,-93.0833 168.385,-75.0833 192.385,-75.0833 192.385,-93.0833"/>
<text text-anchor="middle" x="180.385" y="-81.8833" font-family="Times New Roman,serif" font-size="9.00">&#45;9</text>
</g>
<!-- &#45;9&#45;&gt;0 -->
<g id="edge49" class="edge"><title>&#45;9&#45;&gt;0</title>
<path fill="none" stroke="green" stroke-width="0.286092" d="M188.26,-74.8462C191.933,-71.4873 196.556,-67.8862 201.385,-65.6985 293.23,-24.0842 330.37,-63.4546 425.385,-29.6985 426.257,-29.3885 427.134,-29.0468 428.01,-28.6799"/>
<polygon fill="green" stroke="green" stroke-width="0.286092" points="429.754,-31.7205 437.097,-24.0831 426.594,-25.4743 429.754,-31.7205"/>
</g>
<!-- &#45;9&#45;&gt;1 -->
<g id="edge50" class="edge"><title>&#45;9&#45;&gt;1</title>
<path fill="none" stroke="green" stroke-width="0.612728" d="M188.232,-74.7824C191.9,-71.4116 196.526,-67.819 201.385,-65.6985 313.146,-16.9187 357.922,-68.9226 473.385,-29.6985 474.262,-29.4006 475.142,-29.0692 476.021,-28.7111"/>
<polygon fill="green" stroke="green" stroke-width="0.612728" points="477.747,-31.7614 485.122,-24.1548 474.613,-25.5021 477.747,-31.7614"/>
</g>
<!-- &#45;9&#45;&gt;2 -->
<g id="edge51" class="edge"><title>&#45;9&#45;&gt;2</title>
<path fill="none" stroke="green" stroke-width="0.257002" d="M188.786,-74.7498C192.413,-71.5367 196.857,-68.0718 201.385,-65.6985 253.725,-38.2609 274.925,-52.6447 329.385,-29.6985 330.238,-29.3389 331.099,-28.9551 331.961,-28.5528"/>
<polygon fill="green" stroke="green" stroke-width="0.257002" points="333.773,-31.5538 340.983,-23.7904 330.506,-25.3633 333.773,-31.5538"/>
</g>
<!-- &#45;9&#45;&gt;3 -->
<g id="edge52" class="edge"><title>&#45;9&#45;&gt;3</title>
<path fill="none" stroke="red" stroke-width="0.120638" d="M188.305,-74.9429C191.987,-71.6019 196.604,-67.9881 201.385,-65.6985 273.395,-31.2127 302.734,-58.0165 377.385,-29.6985 378.251,-29.37 379.122,-29.0127 379.993,-28.6326"/>
<polygon fill="red" stroke="red" stroke-width="0.120638" points="381.763,-31.6584 389.057,-23.9742 378.563,-25.4325 381.763,-31.6584"/>
</g>
<!-- &#45;9&#45;&gt;4 -->
<g id="edge53" class="edge"><title>&#45;9&#45;&gt;4</title>
<path fill="none" stroke="red" stroke-width="0.12625" d="M189.826,-74.8391C201.957,-64.2471 223.289,-45.621 238.743,-32.1271"/>
<polygon fill="red" stroke="red" stroke-width="0.12625" points="241.397,-34.4557 246.628,-25.2421 236.793,-29.1829 241.397,-34.4557"/>
</g>
<!-- &#45;9&#45;&gt;5 -->
<g id="edge54" class="edge"><title>&#45;9&#45;&gt;5</title>
<path fill="none" stroke="green" stroke-width="0.433008" d="M188.975,-75.0804C192.631,-71.9179 197.046,-68.4015 201.385,-65.6985 234.477,-45.0812 246.678,-47.4646 281.385,-29.6985 282.209,-29.2765 283.045,-28.8397 283.887,-28.3927"/>
<polygon fill="green" stroke="green" stroke-width="0.433008" points="285.778,-31.3454 292.812,-23.4219 282.372,-25.2299 285.778,-31.3454"/>
</g>
<!-- &#45;10 -->
<g id="node10" class="node"><title>&#45;10</title>
<polygon fill="lightgray" stroke="black" points="239.885,-93.0833 210.885,-93.0833 210.885,-75.0833 239.885,-75.0833 239.885,-93.0833"/>
<text text-anchor="middle" x="225.385" y="-81.8833" font-family="Times New Roman,serif" font-size="9.00">&#45;10</text>
</g>
<!-- &#45;10&#45;&gt;0 -->
<g id="edge55" class="edge"><title>&#45;10&#45;&gt;0</title>
<path fill="none" stroke="green" stroke-width="0.335991" d="M234.18,-74.9585C238.234,-71.6204 243.275,-68.0046 248.385,-65.6985 321.555,-32.6755 350.311,-58.1294 425.385,-29.6985 426.251,-29.3705 427.122,-29.0136 427.994,-28.6338"/>
<polygon fill="green" stroke="green" stroke-width="0.335991" points="429.762,-31.66 437.058,-23.9771 426.564,-25.4336 429.762,-31.66"/>
</g>
<!-- &#45;10&#45;&gt;1 -->
<g id="edge56" class="edge"><title>&#45;10&#45;&gt;1</title>
<path fill="none" stroke="red" stroke-width="0.102883" d="M234.135,-74.8562C238.181,-71.4991 243.228,-67.8968 248.385,-65.6985 341.546,-25.9865 377.945,-63.5683 473.385,-29.6985 474.257,-29.3888 475.135,-29.0473 476.011,-28.6807"/>
<polygon fill="red" stroke="red" stroke-width="0.102883" points="477.753,-31.7215 485.097,-24.0849 474.594,-25.475 477.753,-31.7215"/>
</g>
<!-- &#45;10&#45;&gt;2 -->
<g id="edge57" class="edge"><title>&#45;10&#45;&gt;2</title>
<path fill="none" stroke="red" stroke-width="0.315316" d="M235.339,-74.771C239.264,-71.7073 243.901,-68.3424 248.385,-65.6985 282.321,-45.69 294.275,-47.5682 329.385,-29.6985 330.21,-29.2784 331.047,-28.8432 331.889,-28.3976"/>
<polygon fill="red" stroke="red" stroke-width="0.315316" points="333.778,-31.3518 340.817,-23.4332 330.377,-25.2339 333.778,-31.3518"/>
</g>
<!-- &#45;10&#45;&gt;3 -->
<g id="edge58" class="edge"><title>&#45;10&#45;&gt;3</title>
<path fill="none" stroke="red" stroke-width="0.545756" d="M234.701,-74.775C238.69,-71.5658 243.54,-68.0969 248.385,-65.6985 301.73,-39.2893 322.508,-52.7554 377.385,-29.6985 378.239,-29.3398 379.1,-28.9567 379.962,-28.555"/>
<polygon fill="red" stroke="red" stroke-width="0.545756" points="381.773,-31.5567 388.985,-23.7955 378.507,-25.3652 381.773,-31.5567"/>
</g>
<!-- &#45;10&#45;&gt;4 -->
<g id="edge59" class="edge"><title>&#45;10&#45;&gt;4</title>
<path fill="none" stroke="red" stroke-width="0.11228" d="M229.309,-74.8391C233.671,-65.6739 240.896,-50.4931 246.924,-37.8271"/>
<polygon fill="red" stroke="red" stroke-width="0.11228" points="250.096,-39.3065 251.234,-28.7728 243.776,-36.2981 250.096,-39.3065"/>
</g>
<!-- &#45;10&#45;&gt;5 -->
<g id="edge60" class="edge"><title>&#45;10&#45;&gt;5</title>
<path fill="none" stroke="green" stroke-width="0.264575" d="M235.194,-74.8391C247.985,-64.0894 270.623,-45.0642 286.73,-31.5274"/>
<polygon fill="green" stroke="green" stroke-width="0.264575" points="289.067,-34.135 294.471,-25.0218 284.563,-28.7762 289.067,-34.135"/>
</g>
<!-- &#45;11 -->
<g id="node11" class="node"><title>&#45;11</title>
<polygon fill="lightgray" stroke="black" points="286.885,-93.0833 257.885,-93.0833 257.885,-75.0833 286.885,-75.0833 286.885,-93.0833"/>
<text text-anchor="middle" x="272.385" y="-81.8833" font-family="Times New Roman,serif" font-size="9.00">&#45;11</text>
</g>
<!-- &#45;11&#45;&gt;0 -->
<g id="edge61" class="edge"><title>&#45;11&#45;&gt;0</title>
<path fill="none" stroke="red" stroke-width="0.301686" d="M282.156,-74.7912C286.327,-71.5844 291.38,-68.113 296.385,-65.6985 349.995,-39.8334 370.508,-52.7554 425.385,-29.6985 426.239,-29.3398 427.1,-28.9567 427.962,-28.555"/>
<polygon fill="red" stroke="red" stroke-width="0.301686" points="429.773,-31.5567 436.985,-23.7955 426.507,-25.3652 429.773,-31.5567"/>
</g>
<!-- &#45;11&#45;&gt;1 -->
<g id="edge62" class="edge"><title>&#45;11&#45;&gt;1</title>
<path fill="none" stroke="red" stroke-width="0.396535" d="M281.615,-74.9687C285.855,-71.6325 291.109,-68.0153 296.385,-65.6985 369.888,-33.4217 398.311,-58.1294 473.385,-29.6985 474.251,-29.3705 475.122,-29.0136 475.994,-28.6338"/>
<polygon fill="red" stroke="red" stroke-width="0.396535" points="477.762,-31.66 485.058,-23.9771 474.564,-25.4336 477.762,-31.66"/>
</g>
<!-- &#45;11&#45;&gt;2 -->
<g id="edge63" class="edge"><title>&#45;11&#45;&gt;2</title>
<path fill="none" stroke="green" stroke-width="0.393398" d="M282.317,-74.8391C295.268,-64.0894 318.188,-45.0642 334.497,-31.5274"/>
<polygon fill="green" stroke="green" stroke-width="0.393398" points="336.875,-34.1018 342.334,-25.0218 332.404,-28.7156 336.875,-34.1018"/>
</g>
<!-- &#45;11&#45;&gt;3 -->
<g id="edge64" class="edge"><title>&#45;11&#45;&gt;3</title>
<path fill="none" stroke="red" stroke-width="0.371281" d="M282.816,-74.7992C286.918,-71.7389 291.748,-68.369 296.385,-65.6985 330.523,-46.0363 342.275,-47.5682 377.385,-29.6985 378.21,-29.2784 379.047,-28.8432 379.889,-28.3976"/>
<polygon fill="red" stroke="red" stroke-width="0.371281" points="381.778,-31.3518 388.817,-23.4332 378.377,-25.2339 381.778,-31.3518"/>
</g>
<!-- &#45;11&#45;&gt;4 -->
<g id="edge65" class="edge"><title>&#45;11&#45;&gt;4</title>
<path fill="none" stroke="red" stroke-width="0.263548" d="M270.545,-74.8391C268.597,-66.1062 265.43,-51.9117 262.691,-39.6352"/>
<polygon fill="red" stroke="red" stroke-width="0.263548" points="266.03,-38.5239 260.436,-29.526 259.198,-40.0481 266.03,-38.5239"/>
</g>
<!-- &#45;11&#45;&gt;5 -->
<g id="edge66" class="edge"><title>&#45;11&#45;&gt;5</title>
<path fill="none" stroke="green" stroke-width="0.398096" d="M276.431,-74.8391C280.93,-65.6739 288.381,-50.4931 294.598,-37.8271"/>
<polygon fill="green" stroke="green" stroke-width="0.398096" points="297.777,-39.292 299.042,-28.7728 291.493,-36.2077 297.777,-39.292"/>
</g>
<!-- 64&#45;&gt;4 -->
<g id="edge68" class="edge"><title>64&#45;&gt;4</title>
<path fill="none" stroke="red" stroke-width="0.152908" d="M33.6206,-73.7513C38.803,-70.8655 44.7194,-67.8763 50.3848,-65.6985 113.934,-41.2696 193.19,-26.1887 232.657,-19.6498"/>
<polygon fill="red" stroke="red" stroke-width="0.152908" points="233.372,-23.0797 242.687,-18.0313 232.257,-16.1691 233.372,-23.0797"/>
</g>
</g>
</svg>
