<?xml version="1.0" encoding="UTF-8" standalone="no"?>
<!DOCTYPE svg PUBLIC "-//W3C//DTD SVG 1.1//EN"
 "http://www.w3.org/Graphics/SVG/1.1/DTD/svg11.dtd">
<!-- Generated by graphviz version 2.38.0 (20140413.2041)
 -->
<!-- Title: %3 Pages: 1 -->
<svg width="464pt" height="92pt"
 viewBox="0.00 0.00 463.50 91.70" xmlns="http://www.w3.org/2000/svg" xmlns:xlink="http://www.w3.org/1999/xlink">
<g id="graph0" class="graph" transform="scale(1 1) rotate(0) translate(4 87.6985)">
<title>%3</title>
<polygon fill="white" stroke="none" points="-4,4 -4,-87.6985 459.5,-87.6985 459.5,4 -4,4"/>
<!-- &#45;1 -->
<g id="node1" class="node"><title>&#45;1</title>
<polygon fill="lightgray" stroke="black" points="24,-83.6985 0,-83.6985 0,-65.6985 24,-65.6985 24,-83.6985"/>
<text text-anchor="middle" x="12" y="-72.4985" font-family="Times New Roman,serif" font-size="9.00">&#45;1</text>
</g>
<!-- 0 -->
<g id="node12" class="node"><title>0</title>
<ellipse fill="lightblue" stroke="black" cx="162" cy="-14.8492" rx="14.7" ry="14.7"/>
<text text-anchor="middle" x="162" y="-12.6492" font-family="Times New Roman,serif" font-size="9.00">0</text>
</g>
<!-- &#45;1&#45;&gt;0 -->
<g id="edge1" class="edge"><title>&#45;1&#45;&gt;0</title>
<path fill="none" stroke="red" stroke-width="0.310099" d="M24.4111,-68.8912C27.2282,-67.8221 30.2118,-66.7072 33,-65.6985 79.3906,-48.9149 93.0928,-50.1221 138,-29.6985 138.843,-29.3151 139.695,-28.9111 140.55,-28.4917"/>
<polygon fill="red" stroke="red" stroke-width="0.310099" points="142.393,-31.4741 149.537,-23.6498 139.073,-25.3115 142.393,-31.4741"/>
</g>
<!-- 1 -->
<g id="node13" class="node"><title>1</title>
<ellipse fill="lightblue" stroke="black" cx="210" cy="-14.8492" rx="14.7" ry="14.7"/>
<text text-anchor="middle" x="210" y="-12.6492" font-family="Times New Roman,serif" font-size="9.00">1</text>
</g>
<!-- &#45;1&#45;&gt;1 -->
<g id="edge2" class="edge"><title>&#45;1&#45;&gt;1</title>
<path fill="none" stroke="green" stroke-width="0.302427" d="M24.342,-68.6843C27.1627,-67.626 30.1652,-66.5677 33,-65.6985 99.7876,-45.2189 121.055,-55.4303 186,-29.6985 186.861,-29.3574 187.728,-28.9893 188.596,-28.6001"/>
<polygon fill="green" stroke="green" stroke-width="0.302427" points="190.383,-31.6158 197.643,-23.8994 187.156,-25.4042 190.383,-31.6158"/>
</g>
<!-- 2 -->
<g id="node14" class="node"><title>2</title>
<ellipse fill="lightblue" stroke="black" cx="258" cy="-14.8492" rx="14.7" ry="14.7"/>
<text text-anchor="middle" x="258" y="-12.6492" font-family="Times New Roman,serif" font-size="9.00">2</text>
</g>
<!-- &#45;1&#45;&gt;2 -->
<g id="edge3" class="edge"><title>&#45;1&#45;&gt;2</title>
<path fill="none" stroke="red" stroke-width="0.242276" d="M24.3088,-68.5706C27.1313,-67.5182 30.1428,-66.4911 33,-65.6985 120.452,-41.4386 148.757,-60.8437 234,-29.6985 234.87,-29.3807 235.745,-29.0324 236.618,-28.6599"/>
<polygon fill="red" stroke="red" stroke-width="0.242276" points="238.373,-31.6942 245.695,-24.0371 235.196,-25.4566 238.373,-31.6942"/>
</g>
<!-- 3 -->
<g id="node15" class="node"><title>3</title>
<ellipse fill="lightblue" stroke="black" cx="306" cy="-14.8492" rx="14.7" ry="14.7"/>
<text text-anchor="middle" x="306" y="-12.6492" font-family="Times New Roman,serif" font-size="9.00">3</text>
</g>
<!-- &#45;1&#45;&gt;3 -->
<g id="edge4" class="edge"><title>&#45;1&#45;&gt;3</title>
<path fill="none" stroke="green" stroke-width="0.145497" d="M24.2896,-68.4992C27.1131,-67.4504 30.1299,-66.4429 33,-65.6985 141.236,-37.625 176.343,-66.2999 282,-29.6985 282.875,-29.3954 283.754,-29.0595 284.632,-28.6976"/>
<polygon fill="green" stroke="green" stroke-width="0.145497" points="286.365,-31.7437 293.726,-24.1238 283.22,-25.49 286.365,-31.7437"/>
</g>
<!-- 4 -->
<g id="node16" class="node"><title>4</title>
<ellipse fill="lightblue" stroke="black" cx="114" cy="-14.8492" rx="14.7" ry="14.7"/>
<text text-anchor="middle" x="114" y="-12.6492" font-family="Times New Roman,serif" font-size="9.00">4</text>
</g>
<!-- &#45;1&#45;&gt;4 -->
<g id="edge5" class="edge"><title>&#45;1&#45;&gt;4</title>
<path fill="none" stroke="green" stroke-width="0.137353" d="M24.1013,-66.8352C40.9418,-57.2841 71.7142,-39.8316 92.5087,-28.038"/>
<polygon fill="green" stroke="green" stroke-width="0.137353" points="94.3033,-31.044 101.275,-23.0662 90.8499,-24.9551 94.3033,-31.044"/>
</g>
<!-- &#45;2 -->
<g id="node2" class="node"><title>&#45;2</title>
<polygon fill="lightgray" stroke="black" points="114,-83.6985 90,-83.6985 90,-65.6985 114,-65.6985 114,-83.6985"/>
<text text-anchor="middle" x="102" y="-72.4985" font-family="Times New Roman,serif" font-size="9.00">&#45;2</text>
</g>
<!-- &#45;2&#45;&gt;0 -->
<g id="edge6" class="edge"><title>&#45;2&#45;&gt;0</title>
<path fill="none" stroke="red" stroke-width="0.7" d="M110.343,-65.6548C119.133,-57.1793 133.236,-43.5822 144.487,-32.7347"/>
<polygon fill="red" stroke="red" stroke-width="0.7" points="146.95,-35.2215 151.72,-25.761 142.091,-30.1823 146.95,-35.2215"/>
</g>
<!-- &#45;2&#45;&gt;1 -->
<g id="edge7" class="edge"><title>&#45;2&#45;&gt;1</title>
<path fill="none" stroke="red" stroke-width="0.131221" d="M114.045,-67.585C130.43,-59.2241 160.613,-43.6645 186,-29.6985 186.811,-29.2521 187.636,-28.7946 188.469,-28.3301"/>
<polygon fill="red" stroke="red" stroke-width="0.131221" points="190.389,-31.2645 197.35,-23.2778 186.928,-25.18 190.389,-31.2645"/>
</g>
<!-- &#45;2&#45;&gt;2 -->
<g id="edge8" class="edge"><title>&#45;2&#45;&gt;2</title>
<path fill="none" stroke="green" stroke-width="0.329487" d="M114.399,-68.8567C117.217,-67.7894 120.203,-66.6839 123,-65.6985 171.915,-48.4615 186.613,-50.775 234,-29.6985 234.846,-29.3222 235.701,-28.9241 236.558,-28.5097"/>
<polygon fill="green" stroke="green" stroke-width="0.329487" points="238.392,-31.4976 245.556,-23.6914 235.088,-25.3267 238.392,-31.4976"/>
</g>
<!-- &#45;2&#45;&gt;3 -->
<g id="edge9" class="edge"><title>&#45;2&#45;&gt;3</title>
<path fill="none" stroke="green" stroke-width="0.389021" d="M114.337,-68.6666C117.158,-67.6091 120.162,-66.5558 123,-65.6985 192.361,-44.7493 214.527,-56.1032 282,-29.6985 282.862,-29.361 283.731,-28.996 284.599,-28.6094"/>
<polygon fill="green" stroke="green" stroke-width="0.389021" points="286.382,-31.628 293.651,-23.9209 283.162,-25.4123 286.382,-31.628"/>
</g>
<!-- &#45;2&#45;&gt;4 -->
<g id="edge10" class="edge"><title>&#45;2&#45;&gt;4</title>
<path fill="none" stroke="green" stroke-width="0.473668" d="M103.669,-65.6548C105.072,-58.8878 107.153,-48.8559 109.08,-39.5653"/>
<polygon fill="green" stroke="green" stroke-width="0.473668" points="112.543,-40.107 111.147,-29.6046 105.688,-38.6852 112.543,-40.107"/>
</g>
<!-- 5 -->
<g id="node17" class="node"><title>5</title>
<ellipse fill="lightblue" stroke="black" cx="354" cy="-14.8492" rx="14.7" ry="14.7"/>
<text text-anchor="middle" x="354" y="-12.6492" font-family="Times New Roman,serif" font-size="9.00">5</text>
</g>
<!-- &#45;2&#45;&gt;5 -->
<g id="edge11" class="edge"><title>&#45;2&#45;&gt;5</title>
<path fill="none" stroke="green" stroke-width="0.134419" d="M114.306,-68.56C117.128,-67.508 120.141,-66.4839 123,-65.6985 213.045,-40.9633 242.21,-61.524 330,-29.6985 330.871,-29.3829 331.746,-29.0364 332.62,-28.6655"/>
<polygon fill="green" stroke="green" stroke-width="0.134419" points="334.372,-31.7016 341.7,-24.05 331.2,-25.4616 334.372,-31.7016"/>
</g>
<!-- &#45;3 -->
<g id="node3" class="node"><title>&#45;3</title>
<polygon fill="lightgray" stroke="black" points="156,-83.6985 132,-83.6985 132,-65.6985 156,-65.6985 156,-83.6985"/>
<text text-anchor="middle" x="144" y="-72.4985" font-family="Times New Roman,serif" font-size="9.00">&#45;3</text>
</g>
<!-- &#45;3&#45;&gt;0 -->
<g id="edge12" class="edge"><title>&#45;3&#45;&gt;0</title>
<path fill="none" stroke="red" stroke-width="0.200078" d="M146.503,-65.6548C148.659,-58.7238 151.882,-48.3678 154.83,-38.8914"/>
<polygon fill="red" stroke="red" stroke-width="0.200078" points="158.23,-39.7457 157.859,-29.1573 151.546,-37.6659 158.23,-39.7457"/>
</g>
<!-- &#45;3&#45;&gt;1 -->
<g id="edge13" class="edge"><title>&#45;3&#45;&gt;1</title>
<path fill="none" stroke="green" stroke-width="0.374843" d="M153.177,-65.6548C163.056,-56.996 179.034,-42.9914 191.534,-32.0346"/>
<polygon fill="green" stroke="green" stroke-width="0.374843" points="193.934,-34.5849 199.148,-25.3614 189.32,-29.3208 193.934,-34.5849"/>
</g>
<!-- &#45;3&#45;&gt;2 -->
<g id="edge14" class="edge"><title>&#45;3&#45;&gt;2</title>
<path fill="none" stroke="green" stroke-width="0.311297" d="M156.07,-68.1206C173.466,-60.0085 206.517,-44.324 234,-29.6985 234.817,-29.2634 235.648,-28.8155 236.484,-28.3591"/>
<polygon fill="green" stroke="green" stroke-width="0.311297" points="238.391,-31.302 245.386,-23.3446 234.956,-25.203 238.391,-31.302"/>
</g>
<!-- &#45;3&#45;&gt;3 -->
<g id="edge15" class="edge"><title>&#45;3&#45;&gt;3</title>
<path fill="none" stroke="red" stroke-width="0.322922" d="M156.388,-68.8253C159.206,-67.7596 162.196,-66.6628 165,-65.6985 216.448,-48.0049 232.124,-51.4319 282,-29.6985 282.849,-29.3286 283.706,-28.936 284.565,-28.5262"/>
<polygon fill="red" stroke="red" stroke-width="0.322922" points="286.391,-31.5191 293.572,-23.7292 283.101,-25.3407 286.391,-31.5191"/>
</g>
<!-- &#45;3&#45;&gt;4 -->
<g id="edge16" class="edge"><title>&#45;3&#45;&gt;4</title>
<path fill="none" stroke="green" stroke-width="0.4307" d="M139.829,-65.6548C136.022,-58.3144 130.223,-47.1324 125.084,-37.2221"/>
<polygon fill="green" stroke="green" stroke-width="0.4307" points="128.156,-35.5431 120.445,-28.2771 121.942,-38.7657 128.156,-35.5431"/>
</g>
<!-- &#45;3&#45;&gt;5 -->
<g id="edge17" class="edge"><title>&#45;3&#45;&gt;5</title>
<path fill="none" stroke="green" stroke-width="0.334101" d="M156.332,-68.6501C159.153,-67.5935 162.158,-66.5446 165,-65.6985 236.937,-44.2787 259.996,-56.7775 330,-29.6985 330.864,-29.3644 331.733,-29.0022 332.603,-28.6181"/>
<polygon fill="green" stroke="green" stroke-width="0.334101" points="334.38,-31.6394 341.659,-23.9409 331.168,-25.4199 334.38,-31.6394"/>
</g>
<!-- &#45;4 -->
<g id="node4" class="node"><title>&#45;4</title>
<polygon fill="lightgray" stroke="black" points="198,-83.6985 174,-83.6985 174,-65.6985 198,-65.6985 198,-83.6985"/>
<text text-anchor="middle" x="186" y="-72.4985" font-family="Times New Roman,serif" font-size="9.00">&#45;4</text>
</g>
<!-- &#45;4&#45;&gt;0 -->
<g id="edge18" class="edge"><title>&#45;4&#45;&gt;0</title>
<path fill="none" stroke="red" stroke-width="0.117623" d="M182.663,-65.6548C179.719,-58.5579 175.285,-47.8701 171.278,-38.2124"/>
<polygon fill="red" stroke="red" stroke-width="0.117623" points="174.402,-36.6102 167.338,-28.7148 167.937,-39.2927 174.402,-36.6102"/>
</g>
<!-- &#45;4&#45;&gt;1 -->
<g id="edge19" class="edge"><title>&#45;4&#45;&gt;1</title>
<path fill="none" stroke="green" stroke-width="0.212304" d="M189.337,-65.6548C192.281,-58.5579 196.715,-47.8701 200.722,-38.2124"/>
<polygon fill="green" stroke="green" stroke-width="0.212304" points="204.063,-39.2927 204.662,-28.7148 197.598,-36.6102 204.063,-39.2927"/>
</g>
<!-- &#45;4&#45;&gt;2 -->
<g id="edge20" class="edge"><title>&#45;4&#45;&gt;2</title>
<path fill="none" stroke="green" stroke-width="0.157879" d="M196.011,-65.6548C207.019,-56.8107 224.968,-42.3896 238.726,-31.3354"/>
<polygon fill="green" stroke="green" stroke-width="0.157879" points="241.048,-33.9596 246.651,-24.9678 236.663,-28.5028 241.048,-33.9596"/>
</g>
<!-- &#45;4&#45;&gt;3 -->
<g id="edge21" class="edge"><title>&#45;4&#45;&gt;3</title>
<path fill="none" stroke="green" stroke-width="0.268693" d="M198.299,-68.5014C216.733,-60.6133 252.513,-44.9212 282,-29.6985 282.823,-29.2737 283.658,-28.8344 284.498,-28.3854"/>
<polygon fill="green" stroke="green" stroke-width="0.268693" points="286.393,-31.336 293.418,-23.4051 282.981,-25.224 286.393,-31.336"/>
</g>
<!-- &#45;4&#45;&gt;4 -->
<g id="edge22" class="edge"><title>&#45;4&#45;&gt;4</title>
<path fill="none" stroke="red" stroke-width="0.290439" d="M175.989,-65.6548C164.981,-56.8107 147.032,-42.3896 133.274,-31.3354"/>
<polygon fill="red" stroke="red" stroke-width="0.290439" points="135.337,-28.5028 125.349,-24.9678 130.952,-33.9596 135.337,-28.5028"/>
</g>
<!-- &#45;4&#45;&gt;5 -->
<g id="edge23" class="edge"><title>&#45;4&#45;&gt;5</title>
<path fill="none" stroke="green" stroke-width="0.597715" d="M198.378,-68.7966C201.197,-67.7324 204.19,-66.6434 207,-65.6985 260.99,-47.5455 277.627,-52.0922 330,-29.6985 330.851,-29.3344 331.711,-28.9468 332.571,-28.5412"/>
<polygon fill="green" stroke="green" stroke-width="0.597715" points="334.39,-31.5387 341.587,-23.7638 331.112,-25.3534 334.39,-31.5387"/>
</g>
<!-- &#45;5 -->
<g id="node5" class="node"><title>&#45;5</title>
<polygon fill="lightgray" stroke="black" points="240,-83.6985 216,-83.6985 216,-65.6985 240,-65.6985 240,-83.6985"/>
<text text-anchor="middle" x="228" y="-72.4985" font-family="Times New Roman,serif" font-size="9.00">&#45;5</text>
</g>
<!-- &#45;5&#45;&gt;0 -->
<g id="edge24" class="edge"><title>&#45;5&#45;&gt;0</title>
<path fill="none" stroke="red" stroke-width="0.434684" d="M218.823,-65.6548C208.944,-56.996 192.966,-42.9914 180.466,-32.0346"/>
<polygon fill="red" stroke="red" stroke-width="0.434684" points="182.68,-29.3208 172.852,-25.3614 178.066,-34.5849 182.68,-29.3208"/>
</g>
<!-- &#45;5&#45;&gt;1 -->
<g id="edge25" class="edge"><title>&#45;5&#45;&gt;1</title>
<path fill="none" stroke="red" stroke-width="0.440614" d="M225.497,-65.6548C223.341,-58.7238 220.118,-48.3678 217.17,-38.8914"/>
<polygon fill="red" stroke="red" stroke-width="0.440614" points="220.454,-37.6659 214.141,-29.1573 213.77,-39.7457 220.454,-37.6659"/>
</g>
<!-- &#45;5&#45;&gt;2 -->
<g id="edge26" class="edge"><title>&#45;5&#45;&gt;2</title>
<path fill="none" stroke="green" stroke-width="0.436789" d="M232.171,-65.6548C235.978,-58.3144 241.777,-47.1324 246.916,-37.2221"/>
<polygon fill="green" stroke="green" stroke-width="0.436789" points="250.058,-38.7657 251.555,-28.2771 243.844,-35.5431 250.058,-38.7657"/>
</g>
<!-- &#45;5&#45;&gt;3 -->
<g id="edge27" class="edge"><title>&#45;5&#45;&gt;3</title>
<path fill="none" stroke="green" stroke-width="0.189614" d="M238.846,-65.6548C251.093,-56.5715 271.272,-41.6056 286.318,-30.4463"/>
<polygon fill="green" stroke="green" stroke-width="0.189614" points="288.538,-33.1573 294.486,-24.389 284.369,-27.5348 288.538,-33.1573"/>
</g>
<!-- &#45;5&#45;&gt;4 -->
<g id="edge28" class="edge"><title>&#45;5&#45;&gt;4</title>
<path fill="none" stroke="red" stroke-width="0.387722" d="M215.93,-68.1206C198.534,-60.0085 165.483,-44.324 138,-29.6985 137.183,-29.2634 136.352,-28.8155 135.516,-28.3591"/>
<polygon fill="red" stroke="red" stroke-width="0.387722" points="137.044,-25.203 126.614,-23.3446 133.609,-31.302 137.044,-25.203"/>
</g>
<!-- &#45;5&#45;&gt;5 -->
<g id="edge29" class="edge"><title>&#45;5&#45;&gt;5</title>
<path fill="none" stroke="green" stroke-width="0.198418" d="M240.141,-68.9933C259.468,-61.3854 298.287,-45.6211 330,-29.6985 330.828,-29.283 331.666,-28.8516 332.51,-28.4092"/>
<polygon fill="green" stroke="green" stroke-width="0.198418" points="334.394,-31.3668 341.446,-23.4599 331.002,-25.2433 334.394,-31.3668"/>
</g>
<!-- &#45;6 -->
<g id="node6" class="node"><title>&#45;6</title>
<polygon fill="lightgray" stroke="black" points="282,-83.6985 258,-83.6985 258,-65.6985 282,-65.6985 282,-83.6985"/>
<text text-anchor="middle" x="270" y="-72.4985" font-family="Times New Roman,serif" font-size="9.00">&#45;6</text>
</g>
<!-- &#45;6&#45;&gt;0 -->
<g id="edge30" class="edge"><title>&#45;6&#45;&gt;0</title>
<path fill="none" stroke="green" stroke-width="0.277648" d="M257.955,-67.585C241.57,-59.2241 211.387,-43.6645 186,-29.6985 185.189,-29.2521 184.364,-28.7946 183.531,-28.3301"/>
<polygon fill="green" stroke="green" stroke-width="0.277648" points="185.072,-25.18 174.65,-23.2778 181.611,-31.2645 185.072,-25.18"/>
</g>
<!-- &#45;6&#45;&gt;1 -->
<g id="edge31" class="edge"><title>&#45;6&#45;&gt;1</title>
<path fill="none" stroke="red" stroke-width="0.362644" d="M261.657,-65.6548C252.867,-57.1793 238.764,-43.5822 227.513,-32.7347"/>
<polygon fill="red" stroke="red" stroke-width="0.362644" points="229.909,-30.1823 220.28,-25.761 225.05,-35.2215 229.909,-30.1823"/>
</g>
<!-- &#45;6&#45;&gt;2 -->
<g id="edge32" class="edge"><title>&#45;6&#45;&gt;2</title>
<path fill="none" stroke="red" stroke-width="0.238287" d="M268.331,-65.6548C266.928,-58.8878 264.847,-48.8559 262.92,-39.5653"/>
<polygon fill="red" stroke="red" stroke-width="0.238287" points="266.312,-38.6852 260.853,-29.6046 259.457,-40.107 266.312,-38.6852"/>
</g>
<!-- &#45;6&#45;&gt;3 -->
<g id="edge33" class="edge"><title>&#45;6&#45;&gt;3</title>
<path fill="none" stroke="green" stroke-width="0.124832" d="M275.006,-65.6548C279.68,-58.1437 286.857,-46.6101 293.129,-36.5326"/>
<polygon fill="green" stroke="green" stroke-width="0.124832" points="296.223,-38.1839 298.535,-27.8444 290.28,-34.4854 296.223,-38.1839"/>
</g>
<!-- &#45;6&#45;&gt;4 -->
<g id="edge34" class="edge"><title>&#45;6&#45;&gt;4</title>
<path fill="none" stroke="red" stroke-width="0.190972" d="M257.601,-68.8567C254.783,-67.7894 251.797,-66.6839 249,-65.6985 200.085,-48.4615 185.387,-50.775 138,-29.6985 137.154,-29.3222 136.299,-28.9241 135.442,-28.5097"/>
<polygon fill="red" stroke="red" stroke-width="0.190972" points="136.912,-25.3267 126.444,-23.6914 133.608,-31.4976 136.912,-25.3267"/>
</g>
<!-- &#45;6&#45;&gt;5 -->
<g id="edge35" class="edge"><title>&#45;6&#45;&gt;5</title>
<path fill="none" stroke="red" stroke-width="0.264736" d="M281.68,-65.6548C295.145,-56.3818 317.512,-40.978 333.812,-29.7523"/>
<polygon fill="red" stroke="red" stroke-width="0.264736" points="335.898,-32.5656 342.149,-24.0111 331.927,-26.8005 335.898,-32.5656"/>
</g>
<!-- &#45;7 -->
<g id="node7" class="node"><title>&#45;7</title>
<polygon fill="lightgray" stroke="black" points="324,-83.6985 300,-83.6985 300,-65.6985 324,-65.6985 324,-83.6985"/>
<text text-anchor="middle" x="312" y="-72.4985" font-family="Times New Roman,serif" font-size="9.00">&#45;7</text>
</g>
<!-- &#45;7&#45;&gt;0 -->
<g id="edge36" class="edge"><title>&#45;7&#45;&gt;0</title>
<path fill="none" stroke="green" stroke-width="0.137755" d="M299.589,-68.8912C296.772,-67.8221 293.788,-66.7072 291,-65.6985 244.609,-48.9149 230.907,-50.1221 186,-29.6985 185.157,-29.3151 184.305,-28.9111 183.45,-28.4917"/>
<polygon fill="green" stroke="green" stroke-width="0.137755" points="184.927,-25.3115 174.463,-23.6498 181.607,-31.4741 184.927,-25.3115"/>
</g>
<!-- &#45;7&#45;&gt;1 -->
<g id="edge37" class="edge"><title>&#45;7&#45;&gt;1</title>
<path fill="none" stroke="green" stroke-width="0.24786" d="M299.82,-66.876C284.453,-58.2577 257.227,-42.951 234,-29.6985 233.196,-29.2396 232.377,-28.7714 231.55,-28.2978"/>
<polygon fill="green" stroke="green" stroke-width="0.24786" points="233.105,-25.1548 222.691,-23.2036 229.615,-31.223 233.105,-25.1548"/>
</g>
<!-- &#45;7&#45;&gt;2 -->
<g id="edge38" class="edge"><title>&#45;7&#45;&gt;2</title>
<path fill="none" stroke="green" stroke-width="0.331148" d="M304.492,-65.6548C296.825,-57.4413 284.668,-44.4177 274.708,-33.7481"/>
<polygon fill="green" stroke="green" stroke-width="0.331148" points="277.013,-31.0883 267.631,-26.1665 271.896,-35.8649 277.013,-31.0883"/>
</g>
<!-- &#45;7&#45;&gt;3 -->
<g id="edge39" class="edge"><title>&#45;7&#45;&gt;3</title>
<path fill="none" stroke="red" stroke-width="0.243427" d="M311.166,-65.6548C310.481,-59.0498 309.473,-49.3344 308.529,-40.2339"/>
<polygon fill="red" stroke="red" stroke-width="0.243427" points="311.987,-39.6419 307.474,-30.0563 305.024,-40.3641 311.987,-39.6419"/>
</g>
<!-- &#45;7&#45;&gt;4 -->
<g id="edge40" class="edge"><title>&#45;7&#45;&gt;4</title>
<path fill="none" stroke="red" stroke-width="0.163066" d="M299.658,-68.6843C296.837,-67.626 293.835,-66.5677 291,-65.6985 224.212,-45.2189 202.945,-55.4303 138,-29.6985 137.139,-29.3574 136.272,-28.9893 135.404,-28.6001"/>
<polygon fill="red" stroke="red" stroke-width="0.163066" points="136.844,-25.4042 126.357,-23.8994 133.617,-31.6158 136.844,-25.4042"/>
</g>
<!-- &#45;7&#45;&gt;5 -->
<g id="edge41" class="edge"><title>&#45;7&#45;&gt;5</title>
<path fill="none" stroke="green" stroke-width="0.111538" d="M317.84,-65.6548C323.475,-57.8934 332.228,-45.8369 339.711,-35.5302"/>
<polygon fill="green" stroke="green" stroke-width="0.111538" points="342.559,-37.5653 345.602,-27.4169 336.894,-33.4527 342.559,-37.5653"/>
</g>
<!-- &#45;8 -->
<g id="node8" class="node"><title>&#45;8</title>
<polygon fill="lightgray" stroke="black" points="366,-83.6985 342,-83.6985 342,-65.6985 366,-65.6985 366,-83.6985"/>
<text text-anchor="middle" x="354" y="-72.4985" font-family="Times New Roman,serif" font-size="9.00">&#45;8</text>
</g>
<!-- &#45;8&#45;&gt;0 -->
<g id="edge42" class="edge"><title>&#45;8&#45;&gt;0</title>
<path fill="none" stroke="green" stroke-width="0.27514" d="M341.652,-68.7034C338.832,-67.644 335.831,-66.5806 333,-65.6985 268.782,-45.6873 248.421,-54.7588 186,-29.6985 185.141,-29.3535 184.275,-28.982 183.408,-28.5901"/>
<polygon fill="green" stroke="green" stroke-width="0.27514" points="184.852,-25.3955 174.366,-23.8764 181.616,-31.6027 184.852,-25.3955"/>
</g>
<!-- &#45;8&#45;&gt;1 -->
<g id="edge43" class="edge"><title>&#45;8&#45;&gt;1</title>
<path fill="none" stroke="red" stroke-width="0.16787" d="M341.575,-68.9293C338.758,-67.8583 335.779,-66.7329 333,-65.6985 289.123,-49.3644 276.437,-49.474 234,-29.6985 233.161,-29.3073 232.312,-28.8967 231.46,-28.4717"/>
<polygon fill="red" stroke="red" stroke-width="0.16787" points="232.943,-25.2948 222.484,-23.6039 229.606,-31.4481 232.943,-25.2948"/>
</g>
<!-- &#45;8&#45;&gt;2 -->
<g id="edge44" class="edge"><title>&#45;8&#45;&gt;2</title>
<path fill="none" stroke="green" stroke-width="0.100507" d="M341.842,-66.3718C326.059,-56.8613 298.266,-40.1132 279.029,-28.5212"/>
<polygon fill="green" stroke="green" stroke-width="0.100507" points="280.735,-25.4627 270.363,-23.2991 277.122,-31.4583 280.735,-25.4627"/>
</g>
<!-- &#45;8&#45;&gt;3 -->
<g id="edge45" class="edge"><title>&#45;8&#45;&gt;3</title>
<path fill="none" stroke="green" stroke-width="0.226" d="M347.326,-65.6548C340.74,-57.7178 330.428,-45.2891 321.752,-34.8334"/>
<polygon fill="green" stroke="green" stroke-width="0.226" points="324.327,-32.4555 315.248,-26.9946 318.94,-36.9253 324.327,-32.4555"/>
</g>
<!-- &#45;8&#45;&gt;4 -->
<g id="edge46" class="edge"><title>&#45;8&#45;&gt;4</title>
<path fill="none" stroke="green" stroke-width="0.138417" d="M341.688,-68.5819C338.866,-67.5289 335.855,-66.4987 333,-65.6985 248.139,-41.9135 220.698,-60.164 138,-29.6985 137.131,-29.3784 136.257,-29.0281 135.384,-28.654"/>
<polygon fill="green" stroke="green" stroke-width="0.138417" points="136.808,-25.4513 126.31,-24.0234 133.626,-31.6864 136.808,-25.4513"/>
</g>
<!-- &#45;8&#45;&gt;5 -->
<g id="edge47" class="edge"><title>&#45;8&#45;&gt;5</title>
<path fill="none" stroke="green" stroke-width="0.297416" d="M354,-65.6548C354,-59.0498 354,-49.3344 354,-40.2339"/>
<polygon fill="green" stroke="green" stroke-width="0.297416" points="357.5,-40.0563 354,-30.0563 350.5,-40.0564 357.5,-40.0563"/>
</g>
<!-- &#45;9 -->
<g id="node9" class="node"><title>&#45;9</title>
<polygon fill="lightgray" stroke="black" points="408,-83.6985 384,-83.6985 384,-65.6985 408,-65.6985 408,-83.6985"/>
<text text-anchor="middle" x="396" y="-72.4985" font-family="Times New Roman,serif" font-size="9.00">&#45;9</text>
</g>
<!-- &#45;9&#45;&gt;0 -->
<g id="edge48" class="edge"><title>&#45;9&#45;&gt;0</title>
<path fill="none" stroke="green" stroke-width="0.117525" d="M383.685,-68.5939C380.863,-67.5402 377.853,-66.5068 375,-65.6985 292.728,-42.3879 266.155,-59.485 186,-29.6985 185.132,-29.3759 184.259,-29.0235 183.386,-28.6477"/>
<polygon fill="green" stroke="green" stroke-width="0.117525" points="184.812,-25.4458 174.315,-24.0089 181.625,-31.6781 184.812,-25.4458"/>
</g>
<!-- &#45;9&#45;&gt;1 -->
<g id="edge49" class="edge"><title>&#45;9&#45;&gt;1</title>
<path fill="none" stroke="green" stroke-width="0.166366" d="M383.646,-68.724C380.826,-67.6635 377.826,-66.5945 375,-65.6985 313.347,-46.1544 293.902,-54.089 234,-29.6985 233.142,-29.3493 232.278,-28.9742 231.413,-28.5793"/>
<polygon fill="green" stroke="green" stroke-width="0.166366" points="232.859,-25.3861 222.376,-23.8515 229.614,-31.5885 232.859,-25.3861"/>
</g>
<!-- &#45;9&#45;&gt;2 -->
<g id="edge50" class="edge"><title>&#45;9&#45;&gt;2</title>
<path fill="none" stroke="red" stroke-width="0.172114" d="M383.989,-69.1201C355.694,-58.3269 286.857,-32.0199 282,-29.6985 281.164,-29.2991 280.319,-28.8815 279.47,-28.4507"/>
<polygon fill="red" stroke="red" stroke-width="0.172114" points="280.961,-25.2774 270.507,-23.5555 277.606,-31.4207 280.961,-25.2774"/>
</g>
<!-- &#45;9&#45;&gt;3 -->
<g id="edge51" class="edge"><title>&#45;9&#45;&gt;3</title>
<path fill="none" stroke="green" stroke-width="0.172647" d="M383.862,-65.8967C369.235,-56.4946 344.422,-40.5455 326.738,-29.1793"/>
<polygon fill="green" stroke="green" stroke-width="0.172647" points="328.538,-26.175 318.233,-23.7122 324.753,-32.0635 328.538,-26.175"/>
</g>
<!-- &#45;9&#45;&gt;4 -->
<g id="edge52" class="edge"><title>&#45;9&#45;&gt;4</title>
<path fill="none" stroke="red" stroke-width="0.133346" d="M383.706,-68.5144C380.883,-67.4649 377.867,-66.4532 375,-65.6985 271.967,-38.5803 238.547,-64.9333 138,-29.6985 137.126,-29.3922 136.248,-29.0537 135.371,-28.6895"/>
<polygon fill="red" stroke="red" stroke-width="0.133346" points="136.785,-25.4829 126.28,-24.1053 133.633,-31.7331 136.785,-25.4829"/>
</g>
<!-- &#45;9&#45;&gt;5 -->
<g id="edge53" class="edge"><title>&#45;9&#45;&gt;5</title>
<path fill="none" stroke="red" stroke-width="0.180642" d="M390.16,-65.6548C384.525,-57.8934 375.772,-45.8369 368.289,-35.5302"/>
<polygon fill="red" stroke="red" stroke-width="0.180642" points="371.106,-33.4527 362.398,-27.4169 365.441,-37.5653 371.106,-33.4527"/>
</g>
<!-- &#45;10 -->
<g id="node10" class="node"><title>&#45;10</title>
<polygon fill="lightgray" stroke="black" points="455.5,-83.6985 426.5,-83.6985 426.5,-65.6985 455.5,-65.6985 455.5,-83.6985"/>
<text text-anchor="middle" x="441" y="-72.4985" font-family="Times New Roman,serif" font-size="9.00">&#45;10</text>
</g>
<!-- &#45;10&#45;&gt;0 -->
<g id="edge54" class="edge"><title>&#45;10&#45;&gt;0</title>
<path fill="none" stroke="red" stroke-width="0.296241" d="M426.39,-68.3972C423.316,-67.4038 420.073,-66.4446 417,-65.6985 316.027,-41.1839 283.993,-64.2506 186,-29.6985 185.127,-29.3905 184.249,-29.0506 183.372,-28.6852"/>
<polygon fill="red" stroke="red" stroke-width="0.296241" points="184.788,-25.479 174.284,-24.0953 181.632,-31.7275 184.788,-25.479"/>
</g>
<!-- &#45;10&#45;&gt;1 -->
<g id="edge55" class="edge"><title>&#45;10&#45;&gt;1</title>
<path fill="none" stroke="red" stroke-width="0.215535" d="M426.366,-68.4914C423.294,-67.4911 420.058,-66.5053 417,-65.6985 336.851,-44.5491 311.613,-58.8068 234,-29.6985 233.133,-29.3733 232.261,-29.0187 231.389,-28.641"/>
<polygon fill="red" stroke="red" stroke-width="0.215535" points="232.816,-25.4399 222.321,-23.9935 229.624,-31.6694 232.816,-25.4399"/>
</g>
<!-- &#45;10&#45;&gt;2 -->
<g id="edge56" class="edge"><title>&#45;10&#45;&gt;2</title>
<path fill="none" stroke="red" stroke-width="0.22558" d="M426.322,-68.6479C423.253,-67.6363 420.029,-66.6063 417,-65.6985 357.517,-47.8718 339.387,-53.4211 282,-29.6985 281.144,-29.3447 280.281,-28.9658 279.417,-28.5676"/>
<polygon fill="red" stroke="red" stroke-width="0.22558" points="280.868,-25.3761 270.387,-23.8246 277.613,-31.5733 280.868,-25.3761"/>
</g>
<!-- &#45;10&#45;&gt;3 -->
<g id="edge57" class="edge"><title>&#45;10&#45;&gt;3</title>
<path fill="none" stroke="red" stroke-width="0.158628" d="M426.342,-68.6619C404.822,-61.0957 363.592,-45.9414 330,-29.6985 329.166,-29.2954 328.322,-28.8746 327.474,-28.441"/>
<polygon fill="red" stroke="red" stroke-width="0.158628" points="328.969,-25.2694 318.518,-23.5332 325.606,-31.4082 328.969,-25.2694"/>
</g>
<!-- &#45;10&#45;&gt;4 -->
<g id="edge58" class="edge"><title>&#45;10&#45;&gt;4</title>
<path fill="none" stroke="green" stroke-width="0.119251" d="M426.405,-68.3346C423.33,-67.3457 420.083,-66.4041 417,-65.6985 295.124,-37.7994 256.449,-69.7216 138,-29.6985 137.123,-29.402 136.242,-29.0719 135.362,-28.7147"/>
<polygon fill="green" stroke="green" stroke-width="0.119251" points="136.77,-25.5054 126.26,-24.1633 133.639,-31.7662 136.77,-25.5054"/>
</g>
<!-- &#45;10&#45;&gt;5 -->
<g id="edge59" class="edge"><title>&#45;10&#45;&gt;5</title>
<path fill="none" stroke="red" stroke-width="0.299249" d="M428.903,-65.6548C414.879,-56.3294 391.529,-40.8037 374.623,-29.5624"/>
<polygon fill="red" stroke="red" stroke-width="0.299249" points="376.259,-26.4472 365.994,-23.8246 372.383,-32.2762 376.259,-26.4472"/>
</g>
<!-- &#45;11 -->
<g id="node11" class="node"><title>&#45;11</title>
<polygon fill="lightgray" stroke="black" points="71.5,-83.6985 42.5,-83.6985 42.5,-65.6985 71.5,-65.6985 71.5,-83.6985"/>
<text text-anchor="middle" x="57" y="-72.4985" font-family="Times New Roman,serif" font-size="9.00">&#45;11</text>
</g>
<!-- &#45;11&#45;&gt;0 -->
<g id="edge60" class="edge"><title>&#45;11&#45;&gt;0</title>
<path fill="none" stroke="red" stroke-width="0.350247" d="M71.6951,-65.8627C87.9717,-57.1495 114.961,-42.6005 138,-29.6985 138.808,-29.246 139.63,-28.7833 140.46,-28.3144"/>
<polygon fill="red" stroke="red" stroke-width="0.350247" points="142.387,-31.2443 149.33,-23.2417 138.912,-25.1677 142.387,-31.2443"/>
</g>
<!-- &#45;11&#45;&gt;1 -->
<g id="edge61" class="edge"><title>&#45;11&#45;&gt;1</title>
<path fill="none" stroke="green" stroke-width="0.211666" d="M71.5549,-68.8186C104.149,-57.8789 180.586,-32.1555 186,-29.6985 186.843,-29.3158 187.695,-28.9123 188.55,-28.4934"/>
<polygon fill="green" stroke="green" stroke-width="0.211666" points="190.393,-31.4763 197.539,-23.6538 187.075,-25.313 190.393,-31.4763"/>
</g>
<!-- &#45;11&#45;&gt;2 -->
<g id="edge62" class="edge"><title>&#45;11&#45;&gt;2</title>
<path fill="none" stroke="red" stroke-width="0.595896" d="M71.6577,-68.5785C74.7284,-67.5719 77.9578,-66.5615 81,-65.6985 148.205,-46.6335 169.055,-55.4303 234,-29.6985 234.861,-29.3574 235.728,-28.9893 236.596,-28.6001"/>
<polygon fill="red" stroke="red" stroke-width="0.595896" points="238.383,-31.6158 245.643,-23.8994 235.156,-25.4042 238.383,-31.6158"/>
</g>
<!-- &#45;11&#45;&gt;3 -->
<g id="edge63" class="edge"><title>&#45;11&#45;&gt;3</title>
<path fill="none" stroke="red" stroke-width="0.194128" d="M71.6234,-68.451C74.6965,-67.4537 77.9356,-66.4793 81,-65.6985 168.945,-43.2904 196.757,-60.8437 282,-29.6985 282.87,-29.3807 283.745,-29.0324 284.618,-28.6599"/>
<polygon fill="red" stroke="red" stroke-width="0.194128" points="286.373,-31.6942 293.695,-24.0371 283.196,-25.4566 286.373,-31.6942"/>
</g>
<!-- &#45;11&#45;&gt;4 -->
<g id="edge64" class="edge"><title>&#45;11&#45;&gt;4</title>
<path fill="none" stroke="green" stroke-width="0.561685" d="M64.9256,-65.6548C73.0979,-57.3607 86.103,-44.1619 96.6724,-33.435"/>
<polygon fill="green" stroke="green" stroke-width="0.561685" points="99.3087,-35.7462 103.834,-26.1665 94.3225,-30.8332 99.3087,-35.7462"/>
</g>
<!-- &#45;11&#45;&gt;5 -->
<g id="edge65" class="edge"><title>&#45;11&#45;&gt;5</title>
<path fill="none" stroke="red" stroke-width="0.30799" d="M71.6037,-68.371C74.6783,-67.3794 77.9229,-66.4276 81,-65.6985 189.804,-39.9164 224.343,-66.2999 330,-29.6985 330.875,-29.3954 331.754,-29.0595 332.632,-28.6976"/>
<polygon fill="red" stroke="red" stroke-width="0.30799" points="334.365,-31.7437 341.726,-24.1238 331.22,-25.49 334.365,-31.7437"/>
</g>
</g>
</svg>
