<?xml version="1.0" encoding="UTF-8" standalone="no"?>
<!DOCTYPE svg PUBLIC "-//W3C//DTD SVG 1.1//EN"
 "http://www.w3.org/Graphics/SVG/1.1/DTD/svg11.dtd">
<!-- Generated by graphviz version 2.38.0 (20140413.2041)
 -->
<!-- Title: %3 Pages: 1 -->
<svg width="1074pt" height="92pt"
 viewBox="0.00 0.00 1074.00 91.70" xmlns="http://www.w3.org/2000/svg" xmlns:xlink="http://www.w3.org/1999/xlink">
<g id="graph0" class="graph" transform="scale(1 1) rotate(0) translate(4 87.6985)">
<title>%3</title>
<polygon fill="white" stroke="none" points="-4,4 -4,-87.6985 1070,-87.6985 1070,4 -4,4"/>
<!-- &#45;1 -->
<g id="node1" class="node"><title>&#45;1</title>
<polygon fill="lightgray" stroke="black" points="856,-83.6985 832,-83.6985 832,-65.6985 856,-65.6985 856,-83.6985"/>
<text text-anchor="middle" x="844" y="-72.4985" font-family="Times New Roman,serif" font-size="9.00">&#45;1</text>
</g>
<!-- 0 -->
<g id="node25" class="node"><title>0</title>
<ellipse fill="lightblue" stroke="black" cx="564" cy="-14.8492" rx="14.7" ry="14.7"/>
<text text-anchor="middle" x="564" y="-12.6492" font-family="Times New Roman,serif" font-size="9.00">0</text>
</g>
<!-- &#45;1&#45;&gt;0 -->
<g id="edge1" class="edge"><title>&#45;1&#45;&gt;0</title>
<path fill="none" stroke="red" stroke-width="0.181302" d="M831.706,-68.5171C828.882,-67.4674 825.867,-66.455 823,-65.6985 720.834,-38.7395 687.695,-64.7057 588,-29.6985 587.126,-29.3917 586.248,-29.0527 585.371,-28.6881"/>
<polygon fill="red" stroke="red" stroke-width="0.181302" points="586.786,-25.4816 576.281,-24.102 583.633,-31.7313 586.786,-25.4816"/>
</g>
<!-- 1 -->
<g id="node26" class="node"><title>1</title>
<ellipse fill="lightblue" stroke="black" cx="612" cy="-14.8492" rx="14.7" ry="14.7"/>
<text text-anchor="middle" x="612" y="-12.6492" font-family="Times New Roman,serif" font-size="9.00">1</text>
</g>
<!-- &#45;1&#45;&gt;1 -->
<g id="edge2" class="edge"><title>&#45;1&#45;&gt;1</title>
<path fill="none" stroke="red" stroke-width="0.369942" d="M831.657,-68.6862C828.837,-67.6278 825.834,-66.569 823,-65.6985 756.563,-45.2936 676.199,-28.391 636.558,-20.5534"/>
<polygon fill="red" stroke="red" stroke-width="0.369942" points="636.988,-17.0713 626.502,-18.5878 635.645,-23.9413 636.988,-17.0713"/>
</g>
<!-- 2 -->
<g id="node27" class="node"><title>2</title>
<ellipse fill="lightblue" stroke="black" cx="468" cy="-14.8492" rx="14.7" ry="14.7"/>
<text text-anchor="middle" x="468" y="-12.6492" font-family="Times New Roman,serif" font-size="9.00">2</text>
</g>
<!-- &#45;1&#45;&gt;2 -->
<g id="edge3" class="edge"><title>&#45;1&#45;&gt;2</title>
<path fill="none" stroke="green" stroke-width="0.263327" d="M831.729,-68.424C828.905,-67.3791 825.883,-66.3922 823,-65.6985 679.129,-31.0762 632.658,-75.665 492,-29.6985 491.12,-29.4108 490.236,-29.0881 489.355,-28.7373"/>
<polygon fill="green" stroke="green" stroke-width="0.263327" points="490.756,-25.5256 480.243,-24.2151 487.645,-31.7959 490.756,-25.5256"/>
</g>
<!-- 3 -->
<g id="node28" class="node"><title>3</title>
<ellipse fill="lightblue" stroke="black" cx="516" cy="-14.8492" rx="14.7" ry="14.7"/>
<text text-anchor="middle" x="516" y="-12.6492" font-family="Times New Roman,serif" font-size="9.00">3</text>
</g>
<!-- &#45;1&#45;&gt;3 -->
<g id="edge4" class="edge"><title>&#45;1&#45;&gt;3</title>
<path fill="none" stroke="red" stroke-width="0.193294" d="M831.72,-68.4628C828.896,-67.416 825.876,-66.4184 823,-65.6985 700.003,-34.9132 660.156,-70.1783 540,-29.6985 539.122,-29.4028 538.241,-29.0733 537.362,-28.7168"/>
<polygon fill="red" stroke="red" stroke-width="0.193294" points="538.769,-25.5072 528.259,-24.1679 535.639,-31.7689 538.769,-25.5072"/>
</g>
<!-- &#45;2 -->
<g id="node2" class="node"><title>&#45;2</title>
<polygon fill="lightgray" stroke="black" points="898,-83.6985 874,-83.6985 874,-65.6985 898,-65.6985 898,-83.6985"/>
<text text-anchor="middle" x="886" y="-72.4985" font-family="Times New Roman,serif" font-size="9.00">&#45;2</text>
</g>
<!-- &#45;2&#45;&gt;0 -->
<g id="edge5" class="edge"><title>&#45;2&#45;&gt;0</title>
<path fill="none" stroke="red" stroke-width="0.217316" d="M873.718,-68.4686C870.894,-67.4214 867.875,-66.4223 865,-65.6985 744.609,-35.3922 705.596,-69.4933 588,-29.6985 587.123,-29.4016 586.242,-29.0711 585.363,-28.7137"/>
<polygon fill="red" stroke="red" stroke-width="0.217316" points="586.77,-25.5044 576.261,-24.1609 583.639,-31.7649 586.77,-25.5044"/>
</g>
<!-- &#45;2&#45;&gt;1 -->
<g id="edge6" class="edge"><title>&#45;2&#45;&gt;1</title>
<path fill="none" stroke="green" stroke-width="0.245093" d="M873.681,-68.6073C870.859,-67.5529 867.85,-66.5158 865,-65.6985 782.904,-42.1573 682.668,-26.0195 636.917,-19.324"/>
<polygon fill="green" stroke="green" stroke-width="0.245093" points="637.149,-15.8214 626.752,-17.8616 636.152,-22.7501 637.149,-15.8214"/>
</g>
<!-- &#45;2&#45;&gt;2 -->
<g id="edge7" class="edge"><title>&#45;2&#45;&gt;2</title>
<path fill="none" stroke="green" stroke-width="0.171378" d="M873.735,-68.3981C870.911,-67.3545 867.887,-66.3747 865,-65.6985 702.841,-27.7134 650.62,-80.473 492,-29.6985 490.946,-29.3612 489.888,-28.9727 488.835,-28.5449"/>
<polygon fill="green" stroke="green" stroke-width="0.171378" points="490.244,-25.3358 479.739,-23.9569 487.091,-31.5857 490.244,-25.3358"/>
</g>
<!-- &#45;2&#45;&gt;3 -->
<g id="edge8" class="edge"><title>&#45;2&#45;&gt;3</title>
<path fill="none" stroke="green" stroke-width="0.115836" d="M873.728,-68.4282C870.904,-67.3831 867.882,-66.3951 865,-65.6985 723.74,-31.5562 678.094,-74.9786 540,-29.6985 539.12,-29.41 538.237,-29.0865 537.356,-28.735"/>
<polygon fill="green" stroke="green" stroke-width="0.115836" points="538.758,-25.5236 528.245,-24.21 535.644,-31.7929 538.758,-25.5236"/>
</g>
<!-- &#45;3 -->
<g id="node3" class="node"><title>&#45;3</title>
<polygon fill="lightgray" stroke="black" points="940,-83.6985 916,-83.6985 916,-65.6985 940,-65.6985 940,-83.6985"/>
<text text-anchor="middle" x="928" y="-72.4985" font-family="Times New Roman,serif" font-size="9.00">&#45;3</text>
</g>
<!-- &#45;3&#45;&gt;0 -->
<g id="edge9" class="edge"><title>&#45;3&#45;&gt;0</title>
<path fill="none" stroke="green" stroke-width="0.190581" d="M915.727,-68.4326C912.903,-67.3873 909.881,-66.398 907,-65.6985 768.35,-32.0362 723.53,-74.2924 588,-29.6985 587.12,-29.409 586.237,-29.0848 585.356,-28.7327"/>
<polygon fill="green" stroke="green" stroke-width="0.190581" points="586.759,-25.5215 576.246,-24.2046 583.643,-31.7899 586.759,-25.5215"/>
</g>
<!-- &#45;3&#45;&gt;1 -->
<g id="edge10" class="edge"><title>&#45;3&#45;&gt;1</title>
<path fill="none" stroke="green" stroke-width="0.536805" d="M915.697,-68.5498C912.874,-67.4984 909.861,-66.477 907,-65.6985 808.945,-39.0156 688.468,-24.002 637.109,-18.4058"/>
<polygon fill="green" stroke="green" stroke-width="0.536805" points="637.271,-14.9033 626.957,-17.3251 636.53,-21.864 637.271,-14.9033"/>
</g>
<!-- &#45;3&#45;&gt;2 -->
<g id="edge11" class="edge"><title>&#45;3&#45;&gt;2</title>
<path fill="none" stroke="green" stroke-width="0.241261" d="M915.74,-68.3773C912.915,-67.3349 909.89,-66.3607 907,-65.6985 726.54,-24.3473 668.595,-85.2855 492,-29.6985 490.945,-29.3663 489.885,-28.982 488.831,-28.5576"/>
<polygon fill="green" stroke="green" stroke-width="0.241261" points="490.238,-25.3476 479.731,-23.9821 487.093,-31.6015 490.238,-25.3476"/>
</g>
<!-- &#45;3&#45;&gt;3 -->
<g id="edge12" class="edge"><title>&#45;3&#45;&gt;3</title>
<path fill="none" stroke="green" stroke-width="0.52767" d="M915.735,-68.4014C912.91,-67.3577 909.886,-66.377 907,-65.6985 747.455,-28.194 696.053,-79.7859 540,-29.6985 538.946,-29.3603 537.889,-28.9712 536.836,-28.5429"/>
<polygon fill="green" stroke="green" stroke-width="0.52767" points="538.245,-25.3339 527.741,-23.9529 535.091,-31.5831 538.245,-25.3339"/>
</g>
<!-- &#45;4 -->
<g id="node4" class="node"><title>&#45;4</title>
<polygon fill="lightgray" stroke="black" points="982,-83.6985 958,-83.6985 958,-65.6985 982,-65.6985 982,-83.6985"/>
<text text-anchor="middle" x="970" y="-72.4985" font-family="Times New Roman,serif" font-size="9.00">&#45;4</text>
</g>
<!-- &#45;4&#45;&gt;0 -->
<g id="edge13" class="edge"><title>&#45;4&#45;&gt;0</title>
<path fill="none" stroke="green" stroke-width="0.130373" d="M957.734,-68.4049C954.909,-67.361 951.886,-66.3793 949,-65.6985 792.068,-28.6746 741.486,-79.0988 588,-29.6985 586.947,-29.3595 585.889,-28.9696 584.836,-28.5408"/>
<polygon fill="green" stroke="green" stroke-width="0.130373" points="586.246,-25.3319 575.742,-23.9487 583.091,-31.5805 586.246,-25.3319"/>
</g>
<!-- &#45;4&#45;&gt;1 -->
<g id="edge14" class="edge"><title>&#45;4&#45;&gt;1</title>
<path fill="none" stroke="green" stroke-width="0.321225" d="M957.709,-68.5061C954.885,-67.457 951.869,-66.4476 949,-65.6985 834.729,-35.86 693.681,-22.2408 637.158,-17.6929"/>
<polygon fill="green" stroke="green" stroke-width="0.321225" points="637.255,-14.1899 627.013,-16.9021 636.711,-21.1687 637.255,-14.1899"/>
</g>
<!-- &#45;4&#45;&gt;2 -->
<g id="edge15" class="edge"><title>&#45;4&#45;&gt;2</title>
<path fill="none" stroke="red" stroke-width="0.207663" d="M957.744,-68.3603C954.919,-67.3188 951.893,-66.3493 949,-65.6985 750.228,-20.9787 686.581,-90.1012 492,-29.6985 490.943,-29.3705 489.883,-28.9896 488.828,-28.568"/>
<polygon fill="red" stroke="red" stroke-width="0.207663" points="490.233,-25.3573 479.725,-24.0027 487.095,-31.6145 490.233,-25.3573"/>
</g>
<!-- &#45;4&#45;&gt;3 -->
<g id="edge16" class="edge"><title>&#45;4&#45;&gt;3</title>
<path fill="none" stroke="red" stroke-width="0.140914" d="M957.74,-68.38C954.915,-67.3374 951.89,-66.3626 949,-65.6985 771.155,-24.8283 714.027,-84.5978 540,-29.6985 538.945,-29.3656 537.886,-28.9808 536.831,-28.556"/>
<polygon fill="red" stroke="red" stroke-width="0.140914" points="538.239,-25.3461 527.732,-23.9788 535.093,-31.5994 538.239,-25.3461"/>
</g>
<!-- &#45;5 -->
<g id="node5" class="node"><title>&#45;5</title>
<polygon fill="lightgray" stroke="black" points="1024,-83.6985 1000,-83.6985 1000,-65.6985 1024,-65.6985 1024,-83.6985"/>
<text text-anchor="middle" x="1012" y="-72.4985" font-family="Times New Roman,serif" font-size="9.00">&#45;5</text>
</g>
<!-- &#45;5&#45;&gt;0 -->
<g id="edge17" class="edge"><title>&#45;5&#45;&gt;0</title>
<path fill="none" stroke="red" stroke-width="0.16862" d="M999.739,-68.3828C996.914,-67.3401 993.889,-66.3645 991,-65.6985 815.77,-25.3093 759.458,-83.9102 588,-29.6985 586.945,-29.3649 585.886,-28.9795 584.832,-28.5543"/>
<polygon fill="red" stroke="red" stroke-width="0.16862" points="586.24,-25.3445 575.734,-23.9754 583.093,-31.5973 586.24,-25.3445"/>
</g>
<!-- &#45;5&#45;&gt;1 -->
<g id="edge18" class="edge"><title>&#45;5&#45;&gt;1</title>
<path fill="none" stroke="red" stroke-width="0.217588" d="M999.717,-68.4719C996.894,-67.4246 993.875,-66.4245 991,-65.6985 860.461,-32.7308 698.802,-20.7091 637.327,-17.1393"/>
<polygon fill="red" stroke="red" stroke-width="0.217588" points="637.223,-13.6282 627.044,-16.568 636.835,-20.6174 637.223,-13.6282"/>
</g>
<!-- &#45;5&#45;&gt;2 -->
<g id="edge19" class="edge"><title>&#45;5&#45;&gt;2</title>
<path fill="none" stroke="red" stroke-width="0.147963" d="M999.747,-68.3462C996.922,-67.3054 993.895,-66.3398 991,-65.6985 773.908,-17.6085 704.574,-94.9193 492,-29.6985 490.942,-29.3739 489.881,-28.9959 488.825,-28.5767"/>
<polygon fill="red" stroke="red" stroke-width="0.147963" points="490.229,-25.3654 479.72,-24.0199 487.096,-31.6253 490.229,-25.3654"/>
</g>
<!-- &#45;5&#45;&gt;3 -->
<g id="edge20" class="edge"><title>&#45;5&#45;&gt;3</title>
<path fill="none" stroke="green" stroke-width="0.440204" d="M999.743,-68.3626C996.918,-67.3209 993.892,-66.3508 991,-65.6985 794.845,-21.4601 732.011,-89.4131 540,-29.6985 538.943,-29.3699 537.883,-28.9886 536.828,-28.5666"/>
<polygon fill="green" stroke="green" stroke-width="0.440204" points="538.234,-25.356 527.726,-24 535.094,-31.6128 538.234,-25.356"/>
</g>
<!-- &#45;6 -->
<g id="node6" class="node"><title>&#45;6</title>
<polygon fill="lightgray" stroke="black" points="1066,-83.6985 1042,-83.6985 1042,-65.6985 1066,-65.6985 1066,-83.6985"/>
<text text-anchor="middle" x="1054" y="-72.4985" font-family="Times New Roman,serif" font-size="9.00">&#45;6</text>
</g>
<!-- &#45;6&#45;&gt;0 -->
<g id="edge21" class="edge"><title>&#45;6&#45;&gt;0</title>
<path fill="none" stroke="green" stroke-width="0.181175" d="M1041.74,-68.3649C1038.92,-67.3231 1035.89,-66.3524 1033,-65.6985 839.461,-21.9414 777.441,-88.725 588,-29.6985 586.944,-29.3693 585.883,-28.9876 584.828,-28.5652"/>
<polygon fill="green" stroke="green" stroke-width="0.181175" points="586.234,-25.3547 575.727,-23.9972 583.094,-31.611 586.234,-25.3547"/>
</g>
<!-- &#45;6&#45;&gt;1 -->
<g id="edge22" class="edge"><title>&#45;6&#45;&gt;1</title>
<path fill="none" stroke="green" stroke-width="0.277363" d="M1041.72,-68.4443C1038.9,-67.3984 1035.88,-66.4059 1033,-65.6985 886.043,-29.5926 703.578,-19.3284 637.436,-16.6864"/>
<polygon fill="green" stroke="green" stroke-width="0.277363" points="637.278,-13.1781 627.154,-16.3009 637.015,-20.1732 637.278,-13.1781"/>
</g>
<!-- &#45;6&#45;&gt;2 -->
<g id="edge23" class="edge"><title>&#45;6&#45;&gt;2</title>
<path fill="none" stroke="green" stroke-width="0.28445" d="M1041.75,-68.3342C1038.92,-67.294 1035.9,-66.3317 1033,-65.6985 797.583,-14.2369 722.573,-99.7392 492,-29.6985 490.941,-29.3769 489.879,-29.0013 488.823,-28.584"/>
<polygon fill="green" stroke="green" stroke-width="0.28445" points="490.225,-25.3723 479.715,-24.0344 487.097,-31.6344 490.225,-25.3723"/>
</g>
<!-- &#45;6&#45;&gt;3 -->
<g id="edge24" class="edge"><title>&#45;6&#45;&gt;3</title>
<path fill="none" stroke="green" stroke-width="0.172186" d="M1041.75,-68.3481C1038.92,-67.3071 1035.89,-66.341 1033,-65.6985 818.526,-18.09 750.003,-94.2309 540,-29.6985 538.942,-29.3735 537.881,-28.9951 536.825,-28.5755"/>
<polygon fill="green" stroke="green" stroke-width="0.172186" points="538.229,-25.3643 527.72,-24.0176 535.096,-31.6238 538.229,-25.3643"/>
</g>
<!-- &#45;7 -->
<g id="node7" class="node"><title>&#45;7</title>
<polygon fill="lightgray" stroke="black" points="24,-83.6985 0,-83.6985 0,-65.6985 24,-65.6985 24,-83.6985"/>
<text text-anchor="middle" x="12" y="-72.4985" font-family="Times New Roman,serif" font-size="9.00">&#45;7</text>
</g>
<!-- &#45;7&#45;&gt;0 -->
<g id="edge25" class="edge"><title>&#45;7&#45;&gt;0</title>
<path fill="none" stroke="green" stroke-width="0.110156" d="M24.2523,-68.3438C27.0777,-67.3031 30.1047,-66.3381 33,-65.6985 253.582,-16.9664 323.998,-95.8372 540,-29.6985 541.058,-29.3745 542.12,-28.997 543.176,-28.5782"/>
<polygon fill="green" stroke="green" stroke-width="0.110156" points="544.904,-31.6271 552.281,-24.0228 541.772,-25.3668 544.904,-31.6271"/>
</g>
<!-- &#45;7&#45;&gt;1 -->
<g id="edge26" class="edge"><title>&#45;7&#45;&gt;1</title>
<path fill="none" stroke="red" stroke-width="0.179151" d="M24.2494,-68.3306C27.075,-67.2906 30.1028,-66.3293 33,-65.6985 274.527,-13.1128 351.426,-101.346 588,-29.6985 589.059,-29.3778 590.121,-29.0029 591.178,-28.5862"/>
<polygon fill="red" stroke="red" stroke-width="0.179151" points="592.903,-31.6372 600.286,-24.0387 589.776,-25.3744 592.903,-31.6372"/>
</g>
<!-- &#45;7&#45;&gt;2 -->
<g id="edge27" class="edge"><title>&#45;7&#45;&gt;2</title>
<path fill="none" stroke="red" stroke-width="0.33689" d="M24.2738,-68.4363C27.0981,-67.3908 30.1192,-66.4005 33,-65.6985 185.861,-28.4467 375.895,-18.8459 443.071,-16.535"/>
<polygon fill="red" stroke="red" stroke-width="0.33689" points="443.237,-20.0316 453.12,-16.2133 443.013,-13.0351 443.237,-20.0316"/>
</g>
<!-- &#45;7&#45;&gt;3 -->
<g id="edge28" class="edge"><title>&#45;7&#45;&gt;3</title>
<path fill="none" stroke="red" stroke-width="0.138805" d="M24.2558,-68.3596C27.081,-67.3181 30.1071,-66.3488 33,-65.6985 232.644,-20.8183 296.563,-90.3306 492,-29.6985 493.057,-29.3706 494.117,-28.9899 495.173,-28.5685"/>
<polygon fill="red" stroke="red" stroke-width="0.138805" points="496.905,-31.615 504.275,-24.0036 493.767,-25.3577 496.905,-31.615"/>
</g>
<!-- &#45;8 -->
<g id="node8" class="node"><title>&#45;8</title>
<polygon fill="lightgray" stroke="black" points="66,-83.6985 42,-83.6985 42,-65.6985 66,-65.6985 66,-83.6985"/>
<text text-anchor="middle" x="54" y="-72.4985" font-family="Times New Roman,serif" font-size="9.00">&#45;8</text>
</g>
<!-- &#45;8&#45;&gt;0 -->
<g id="edge29" class="edge"><title>&#45;8&#45;&gt;0</title>
<path fill="none" stroke="red" stroke-width="0.315599" d="M66.2554,-68.3575C69.0806,-67.316 72.1068,-66.3474 75,-65.6985 277.261,-20.3369 341.993,-91.0188 540,-29.6985 541.057,-29.3712 542.118,-28.9909 543.173,-28.5698"/>
<polygon fill="red" stroke="red" stroke-width="0.315599" points="544.905,-31.6167 552.276,-24.0062 541.768,-25.359 544.905,-31.6167"/>
</g>
<!-- &#45;8&#45;&gt;1 -->
<g id="edge30" class="edge"><title>&#45;8&#45;&gt;1</title>
<path fill="none" stroke="green" stroke-width="0.417294" d="M66.2519,-68.342C69.0773,-67.3014 72.1045,-66.3369 75,-65.6985 298.199,-16.4847 369.427,-96.5257 588,-29.6985 589.058,-29.375 590.12,-28.9978 591.176,-28.5792"/>
<polygon fill="green" stroke="green" stroke-width="0.417294" points="592.904,-31.6285 600.282,-24.025 589.772,-25.3678 592.904,-31.6285"/>
</g>
<!-- &#45;8&#45;&gt;2 -->
<g id="edge31" class="edge"><title>&#45;8&#45;&gt;2</title>
<path fill="none" stroke="green" stroke-width="0.173642" d="M66.2802,-68.4621C69.1041,-67.4152 72.1235,-66.4179 75,-65.6985 211.269,-31.6175 380.246,-20.1878 443.009,-16.9591"/>
<polygon fill="green" stroke="green" stroke-width="0.173642" points="443.319,-20.4482 453.135,-16.4631 442.976,-13.4566 443.319,-20.4482"/>
</g>
<!-- &#45;8&#45;&gt;3 -->
<g id="edge32" class="edge"><title>&#45;8&#45;&gt;3</title>
<path fill="none" stroke="green" stroke-width="0.351049" d="M66.2597,-68.3764C69.0847,-67.334 72.1097,-66.3602 75,-65.6985 256.332,-24.1869 314.549,-85.5148 492,-29.6985 493.055,-29.3665 494.115,-28.9824 495.169,-28.5582"/>
<polygon fill="green" stroke="green" stroke-width="0.351049" points="496.907,-31.6022 504.269,-23.9832 493.762,-25.3481 496.907,-31.6022"/>
</g>
<!-- &#45;9 -->
<g id="node9" class="node"><title>&#45;9</title>
<polygon fill="lightgray" stroke="black" points="108,-83.6985 84,-83.6985 84,-65.6985 108,-65.6985 108,-83.6985"/>
<text text-anchor="middle" x="96" y="-72.4985" font-family="Times New Roman,serif" font-size="9.00">&#45;9</text>
</g>
<!-- &#45;9&#45;&gt;0 -->
<g id="edge33" class="edge"><title>&#45;9&#45;&gt;0</title>
<path fill="none" stroke="red" stroke-width="0.181614" d="M108.259,-68.3738C111.084,-67.3316 114.109,-66.3584 117,-65.6985 300.947,-23.7058 359.98,-86.2026 540,-29.6985 541.056,-29.3671 542.115,-28.9835 543.17,-28.5598"/>
<polygon fill="red" stroke="red" stroke-width="0.181614" points="544.907,-31.6042 552.27,-23.9863 541.763,-25.3496 544.907,-31.6042"/>
</g>
<!-- &#45;9&#45;&gt;1 -->
<g id="edge34" class="edge"><title>&#45;9&#45;&gt;1</title>
<path fill="none" stroke="red" stroke-width="0.223723" d="M108.255,-68.3553C111.08,-67.314 114.106,-66.3459 117,-65.6985 321.878,-19.8555 387.422,-91.707 588,-29.6985 589.057,-29.3717 590.118,-28.9918 591.173,-28.5711"/>
<polygon fill="red" stroke="red" stroke-width="0.223723" points="592.905,-31.6183 600.277,-24.0087 589.769,-25.3602 592.905,-31.6183"/>
</g>
<!-- &#45;9&#45;&gt;2 -->
<g id="edge35" class="edge"><title>&#45;9&#45;&gt;2</title>
<path fill="none" stroke="green" stroke-width="0.421842" d="M108.288,-68.4938C111.112,-67.4454 114.129,-66.4393 117,-65.6985 236.815,-34.7817 384.917,-21.6806 442.982,-17.4804"/>
<polygon fill="green" stroke="green" stroke-width="0.421842" points="443.324,-20.9652 453.056,-16.7769 442.836,-13.9822 443.324,-20.9652"/>
</g>
<!-- &#45;9&#45;&gt;3 -->
<g id="edge36" class="edge"><title>&#45;9&#45;&gt;3</title>
<path fill="none" stroke="green" stroke-width="0.207938" d="M108.264,-68.397C111.089,-67.3535 114.113,-66.374 117,-65.6985 280.03,-27.5532 332.525,-80.7021 492,-29.6985 493.054,-29.3614 494.112,-28.9732 495.165,-28.5456"/>
<polygon fill="green" stroke="green" stroke-width="0.207938" points="496.908,-31.5865 504.261,-23.9583 493.756,-25.3364 496.908,-31.5865"/>
</g>
<!-- &#45;10 -->
<g id="node10" class="node"><title>&#45;10</title>
<polygon fill="lightgray" stroke="black" points="155.5,-83.6985 126.5,-83.6985 126.5,-65.6985 155.5,-65.6985 155.5,-83.6985"/>
<text text-anchor="middle" x="141" y="-72.4985" font-family="Times New Roman,serif" font-size="9.00">&#45;10</text>
</g>
<!-- &#45;10&#45;&gt;0 -->
<g id="edge37" class="edge"><title>&#45;10&#45;&gt;0</title>
<path fill="none" stroke="red" stroke-width="0.478744" d="M155.946,-67.923C158.597,-67.0648 161.357,-66.276 164,-65.6985 328.007,-29.8671 380.097,-80.8167 540,-29.6985 541.054,-29.3616 542.112,-28.9734 543.165,-28.5459"/>
<polygon fill="red" stroke="red" stroke-width="0.478744" points="544.908,-31.5869 552.261,-23.9589 541.756,-25.3367 544.908,-31.5869"/>
</g>
<!-- &#45;10&#45;&gt;1 -->
<g id="edge38" class="edge"><title>&#45;10&#45;&gt;1</title>
<path fill="none" stroke="green" stroke-width="0.335168" d="M155.94,-67.899C158.593,-67.0434 161.354,-66.2618 164,-65.6985 348.979,-26.3259 407.552,-86.3172 588,-29.6985 589.056,-29.3672 590.115,-28.9837 591.17,-28.56"/>
<polygon fill="green" stroke="green" stroke-width="0.335168" points="592.907,-31.6045 600.27,-23.9869 589.763,-25.3498 592.907,-31.6045"/>
</g>
<!-- &#45;10&#45;&gt;2 -->
<g id="edge39" class="edge"><title>&#45;10&#45;&gt;2</title>
<path fill="none" stroke="green" stroke-width="0.297988" d="M155.981,-68.0721C158.629,-67.1972 161.377,-66.3643 164,-65.6985 266.115,-39.7728 391.079,-24.2299 443.265,-18.4417"/>
<polygon fill="green" stroke="green" stroke-width="0.297988" points="443.699,-21.9153 453.261,-17.3544 442.942,-14.9563 443.699,-21.9153"/>
</g>
<!-- &#45;10&#45;&gt;3 -->
<g id="edge40" class="edge"><title>&#45;10&#45;&gt;3</title>
<path fill="none" stroke="red" stroke-width="0.158388" d="M155.952,-67.9539C158.604,-67.0922 161.361,-66.2943 164,-65.6985 307.053,-33.4043 352.624,-75.3218 492,-29.6985 492.88,-29.4104 493.764,-29.0873 494.645,-28.7362"/>
<polygon fill="red" stroke="red" stroke-width="0.158388" points="496.356,-31.7944 503.756,-24.2126 493.243,-25.5246 496.356,-31.7944"/>
</g>
<!-- &#45;11 -->
<g id="node11" class="node"><title>&#45;11</title>
<polygon fill="lightgray" stroke="black" points="202.5,-83.6985 173.5,-83.6985 173.5,-65.6985 202.5,-65.6985 202.5,-83.6985"/>
<text text-anchor="middle" x="188" y="-72.4985" font-family="Times New Roman,serif" font-size="9.00">&#45;11</text>
</g>
<!-- &#45;11&#45;&gt;0 -->
<g id="edge41" class="edge"><title>&#45;11&#45;&gt;0</title>
<path fill="none" stroke="red" stroke-width="0.213611" d="M202.952,-67.9532C205.603,-67.0916 208.361,-66.2939 211,-65.6985 354.49,-33.3306 400.197,-75.4362 540,-29.6985 540.88,-29.4105 541.764,-29.0876 542.645,-28.7365"/>
<polygon fill="red" stroke="red" stroke-width="0.213611" points="544.356,-31.7949 551.756,-24.2134 541.243,-25.525 544.356,-31.7949"/>
</g>
<!-- &#45;11&#45;&gt;1 -->
<g id="edge42" class="edge"><title>&#45;11&#45;&gt;1</title>
<path fill="none" stroke="green" stroke-width="0.205529" d="M202.945,-67.9225C205.597,-67.0643 208.357,-66.2757 211,-65.6985 375.444,-29.7934 427.669,-80.9312 588,-29.6985 589.054,-29.3617 590.112,-28.9736 591.166,-28.5463"/>
<polygon fill="green" stroke="green" stroke-width="0.205529" points="592.908,-31.5873 600.261,-23.9596 589.757,-25.337 592.908,-31.5873"/>
</g>
<!-- &#45;11&#45;&gt;2 -->
<g id="edge43" class="edge"><title>&#45;11&#45;&gt;2</title>
<path fill="none" stroke="green" stroke-width="0.287685" d="M202.503,-68.3019C205.3,-67.3613 208.224,-66.4463 211,-65.6985 295.1,-43.0412 397.304,-26.3714 443.381,-19.4213"/>
<polygon fill="green" stroke="green" stroke-width="0.287685" points="443.966,-22.8729 453.342,-17.9391 442.936,-15.9491 443.966,-22.8729"/>
</g>
<!-- &#45;11&#45;&gt;3 -->
<g id="edge44" class="edge"><title>&#45;11&#45;&gt;3</title>
<path fill="none" stroke="red" stroke-width="0.326759" d="M202.962,-67.9942C205.612,-67.128 208.366,-66.3182 211,-65.6985 333.563,-36.8617 372.698,-69.9499 492,-29.6985 492.877,-29.4024 493.759,-29.0726 494.638,-28.7158"/>
<polygon fill="red" stroke="red" stroke-width="0.326759" points="496.361,-31.7676 503.741,-24.1656 493.231,-25.5063 496.361,-31.7676"/>
</g>
<!-- &#45;12 -->
<g id="node12" class="node"><title>&#45;12</title>
<polygon fill="lightgray" stroke="black" points="249.5,-83.6985 220.5,-83.6985 220.5,-65.6985 249.5,-65.6985 249.5,-83.6985"/>
<text text-anchor="middle" x="235" y="-72.4985" font-family="Times New Roman,serif" font-size="9.00">&#45;12</text>
</g>
<!-- &#45;12&#45;&gt;0 -->
<g id="edge45" class="edge"><title>&#45;12&#45;&gt;0</title>
<path fill="none" stroke="green" stroke-width="0.320046" d="M249.961,-67.9932C252.612,-67.1271 255.366,-66.3176 258,-65.6985 380.999,-36.7883 420.271,-70.0641 540,-29.6985 540.878,-29.4026 541.759,-29.073 542.638,-28.7163"/>
<polygon fill="green" stroke="green" stroke-width="0.320046" points="544.361,-31.7682 551.741,-24.1668 541.231,-25.5067 544.361,-31.7682"/>
</g>
<!-- &#45;12&#45;&gt;1 -->
<g id="edge46" class="edge"><title>&#45;12&#45;&gt;1</title>
<path fill="none" stroke="red" stroke-width="0.161463" d="M249.952,-67.9525C252.603,-67.0909 255.36,-66.2934 258,-65.6985 401.926,-33.257 447.769,-75.5506 588,-29.6985 588.88,-29.4107 589.764,-29.0879 590.645,-28.7369"/>
<polygon fill="red" stroke="red" stroke-width="0.161463" points="592.356,-31.7954 599.757,-24.2143 589.243,-25.5253 592.356,-31.7954"/>
</g>
<!-- &#45;12&#45;&gt;2 -->
<g id="edge47" class="edge"><title>&#45;12&#45;&gt;2</title>
<path fill="none" stroke="green" stroke-width="0.25903" d="M249.529,-68.3948C252.324,-67.4456 255.24,-66.5037 258,-65.6985 324.418,-46.3189 404.271,-28.9627 443.628,-20.7924"/>
<polygon fill="green" stroke="green" stroke-width="0.25903" points="444.521,-24.182 453.61,-18.7375 443.109,-17.3258 444.521,-24.182"/>
</g>
<!-- &#45;12&#45;&gt;3 -->
<g id="edge48" class="edge"><title>&#45;12&#45;&gt;3</title>
<path fill="none" stroke="red" stroke-width="0.165742" d="M249.975,-68.0502C252.624,-67.1778 255.374,-66.3513 258,-65.6985 360.115,-40.3093 392.73,-64.5919 492,-29.6985 492.874,-29.3914 493.752,-29.0522 494.628,-28.6874"/>
<polygon fill="red" stroke="red" stroke-width="0.165742" points="496.367,-31.7303 503.718,-24.1004 493.214,-25.481 496.367,-31.7303"/>
</g>
<!-- &#45;13 -->
<g id="node13" class="node"><title>&#45;13</title>
<polygon fill="lightgray" stroke="black" points="296.5,-83.6985 267.5,-83.6985 267.5,-65.6985 296.5,-65.6985 296.5,-83.6985"/>
<text text-anchor="middle" x="282" y="-72.4985" font-family="Times New Roman,serif" font-size="9.00">&#45;13</text>
</g>
<!-- &#45;13&#45;&gt;0 -->
<g id="edge49" class="edge"><title>&#45;13&#45;&gt;0</title>
<path fill="none" stroke="green" stroke-width="0.111364" d="M296.975,-68.0488C299.624,-67.1765 302.374,-66.3505 305,-65.6985 407.549,-40.2361 440.305,-64.7057 540,-29.6985 540.874,-29.3917 541.752,-29.0527 542.629,-28.6881"/>
<polygon fill="green" stroke="green" stroke-width="0.111364" points="544.367,-31.7313 551.719,-24.102 541.214,-25.4816 544.367,-31.7313"/>
</g>
<!-- &#45;13&#45;&gt;1 -->
<g id="edge50" class="edge"><title>&#45;13&#45;&gt;1</title>
<path fill="none" stroke="red" stroke-width="0.207264" d="M296.961,-67.9922C299.611,-67.1263 302.366,-66.317 305,-65.6985 428.434,-36.7148 467.844,-70.1783 588,-29.6985 588.878,-29.4028 589.759,-29.0733 590.638,-28.7168"/>
<polygon fill="red" stroke="red" stroke-width="0.207264" points="592.361,-31.7689 599.741,-24.1679 589.231,-25.5072 592.361,-31.7689"/>
</g>
<!-- &#45;13&#45;&gt;2 -->
<g id="edge51" class="edge"><title>&#45;13&#45;&gt;2</title>
<path fill="none" stroke="red" stroke-width="0.42952" d="M296.572,-68.5364C299.364,-67.5742 302.267,-66.5912 305,-65.6985 354.281,-49.5986 412.451,-32.1882 444.262,-22.8014"/>
<polygon fill="red" stroke="red" stroke-width="0.42952" points="445.384,-26.1197 453.989,-19.9391 443.408,-19.4044 445.384,-26.1197"/>
</g>
<!-- &#45;13&#45;&gt;3 -->
<g id="edge52" class="edge"><title>&#45;13&#45;&gt;3</title>
<path fill="none" stroke="red" stroke-width="0.124302" d="M296.502,-68.2988C299.299,-67.3585 302.224,-66.4444 305,-65.6985 386.739,-43.7386 412.693,-59.2588 492,-29.6985 492.868,-29.3751 493.741,-29.022 494.613,-28.6455"/>
<polygon fill="red" stroke="red" stroke-width="0.124302" points="496.376,-31.6753 503.683,-24.0039 493.187,-25.4439 496.376,-31.6753"/>
</g>
<!-- &#45;14 -->
<g id="node14" class="node"><title>&#45;14</title>
<polygon fill="lightgray" stroke="black" points="343.5,-83.6985 314.5,-83.6985 314.5,-65.6985 343.5,-65.6985 343.5,-83.6985"/>
<text text-anchor="middle" x="329" y="-72.4985" font-family="Times New Roman,serif" font-size="9.00">&#45;14</text>
</g>
<!-- &#45;14&#45;&gt;0 -->
<g id="edge53" class="edge"><title>&#45;14&#45;&gt;0</title>
<path fill="none" stroke="red" stroke-width="0.511484" d="M343.501,-68.2966C346.299,-67.3565 349.223,-66.443 352,-65.6985 434.171,-43.6659 460.269,-59.3719 540,-29.6985 540.868,-29.3755 541.741,-29.0227 542.614,-28.6466"/>
<polygon fill="red" stroke="red" stroke-width="0.511484" points="544.375,-31.6767 551.684,-24.0064 541.187,-25.4448 544.375,-31.6767"/>
</g>
<!-- &#45;14&#45;&gt;1 -->
<g id="edge54" class="edge"><title>&#45;14&#45;&gt;1</title>
<path fill="none" stroke="green" stroke-width="0.447365" d="M343.975,-68.0474C346.623,-67.1753 349.374,-66.3497 352,-65.6985 454.984,-40.1629 487.879,-64.8195 588,-29.6985 588.874,-29.392 589.752,-29.0532 590.629,-28.6888"/>
<polygon fill="green" stroke="green" stroke-width="0.447365" points="592.367,-31.7322 599.719,-24.1037 589.214,-25.4822 592.367,-31.7322"/>
</g>
<!-- &#45;14&#45;&gt;2 -->
<g id="edge55" class="edge"><title>&#45;14&#45;&gt;2</title>
<path fill="none" stroke="red" stroke-width="0.193963" d="M343.613,-67.6169C367.805,-57.5486 416.358,-37.3418 445.127,-25.3687"/>
<polygon fill="red" stroke="red" stroke-width="0.193963" points="446.518,-28.5809 454.405,-21.5072 443.828,-22.1183 446.518,-28.5809"/>
</g>
<!-- &#45;14&#45;&gt;3 -->
<g id="edge56" class="edge"><title>&#45;14&#45;&gt;3</title>
<path fill="none" stroke="green" stroke-width="0.164121" d="M343.541,-68.4363C346.335,-67.4833 349.248,-66.5294 352,-65.6985 413.504,-47.1293 432.518,-53.9775 492,-29.6985 492.857,-29.3485 493.722,-28.9729 494.587,-28.5774"/>
<polygon fill="green" stroke="green" stroke-width="0.164121" points="496.386,-31.5861 503.622,-23.8472 493.139,-25.3845 496.386,-31.5861"/>
</g>
<!-- &#45;15 -->
<g id="node15" class="node"><title>&#45;15</title>
<polygon fill="lightgray" stroke="black" points="390.5,-83.6985 361.5,-83.6985 361.5,-65.6985 390.5,-65.6985 390.5,-83.6985"/>
<text text-anchor="middle" x="376" y="-72.4985" font-family="Times New Roman,serif" font-size="9.00">&#45;15</text>
</g>
<!-- &#45;15&#45;&gt;0 -->
<g id="edge57" class="edge"><title>&#45;15&#45;&gt;0</title>
<path fill="none" stroke="green" stroke-width="0.359641" d="M390.54,-68.4325C393.334,-67.4799 396.247,-66.527 399,-65.6985 460.933,-47.0579 480.098,-54.089 540,-29.6985 540.858,-29.3493 541.722,-28.9742 542.587,-28.5793"/>
<polygon fill="green" stroke="green" stroke-width="0.359641" points="544.386,-31.5885 551.624,-23.8515 541.141,-25.3861 544.386,-31.5885"/>
</g>
<!-- &#45;15&#45;&gt;1 -->
<g id="edge58" class="edge"><title>&#45;15&#45;&gt;1</title>
<path fill="none" stroke="green" stroke-width="0.117153" d="M390.501,-68.2944C393.298,-67.3545 396.223,-66.4417 399,-65.6985 481.604,-43.5933 507.845,-59.485 588,-29.6985 588.868,-29.3759 589.741,-29.0235 590.614,-28.6477"/>
<polygon fill="green" stroke="green" stroke-width="0.117153" points="592.375,-31.6781 599.685,-24.0089 589.188,-25.4458 592.375,-31.6781"/>
</g>
<!-- &#45;15&#45;&gt;2 -->
<g id="edge59" class="edge"><title>&#45;15&#45;&gt;2</title>
<path fill="none" stroke="red" stroke-width="0.167701" d="M388.792,-65.6548C403.844,-56.1902 429.053,-40.3388 446.987,-29.0619"/>
<polygon fill="red" stroke="red" stroke-width="0.167701" points="449.008,-31.9258 455.61,-23.6398 445.282,-26 449.008,-31.9258"/>
</g>
<!-- &#45;15&#45;&gt;3 -->
<g id="edge60" class="edge"><title>&#45;15&#45;&gt;3</title>
<path fill="none" stroke="red" stroke-width="0.213691" d="M390.622,-68.4852C417.409,-58.8798 473.318,-38.5611 492,-29.6985 492.837,-29.3016 493.683,-28.886 494.533,-28.4569"/>
<polygon fill="red" stroke="red" stroke-width="0.213691" points="496.394,-31.4288 503.5,-23.5698 493.044,-25.2825 496.394,-31.4288"/>
</g>
<!-- &#45;16 -->
<g id="node16" class="node"><title>&#45;16</title>
<polygon fill="lightgray" stroke="black" points="437.5,-83.6985 408.5,-83.6985 408.5,-65.6985 437.5,-65.6985 437.5,-83.6985"/>
<text text-anchor="middle" x="423" y="-72.4985" font-family="Times New Roman,serif" font-size="9.00">&#45;16</text>
</g>
<!-- &#45;16&#45;&gt;0 -->
<g id="edge61" class="edge"><title>&#45;16&#45;&gt;0</title>
<path fill="none" stroke="red" stroke-width="0.145325" d="M437.75,-68.4928C464.77,-58.8999 521.165,-38.6013 540,-29.6985 540.837,-29.3028 541.684,-28.8882 542.535,-28.46"/>
<polygon fill="red" stroke="red" stroke-width="0.145325" points="544.394,-31.4328 551.503,-23.5768 541.047,-25.2851 544.394,-31.4328"/>
</g>
<!-- &#45;16&#45;&gt;1 -->
<g id="edge62" class="edge"><title>&#45;16&#45;&gt;1</title>
<path fill="none" stroke="red" stroke-width="0.23854" d="M437.539,-68.4288C440.333,-67.4765 443.246,-66.5247 446,-65.6985 508.361,-46.9864 527.679,-54.2005 588,-29.6985 588.858,-29.35 589.723,-28.9756 590.588,-28.5812"/>
<polygon fill="red" stroke="red" stroke-width="0.23854" points="592.385,-31.591 599.625,-23.8558 589.142,-25.3877 592.385,-31.591"/>
</g>
<!-- &#45;16&#45;&gt;2 -->
<g id="edge63" class="edge"><title>&#45;16&#45;&gt;2</title>
<path fill="none" stroke="green" stroke-width="0.433461" d="M429.257,-65.6548C435.37,-57.7964 444.908,-45.5348 452.99,-35.1446"/>
<polygon fill="green" stroke="green" stroke-width="0.433461" points="455.953,-37.0367 459.33,-26.9946 450.428,-32.7387 455.953,-37.0367"/>
</g>
<!-- &#45;16&#45;&gt;3 -->
<g id="edge64" class="edge"><title>&#45;16&#45;&gt;3</title>
<path fill="none" stroke="red" stroke-width="0.223272" d="M435.931,-65.6548C451.232,-56.1374 476.915,-40.1615 495.062,-28.8733"/>
<polygon fill="red" stroke="red" stroke-width="0.223272" points="497.128,-31.7105 503.77,-23.4566 493.43,-25.7666 497.128,-31.7105"/>
</g>
<!-- &#45;17 -->
<g id="node17" class="node"><title>&#45;17</title>
<polygon fill="lightgray" stroke="black" points="484.5,-83.6985 455.5,-83.6985 455.5,-65.6985 484.5,-65.6985 484.5,-83.6985"/>
<text text-anchor="middle" x="470" y="-72.4985" font-family="Times New Roman,serif" font-size="9.00">&#45;17</text>
</g>
<!-- &#45;17&#45;&gt;0 -->
<g id="edge65" class="edge"><title>&#45;17&#45;&gt;0</title>
<path fill="none" stroke="red" stroke-width="0.162948" d="M483.07,-65.6548C498.606,-56.0937 524.733,-40.0148 543.089,-28.7182"/>
<polygon fill="red" stroke="red" stroke-width="0.162948" points="544.957,-31.6786 551.639,-23.4566 541.288,-25.7171 544.957,-31.6786"/>
</g>
<!-- &#45;17&#45;&gt;1 -->
<g id="edge66" class="edge"><title>&#45;17&#45;&gt;1</title>
<path fill="none" stroke="red" stroke-width="0.124901" d="M484.877,-68.5003C512.131,-58.92 569.011,-38.6414 588,-29.6985 588.838,-29.3039 589.685,-28.8904 590.536,-28.463"/>
<polygon fill="red" stroke="red" stroke-width="0.124901" points="592.394,-31.4367 599.506,-23.5837 589.049,-25.2876 592.394,-31.4367"/>
</g>
<!-- &#45;17&#45;&gt;2 -->
<g id="edge67" class="edge"><title>&#45;17&#45;&gt;2</title>
<path fill="none" stroke="red" stroke-width="0.248932" d="M469.722,-65.6548C469.494,-59.0498 469.158,-49.3344 468.843,-40.2339"/>
<polygon fill="red" stroke="red" stroke-width="0.248932" points="472.335,-39.9294 468.491,-30.0563 465.339,-40.1713 472.335,-39.9294"/>
</g>
<!-- &#45;17&#45;&gt;3 -->
<g id="edge68" class="edge"><title>&#45;17&#45;&gt;3</title>
<path fill="none" stroke="green" stroke-width="0.185304" d="M476.396,-65.6548C482.707,-57.7178 492.59,-45.2891 500.904,-34.8334"/>
<polygon fill="green" stroke="green" stroke-width="0.185304" points="503.653,-37.0001 507.138,-26.9946 498.174,-32.6433 503.653,-37.0001"/>
</g>
<!-- &#45;18 -->
<g id="node18" class="node"><title>&#45;18</title>
<polygon fill="lightgray" stroke="black" points="531.5,-83.6985 502.5,-83.6985 502.5,-65.6985 531.5,-65.6985 531.5,-83.6985"/>
<text text-anchor="middle" x="517" y="-72.4985" font-family="Times New Roman,serif" font-size="9.00">&#45;18</text>
</g>
<!-- &#45;18&#45;&gt;0 -->
<g id="edge69" class="edge"><title>&#45;18&#45;&gt;0</title>
<path fill="none" stroke="red" stroke-width="0.103804" d="M523.535,-65.6548C529.984,-57.7178 540.081,-45.2891 548.576,-34.8334"/>
<polygon fill="red" stroke="red" stroke-width="0.103804" points="551.356,-36.9629 554.945,-26.9946 545.923,-32.5489 551.356,-36.9629"/>
</g>
<!-- &#45;18&#45;&gt;1 -->
<g id="edge70" class="edge"><title>&#45;18&#45;&gt;1</title>
<path fill="none" stroke="red" stroke-width="0.269257" d="M530.209,-65.6548C545.911,-56.0937 572.315,-40.0148 590.867,-28.7182"/>
<polygon fill="red" stroke="red" stroke-width="0.269257" points="592.786,-31.647 599.507,-23.4566 589.146,-25.6683 592.786,-31.647"/>
</g>
<!-- &#45;18&#45;&gt;2 -->
<g id="edge71" class="edge"><title>&#45;18&#45;&gt;2</title>
<path fill="none" stroke="green" stroke-width="0.318339" d="M510.187,-65.6548C503.464,-57.7178 492.936,-45.2891 484.08,-34.8334"/>
<polygon fill="green" stroke="green" stroke-width="0.318339" points="486.574,-32.363 477.44,-26.9946 481.233,-36.8874 486.574,-32.363"/>
</g>
<!-- &#45;18&#45;&gt;3 -->
<g id="edge72" class="edge"><title>&#45;18&#45;&gt;3</title>
<path fill="none" stroke="green" stroke-width="0.222955" d="M516.861,-65.6548C516.747,-59.0498 516.579,-49.3344 516.422,-40.2339"/>
<polygon fill="green" stroke="green" stroke-width="0.222955" points="519.918,-39.9943 516.246,-30.0563 512.919,-40.1153 519.918,-39.9943"/>
</g>
<!-- &#45;19 -->
<g id="node19" class="node"><title>&#45;19</title>
<polygon fill="lightgray" stroke="black" points="578.5,-83.6985 549.5,-83.6985 549.5,-65.6985 578.5,-65.6985 578.5,-83.6985"/>
<text text-anchor="middle" x="564" y="-72.4985" font-family="Times New Roman,serif" font-size="9.00">&#45;19</text>
</g>
<!-- &#45;19&#45;&gt;0 -->
<g id="edge73" class="edge"><title>&#45;19&#45;&gt;0</title>
<path fill="none" stroke="red" stroke-width="0.206324" d="M564,-65.6548C564,-59.0498 564,-49.3344 564,-40.2339"/>
<polygon fill="red" stroke="red" stroke-width="0.206324" points="567.5,-40.0563 564,-30.0563 560.5,-40.0564 567.5,-40.0563"/>
</g>
<!-- &#45;19&#45;&gt;1 -->
<g id="edge74" class="edge"><title>&#45;19&#45;&gt;1</title>
<path fill="none" stroke="red" stroke-width="0.248634" d="M570.674,-65.6548C577.26,-57.7178 587.572,-45.2891 596.248,-34.8334"/>
<polygon fill="red" stroke="red" stroke-width="0.248634" points="599.06,-36.9253 602.752,-26.9946 593.673,-32.4555 599.06,-36.9253"/>
</g>
<!-- &#45;19&#45;&gt;2 -->
<g id="edge75" class="edge"><title>&#45;19&#45;&gt;2</title>
<path fill="none" stroke="green" stroke-width="0.126208" d="M550.652,-65.6548C534.697,-56.0406 507.806,-39.8359 489.044,-28.5304"/>
<polygon fill="green" stroke="green" stroke-width="0.126208" points="490.695,-25.4387 480.323,-23.2752 487.082,-31.4343 490.695,-25.4387"/>
</g>
<!-- &#45;19&#45;&gt;3 -->
<g id="edge76" class="edge"><title>&#45;19&#45;&gt;3</title>
<path fill="none" stroke="red" stroke-width="0.173108" d="M557.326,-65.6548C550.74,-57.7178 540.428,-45.2891 531.752,-34.8334"/>
<polygon fill="red" stroke="red" stroke-width="0.173108" points="534.327,-32.4555 525.248,-26.9946 528.94,-36.9253 534.327,-32.4555"/>
</g>
<!-- &#45;20 -->
<g id="node20" class="node"><title>&#45;20</title>
<polygon fill="lightgray" stroke="black" points="625.5,-83.6985 596.5,-83.6985 596.5,-65.6985 625.5,-65.6985 625.5,-83.6985"/>
<text text-anchor="middle" x="611" y="-72.4985" font-family="Times New Roman,serif" font-size="9.00">&#45;20</text>
</g>
<!-- &#45;20&#45;&gt;0 -->
<g id="edge77" class="edge"><title>&#45;20&#45;&gt;0</title>
<path fill="none" stroke="green" stroke-width="0.54402" d="M604.465,-65.6548C598.016,-57.7178 587.919,-45.2891 579.424,-34.8334"/>
<polygon fill="green" stroke="green" stroke-width="0.54402" points="582.077,-32.5489 573.055,-26.9946 576.644,-36.9629 582.077,-32.5489"/>
</g>
<!-- &#45;20&#45;&gt;1 -->
<g id="edge78" class="edge"><title>&#45;20&#45;&gt;1</title>
<path fill="none" stroke="green" stroke-width="0.193001" d="M611.139,-65.6548C611.253,-59.0498 611.421,-49.3344 611.578,-40.2339"/>
<polygon fill="green" stroke="green" stroke-width="0.193001" points="615.081,-40.1153 611.754,-30.0563 608.082,-39.9943 615.081,-40.1153"/>
</g>
<!-- &#45;20&#45;&gt;2 -->
<g id="edge79" class="edge"><title>&#45;20&#45;&gt;2</title>
<path fill="none" stroke="green" stroke-width="0.143291" d="M596.423,-68.6565C569.107,-59.1514 511.242,-38.7284 492,-29.6985 491.162,-29.3051 490.314,-28.8925 489.462,-28.4659"/>
<polygon fill="green" stroke="green" stroke-width="0.143291" points="490.948,-25.29 480.491,-23.5906 487.606,-31.4406 490.948,-25.29"/>
</g>
<!-- &#45;20&#45;&gt;3 -->
<g id="edge80" class="edge"><title>&#45;20&#45;&gt;3</title>
<path fill="none" stroke="green" stroke-width="0.389575" d="M597.791,-65.6548C582.089,-56.0937 555.685,-40.0148 537.133,-28.7182"/>
<polygon fill="green" stroke="green" stroke-width="0.389575" points="538.854,-25.6683 528.493,-23.4566 535.214,-31.647 538.854,-25.6683"/>
</g>
<!-- &#45;21 -->
<g id="node21" class="node"><title>&#45;21</title>
<polygon fill="lightgray" stroke="black" points="672.5,-83.6985 643.5,-83.6985 643.5,-65.6985 672.5,-65.6985 672.5,-83.6985"/>
<text text-anchor="middle" x="658" y="-72.4985" font-family="Times New Roman,serif" font-size="9.00">&#45;21</text>
</g>
<!-- &#45;21&#45;&gt;0 -->
<g id="edge81" class="edge"><title>&#45;21&#45;&gt;0</title>
<path fill="none" stroke="green" stroke-width="0.199953" d="M644.93,-65.6548C629.394,-56.0937 603.267,-40.0148 584.911,-28.7182"/>
<polygon fill="green" stroke="green" stroke-width="0.199953" points="586.712,-25.7171 576.361,-23.4566 583.043,-31.6786 586.712,-25.7171"/>
</g>
<!-- &#45;21&#45;&gt;1 -->
<g id="edge82" class="edge"><title>&#45;21&#45;&gt;1</title>
<path fill="none" stroke="green" stroke-width="0.248301" d="M651.604,-65.6548C645.293,-57.7178 635.41,-45.2891 627.096,-34.8334"/>
<polygon fill="green" stroke="green" stroke-width="0.248301" points="629.826,-32.6433 620.862,-26.9946 624.347,-37.0001 629.826,-32.6433"/>
</g>
<!-- &#45;21&#45;&gt;2 -->
<g id="edge83" class="edge"><title>&#45;21&#45;&gt;2</title>
<path fill="none" stroke="red" stroke-width="0.250758" d="M643.462,-68.425C640.668,-67.4731 637.754,-66.5224 635,-65.6985 572.211,-46.9149 552.741,-54.3121 492,-29.6985 491.142,-29.3507 490.277,-28.9769 489.411,-28.583"/>
<polygon fill="red" stroke="red" stroke-width="0.250758" points="490.857,-25.3893 480.373,-23.86 487.615,-31.5934 490.857,-25.3893"/>
</g>
<!-- &#45;21&#45;&gt;3 -->
<g id="edge84" class="edge"><title>&#45;21&#45;&gt;3</title>
<path fill="none" stroke="green" stroke-width="0.179841" d="M643.123,-68.5003C615.869,-58.92 558.989,-38.6414 540,-29.6985 539.162,-29.3039 538.315,-28.8904 537.464,-28.463"/>
<polygon fill="green" stroke="green" stroke-width="0.179841" points="538.951,-25.2876 528.494,-23.5837 535.606,-31.4367 538.951,-25.2876"/>
</g>
<!-- &#45;22 -->
<g id="node22" class="node"><title>&#45;22</title>
<polygon fill="lightgray" stroke="black" points="719.5,-83.6985 690.5,-83.6985 690.5,-65.6985 719.5,-65.6985 719.5,-83.6985"/>
<text text-anchor="middle" x="705" y="-72.4985" font-family="Times New Roman,serif" font-size="9.00">&#45;22</text>
</g>
<!-- &#45;22&#45;&gt;0 -->
<g id="edge85" class="edge"><title>&#45;22&#45;&gt;0</title>
<path fill="none" stroke="green" stroke-width="0.114061" d="M690.25,-68.4928C663.23,-58.8999 606.835,-38.6013 588,-29.6985 587.163,-29.3028 586.316,-28.8882 585.465,-28.46"/>
<polygon fill="green" stroke="green" stroke-width="0.114061" points="586.953,-25.2851 576.497,-23.5768 583.606,-31.4328 586.953,-25.2851"/>
</g>
<!-- &#45;22&#45;&gt;1 -->
<g id="edge86" class="edge"><title>&#45;22&#45;&gt;1</title>
<path fill="none" stroke="green" stroke-width="0.187409" d="M692.069,-65.6548C676.768,-56.1374 651.085,-40.1615 632.938,-28.8733"/>
<polygon fill="green" stroke="green" stroke-width="0.187409" points="634.57,-25.7666 624.23,-23.4566 630.872,-31.7105 634.57,-25.7666"/>
</g>
<!-- &#45;22&#45;&gt;2 -->
<g id="edge87" class="edge"><title>&#45;22&#45;&gt;2</title>
<path fill="none" stroke="red" stroke-width="0.366177" d="M690.005,-68.1267C687.359,-67.2458 684.614,-66.3967 682,-65.6985 598.964,-43.5206 572.578,-59.5981 492,-29.6985 491.132,-29.3763 490.258,-29.0243 489.386,-28.6487"/>
<polygon fill="red" stroke="red" stroke-width="0.366177" points="490.811,-25.4467 480.314,-24.0114 487.625,-31.6796 490.811,-25.4467"/>
</g>
<!-- &#45;22&#45;&gt;3 -->
<g id="edge88" class="edge"><title>&#45;22&#45;&gt;3</title>
<path fill="none" stroke="green" stroke-width="0.201939" d="M690.461,-68.4288C687.667,-67.4765 684.754,-66.5247 682,-65.6985 619.639,-46.9864 600.321,-54.2005 540,-29.6985 539.142,-29.35 538.277,-28.9756 537.412,-28.5812"/>
<polygon fill="green" stroke="green" stroke-width="0.201939" points="538.858,-25.3877 528.375,-23.8558 535.615,-31.591 538.858,-25.3877"/>
</g>
<!-- &#45;23 -->
<g id="node23" class="node"><title>&#45;23</title>
<polygon fill="lightgray" stroke="black" points="766.5,-83.6985 737.5,-83.6985 737.5,-65.6985 766.5,-65.6985 766.5,-83.6985"/>
<text text-anchor="middle" x="752" y="-72.4985" font-family="Times New Roman,serif" font-size="9.00">&#45;23</text>
</g>
<!-- &#45;23&#45;&gt;0 -->
<g id="edge89" class="edge"><title>&#45;23&#45;&gt;0</title>
<path fill="none" stroke="green" stroke-width="0.48332" d="M737.46,-68.4325C734.666,-67.4799 731.753,-66.527 729,-65.6985 667.067,-47.0579 647.902,-54.089 588,-29.6985 587.142,-29.3493 586.278,-28.9742 585.413,-28.5793"/>
<polygon fill="green" stroke="green" stroke-width="0.48332" points="586.859,-25.3861 576.376,-23.8515 583.614,-31.5885 586.859,-25.3861"/>
</g>
<!-- &#45;23&#45;&gt;1 -->
<g id="edge90" class="edge"><title>&#45;23&#45;&gt;1</title>
<path fill="none" stroke="red" stroke-width="0.410241" d="M737.282,-67.6169C712.916,-57.5486 664.014,-37.3418 635.038,-25.3687"/>
<polygon fill="red" stroke="red" stroke-width="0.410241" points="636.271,-22.0914 625.693,-21.5072 633.598,-28.5609 636.271,-22.0914"/>
</g>
<!-- &#45;23&#45;&gt;2 -->
<g id="edge91" class="edge"><title>&#45;23&#45;&gt;2</title>
<path fill="none" stroke="red" stroke-width="0.26734" d="M737.026,-68.046C734.377,-67.174 731.626,-66.3488 729,-65.6985 625.582,-40.0896 592.547,-64.9333 492,-29.6985 491.126,-29.3922 490.248,-29.0537 489.371,-28.6895"/>
<polygon fill="red" stroke="red" stroke-width="0.26734" points="490.785,-25.4829 480.28,-24.1053 487.633,-31.7331 490.785,-25.4829"/>
</g>
<!-- &#45;23&#45;&gt;3 -->
<g id="edge92" class="edge"><title>&#45;23&#45;&gt;3</title>
<path fill="none" stroke="green" stroke-width="0.166817" d="M737.499,-68.2944C734.702,-67.3545 731.777,-66.4417 729,-65.6985 646.396,-43.5933 620.155,-59.485 540,-29.6985 539.132,-29.3759 538.259,-29.0235 537.386,-28.6477"/>
<polygon fill="green" stroke="green" stroke-width="0.166817" points="538.812,-25.4458 528.315,-24.0089 535.625,-31.6781 538.812,-25.4458"/>
</g>
<!-- &#45;24 -->
<g id="node24" class="node"><title>&#45;24</title>
<polygon fill="lightgray" stroke="black" points="813.5,-83.6985 784.5,-83.6985 784.5,-65.6985 813.5,-65.6985 813.5,-83.6985"/>
<text text-anchor="middle" x="799" y="-72.4985" font-family="Times New Roman,serif" font-size="9.00">&#45;24</text>
</g>
<!-- &#45;24&#45;&gt;0 -->
<g id="edge93" class="edge"><title>&#45;24&#45;&gt;0</title>
<path fill="none" stroke="green" stroke-width="0.625732" d="M784.499,-68.2966C781.701,-67.3565 778.777,-66.443 776,-65.6985 693.829,-43.6659 667.731,-59.3719 588,-29.6985 587.132,-29.3755 586.259,-29.0227 585.386,-28.6466"/>
<polygon fill="green" stroke="green" stroke-width="0.625732" points="586.813,-25.4448 576.316,-24.0064 583.625,-31.6767 586.813,-25.4448"/>
</g>
<!-- &#45;24&#45;&gt;1 -->
<g id="edge94" class="edge"><title>&#45;24&#45;&gt;1</title>
<path fill="none" stroke="red" stroke-width="0.111138" d="M784.429,-68.5326C781.638,-67.5708 778.733,-66.5889 776,-65.6985 726.428,-49.5505 667.898,-32.1579 635.887,-22.787"/>
<polygon fill="red" stroke="red" stroke-width="0.111138" points="636.679,-19.3722 626.099,-19.9299 634.718,-26.0918 636.679,-19.3722"/>
</g>
<!-- &#45;24&#45;&gt;2 -->
<g id="edge95" class="edge"><title>&#45;24&#45;&gt;2</title>
<path fill="none" stroke="red" stroke-width="0.437763" d="M784.039,-67.9912C781.389,-67.1254 778.634,-66.3164 776,-65.6985 652.13,-36.6413 612.583,-70.2925 492,-29.6985 491.122,-29.403 490.241,-29.0737 489.361,-28.7173"/>
<polygon fill="red" stroke="red" stroke-width="0.437763" points="490.768,-25.5076 480.258,-24.1691 487.64,-31.7696 490.768,-25.5076"/>
</g>
<!-- &#45;24&#45;&gt;3 -->
<g id="edge96" class="edge"><title>&#45;24&#45;&gt;3</title>
<path fill="none" stroke="red" stroke-width="0.472971" d="M784.025,-68.0474C781.377,-67.1753 778.626,-66.3497 776,-65.6985 673.016,-40.1629 640.121,-64.8195 540,-29.6985 539.126,-29.392 538.248,-29.0532 537.371,-28.6888"/>
<polygon fill="red" stroke="red" stroke-width="0.472971" points="538.786,-25.4822 528.281,-24.1037 535.633,-31.7322 538.786,-25.4822"/>
</g>
</g>
</svg>
