<?xml version="1.0" encoding="UTF-8" standalone="no"?>
<!DOCTYPE svg PUBLIC "-//W3C//DTD SVG 1.1//EN"
 "http://www.w3.org/Graphics/SVG/1.1/DTD/svg11.dtd">
<!-- Generated by graphviz version 2.38.0 (20140413.2041)
 -->
<!-- Title: %3 Pages: 1 -->
<svg width="502pt" height="189pt"
 viewBox="0.00 0.00 502.35 188.89" xmlns="http://www.w3.org/2000/svg" xmlns:xlink="http://www.w3.org/1999/xlink">
<g id="graph0" class="graph" transform="scale(1 1) rotate(0) translate(4 184.894)">
<title>%3</title>
<polygon fill="white" stroke="none" points="-4,4 -4,-184.894 498.349,-184.894 498.349,4 -4,4"/>
<!-- &#45;1 -->
<g id="node1" class="node"><title>&#45;1</title>
<polygon fill="lightgray" stroke="black" points="29.8492,-175.045 5.84924,-175.045 5.84924,-157.045 29.8492,-157.045 29.8492,-175.045"/>
<text text-anchor="middle" x="17.8492" y="-163.845" font-family="Times New Roman,serif" font-size="9.00">&#45;1</text>
</g>
<!-- 2 -->
<g id="node14" class="node"><title>2</title>
<ellipse fill="lightblue" stroke="black" cx="62.8492" cy="-90.4472" rx="14.7" ry="14.7"/>
<text text-anchor="middle" x="62.8492" y="-88.2472" font-family="Times New Roman,serif" font-size="9.00">2</text>
</g>
<!-- &#45;1&#45;&gt;2 -->
<g id="edge7" class="edge"><title>&#45;1&#45;&gt;2</title>
<path fill="none" stroke="red" stroke-width="0.452819" stroke-dasharray="1,5" d="M22.837,-156.888C29.3938,-146.164 41.1431,-126.948 50.2197,-112.103"/>
<polygon fill="red" stroke="red" stroke-width="0.452819" points="53.225,-113.897 55.4554,-103.54 47.2528,-110.246 53.225,-113.897"/>
</g>
<!-- 3 -->
<g id="node15" class="node"><title>3</title>
<ellipse fill="lightblue" stroke="black" cx="14.8492" cy="-90.4472" rx="14.7" ry="14.7"/>
<text text-anchor="middle" x="14.8492" y="-88.2472" font-family="Times New Roman,serif" font-size="9.00">3</text>
</g>
<!-- &#45;1&#45;&gt;3 -->
<g id="edge10" class="edge"><title>&#45;1&#45;&gt;3</title>
<path fill="none" stroke="red" stroke-width="0.146954" d="M17.5167,-156.888C17.1131,-146.986 16.4144,-129.845 15.8333,-115.589"/>
<polygon fill="red" stroke="red" stroke-width="0.146954" points="19.3232,-115.267 15.4187,-105.418 12.329,-115.552 19.3232,-115.267"/>
</g>
<!-- &#45;2 -->
<g id="node2" class="node"><title>&#45;2</title>
<polygon fill="lightgray" stroke="black" points="360.849,-99.4472 336.849,-99.4472 336.849,-81.4472 360.849,-81.4472 360.849,-99.4472"/>
<text text-anchor="middle" x="348.849" y="-88.2472" font-family="Times New Roman,serif" font-size="9.00">&#45;2</text>
</g>
<!-- 4 -->
<g id="node16" class="node"><title>4</title>
<ellipse fill="lightblue" stroke="black" cx="368.849" cy="-14.8492" rx="14.7" ry="14.7"/>
<text text-anchor="middle" x="368.849" y="-12.6492" font-family="Times New Roman,serif" font-size="9.00">4</text>
</g>
<!-- &#45;2&#45;&gt;4 -->
<g id="edge6" class="edge"><title>&#45;2&#45;&gt;4</title>
<path fill="none" stroke="red" stroke-width="0.17503" d="M351.066,-81.2897C353.816,-71.1707 358.621,-53.4899 362.543,-39.0555"/>
<polygon fill="red" stroke="red" stroke-width="0.17503" points="365.956,-39.8412 365.201,-29.2734 359.201,-38.0055 365.956,-39.8412"/>
</g>
<!-- 5 -->
<g id="node17" class="node"><title>5</title>
<ellipse fill="lightblue" stroke="black" cx="259.849" cy="-14.8492" rx="14.7" ry="14.7"/>
<text text-anchor="middle" x="259.849" y="-12.6492" font-family="Times New Roman,serif" font-size="9.00">5</text>
</g>
<!-- &#45;2&#45;&gt;5 -->
<g id="edge8" class="edge"><title>&#45;2&#45;&gt;5</title>
<path fill="none" stroke="red" stroke-width="0.284017" d="M342.252,-81.1342C338.303,-76.3842 333.053,-70.447 327.849,-65.6985 312.948,-52.1011 294.384,-38.6972 280.419,-29.219"/>
<polygon fill="red" stroke="red" stroke-width="0.284017" points="282.252,-26.2343 271.991,-23.5948 278.366,-32.0569 282.252,-26.2343"/>
</g>
<!-- &#45;3 -->
<g id="node3" class="node"><title>&#45;3</title>
<polygon fill="lightgray" stroke="black" points="313.849,-175.045 289.849,-175.045 289.849,-157.045 313.849,-157.045 313.849,-175.045"/>
<text text-anchor="middle" x="301.849" y="-163.845" font-family="Times New Roman,serif" font-size="9.00">&#45;3</text>
</g>
<!-- &#45;4 -->
<g id="node4" class="node"><title>&#45;4</title>
<polygon fill="lightgray" stroke="black" points="355.849,-175.045 331.849,-175.045 331.849,-157.045 355.849,-157.045 355.849,-175.045"/>
<text text-anchor="middle" x="343.849" y="-163.845" font-family="Times New Roman,serif" font-size="9.00">&#45;4</text>
</g>
<!-- &#45;5 -->
<g id="node5" class="node"><title>&#45;5</title>
<polygon fill="lightgray" stroke="black" points="74.8492,-175.045 50.8492,-175.045 50.8492,-157.045 74.8492,-157.045 74.8492,-175.045"/>
<text text-anchor="middle" x="62.8492" y="-163.845" font-family="Times New Roman,serif" font-size="9.00">&#45;5</text>
</g>
<!-- &#45;5&#45;&gt;2 -->
<g id="edge9" class="edge"><title>&#45;5&#45;&gt;2</title>
<path fill="none" stroke="red" stroke-width="0.17715" d="M62.8492,-156.888C62.8492,-146.986 62.8492,-129.845 62.8492,-115.589"/>
<polygon fill="red" stroke="red" stroke-width="0.17715" points="66.3493,-115.418 62.8492,-105.418 59.3493,-115.418 66.3493,-115.418"/>
</g>
<!-- &#45;6 -->
<g id="node6" class="node"><title>&#45;6</title>
<polygon fill="lightgray" stroke="black" points="397.849,-175.045 373.849,-175.045 373.849,-157.045 397.849,-157.045 397.849,-175.045"/>
<text text-anchor="middle" x="385.849" y="-163.845" font-family="Times New Roman,serif" font-size="9.00">&#45;6</text>
</g>
<!-- &#45;7 -->
<g id="node7" class="node"><title>&#45;7</title>
<polygon fill="lightgray" stroke="black" points="271.849,-175.045 247.849,-175.045 247.849,-157.045 271.849,-157.045 271.849,-175.045"/>
<text text-anchor="middle" x="259.849" y="-163.845" font-family="Times New Roman,serif" font-size="9.00">&#45;7</text>
</g>
<!-- 0 -->
<g id="node12" class="node"><title>0</title>
<ellipse fill="lightblue" stroke="black" cx="436.849" cy="-14.8492" rx="14.7" ry="14.7"/>
<text text-anchor="middle" x="436.849" y="-12.6492" font-family="Times New Roman,serif" font-size="9.00">0</text>
</g>
<!-- &#45;7&#45;&gt;0 -->
<g id="edge1" class="edge"><title>&#45;7&#45;&gt;0</title>
<path fill="none" stroke="green" stroke-width="0.289177" d="M270.577,-157.005C273.762,-154.889 277.34,-152.763 280.849,-151.196 338.334,-125.526 374.872,-161.2 417.849,-115.196 436.702,-95.0158 439.562,-62.1375 438.964,-39.7782"/>
<polygon fill="green" stroke="green" stroke-width="0.289177" points="442.457,-39.5553 438.447,-29.7486 435.466,-39.9154 442.457,-39.5553"/>
</g>
<!-- &#45;7&#45;&gt;5 -->
<g id="edge5" class="edge"><title>&#45;7&#45;&gt;5</title>
<path fill="none" stroke="green" stroke-width="0.192594" stroke-dasharray="1,5" d="M247.666,-160.164C231.677,-153.008 204.305,-137.997 192.849,-115.196 182.973,-95.5385 182.973,-85.356 192.849,-65.6985 202.066,-47.3527 221.587,-34.05 237.193,-25.8247"/>
<polygon fill="green" stroke="green" stroke-width="0.192594" points="238.846,-28.9123 246.276,-21.3598 235.758,-22.6302 238.846,-28.9123"/>
</g>
<!-- 1184 -->
<g id="node18" class="node"><title>1184</title>
<ellipse fill="white" stroke="black" cx="226.849" cy="-90.4472" rx="25" ry="25"/>
<text text-anchor="middle" x="226.849" y="-88.2472" font-family="Times New Roman,serif" font-size="9.00">1184</text>
</g>
<!-- &#45;7&#45;&gt;1184 -->
<g id="edge17" class="edge"><title>&#45;7&#45;&gt;1184</title>
<path fill="none" stroke="green" stroke-width="0.3" d="M256.192,-156.888C252.474,-148.597 246.48,-135.229 240.876,-122.73"/>
<polygon fill="green" stroke="green" stroke-width="0.3" points="243.996,-121.133 236.711,-113.44 237.608,-123.997 243.996,-121.133"/>
</g>
<!-- 1134 -->
<g id="node19" class="node"><title>1134</title>
<ellipse fill="white" stroke="black" cx="293.849" cy="-90.4472" rx="25" ry="25"/>
<text text-anchor="middle" x="293.849" y="-88.2472" font-family="Times New Roman,serif" font-size="9.00">1134</text>
</g>
<!-- &#45;7&#45;&gt;1134 -->
<g id="edge14" class="edge"><title>&#45;7&#45;&gt;1134</title>
<path fill="none" stroke="green" stroke-width="0.3" d="M263.618,-156.888C267.476,-148.537 273.712,-135.037 279.522,-122.461"/>
<polygon fill="green" stroke="green" stroke-width="0.3" points="282.818,-123.671 283.835,-113.125 276.464,-120.735 282.818,-123.671"/>
</g>
<!-- &#45;8 -->
<g id="node8" class="node"><title>&#45;8</title>
<polygon fill="lightgray" stroke="black" points="124.849,-175.045 100.849,-175.045 100.849,-157.045 124.849,-157.045 124.849,-175.045"/>
<text text-anchor="middle" x="112.849" y="-163.845" font-family="Times New Roman,serif" font-size="9.00">&#45;8</text>
</g>
<!-- &#45;8&#45;&gt;2 -->
<g id="edge3" class="edge"><title>&#45;8&#45;&gt;2</title>
<path fill="none" stroke="green" stroke-width="0.20875" stroke-dasharray="1,5" d="M107.307,-156.888C99.9799,-146.102 86.816,-126.725 76.7075,-111.846"/>
<polygon fill="green" stroke="green" stroke-width="0.20875" points="79.4025,-109.585 70.8878,-103.28 73.6123,-113.518 79.4025,-109.585"/>
</g>
<!-- 1080 -->
<g id="node20" class="node"><title>1080</title>
<ellipse fill="white" stroke="black" cx="120.849" cy="-90.4472" rx="25" ry="25"/>
<text text-anchor="middle" x="120.849" y="-88.2472" font-family="Times New Roman,serif" font-size="9.00">1080</text>
</g>
<!-- &#45;8&#45;&gt;1080 -->
<g id="edge16" class="edge"><title>&#45;8&#45;&gt;1080</title>
<path fill="none" stroke="green" stroke-width="0.449699" d="M113.736,-156.888C114.573,-149.188 115.886,-137.11 117.157,-125.415"/>
<polygon fill="green" stroke="green" stroke-width="0.449699" points="120.649,-125.676 118.25,-115.357 113.69,-124.92 120.649,-125.676"/>
</g>
<!-- &#45;9 -->
<g id="node9" class="node"><title>&#45;9</title>
<polygon fill="lightgray" stroke="black" points="439.849,-175.045 415.849,-175.045 415.849,-157.045 439.849,-157.045 439.849,-175.045"/>
<text text-anchor="middle" x="427.849" y="-163.845" font-family="Times New Roman,serif" font-size="9.00">&#45;9</text>
</g>
<!-- &#45;10 -->
<g id="node10" class="node"><title>&#45;10</title>
<polygon fill="lightgray" stroke="black" points="494.349,-99.4472 465.349,-99.4472 465.349,-81.4472 494.349,-81.4472 494.349,-99.4472"/>
<text text-anchor="middle" x="479.849" y="-88.2472" font-family="Times New Roman,serif" font-size="9.00">&#45;10</text>
</g>
<!-- &#45;10&#45;&gt;0 -->
<g id="edge12" class="edge"><title>&#45;10&#45;&gt;0</title>
<path fill="none" stroke="red" stroke-width="0.164102" d="M475.083,-81.2897C468.877,-70.6672 457.802,-51.7116 449.164,-36.9263"/>
<polygon fill="red" stroke="red" stroke-width="0.164102" points="451.981,-34.8106 443.914,-27.9419 445.937,-38.3419 451.981,-34.8106"/>
</g>
<!-- &#45;11 -->
<g id="node11" class="node"><title>&#45;11</title>
<polygon fill="lightgray" stroke="black" points="408.349,-99.4472 379.349,-99.4472 379.349,-81.4472 408.349,-81.4472 408.349,-99.4472"/>
<text text-anchor="middle" x="393.849" y="-88.2472" font-family="Times New Roman,serif" font-size="9.00">&#45;11</text>
</g>
<!-- &#45;11&#45;&gt;0 -->
<g id="edge2" class="edge"><title>&#45;11&#45;&gt;0</title>
<path fill="none" stroke="red" stroke-width="0.521259" d="M398.615,-81.2897C404.822,-70.6672 415.896,-51.7116 424.535,-36.9263"/>
<polygon fill="red" stroke="red" stroke-width="0.521259" points="427.761,-38.3419 429.784,-27.9419 421.717,-34.8106 427.761,-38.3419"/>
</g>
<!-- &#45;11&#45;&gt;4 -->
<g id="edge4" class="edge"><title>&#45;11&#45;&gt;4</title>
<path fill="none" stroke="green" stroke-width="0.232722" d="M391.078,-81.2897C387.641,-71.1707 381.635,-53.4899 376.732,-39.0555"/>
<polygon fill="green" stroke="green" stroke-width="0.232722" points="379.94,-37.6163 373.409,-29.2734 373.312,-39.8677 379.94,-37.6163"/>
</g>
<!-- &#45;11&#45;&gt;5 -->
<g id="edge11" class="edge"><title>&#45;11&#45;&gt;5</title>
<path fill="none" stroke="green" stroke-width="0.291646" d="M386.898,-81.217C382.405,-76.2624 376.223,-70.0854 369.849,-65.6985 342.441,-46.8339 306.743,-32.2016 283.565,-23.8038"/>
<polygon fill="green" stroke="green" stroke-width="0.291646" points="284.466,-20.4106 273.872,-20.3912 282.142,-27.0134 284.466,-20.4106"/>
</g>
<!-- 1 -->
<g id="node13" class="node"><title>1</title>
<ellipse fill="lightblue" stroke="black" cx="472.849" cy="-166.045" rx="14.7" ry="14.7"/>
<text text-anchor="middle" x="472.849" y="-163.845" font-family="Times New Roman,serif" font-size="9.00">1</text>
</g>
<!-- 1184&#45;&gt;5 -->
<g id="edge18" class="edge"><title>1184&#45;&gt;5</title>
<path fill="none" stroke="green" stroke-width="0.192594" d="M236.75,-67.3654C240.877,-58.1615 245.663,-47.4869 249.805,-38.2495"/>
<polygon fill="green" stroke="green" stroke-width="0.192594" points="253.087,-39.4843 253.985,-28.9276 246.7,-36.6203 253.087,-39.4843"/>
</g>
<!-- 1134&#45;&gt;5 -->
<g id="edge15" class="edge"><title>1134&#45;&gt;5</title>
<path fill="none" stroke="green" stroke-width="0.192594" d="M283.832,-67.7635C279.471,-58.3225 274.367,-47.275 269.992,-37.8036"/>
<polygon fill="green" stroke="green" stroke-width="0.192594" points="273.128,-36.2478 265.757,-28.6375 266.774,-39.1835 273.128,-36.2478"/>
</g>
<!-- 1080&#45;&gt;5 -->
<g id="edge13" class="edge"><title>1080&#45;&gt;5</title>
<path fill="none" stroke="green" stroke-width="0.192594" d="M141.708,-76.2994C147.522,-72.757 153.882,-68.9951 159.849,-65.6985 186.115,-51.1885 217.15,-36.013 237.601,-26.2741"/>
<polygon fill="green" stroke="green" stroke-width="0.192594" points="239.182,-29.3984 246.723,-21.9567 236.187,-23.0713 239.182,-29.3984"/>
</g>
</g>
</svg>
