<?xml version="1.0" encoding="UTF-8" standalone="no"?>
<!DOCTYPE svg PUBLIC "-//W3C//DTD SVG 1.1//EN"
 "http://www.w3.org/Graphics/SVG/1.1/DTD/svg11.dtd">
<!-- Generated by graphviz version 2.38.0 (20140413.2041)
 -->
<!-- Title: %3 Pages: 1 -->
<svg width="906pt" height="729pt"
 viewBox="0.00 0.00 906.00 729.01" xmlns="http://www.w3.org/2000/svg" xmlns:xlink="http://www.w3.org/1999/xlink">
<g id="graph0" class="graph" transform="scale(1 1) rotate(0) translate(4 725.009)">
<title>%3</title>
<polygon fill="white" stroke="none" points="-4,4 -4,-725.009 902,-725.009 902,4 -4,4"/>
<!-- &#45;1 -->
<g id="node1" class="node"><title>&#45;1</title>
<polygon fill="lightgray" stroke="black" points="528,-661.16 504,-661.16 504,-643.16 528,-643.16 528,-661.16"/>
<text text-anchor="middle" x="516" y="-649.96" font-family="Times New Roman,serif" font-size="9.00">&#45;1</text>
</g>
<!-- 5 -->
<g id="node17" class="node"><title>5</title>
<ellipse fill="lightblue" stroke="black" cx="521" cy="-498.136" rx="14.7" ry="14.7"/>
<text text-anchor="middle" x="521" y="-495.936" font-family="Times New Roman,serif" font-size="9.00">5</text>
</g>
<!-- &#45;1&#45;&gt;5 -->
<g id="edge60" class="edge"><title>&#45;1&#45;&gt;5</title>
<path fill="none" stroke="red" stroke-width="0.185975" d="M516.269,-642.987C517.001,-620.726 519.052,-558.362 520.199,-523.5"/>
<polygon fill="red" stroke="red" stroke-width="0.185975" points="523.706,-523.343 520.536,-513.233 516.709,-523.113 523.706,-523.343"/>
</g>
<!-- 355 -->
<g id="node28" class="node"><title>355</title>
<ellipse fill="white" stroke="black" cx="472" cy="-580.098" rx="21.4286" ry="21.4286"/>
<text text-anchor="middle" x="472" y="-577.898" font-family="Times New Roman,serif" font-size="9.00">355</text>
</g>
<!-- &#45;1&#45;&gt;355 -->
<g id="edge15" class="edge"><title>&#45;1&#45;&gt;355</title>
<path fill="none" stroke="red" stroke-width="0.182787" d="M510.953,-643.123C505.414,-634.303 496.237,-619.691 488.182,-606.865"/>
<polygon fill="red" stroke="red" stroke-width="0.182787" points="491.125,-604.97 482.843,-598.363 485.197,-608.693 491.125,-604.97"/>
</g>
<!-- &#45;2 -->
<g id="node2" class="node"><title>&#45;2</title>
<polygon fill="lightgray" stroke="black" points="571,-721.009 547,-721.009 547,-703.009 571,-703.009 571,-721.009"/>
<text text-anchor="middle" x="559" y="-709.809" font-family="Times New Roman,serif" font-size="9.00">&#45;2</text>
</g>
<!-- 0 -->
<g id="node12" class="node"><title>0</title>
<ellipse fill="lightblue" stroke="black" cx="418" cy="-652.16" rx="14.7" ry="14.7"/>
<text text-anchor="middle" x="418" y="-649.96" font-family="Times New Roman,serif" font-size="9.00">0</text>
</g>
<!-- &#45;2&#45;&gt;0 -->
<g id="edge2" class="edge"><title>&#45;2&#45;&gt;0</title>
<path fill="none" stroke="red" stroke-width="0.295491" d="M546.978,-706.077C523.524,-696.454 471.309,-675.032 440.998,-662.596"/>
<polygon fill="red" stroke="red" stroke-width="0.295491" points="442.212,-659.311 431.632,-658.753 439.555,-665.787 442.212,-659.311"/>
</g>
<!-- 3 -->
<g id="node15" class="node"><title>3</title>
<ellipse fill="lightblue" stroke="black" cx="710" cy="-14.8492" rx="14.7" ry="14.7"/>
<text text-anchor="middle" x="710" y="-12.6492" font-family="Times New Roman,serif" font-size="9.00">3</text>
</g>
<!-- &#45;2&#45;&gt;3 -->
<g id="edge3" class="edge"><title>&#45;2&#45;&gt;3</title>
<path fill="none" stroke="green" stroke-width="0.187549" stroke-dasharray="1,5" d="M571.065,-709.14C631.454,-699.451 898,-652.634 898,-581.098 898,-581.098 898,-581.098 898,-174.945 898,-119.117 878.131,-102.328 836,-65.6985 806.379,-39.9449 761.845,-26.586 734.421,-20.4051"/>
<polygon fill="green" stroke="green" stroke-width="0.187549" points="734.986,-16.9473 724.479,-18.3109 733.543,-23.797 734.986,-16.9473"/>
</g>
<!-- &#45;2&#45;&gt;5 -->
<g id="edge8" class="edge"><title>&#45;2&#45;&gt;5</title>
<path fill="none" stroke="green" stroke-width="0.266106" d="M557.675,-702.749C553.982,-679.858 543.182,-613.677 533,-558.884 530.796,-547.026 528.176,-533.881 525.946,-522.946"/>
<polygon fill="green" stroke="green" stroke-width="0.266106" points="529.319,-521.969 523.877,-512.878 522.462,-523.378 529.319,-521.969"/>
</g>
<!-- 1202 -->
<g id="node22" class="node"><title>1202</title>
<ellipse fill="white" stroke="black" cx="617" cy="-412.638" rx="25" ry="25"/>
<text text-anchor="middle" x="617" y="-410.438" font-family="Times New Roman,serif" font-size="9.00">1202</text>
</g>
<!-- &#45;2&#45;&gt;1202 -->
<g id="edge14" class="edge"><title>&#45;2&#45;&gt;1202</title>
<path fill="none" stroke="green" stroke-width="0.3" d="M560.612,-702.745C567.802,-665.883 597.173,-515.292 610.441,-447.269"/>
<polygon fill="green" stroke="green" stroke-width="0.3" points="613.947,-447.576 612.426,-437.091 607.076,-446.236 613.947,-447.576"/>
</g>
<!-- &#45;2&#45;&gt;355 -->
<g id="edge6" class="edge"><title>&#45;2&#45;&gt;355</title>
<path fill="none" stroke="red" stroke-width="0.233537" d="M546.918,-705.906C532.39,-699.147 508.304,-685.841 495,-667.009 483.564,-650.822 477.814,-629.269 474.923,-611.8"/>
<polygon fill="red" stroke="red" stroke-width="0.233537" points="478.337,-610.945 473.467,-601.536 471.406,-611.928 478.337,-610.945"/>
</g>
<!-- &#45;3 -->
<g id="node3" class="node"><title>&#45;3</title>
<polygon fill="lightgray" stroke="black" points="737,-589.098 713,-589.098 713,-571.098 737,-571.098 737,-589.098"/>
<text text-anchor="middle" x="725" y="-577.898" font-family="Times New Roman,serif" font-size="9.00">&#45;3</text>
</g>
<!-- &#45;3&#45;&gt;3 -->
<g id="edge22" class="edge"><title>&#45;3&#45;&gt;3</title>
<path fill="none" stroke="red" stroke-width="0.137086" stroke-dasharray="1,5" d="M734.301,-570.808C758.579,-548.205 822,-482.565 822,-413.638 822,-413.638 822,-413.638 822,-174.945 822,-111.958 762.578,-56.3204 730.299,-30.7437"/>
<polygon fill="red" stroke="red" stroke-width="0.137086" points="732.045,-27.6715 721.986,-24.3458 727.776,-33.2187 732.045,-27.6715"/>
</g>
<!-- 2440 -->
<g id="node19" class="node"><title>2440</title>
<ellipse fill="white" stroke="black" cx="655" cy="-498.136" rx="25" ry="25"/>
<text text-anchor="middle" x="655" y="-495.936" font-family="Times New Roman,serif" font-size="9.00">2440</text>
</g>
<!-- &#45;3&#45;&gt;2440 -->
<g id="edge46" class="edge"><title>&#45;3&#45;&gt;2440</title>
<path fill="none" stroke="green" stroke-width="0.3" d="M717.772,-570.841C708.432,-560.172 691.727,-541.089 677.897,-525.291"/>
<polygon fill="green" stroke="green" stroke-width="0.3" points="680.202,-522.61 670.981,-517.391 674.935,-527.221 680.202,-522.61"/>
</g>
<!-- &#45;3&#45;&gt;1202 -->
<g id="edge27" class="edge"><title>&#45;3&#45;&gt;1202</title>
<path fill="none" stroke="red" stroke-width="0.180526" stroke-dasharray="1,5" d="M723.79,-571C720.691,-552.344 711.106,-505.479 689,-473.387 677.754,-457.061 660.867,-442.721 646.273,-432.185"/>
<polygon fill="red" stroke="red" stroke-width="0.180526" points="648.213,-429.271 638.005,-426.435 644.216,-435.018 648.213,-429.271"/>
</g>
<!-- 2037 -->
<g id="node31" class="node"><title>2037</title>
<ellipse fill="white" stroke="black" cx="456" cy="-261.442" rx="25" ry="25"/>
<text text-anchor="middle" x="456" y="-259.242" font-family="Times New Roman,serif" font-size="9.00">2037</text>
</g>
<!-- &#45;3&#45;&gt;2037 -->
<g id="edge33" class="edge"><title>&#45;3&#45;&gt;2037</title>
<path fill="none" stroke="green" stroke-width="0.3" d="M725.68,-571.073C726.913,-552.955 728.279,-507.781 715,-473.387 697.904,-429.107 685.732,-420.242 651,-387.889 599.597,-340.009 527.661,-299.113 487.072,-277.929"/>
<polygon fill="green" stroke="green" stroke-width="0.3" points="488.433,-274.693 477.941,-273.22 485.225,-280.914 488.433,-274.693"/>
</g>
<!-- &#45;4 -->
<g id="node4" class="node"><title>&#45;4</title>
<polygon fill="lightgray" stroke="black" points="91,-661.16 67,-661.16 67,-643.16 91,-643.16 91,-661.16"/>
<text text-anchor="middle" x="79" y="-649.96" font-family="Times New Roman,serif" font-size="9.00">&#45;4</text>
</g>
<!-- 435 -->
<g id="node23" class="node"><title>435</title>
<ellipse fill="white" stroke="black" cx="133" cy="-580.098" rx="21.4286" ry="21.4286"/>
<text text-anchor="middle" x="133" y="-577.898" font-family="Times New Roman,serif" font-size="9.00">435</text>
</g>
<!-- &#45;4&#45;&gt;435 -->
<g id="edge16" class="edge"><title>&#45;4&#45;&gt;435</title>
<path fill="none" stroke="red" stroke-width="0.248018" d="M85.1945,-643.123C92.1939,-634.042 103.927,-618.819 114.017,-605.728"/>
<polygon fill="red" stroke="red" stroke-width="0.248018" points="117.011,-607.576 120.344,-597.519 111.467,-603.302 117.011,-607.576"/>
</g>
<!-- 1394 -->
<g id="node30" class="node"><title>1394</title>
<ellipse fill="white" stroke="black" cx="53" cy="-498.136" rx="25" ry="25"/>
<text text-anchor="middle" x="53" y="-495.936" font-family="Times New Roman,serif" font-size="9.00">1394</text>
</g>
<!-- &#45;4&#45;&gt;1394 -->
<g id="edge43" class="edge"><title>&#45;4&#45;&gt;1394</title>
<path fill="none" stroke="red" stroke-width="0.262784" d="M77.6021,-642.987C74.1077,-622.554 64.8348,-568.335 58.7246,-532.608"/>
<polygon fill="red" stroke="red" stroke-width="0.262784" points="62.1519,-531.885 57.0162,-522.619 55.2521,-533.066 62.1519,-531.885"/>
</g>
<!-- &#45;5 -->
<g id="node5" class="node"><title>&#45;5</title>
<polygon fill="lightgray" stroke="black" points="339,-589.098 315,-589.098 315,-571.098 339,-571.098 339,-589.098"/>
<text text-anchor="middle" x="327" y="-577.898" font-family="Times New Roman,serif" font-size="9.00">&#45;5</text>
</g>
<!-- 1410 -->
<g id="node18" class="node"><title>1410</title>
<ellipse fill="white" stroke="black" cx="235" cy="-498.136" rx="25" ry="25"/>
<text text-anchor="middle" x="235" y="-495.936" font-family="Times New Roman,serif" font-size="9.00">1410</text>
</g>
<!-- &#45;5&#45;&gt;1410 -->
<g id="edge40" class="edge"><title>&#45;5&#45;&gt;1410</title>
<path fill="none" stroke="green" stroke-width="0.108045" d="M317.501,-570.841C304.325,-559.389 279.997,-538.245 261.161,-521.873"/>
<polygon fill="green" stroke="green" stroke-width="0.108045" points="263.316,-519.109 253.472,-515.191 258.724,-524.393 263.316,-519.109"/>
</g>
<!-- &#45;5&#45;&gt;2037 -->
<g id="edge45" class="edge"><title>&#45;5&#45;&gt;2037</title>
<path fill="none" stroke="green" stroke-width="0.396595" d="M326.153,-570.934C323.043,-536.612 315.424,-402.091 377,-322.191 378.99,-319.609 406.337,-299.125 428.305,-282.851"/>
<polygon fill="green" stroke="green" stroke-width="0.396595" points="430.439,-285.626 436.398,-276.866 426.276,-279.998 430.439,-285.626"/>
</g>
<!-- &#45;6 -->
<g id="node6" class="node"><title>&#45;6</title>
<polygon fill="lightgray" stroke="black" points="194,-661.16 170,-661.16 170,-643.16 194,-643.16 194,-661.16"/>
<text text-anchor="middle" x="182" y="-649.96" font-family="Times New Roman,serif" font-size="9.00">&#45;6</text>
</g>
<!-- &#45;6&#45;&gt;1202 -->
<g id="edge57" class="edge"><title>&#45;6&#45;&gt;1202</title>
<path fill="none" stroke="red" stroke-width="0.134606" d="M194.347,-649.265C222.866,-644.514 294.938,-630.339 348,-601.311 424.571,-559.422 424.267,-521.634 497,-473.387 525.25,-454.647 560.203,-437.889 585.084,-426.924"/>
<polygon fill="red" stroke="red" stroke-width="0.134606" points="586.641,-430.065 594.421,-422.873 583.854,-423.643 586.641,-430.065"/>
</g>
<!-- &#45;6&#45;&gt;435 -->
<g id="edge17" class="edge"><title>&#45;6&#45;&gt;435</title>
<path fill="none" stroke="green" stroke-width="0.2191" d="M176.379,-643.123C170.17,-634.245 159.856,-619.498 150.843,-606.61"/>
<polygon fill="green" stroke="green" stroke-width="0.2191" points="153.477,-604.269 144.877,-598.08 147.74,-608.281 153.477,-604.269"/>
</g>
<!-- 1352 -->
<g id="node25" class="node"><title>1352</title>
<ellipse fill="white" stroke="black" cx="389" cy="-261.442" rx="25" ry="25"/>
<text text-anchor="middle" x="389" y="-259.242" font-family="Times New Roman,serif" font-size="9.00">1352</text>
</g>
<!-- &#45;6&#45;&gt;1352 -->
<g id="edge51" class="edge"><title>&#45;6&#45;&gt;1352</title>
<path fill="none" stroke="green" stroke-width="0.153582" d="M182,-642.92C182,-620.082 182,-554.033 182,-499.136 182,-499.136 182,-499.136 182,-411.638 182,-327.431 296.129,-286.017 354.899,-270.274"/>
<polygon fill="green" stroke="green" stroke-width="0.153582" points="356.038,-273.595 364.849,-267.712 354.292,-266.816 356.038,-273.595"/>
</g>
<!-- &#45;7 -->
<g id="node7" class="node"><title>&#45;7</title>
<polygon fill="lightgray" stroke="black" points="661,-589.098 637,-589.098 637,-571.098 661,-571.098 661,-589.098"/>
<text text-anchor="middle" x="649" y="-577.898" font-family="Times New Roman,serif" font-size="9.00">&#45;7</text>
</g>
<!-- 4 -->
<g id="node16" class="node"><title>4</title>
<ellipse fill="lightblue" stroke="black" cx="401" cy="-337.04" rx="14.7" ry="14.7"/>
<text text-anchor="middle" x="401" y="-334.84" font-family="Times New Roman,serif" font-size="9.00">4</text>
</g>
<!-- &#45;7&#45;&gt;4 -->
<g id="edge5" class="edge"><title>&#45;7&#45;&gt;4</title>
<path fill="none" stroke="red" stroke-width="0.128716" d="M641.277,-571.035C624.159,-553.211 581.638,-509.199 545,-473.387 500.529,-429.919 446.846,-380.156 419.288,-354.802"/>
<polygon fill="red" stroke="red" stroke-width="0.128716" points="421.345,-351.939 411.613,-347.751 416.609,-357.094 421.345,-351.939"/>
</g>
<!-- &#45;7&#45;&gt;2440 -->
<g id="edge48" class="edge"><title>&#45;7&#45;&gt;2440</title>
<path fill="none" stroke="green" stroke-width="0.357412" d="M649.62,-570.841C650.288,-561.938 651.395,-547.177 652.432,-533.354"/>
<polygon fill="green" stroke="green" stroke-width="0.357412" points="655.945,-533.313 653.203,-523.079 648.965,-532.789 655.945,-533.313"/>
</g>
<!-- &#45;8 -->
<g id="node8" class="node"><title>&#45;8</title>
<polygon fill="lightgray" stroke="black" points="796,-589.098 772,-589.098 772,-571.098 796,-571.098 796,-589.098"/>
<text text-anchor="middle" x="784" y="-577.898" font-family="Times New Roman,serif" font-size="9.00">&#45;8</text>
</g>
<!-- &#45;8&#45;&gt;3 -->
<g id="edge7" class="edge"><title>&#45;8&#45;&gt;3</title>
<path fill="none" stroke="red" stroke-width="0.117924" stroke-dasharray="1,5" d="M790.744,-571.095C809.345,-548.179 860,-479.705 860,-413.638 860,-413.638 860,-413.638 860,-174.945 860,-119.55 839.1,-104.939 800,-65.6985 780.89,-46.5198 752.857,-32.5762 733.168,-24.3921"/>
<polygon fill="red" stroke="red" stroke-width="0.117924" points="734.31,-21.0795 723.724,-20.64 731.725,-27.5849 734.31,-21.0795"/>
</g>
<!-- &#45;8&#45;&gt;5 -->
<g id="edge9" class="edge"><title>&#45;8&#45;&gt;5</title>
<path fill="none" stroke="green" stroke-width="0.18726" d="M771.677,-571.613C764.403,-567.434 754.903,-562.381 746,-558.884 708.937,-544.329 595.632,-516.783 545.408,-504.867"/>
<polygon fill="green" stroke="green" stroke-width="0.18726" points="545.963,-501.402 535.426,-502.508 544.353,-508.214 545.963,-501.402"/>
</g>
<!-- 2024 -->
<g id="node29" class="node"><title>2024</title>
<ellipse fill="white" stroke="black" cx="684" cy="-90.4472" rx="25" ry="25"/>
<text text-anchor="middle" x="684" y="-88.2472" font-family="Times New Roman,serif" font-size="9.00">2024</text>
</g>
<!-- &#45;8&#45;&gt;2024 -->
<g id="edge59" class="edge"><title>&#45;8&#45;&gt;2024</title>
<path fill="none" stroke="red" stroke-width="0.328229" d="M784,-570.834C784,-546.657 784,-473.962 784,-413.638 784,-413.638 784,-413.638 784,-260.442 784,-201.672 738.653,-145.42 709.033,-114.945"/>
<polygon fill="red" stroke="red" stroke-width="0.328229" points="711.416,-112.378 701.878,-107.766 706.458,-117.32 711.416,-112.378"/>
</g>
<!-- &#45;9 -->
<g id="node9" class="node"><title>&#45;9</title>
<polygon fill="lightgray" stroke="black" points="416,-421.638 392,-421.638 392,-403.638 416,-403.638 416,-421.638"/>
<text text-anchor="middle" x="404" y="-410.438" font-family="Times New Roman,serif" font-size="9.00">&#45;9</text>
</g>
<!-- &#45;9&#45;&gt;4 -->
<g id="edge21" class="edge"><title>&#45;9&#45;&gt;4</title>
<path fill="none" stroke="red" stroke-width="0.10564" d="M403.667,-403.481C403.264,-393.579 402.565,-376.437 401.984,-362.182"/>
<polygon fill="red" stroke="red" stroke-width="0.10564" points="405.474,-361.86 401.569,-352.011 398.48,-362.145 405.474,-361.86"/>
</g>
<!-- &#45;10 -->
<g id="node10" class="node"><title>&#45;10</title>
<polygon fill="lightgray" stroke="black" points="147.5,-661.16 118.5,-661.16 118.5,-643.16 147.5,-643.16 147.5,-661.16"/>
<text text-anchor="middle" x="133" y="-649.96" font-family="Times New Roman,serif" font-size="9.00">&#45;10</text>
</g>
<!-- &#45;10&#45;&gt;3 -->
<g id="edge42" class="edge"><title>&#45;10&#45;&gt;3</title>
<path fill="none" stroke="green" stroke-width="0.118483" d="M118.259,-643.464C83.6303,-624.205 0,-570.323 0,-499.136 0,-499.136 0,-499.136 0,-174.945 0,-31.4795 558.963,-17.3515 684.972,-15.9893"/>
<polygon fill="green" stroke="green" stroke-width="0.118483" points="685.203,-19.4875 695.171,-15.8977 685.14,-12.4878 685.203,-19.4875"/>
</g>
<!-- &#45;10&#45;&gt;435 -->
<g id="edge12" class="edge"><title>&#45;10&#45;&gt;435</title>
<path fill="none" stroke="red" stroke-width="0.152561" d="M133,-643.123C133,-635.418 133,-623.291 133,-611.796"/>
<polygon fill="red" stroke="red" stroke-width="0.152561" points="136.5,-611.563 133,-601.563 129.5,-611.563 136.5,-611.563"/>
</g>
<!-- &#45;10&#45;&gt;355 -->
<g id="edge25" class="edge"><title>&#45;10&#45;&gt;355</title>
<path fill="none" stroke="red" stroke-width="0.175483" d="M147.494,-643.029C151.744,-640.912 156.468,-638.808 161,-637.311 187.442,-628.575 367.532,-598.343 440.946,-586.202"/>
<polygon fill="red" stroke="red" stroke-width="0.175483" points="441.676,-589.629 450.973,-584.547 440.536,-582.723 441.676,-589.629"/>
</g>
<!-- &#45;11 -->
<g id="node11" class="node"><title>&#45;11</title>
<polygon fill="lightgray" stroke="black" points="407.5,-721.009 378.5,-721.009 378.5,-703.009 407.5,-703.009 407.5,-721.009"/>
<text text-anchor="middle" x="393" y="-709.809" font-family="Times New Roman,serif" font-size="9.00">&#45;11</text>
</g>
<!-- &#45;11&#45;&gt;0 -->
<g id="edge4" class="edge"><title>&#45;11&#45;&gt;0</title>
<path fill="none" stroke="green" stroke-width="0.435428" d="M396.476,-702.966C399.575,-695.794 404.259,-684.955 408.467,-675.219"/>
<polygon fill="green" stroke="green" stroke-width="0.435428" points="411.686,-676.594 412.44,-666.026 405.26,-673.817 411.686,-676.594"/>
</g>
<!-- &#45;11&#45;&gt;4 -->
<g id="edge1" class="edge"><title>&#45;11&#45;&gt;4</title>
<path fill="none" stroke="green" stroke-width="0.186378" d="M392.598,-702.954C390.977,-670.026 384.919,-542.423 383,-437.387 382.598,-415.392 379.208,-409.559 383,-387.889 384.624,-378.611 387.828,-368.781 391.088,-360.325"/>
<polygon fill="green" stroke="green" stroke-width="0.186378" points="394.429,-361.401 394.99,-350.821 387.954,-358.742 394.429,-361.401"/>
</g>
<!-- 0&#45;&gt;1352 -->
<g id="edge23" class="edge"><title>0&#45;&gt;1352</title>
<path fill="none" stroke="red" stroke-width="0.128511" d="M403.104,-649.58C377.981,-646.022 327.795,-634.867 306,-601.311 240.279,-500.122 327.094,-351.227 368.851,-290.139"/>
<polygon fill="red" stroke="red" stroke-width="0.128511" points="371.828,-291.988 374.662,-281.779 366.08,-287.993 371.828,-291.988"/>
</g>
<!-- 0&#45;&gt;355 -->
<g id="edge10" class="edge"><title>0&#45;&gt;355</title>
<path fill="none" stroke="red" stroke-width="0.336672" d="M426.676,-639.903C433.825,-630.627 444.22,-617.141 453.251,-605.423"/>
<polygon fill="red" stroke="red" stroke-width="0.336672" points="456.189,-607.345 459.521,-597.288 450.644,-603.072 456.189,-607.345"/>
</g>
<!-- 1 -->
<g id="node13" class="node"><title>1</title>
<ellipse fill="lightblue" stroke="black" cx="133" cy="-175.945" rx="14.7" ry="14.7"/>
<text text-anchor="middle" x="133" y="-173.745" font-family="Times New Roman,serif" font-size="9.00">1</text>
</g>
<!-- 2 -->
<g id="node14" class="node"><title>2</title>
<ellipse fill="lightblue" stroke="black" cx="487" cy="-337.04" rx="14.7" ry="14.7"/>
<text text-anchor="middle" x="487" y="-334.84" font-family="Times New Roman,serif" font-size="9.00">2</text>
</g>
<!-- 2&#45;&gt;1352 -->
<g id="edge18" class="edge"><title>2&#45;&gt;1352</title>
<path fill="none" stroke="green" stroke-width="0.3" d="M475.373,-327.308C460.975,-316.496 435.978,-297.723 416.568,-283.146"/>
<polygon fill="green" stroke="green" stroke-width="0.3" points="418.469,-280.196 408.371,-276.99 414.265,-285.793 418.469,-280.196"/>
</g>
<!-- 4&#45;&gt;1352 -->
<g id="edge54" class="edge"><title>4&#45;&gt;1352</title>
<path fill="none" stroke="green" stroke-width="0.479407" d="M398.743,-322.197C397.539,-314.815 396.001,-305.381 394.504,-296.201"/>
<polygon fill="green" stroke="green" stroke-width="0.479407" points="397.916,-295.374 392.852,-286.068 391.007,-296.501 397.916,-295.374"/>
</g>
<!-- 4&#45;&gt;2037 -->
<g id="edge52" class="edge"><title>4&#45;&gt;2037</title>
<path fill="none" stroke="green" stroke-width="0.480842" d="M409.594,-324.54C416.45,-315.366 426.344,-302.126 435.237,-290.226"/>
<polygon fill="green" stroke="green" stroke-width="0.480842" points="438.295,-291.981 441.477,-281.875 432.688,-287.791 438.295,-291.981"/>
</g>
<!-- 5&#45;&gt;1202 -->
<g id="edge29" class="edge"><title>5&#45;&gt;1202</title>
<path fill="none" stroke="red" stroke-width="0.225758" d="M532.012,-487.557C546.297,-475.133 571.67,-453.064 590.985,-436.265"/>
<polygon fill="red" stroke="red" stroke-width="0.225758" points="593.331,-438.864 598.579,-429.66 588.737,-433.582 593.331,-438.864"/>
</g>
<!-- 2440&#45;&gt;1202 -->
<g id="edge47" class="edge"><title>2440&#45;&gt;1202</title>
<path fill="none" stroke="red" stroke-width="0.180526" d="M645.016,-475.198C640.783,-465.897 635.773,-454.889 631.169,-444.772"/>
<polygon fill="red" stroke="red" stroke-width="0.180526" points="634.245,-443.082 626.917,-435.43 627.874,-445.981 634.245,-443.082"/>
</g>
<!-- 2066 -->
<g id="node20" class="node"><title>2066</title>
<ellipse fill="white" stroke="black" cx="684" cy="-175.945" rx="25" ry="25"/>
<text text-anchor="middle" x="684" y="-173.745" font-family="Times New Roman,serif" font-size="9.00">2066</text>
</g>
<!-- 2066&#45;&gt;2024 -->
<g id="edge36" class="edge"><title>2066&#45;&gt;2024</title>
<path fill="none" stroke="green" stroke-width="0.3" d="M684,-150.794C684,-142.85 684,-133.865 684,-125.335"/>
<polygon fill="green" stroke="green" stroke-width="0.3" points="687.5,-125.255 684,-115.256 680.5,-125.256 687.5,-125.255"/>
</g>
<!-- 2720 -->
<g id="node21" class="node"><title>2720</title>
<ellipse fill="white" stroke="black" cx="424" cy="-175.945" rx="25" ry="25"/>
<text text-anchor="middle" x="424" y="-173.745" font-family="Times New Roman,serif" font-size="9.00">2720</text>
</g>
<!-- 2120 -->
<g id="node26" class="node"><title>2120</title>
<ellipse fill="white" stroke="black" cx="472" cy="-90.4472" rx="25" ry="25"/>
<text text-anchor="middle" x="472" y="-88.2472" font-family="Times New Roman,serif" font-size="9.00">2120</text>
</g>
<!-- 2720&#45;&gt;2120 -->
<g id="edge56" class="edge"><title>2720&#45;&gt;2120</title>
<path fill="none" stroke="red" stroke-width="0.132763" d="M436.112,-153.875C441.841,-143.911 448.777,-131.844 455.019,-120.985"/>
<polygon fill="red" stroke="red" stroke-width="0.132763" points="458.108,-122.635 460.058,-112.221 452.039,-119.146 458.108,-122.635"/>
</g>
<!-- 1202&#45;&gt;2 -->
<g id="edge31" class="edge"><title>1202&#45;&gt;2</title>
<path fill="none" stroke="green" stroke-width="0.450001" d="M596.056,-398.642C590.241,-395.1 583.903,-391.301 578,-387.889 554.6,-374.365 527.371,-359.571 508.839,-349.641"/>
<polygon fill="green" stroke="green" stroke-width="0.450001" points="510.232,-346.417 499.763,-344.794 506.935,-352.592 510.232,-346.417"/>
</g>
<!-- 1202&#45;&gt;3 -->
<g id="edge30" class="edge"><title>1202&#45;&gt;3</title>
<path fill="none" stroke="red" stroke-width="0.204939" d="M637.902,-398.878C672.283,-376.104 737,-324.935 737,-262.442 737,-262.442 737,-262.442 737,-174.945 737,-126.076 724.464,-69.9388 716.476,-39.1272"/>
<polygon fill="red" stroke="red" stroke-width="0.204939" points="719.825,-38.1002 713.868,-29.3383 713.061,-39.9023 719.825,-38.1002"/>
</g>
<!-- 1202&#45;&gt;4 -->
<g id="edge24" class="edge"><title>1202&#45;&gt;4</title>
<path fill="none" stroke="red" stroke-width="0.110622" d="M596.92,-397.978C591.003,-394.352 584.396,-390.675 578,-387.889 550.267,-375.811 466.602,-354.299 425.009,-343.938"/>
<polygon fill="red" stroke="red" stroke-width="0.110622" points="425.717,-340.508 415.168,-341.5 424.033,-347.302 425.717,-340.508"/>
</g>
<!-- 1202&#45;&gt;2066 -->
<g id="edge58" class="edge"><title>1202&#45;&gt;2066</title>
<path fill="none" stroke="red" stroke-width="0.20389" d="M623.546,-388.707C635.504,-346.819 660.914,-257.812 674.676,-209.604"/>
<polygon fill="red" stroke="red" stroke-width="0.20389" points="678.048,-210.545 677.427,-199.968 671.316,-208.624 678.048,-210.545"/>
</g>
<!-- 435&#45;&gt;1 -->
<g id="edge41" class="edge"><title>435&#45;&gt;1</title>
<path fill="none" stroke="red" stroke-width="0.353755" d="M127.666,-559.401C119.797,-528.565 106,-466.901 106,-413.638 106,-413.638 106,-413.638 106,-336.04 106,-287.171 118.536,-231.034 126.524,-200.223"/>
<polygon fill="red" stroke="red" stroke-width="0.353755" points="129.939,-200.998 129.132,-190.434 123.175,-199.196 129.939,-200.998"/>
</g>
<!-- 435&#45;&gt;5 -->
<g id="edge11" class="edge"><title>435&#45;&gt;5</title>
<path fill="none" stroke="red" stroke-width="0.208353" d="M153.587,-574.855C219.602,-561.25 425.809,-518.753 496.744,-504.134"/>
<polygon fill="red" stroke="red" stroke-width="0.208353" points="497.474,-507.558 506.561,-502.111 496.061,-500.702 497.474,-507.558"/>
</g>
<!-- 435&#45;&gt;1410 -->
<g id="edge20" class="edge"><title>435&#45;&gt;1410</title>
<path fill="none" stroke="green" stroke-width="0.3" d="M149.388,-566.25C165.113,-553.923 189.15,-535.079 207.756,-520.494"/>
<polygon fill="green" stroke="green" stroke-width="0.3" points="210.162,-523.054 215.873,-514.13 205.843,-517.545 210.162,-523.054"/>
</g>
<!-- 435&#45;&gt;2120 -->
<g id="edge49" class="edge"><title>435&#45;&gt;2120</title>
<path fill="none" stroke="green" stroke-width="0.237146" d="M134.578,-558.731C137.8,-523.171 146.716,-447.837 168,-387.889 217.232,-249.222 374.515,-146.57 441.415,-108.076"/>
<polygon fill="green" stroke="green" stroke-width="0.237146" points="443.264,-111.051 450.235,-103.073 439.81,-104.963 443.264,-111.051"/>
</g>
<!-- 435&#45;&gt;1394 -->
<g id="edge19" class="edge"><title>435&#45;&gt;1394</title>
<path fill="none" stroke="green" stroke-width="0.3" d="M118.327,-564.431C106.833,-552.943 90.5988,-536.717 77.1899,-523.314"/>
<polygon fill="green" stroke="green" stroke-width="0.3" points="79.6263,-520.801 70.0792,-516.207 74.6777,-525.752 79.6263,-520.801"/>
</g>
<!-- 2113 -->
<g id="node24" class="node"><title>2113</title>
<ellipse fill="white" stroke="black" cx="53" cy="-261.442" rx="25" ry="25"/>
<text text-anchor="middle" x="53" y="-259.242" font-family="Times New Roman,serif" font-size="9.00">2113</text>
</g>
<!-- 2113&#45;&gt;1 -->
<g id="edge37" class="edge"><title>2113&#45;&gt;1</title>
<path fill="none" stroke="green" stroke-width="0.205801" stroke-dasharray="1,5" d="M69.9659,-242.735C83.4619,-228.648 102.265,-209.024 115.817,-194.879"/>
<polygon fill="green" stroke="green" stroke-width="0.205801" points="118.719,-196.909 123.11,-187.267 113.665,-192.066 118.719,-196.909"/>
</g>
<!-- 1352&#45;&gt;1 -->
<g id="edge28" class="edge"><title>1352&#45;&gt;1</title>
<path fill="none" stroke="green" stroke-width="0.122138" stroke-dasharray="1,5" d="M365.375,-252.737C316.596,-236.827 205.241,-200.507 156.537,-184.621"/>
<polygon fill="green" stroke="green" stroke-width="0.122138" points="157.47,-181.244 146.877,-181.471 155.299,-187.899 157.47,-181.244"/>
</g>
<!-- 1352&#45;&gt;2066 -->
<g id="edge35" class="edge"><title>1352&#45;&gt;2066</title>
<path fill="none" stroke="green" stroke-width="0.3" d="M407.707,-244.906C412.175,-241.798 417.081,-238.835 422,-236.693 496.803,-204.129 522.747,-220.059 602,-200.693 618.143,-196.749 635.876,-191.704 650.709,-187.279"/>
<polygon fill="green" stroke="green" stroke-width="0.3" points="651.897,-190.576 660.459,-184.336 649.874,-183.875 651.897,-190.576"/>
</g>
<!-- 1352&#45;&gt;2024 -->
<g id="edge32" class="edge"><title>1352&#45;&gt;2024</title>
<path fill="none" stroke="green" stroke-width="0.3" stroke-dasharray="1,5" d="M408.633,-245.74C412.97,-242.654 417.588,-239.49 422,-236.693 503.088,-185.289 603.468,-132.494 653.152,-107.043"/>
<polygon fill="green" stroke="green" stroke-width="0.3" points="654.792,-110.136 662.107,-102.471 651.609,-103.901 654.792,-110.136"/>
</g>
<!-- 2120&#45;&gt;3 -->
<g id="edge38" class="edge"><title>2120&#45;&gt;3</title>
<path fill="none" stroke="red" stroke-width="0.117924" d="M494.347,-79.1594C504.495,-74.6989 516.727,-69.6129 528,-65.6985 583.533,-46.4151 650.633,-29.6733 685.802,-21.3841"/>
<polygon fill="red" stroke="red" stroke-width="0.117924" points="686.699,-24.7689 695.643,-19.0895 685.109,-17.9517 686.699,-24.7689"/>
</g>
<!-- 2397 -->
<g id="node27" class="node"><title>2397</title>
<ellipse fill="white" stroke="black" cx="159" cy="-261.442" rx="25" ry="25"/>
<text text-anchor="middle" x="159" y="-259.242" font-family="Times New Roman,serif" font-size="9.00">2397</text>
</g>
<!-- 2397&#45;&gt;1 -->
<g id="edge44" class="edge"><title>2397&#45;&gt;1</title>
<path fill="none" stroke="green" stroke-width="0.205801" d="M151.895,-237.626C148.304,-226.092 143.951,-212.112 140.328,-200.479"/>
<polygon fill="green" stroke="green" stroke-width="0.205801" points="143.565,-199.1 137.25,-190.592 136.881,-201.181 143.565,-199.1"/>
</g>
<!-- 355&#45;&gt;2 -->
<g id="edge26" class="edge"><title>355&#45;&gt;2</title>
<path fill="none" stroke="green" stroke-width="0.242571" d="M473.279,-558.545C476.04,-514.169 482.549,-409.576 485.499,-362.159"/>
<polygon fill="green" stroke="green" stroke-width="0.242571" points="489.009,-362.117 486.136,-351.918 482.022,-361.682 489.009,-362.117"/>
</g>
<!-- 355&#45;&gt;5 -->
<g id="edge13" class="edge"><title>355&#45;&gt;5</title>
<path fill="none" stroke="green" stroke-width="0.267775" d="M482.875,-561.351C490.407,-549.059 500.459,-532.656 508.35,-519.778"/>
<polygon fill="green" stroke="green" stroke-width="0.267775" points="511.407,-521.489 513.648,-511.134 505.438,-517.831 511.407,-521.489"/>
</g>
<!-- 355&#45;&gt;2037 -->
<g id="edge50" class="edge"><title>355&#45;&gt;2037</title>
<path fill="none" stroke="red" stroke-width="0.322221" d="M470.975,-558.808C468.296,-505.793 461.065,-362.678 457.729,-296.659"/>
<polygon fill="red" stroke="red" stroke-width="0.322221" points="461.21,-296.189 457.209,-286.379 454.219,-296.543 461.21,-296.189"/>
</g>
<!-- 2024&#45;&gt;3 -->
<g id="edge53" class="edge"><title>2024&#45;&gt;3</title>
<path fill="none" stroke="red" stroke-width="0.123818" d="M691.942,-66.9655C695.11,-57.997 698.754,-47.6843 701.934,-38.6813"/>
<polygon fill="red" stroke="red" stroke-width="0.123818" points="705.248,-39.8094 705.278,-29.2146 698.647,-37.4777 705.248,-39.8094"/>
</g>
<!-- 2037&#45;&gt;3 -->
<g id="edge34" class="edge"><title>2037&#45;&gt;3</title>
<path fill="none" stroke="red" stroke-width="0.137086" d="M472.598,-242.695C505.482,-207.783 581.648,-128.145 650,-65.6985 663.195,-53.6438 678.73,-40.7704 690.687,-31.1259"/>
<polygon fill="red" stroke="red" stroke-width="0.137086" points="693.055,-33.7131 698.676,-24.7318 688.681,-28.248 693.055,-33.7131"/>
</g>
<!-- 2037&#45;&gt;2720 -->
<g id="edge55" class="edge"><title>2037&#45;&gt;2720</title>
<path fill="none" stroke="green" stroke-width="0.3" d="M447.425,-238.066C443.981,-229.081 439.948,-218.558 436.208,-208.8"/>
<polygon fill="green" stroke="green" stroke-width="0.3" points="439.446,-207.467 432.599,-199.382 432.91,-209.973 439.446,-207.467"/>
</g>
<!-- 2037&#45;&gt;2120 -->
<g id="edge39" class="edge"><title>2037&#45;&gt;2120</title>
<path fill="none" stroke="red" stroke-width="0.132763" stroke-dasharray="1,5" d="M458.258,-236.588C461.01,-207.525 465.677,-158.232 468.798,-125.264"/>
<polygon fill="red" stroke="red" stroke-width="0.132763" points="472.295,-125.466 469.753,-115.18 465.326,-124.806 472.295,-125.466"/>
</g>
</g>
</svg>
