<?xml version="1.0" encoding="UTF-8" standalone="no"?>
<!DOCTYPE svg PUBLIC "-//W3C//DTD SVG 1.1//EN"
 "http://www.w3.org/Graphics/SVG/1.1/DTD/svg11.dtd">
<!-- Generated by graphviz version 2.38.0 (20140413.2041)
 -->
<!-- Title: %3 Pages: 1 -->
<svg width="982pt" height="768pt"
 viewBox="0.00 0.00 982.06 767.58" xmlns="http://www.w3.org/2000/svg" xmlns:xlink="http://www.w3.org/1999/xlink">
<g id="graph0" class="graph" transform="scale(1 1) rotate(0) translate(4 763.578)">
<title>%3</title>
<polygon fill="white" stroke="none" points="-4,4 -4,-763.578 978.062,-763.578 978.062,4 -4,4"/>
<!-- &#45;1 -->
<g id="node1" class="node"><title>&#45;1</title>
<polygon fill="lightgray" stroke="black" points="24,-753.729 0,-753.729 0,-735.729 24,-735.729 24,-753.729"/>
<text text-anchor="middle" x="12" y="-742.529" font-family="Times New Roman,serif" font-size="9.00">&#45;1</text>
</g>
<!-- &#45;2 -->
<g id="node2" class="node"><title>&#45;2</title>
<polygon fill="lightgray" stroke="black" points="574,-678.131 550,-678.131 550,-660.131 574,-660.131 574,-678.131"/>
<text text-anchor="middle" x="562" y="-666.931" font-family="Times New Roman,serif" font-size="9.00">&#45;2</text>
</g>
<!-- 4 -->
<g id="node16" class="node"><title>4</title>
<ellipse fill="lightblue" stroke="black" cx="463" cy="-14.8492" rx="14.7" ry="14.7"/>
<text text-anchor="middle" x="463" y="-12.6492" font-family="Times New Roman,serif" font-size="9.00">4</text>
</g>
<!-- &#45;2&#45;&gt;4 -->
<g id="edge1" class="edge"><title>&#45;2&#45;&gt;4</title>
<path fill="none" stroke="green" stroke-width="0.382542" d="M574.41,-668.325C639.132,-668.642 935,-661.228 935,-499.136 935,-499.136 935,-499.136 935,-174.945 935,-142.929 959.128,-133.567 795,-65.6985 687.192,-21.1191 545.012,-15.7763 488.112,-15.5667"/>
<polygon fill="green" stroke="green" stroke-width="0.382542" points="487.899,-12.0669 477.905,-15.5831 487.91,-19.0669 487.899,-12.0669"/>
</g>
<!-- 553 -->
<g id="node25" class="node"><title>553</title>
<ellipse fill="white" stroke="black" cx="410" cy="-583.633" rx="21.4286" ry="21.4286"/>
<text text-anchor="middle" x="410" y="-581.433" font-family="Times New Roman,serif" font-size="9.00">553</text>
</g>
<!-- &#45;2&#45;&gt;553 -->
<g id="edge20" class="edge"><title>&#45;2&#45;&gt;553</title>
<path fill="none" stroke="red" stroke-width="0.371372" d="M549.841,-659.928C542.705,-655.215 533.455,-649.278 525,-644.382 495.909,-627.536 461.601,-610.001 438.076,-598.32"/>
<polygon fill="red" stroke="red" stroke-width="0.371372" points="439.525,-595.131 429.009,-593.842 436.425,-601.408 439.525,-595.131"/>
</g>
<!-- 1857 -->
<g id="node29" class="node"><title>1857</title>
<ellipse fill="white" stroke="black" cx="539" cy="-327.141" rx="25" ry="25"/>
<text text-anchor="middle" x="539" y="-324.941" font-family="Times New Roman,serif" font-size="9.00">1857</text>
</g>
<!-- &#45;2&#45;&gt;1857 -->
<g id="edge40" class="edge"><title>&#45;2&#45;&gt;1857</title>
<path fill="none" stroke="red" stroke-width="0.287211" d="M561.454,-660.062C558.719,-619.628 546.431,-437.993 541.282,-361.872"/>
<polygon fill="red" stroke="red" stroke-width="0.287211" points="544.771,-361.598 540.604,-351.857 537.787,-362.071 544.771,-361.598"/>
</g>
<!-- &#45;3 -->
<g id="node3" class="node"><title>&#45;3</title>
<polygon fill="lightgray" stroke="black" points="464,-753.729 440,-753.729 440,-735.729 464,-735.729 464,-753.729"/>
<text text-anchor="middle" x="452" y="-742.529" font-family="Times New Roman,serif" font-size="9.00">&#45;3</text>
</g>
<!-- &#45;4 -->
<g id="node4" class="node"><title>&#45;4</title>
<polygon fill="lightgray" stroke="black" points="140,-99.4472 116,-99.4472 116,-81.4472 140,-81.4472 140,-99.4472"/>
<text text-anchor="middle" x="128" y="-88.2472" font-family="Times New Roman,serif" font-size="9.00">&#45;4</text>
</g>
<!-- 1 -->
<g id="node13" class="node"><title>1</title>
<ellipse fill="lightblue" stroke="black" cx="155" cy="-14.8492" rx="14.7" ry="14.7"/>
<text text-anchor="middle" x="155" y="-12.6492" font-family="Times New Roman,serif" font-size="9.00">1</text>
</g>
<!-- &#45;4&#45;&gt;1 -->
<g id="edge5" class="edge"><title>&#45;4&#45;&gt;1</title>
<path fill="none" stroke="green" stroke-width="0.157087" stroke-dasharray="1,5" d="M130.993,-81.2897C134.727,-71.1104 141.269,-53.2791 146.581,-38.7981"/>
<polygon fill="green" stroke="green" stroke-width="0.157087" points="150.016,-39.5968 150.174,-29.0031 143.444,-37.1858 150.016,-39.5968"/>
</g>
<!-- &#45;5 -->
<g id="node5" class="node"><title>&#45;5</title>
<polygon fill="lightgray" stroke="black" points="422,-753.729 398,-753.729 398,-735.729 422,-735.729 422,-753.729"/>
<text text-anchor="middle" x="410" y="-742.529" font-family="Times New Roman,serif" font-size="9.00">&#45;5</text>
</g>
<!-- &#45;5&#45;&gt;4 -->
<g id="edge7" class="edge"><title>&#45;5&#45;&gt;4</title>
<path fill="none" stroke="green" stroke-width="0.27272" d="M420.703,-735.633C423.888,-733.516 427.472,-731.403 431,-729.879 494.732,-702.347 515.653,-710.737 583,-693.879 757.618,-650.169 973,-764.638 973,-584.633 973,-584.633 973,-584.633 973,-174.945 973,-155.696 989.988,-127.709 860,-65.6985 793.52,-33.9842 564.744,-20.6053 488.186,-16.9475"/>
<polygon fill="green" stroke="green" stroke-width="0.27272" points="488.184,-13.4437 478.032,-16.4773 487.86,-20.4362 488.184,-13.4437"/>
</g>
<!-- 2311 -->
<g id="node19" class="node"><title>2311</title>
<ellipse fill="white" stroke="black" cx="99" cy="-669.131" rx="25" ry="25"/>
<text text-anchor="middle" x="99" y="-666.931" font-family="Times New Roman,serif" font-size="9.00">2311</text>
</g>
<!-- &#45;5&#45;&gt;2311 -->
<g id="edge43" class="edge"><title>&#45;5&#45;&gt;2311</title>
<path fill="none" stroke="green" stroke-width="0.246441" d="M397.808,-740.843C353.692,-730.403 201.37,-694.356 132.856,-678.143"/>
<polygon fill="green" stroke="green" stroke-width="0.246441" points="133.53,-674.705 122.993,-675.808 131.918,-681.517 133.53,-674.705"/>
</g>
<!-- &#45;5&#45;&gt;553 -->
<g id="edge12" class="edge"><title>&#45;5&#45;&gt;553</title>
<path fill="none" stroke="red" stroke-width="0.161645" d="M410,-735.62C410,-713.778 410,-652.832 410,-615.388"/>
<polygon fill="red" stroke="red" stroke-width="0.161645" points="413.5,-615.047 410,-605.047 406.5,-615.047 413.5,-615.047"/>
</g>
<!-- &#45;6 -->
<g id="node6" class="node"><title>&#45;6</title>
<polygon fill="lightgray" stroke="black" points="501,-184.945 477,-184.945 477,-166.945 501,-166.945 501,-184.945"/>
<text text-anchor="middle" x="489" y="-173.745" font-family="Times New Roman,serif" font-size="9.00">&#45;6</text>
</g>
<!-- &#45;6&#45;&gt;4 -->
<g id="edge22" class="edge"><title>&#45;6&#45;&gt;4</title>
<path fill="none" stroke="red" stroke-width="0.100971" d="M487.675,-166.836C483.886,-143.653 472.898,-76.4185 466.945,-39.9886"/>
<polygon fill="red" stroke="red" stroke-width="0.100971" points="470.34,-39.0592 465.272,-29.7546 463.431,-40.1882 470.34,-39.0592"/>
</g>
<!-- 2367 -->
<g id="node28" class="node"><title>2367</title>
<ellipse fill="white" stroke="black" cx="437" cy="-90.4472" rx="25" ry="25"/>
<text text-anchor="middle" x="437" y="-88.2472" font-family="Times New Roman,serif" font-size="9.00">2367</text>
</g>
<!-- &#45;6&#45;&gt;2367 -->
<g id="edge33" class="edge"><title>&#45;6&#45;&gt;2367</title>
<path fill="none" stroke="green" stroke-width="0.3" d="M484.014,-166.939C477.408,-156.331 465.396,-137.043 455.168,-120.619"/>
<polygon fill="green" stroke="green" stroke-width="0.3" points="457.972,-118.501 449.714,-111.863 452.03,-122.202 457.972,-118.501"/>
</g>
<!-- &#45;7 -->
<g id="node7" class="node"><title>&#45;7</title>
<polygon fill="lightgray" stroke="black" points="311,-678.131 287,-678.131 287,-660.131 311,-660.131 311,-678.131"/>
<text text-anchor="middle" x="299" y="-666.931" font-family="Times New Roman,serif" font-size="9.00">&#45;7</text>
</g>
<!-- &#45;7&#45;&gt;4 -->
<g id="edge4" class="edge"><title>&#45;7&#45;&gt;4</title>
<path fill="none" stroke="green" stroke-width="0.325235" d="M296.293,-659.825C284.234,-622.063 236,-462.61 236,-328.141 236,-328.141 236,-328.141 236,-174.945 236,-76.8587 379.885,-34.1116 438.547,-20.7596"/>
<polygon fill="green" stroke="green" stroke-width="0.325235" points="439.429,-24.1497 448.455,-18.6018 437.939,-17.31 439.429,-24.1497"/>
</g>
<!-- &#45;7&#45;&gt;553 -->
<g id="edge6" class="edge"><title>&#45;7&#45;&gt;553</title>
<path fill="none" stroke="red" stroke-width="0.345899" d="M309.643,-660.124C326.944,-647.11 361.616,-621.029 385.315,-603.202"/>
<polygon fill="red" stroke="red" stroke-width="0.345899" points="387.609,-605.856 393.496,-597.048 383.401,-600.262 387.609,-605.856"/>
</g>
<!-- &#45;8 -->
<g id="node8" class="node"><title>&#45;8</title>
<polygon fill="lightgray" stroke="black" points="785,-507.136 761,-507.136 761,-489.136 785,-489.136 785,-507.136"/>
<text text-anchor="middle" x="773" y="-495.936" font-family="Times New Roman,serif" font-size="9.00">&#45;8</text>
</g>
<!-- 2626 -->
<g id="node30" class="node"><title>2626</title>
<ellipse fill="white" stroke="black" cx="663" cy="-412.638" rx="25" ry="25"/>
<text text-anchor="middle" x="663" y="-410.438" font-family="Times New Roman,serif" font-size="9.00">2626</text>
</g>
<!-- &#45;8&#45;&gt;2626 -->
<g id="edge41" class="edge"><title>&#45;8&#45;&gt;2626</title>
<path fill="none" stroke="green" stroke-width="0.3" d="M762.453,-489.13C746.074,-476.697 713.985,-452.339 690.675,-434.645"/>
<polygon fill="green" stroke="green" stroke-width="0.3" points="692.611,-431.72 682.529,-428.462 688.378,-437.296 692.611,-431.72"/>
</g>
<!-- 1357 -->
<g id="node31" class="node"><title>1357</title>
<ellipse fill="white" stroke="black" cx="783" cy="-327.141" rx="25" ry="25"/>
<text text-anchor="middle" x="783" y="-324.941" font-family="Times New Roman,serif" font-size="9.00">1357</text>
</g>
<!-- &#45;8&#45;&gt;1357 -->
<g id="edge28" class="edge"><title>&#45;8&#45;&gt;1357</title>
<path fill="none" stroke="red" stroke-width="0.191438" stroke-dasharray="1,5" d="M777.472,-488.937C783.322,-477.7 793.265,-456.704 797,-437.387 801.951,-411.78 797.652,-382.447 792.554,-360.628"/>
<polygon fill="red" stroke="red" stroke-width="0.191438" points="795.934,-359.718 790.105,-350.871 789.145,-361.422 795.934,-359.718"/>
</g>
<!-- &#45;9 -->
<g id="node9" class="node"><title>&#45;9</title>
<polygon fill="lightgray" stroke="black" points="66,-753.729 42,-753.729 42,-735.729 66,-735.729 66,-753.729"/>
<text text-anchor="middle" x="54" y="-742.529" font-family="Times New Roman,serif" font-size="9.00">&#45;9</text>
</g>
<!-- &#45;9&#45;&gt;2311 -->
<g id="edge29" class="edge"><title>&#45;9&#45;&gt;2311</title>
<path fill="none" stroke="green" stroke-width="0.3" d="M58.9877,-735.571C64.3424,-726.813 73.1603,-712.392 81.1572,-699.313"/>
<polygon fill="green" stroke="green" stroke-width="0.3" points="84.2794,-700.916 86.5098,-690.558 78.3072,-697.264 84.2794,-700.916"/>
</g>
<!-- 1449 -->
<g id="node26" class="node"><title>1449</title>
<ellipse fill="white" stroke="black" cx="183" cy="-412.638" rx="25" ry="25"/>
<text text-anchor="middle" x="183" y="-410.438" font-family="Times New Roman,serif" font-size="9.00">1449</text>
</g>
<!-- &#45;9&#45;&gt;1449 -->
<g id="edge21" class="edge"><title>&#45;9&#45;&gt;1449</title>
<path fill="none" stroke="red" stroke-width="0.228317" stroke-dasharray="1,5" d="M51.5627,-735.727C41.456,-700.847 6.05333,-559.977 65,-473.387 84.3641,-444.942 121.492,-429.325 148.951,-421.265"/>
<polygon fill="red" stroke="red" stroke-width="0.228317" points="150.22,-424.547 158.945,-418.535 148.376,-417.794 150.22,-424.547"/>
</g>
<!-- &#45;10 -->
<g id="node10" class="node"><title>&#45;10</title>
<polygon fill="lightgray" stroke="black" points="343.5,-184.945 314.5,-184.945 314.5,-166.945 343.5,-166.945 343.5,-184.945"/>
<text text-anchor="middle" x="329" y="-173.745" font-family="Times New Roman,serif" font-size="9.00">&#45;10</text>
</g>
<!-- 1202 -->
<g id="node27" class="node"><title>1202</title>
<ellipse fill="white" stroke="black" cx="370" cy="-90.4472" rx="25" ry="25"/>
<text text-anchor="middle" x="370" y="-88.2472" font-family="Times New Roman,serif" font-size="9.00">1202</text>
</g>
<!-- &#45;10&#45;&gt;1202 -->
<g id="edge15" class="edge"><title>&#45;10&#45;&gt;1202</title>
<path fill="none" stroke="green" stroke-width="0.471222" d="M332.931,-166.939C337.991,-156.634 347.073,-138.138 354.981,-122.033"/>
<polygon fill="green" stroke="green" stroke-width="0.471222" points="358.196,-123.426 359.462,-112.908 351.913,-120.341 358.196,-123.426"/>
</g>
<!-- &#45;11 -->
<g id="node11" class="node"><title>&#45;11</title>
<polygon fill="lightgray" stroke="black" points="515.5,-678.131 486.5,-678.131 486.5,-660.131 515.5,-660.131 515.5,-678.131"/>
<text text-anchor="middle" x="501" y="-666.931" font-family="Times New Roman,serif" font-size="9.00">&#45;11</text>
</g>
<!-- 0 -->
<g id="node12" class="node"><title>0</title>
<ellipse fill="lightblue" stroke="black" cx="469" cy="-251.543" rx="14.7" ry="14.7"/>
<text text-anchor="middle" x="469" y="-249.343" font-family="Times New Roman,serif" font-size="9.00">0</text>
</g>
<!-- &#45;11&#45;&gt;0 -->
<g id="edge3" class="edge"><title>&#45;11&#45;&gt;0</title>
<path fill="none" stroke="green" stroke-width="0.169341" d="M499.772,-660.062C496.19,-635.789 486,-561.285 486,-499.136 486,-499.136 486,-499.136 486,-411.638 486,-363.432 478.188,-307.474 473.155,-276.425"/>
<polygon fill="green" stroke="green" stroke-width="0.169341" points="476.604,-275.824 471.508,-266.535 469.699,-276.974 476.604,-275.824"/>
</g>
<!-- &#45;11&#45;&gt;4 -->
<g id="edge2" class="edge"><title>&#45;11&#45;&gt;4</title>
<path fill="none" stroke="red" stroke-width="0.7" d="M512.38,-659.993C520.115,-654.818 530.764,-648.364 541,-644.382 700.255,-582.419 897,-670.02 897,-499.136 897,-499.136 897,-499.136 897,-174.945 897,-87.1294 579.812,-33.1855 487.762,-19.3795"/>
<polygon fill="red" stroke="red" stroke-width="0.7" points="488.092,-15.8905 477.689,-17.8953 487.072,-22.8157 488.092,-15.8905"/>
</g>
<!-- &#45;11&#45;&gt;553 -->
<g id="edge13" class="edge"><title>&#45;11&#45;&gt;553</title>
<path fill="none" stroke="green" stroke-width="0.475509" d="M492.275,-660.124C478.668,-647.64 451.957,-623.131 432.654,-605.42"/>
<polygon fill="green" stroke="green" stroke-width="0.475509" points="434.886,-602.717 425.151,-598.535 430.153,-607.875 434.886,-602.717"/>
</g>
<!-- &#45;11&#45;&gt;1449 -->
<g id="edge26" class="edge"><title>&#45;11&#45;&gt;1449</title>
<path fill="none" stroke="red" stroke-width="0.484619" d="M486.264,-664.286C441.153,-651.788 303.439,-608.107 228,-522.884 208.814,-501.21 197.106,-470.235 190.462,-446.799"/>
<polygon fill="red" stroke="red" stroke-width="0.484619" points="193.793,-445.707 187.837,-436.945 187.029,-447.509 193.793,-445.707"/>
</g>
<!-- &#45;11&#45;&gt;1857 -->
<g id="edge25" class="edge"><title>&#45;11&#45;&gt;1857</title>
<path fill="none" stroke="red" stroke-width="0.295227" d="M501.902,-660.062C506.421,-619.628 526.722,-437.993 535.23,-361.872"/>
<polygon fill="red" stroke="red" stroke-width="0.295227" points="538.717,-362.184 536.349,-351.857 531.76,-361.406 538.717,-362.184"/>
</g>
<!-- &#45;11&#45;&gt;1357 -->
<g id="edge19" class="edge"><title>&#45;11&#45;&gt;1357</title>
<path fill="none" stroke="green" stroke-width="0.370805" d="M514.166,-659.917C521.887,-655.2 531.887,-649.263 541,-644.382 650.958,-585.485 717,-621.02 794,-522.884 831.364,-475.264 825.56,-446.88 812,-387.889 809.617,-377.523 805.186,-366.869 800.492,-357.481"/>
<polygon fill="green" stroke="green" stroke-width="0.370805" points="803.548,-355.773 795.777,-348.572 797.361,-359.048 803.548,-355.773"/>
</g>
<!-- 2042 -->
<g id="node32" class="node"><title>2042</title>
<ellipse fill="white" stroke="black" cx="428" cy="-175.945" rx="25" ry="25"/>
<text text-anchor="middle" x="428" y="-173.745" font-family="Times New Roman,serif" font-size="9.00">2042</text>
</g>
<!-- 0&#45;&gt;2042 -->
<g id="edge45" class="edge"><title>0&#45;&gt;2042</title>
<path fill="none" stroke="green" stroke-width="0.233935" d="M462.045,-238.058C457.261,-229.471 450.697,-217.687 444.608,-206.757"/>
<polygon fill="green" stroke="green" stroke-width="0.233935" points="447.579,-204.898 439.655,-197.866 441.464,-208.305 447.579,-204.898"/>
</g>
<!-- 2 -->
<g id="node14" class="node"><title>2</title>
<ellipse fill="lightblue" stroke="black" cx="497" cy="-744.729" rx="14.7" ry="14.7"/>
<text text-anchor="middle" x="497" y="-742.529" font-family="Times New Roman,serif" font-size="9.00">2</text>
</g>
<!-- 3 -->
<g id="node15" class="node"><title>3</title>
<ellipse fill="lightblue" stroke="black" cx="545" cy="-744.729" rx="14.7" ry="14.7"/>
<text text-anchor="middle" x="545" y="-742.529" font-family="Times New Roman,serif" font-size="9.00">3</text>
</g>
<!-- 5 -->
<g id="node17" class="node"><title>5</title>
<ellipse fill="lightblue" stroke="black" cx="605" cy="-412.638" rx="14.7" ry="14.7"/>
<text text-anchor="middle" x="605" y="-410.438" font-family="Times New Roman,serif" font-size="9.00">5</text>
</g>
<!-- 2817 -->
<g id="node18" class="node"><title>2817</title>
<ellipse fill="white" stroke="black" cx="319" cy="-498.136" rx="25" ry="25"/>
<text text-anchor="middle" x="319" y="-495.936" font-family="Times New Roman,serif" font-size="9.00">2817</text>
</g>
<!-- 2817&#45;&gt;1449 -->
<g id="edge52" class="edge"><title>2817&#45;&gt;1449</title>
<path fill="none" stroke="green" stroke-width="0.353465" d="M298.345,-484.454C275.479,-470.416 238.434,-447.672 212.513,-431.758"/>
<polygon fill="green" stroke="green" stroke-width="0.353465" points="214.203,-428.688 203.85,-426.439 210.541,-434.654 214.203,-428.688"/>
</g>
<!-- 2448 -->
<g id="node20" class="node"><title>2448</title>
<ellipse fill="white" stroke="black" cx="99" cy="-498.136" rx="25" ry="25"/>
<text text-anchor="middle" x="99" y="-495.936" font-family="Times New Roman,serif" font-size="9.00">2448</text>
</g>
<!-- 2311&#45;&gt;2448 -->
<g id="edge36" class="edge"><title>2311&#45;&gt;2448</title>
<path fill="none" stroke="green" stroke-width="0.3" stroke-dasharray="1,5" d="M84.5775,-648.803C77.1433,-637.621 68.8467,-622.92 65,-608.382 59.3727,-587.115 59.3727,-580.151 65,-558.884 67.9151,-547.867 73.3856,-536.757 79.0998,-527.155"/>
<polygon fill="green" stroke="green" stroke-width="0.3" points="82.2066,-528.79 84.5775,-518.463 76.2846,-525.057 82.2066,-528.79"/>
</g>
<!-- 2468 -->
<g id="node22" class="node"><title>2468</title>
<ellipse fill="white" stroke="black" cx="99" cy="-583.633" rx="25" ry="25"/>
<text text-anchor="middle" x="99" y="-581.433" font-family="Times New Roman,serif" font-size="9.00">2468</text>
</g>
<!-- 2311&#45;&gt;2468 -->
<g id="edge38" class="edge"><title>2311&#45;&gt;2468</title>
<path fill="none" stroke="green" stroke-width="0.3" d="M99,-643.98C99,-636.036 99,-627.051 99,-618.521"/>
<polygon fill="green" stroke="green" stroke-width="0.3" points="102.5,-618.441 99,-608.441 95.5001,-618.441 102.5,-618.441"/>
</g>
<!-- 2311&#45;&gt;1449 -->
<g id="edge30" class="edge"><title>2311&#45;&gt;1449</title>
<path fill="none" stroke="red" stroke-width="0.228317" stroke-dasharray="1,5" d="M112.203,-648.071C119.169,-636.782 127.406,-622.212 133,-608.382 155.046,-553.873 169.728,-486.781 177.191,-447.266"/>
<polygon fill="red" stroke="red" stroke-width="0.228317" points="180.646,-447.831 179.019,-437.361 173.762,-446.56 180.646,-447.831"/>
</g>
<!-- 2448&#45;&gt;1449 -->
<g id="edge37" class="edge"><title>2448&#45;&gt;1449</title>
<path fill="none" stroke="red" stroke-width="0.228317" d="M116.405,-479.835C128.65,-467.663 145.201,-451.211 158.74,-437.753"/>
<polygon fill="red" stroke="red" stroke-width="0.228317" points="161.28,-440.163 165.905,-430.631 156.345,-435.199 161.28,-440.163"/>
</g>
<!-- 1302 -->
<g id="node21" class="node"><title>1302</title>
<ellipse fill="white" stroke="black" cx="183" cy="-90.4472" rx="25" ry="25"/>
<text text-anchor="middle" x="183" y="-88.2472" font-family="Times New Roman,serif" font-size="9.00">1302</text>
</g>
<!-- 1302&#45;&gt;1 -->
<g id="edge11" class="edge"><title>1302&#45;&gt;1</title>
<path fill="none" stroke="green" stroke-width="0.162735" d="M174.447,-66.9655C171.035,-57.997 167.112,-47.6843 163.686,-38.6813"/>
<polygon fill="green" stroke="green" stroke-width="0.162735" points="166.912,-37.3165 160.085,-29.2146 160.369,-39.8056 166.912,-37.3165"/>
</g>
<!-- 1302&#45;&gt;4 -->
<g id="edge18" class="edge"><title>1302&#45;&gt;4</title>
<path fill="none" stroke="green" stroke-width="0.343673" d="M202.958,-75.4931C208.873,-71.8624 215.51,-68.2567 222,-65.6985 297.304,-36.0163 393.134,-22.966 437.872,-18.1866"/>
<polygon fill="green" stroke="green" stroke-width="0.343673" points="438.508,-21.64 448.101,-17.1446 437.798,-14.6761 438.508,-21.64"/>
</g>
<!-- 2468&#45;&gt;2448 -->
<g id="edge39" class="edge"><title>2468&#45;&gt;2448</title>
<path fill="none" stroke="green" stroke-width="0.3" d="M99,-558.482C99,-550.538 99,-541.554 99,-533.023"/>
<polygon fill="green" stroke="green" stroke-width="0.3" points="102.5,-532.944 99,-522.944 95.5001,-532.944 102.5,-532.944"/>
</g>
<!-- 2724 -->
<g id="node23" class="node"><title>2724</title>
<ellipse fill="white" stroke="black" cx="730" cy="-412.638" rx="25" ry="25"/>
<text text-anchor="middle" x="730" y="-410.438" font-family="Times New Roman,serif" font-size="9.00">2724</text>
</g>
<!-- 2724&#45;&gt;1357 -->
<g id="edge47" class="edge"><title>2724&#45;&gt;1357</title>
<path fill="none" stroke="green" stroke-width="0.348104" d="M742.83,-391.426C749.357,-381.143 757.407,-368.46 764.583,-357.155"/>
<polygon fill="green" stroke="green" stroke-width="0.348104" points="767.701,-358.775 770.105,-348.456 761.791,-355.023 767.701,-358.775"/>
</g>
<!-- 2344 -->
<g id="node24" class="node"><title>2344</title>
<ellipse fill="white" stroke="black" cx="672" cy="-498.136" rx="25" ry="25"/>
<text text-anchor="middle" x="672" y="-495.936" font-family="Times New Roman,serif" font-size="9.00">2344</text>
</g>
<!-- 2344&#45;&gt;5 -->
<g id="edge50" class="edge"><title>2344&#45;&gt;5</title>
<path fill="none" stroke="green" stroke-width="0.404181" d="M656.797,-478.189C645.926,-464.641 631.347,-446.473 620.426,-432.862"/>
<polygon fill="green" stroke="green" stroke-width="0.404181" points="623.153,-430.668 614.165,-425.059 617.693,-435.049 623.153,-430.668"/>
</g>
<!-- 2344&#45;&gt;2724 -->
<g id="edge46" class="edge"><title>2344&#45;&gt;2724</title>
<path fill="none" stroke="green" stroke-width="0.3" d="M685.745,-477.348C693.059,-466.818 702.184,-453.683 710.244,-442.079"/>
<polygon fill="green" stroke="green" stroke-width="0.3" points="713.322,-443.783 716.152,-433.573 707.573,-439.789 713.322,-443.783"/>
</g>
<!-- 2344&#45;&gt;1357 -->
<g id="edge32" class="edge"><title>2344&#45;&gt;1357</title>
<path fill="none" stroke="green" stroke-width="0.348104" stroke-dasharray="1,5" d="M695.244,-488.435C716.656,-479.159 747.526,-462.34 764,-437.387 778.559,-415.335 782.967,-385.523 783.925,-362.613"/>
<polygon fill="green" stroke="green" stroke-width="0.348104" points="787.431,-362.379 784.147,-352.306 780.433,-362.228 787.431,-362.379"/>
</g>
<!-- 553&#45;&gt;0 -->
<g id="edge8" class="edge"><title>553&#45;&gt;0</title>
<path fill="none" stroke="red" stroke-width="0.199713" d="M414.993,-562.788C417.823,-551.193 421.323,-536.256 424,-522.884 442.112,-432.397 458.61,-323.846 465.543,-276.542"/>
<polygon fill="red" stroke="red" stroke-width="0.199713" points="469.044,-276.786 467.022,-266.386 462.117,-275.778 469.044,-276.786"/>
</g>
<!-- 553&#45;&gt;2817 -->
<g id="edge51" class="edge"><title>553&#45;&gt;2817</title>
<path fill="none" stroke="green" stroke-width="0.3" d="M394.563,-568.469C380.88,-555.914 360.631,-537.334 344.537,-522.567"/>
<polygon fill="green" stroke="green" stroke-width="0.3" points="346.752,-519.85 337.018,-515.668 342.02,-525.008 346.752,-519.85"/>
</g>
<!-- 553&#45;&gt;2344 -->
<g id="edge31" class="edge"><title>553&#45;&gt;2344</title>
<path fill="none" stroke="green" stroke-width="0.3" d="M430.124,-576.22C475.02,-561.912 583.737,-527.264 638.825,-509.708"/>
<polygon fill="green" stroke="green" stroke-width="0.3" points="639.994,-513.009 648.459,-506.638 637.868,-506.34 639.994,-513.009"/>
</g>
<!-- 553&#45;&gt;1449 -->
<g id="edge14" class="edge"><title>553&#45;&gt;1449</title>
<path fill="none" stroke="green" stroke-width="0.353465" stroke-dasharray="1,5" d="M390.129,-575.788C364.367,-566.343 318.749,-547.636 285,-522.884 252.993,-499.411 222.819,-464.985 203.714,-441.076"/>
<polygon fill="green" stroke="green" stroke-width="0.353465" points="206.368,-438.788 197.434,-433.093 200.866,-443.116 206.368,-438.788"/>
</g>
<!-- 553&#45;&gt;1202 -->
<g id="edge9" class="edge"><title>553&#45;&gt;1202</title>
<path fill="none" stroke="red" stroke-width="0.128897" stroke-dasharray="1,5" d="M402.673,-563.18C391.631,-532.066 372,-468.971 372,-413.638 372,-413.638 372,-413.638 372,-250.543 372,-207.484 371.258,-157.876 370.678,-125.659"/>
<polygon fill="red" stroke="red" stroke-width="0.128897" points="374.174,-125.368 370.489,-115.434 367.175,-125.497 374.174,-125.368"/>
</g>
<!-- 553&#45;&gt;2042 -->
<g id="edge23" class="edge"><title>553&#45;&gt;2042</title>
<path fill="none" stroke="green" stroke-width="0.3" d="M410,-562.343C410,-530.616 410,-467.329 410,-413.638 410,-413.638 410,-413.638 410,-326.141 410,-286.116 416.464,-240.483 421.645,-210.337"/>
<polygon fill="green" stroke="green" stroke-width="0.3" points="425.115,-210.811 423.411,-200.354 418.222,-209.592 425.115,-210.811"/>
</g>
<!-- 1449&#45;&gt;1 -->
<g id="edge48" class="edge"><title>1449&#45;&gt;1</title>
<path fill="none" stroke="green" stroke-width="0.28893" d="M165.131,-395.447C137.612,-368.64 88,-312.058 88,-252.543 88,-252.543 88,-252.543 88,-174.945 88,-125.662 84.7091,-109.652 107,-65.6985 113.861,-52.1707 125.628,-39.8619 135.795,-30.8598"/>
<polygon fill="green" stroke="green" stroke-width="0.28893" points="138.085,-33.5072 143.481,-24.3892 133.576,-28.1523 138.085,-33.5072"/>
</g>
<!-- 1449&#45;&gt;1302 -->
<g id="edge17" class="edge"><title>1449&#45;&gt;1302</title>
<path fill="none" stroke="red" stroke-width="0.286546" d="M183,-387.833C183,-331.682 183,-190.8 183,-125.572"/>
<polygon fill="red" stroke="red" stroke-width="0.286546" points="186.5,-125.409 183,-115.409 179.5,-125.409 186.5,-125.409"/>
</g>
<!-- 1449&#45;&gt;1857 -->
<g id="edge35" class="edge"><title>1449&#45;&gt;1857</title>
<path fill="none" stroke="red" stroke-width="0.148772" d="M206.911,-406.03C268.576,-391.567 433.165,-352.964 504.846,-336.151"/>
<polygon fill="red" stroke="red" stroke-width="0.148772" points="505.788,-339.525 514.724,-333.834 504.189,-332.71 505.788,-339.525"/>
</g>
<!-- 1202&#45;&gt;1 -->
<g id="edge10" class="edge"><title>1202&#45;&gt;1</title>
<path fill="none" stroke="red" stroke-width="0.230159" d="M346.582,-81.4308C305.245,-67.2806 219.81,-38.0348 178.45,-23.8767"/>
<polygon fill="red" stroke="red" stroke-width="0.230159" points="179.533,-20.548 168.939,-20.6206 177.266,-27.1707 179.533,-20.548"/>
</g>
<!-- 1202&#45;&gt;4 -->
<g id="edge16" class="edge"><title>1202&#45;&gt;4</title>
<path fill="none" stroke="red" stroke-width="0.304821" d="M389.27,-74.1977C405.161,-61.6217 427.603,-43.8613 443.545,-31.2453"/>
<polygon fill="red" stroke="red" stroke-width="0.304821" points="445.981,-33.7815 451.65,-24.8312 441.637,-28.2923 445.981,-33.7815"/>
</g>
<!-- 2367&#45;&gt;4 -->
<g id="edge34" class="edge"><title>2367&#45;&gt;4</title>
<path fill="none" stroke="red" stroke-width="0.100971" d="M444.942,-66.9655C448.11,-57.997 451.754,-47.6843 454.934,-38.6813"/>
<polygon fill="red" stroke="red" stroke-width="0.100971" points="458.248,-39.8094 458.278,-29.2146 451.647,-37.4777 458.248,-39.8094"/>
</g>
<!-- 1857&#45;&gt;0 -->
<g id="edge27" class="edge"><title>1857&#45;&gt;0</title>
<path fill="none" stroke="red" stroke-width="0.200202" d="M522.411,-308.699C511.374,-297.094 496.922,-281.899 485.834,-270.242"/>
<polygon fill="red" stroke="red" stroke-width="0.200202" points="488.207,-267.658 478.779,-262.825 483.135,-272.483 488.207,-267.658"/>
</g>
<!-- 2626&#45;&gt;1857 -->
<g id="edge49" class="edge"><title>2626&#45;&gt;1857</title>
<path fill="none" stroke="red" stroke-width="0.108749" d="M642.919,-397.494C638.357,-394.314 633.523,-390.97 629,-387.889 608.804,-374.135 585.853,-358.904 568.183,-347.263"/>
<polygon fill="red" stroke="red" stroke-width="0.108749" points="569.744,-344.101 559.466,-341.53 565.897,-349.95 569.744,-344.101"/>
</g>
<!-- 2626&#45;&gt;1357 -->
<g id="edge42" class="edge"><title>2626&#45;&gt;1357</title>
<path fill="none" stroke="red" stroke-width="0.191438" d="M682.843,-397.251C687.167,-394.145 691.727,-390.894 696,-387.889 715.402,-374.248 737.425,-359.127 754.459,-347.51"/>
<polygon fill="red" stroke="red" stroke-width="0.191438" points="756.576,-350.302 762.871,-341.78 752.636,-344.516 756.576,-350.302"/>
</g>
<!-- 2042&#45;&gt;1202 -->
<g id="edge24" class="edge"><title>2042&#45;&gt;1202</title>
<path fill="none" stroke="red" stroke-width="0.128897" d="M414.255,-155.157C406.941,-144.627 397.816,-131.492 389.756,-119.888"/>
<polygon fill="red" stroke="red" stroke-width="0.128897" points="392.427,-117.599 383.848,-111.382 386.678,-121.592 392.427,-117.599"/>
</g>
<!-- 2042&#45;&gt;2367 -->
<g id="edge44" class="edge"><title>2042&#45;&gt;2367</title>
<path fill="none" stroke="red" stroke-width="0.315194" d="M430.555,-151.241C431.429,-143.132 432.424,-133.898 433.367,-125.154"/>
<polygon fill="red" stroke="red" stroke-width="0.315194" points="436.847,-125.528 434.439,-115.21 429.887,-124.777 436.847,-125.528"/>
</g>
</g>
</svg>
