<?xml version="1.0" encoding="UTF-8" standalone="no"?>
<!DOCTYPE svg PUBLIC "-//W3C//DTD SVG 1.1//EN"
 "http://www.w3.org/Graphics/SVG/1.1/DTD/svg11.dtd">
<!-- Generated by graphviz version 2.38.0 (20140413.2041)
 -->
<!-- Title: %3 Pages: 1 -->
<svg width="232pt" height="243pt"
 viewBox="0.00 0.00 232.00 242.89" xmlns="http://www.w3.org/2000/svg" xmlns:xlink="http://www.w3.org/1999/xlink">
<g id="graph0" class="graph" transform="scale(1 1) rotate(0) translate(4 238.894)">
<title>%3</title>
<polygon fill="white" stroke="none" points="-4,4 -4,-238.894 228,-238.894 228,4 -4,4"/>
<!-- &#45;1 -->
<g id="node1" class="node"><title>&#45;1</title>
<polygon fill="lightgray" stroke="black" points="100,-234.894 76,-234.894 76,-216.894 100,-216.894 100,-234.894"/>
<text text-anchor="middle" x="88" y="-223.694" font-family="Times New Roman,serif" font-size="9.00">&#45;1</text>
</g>
<!-- 0 -->
<g id="node5" class="node"><title>0</title>
<ellipse fill="lightblue" stroke="black" cx="112" cy="-14.8492" rx="14.7" ry="14.7"/>
<text text-anchor="middle" x="112" y="-12.6492" font-family="Times New Roman,serif" font-size="9.00">0</text>
</g>
<!-- &#45;1&#45;&gt;0 -->
<g id="edge4" class="edge"><title>&#45;1&#45;&gt;0</title>
<path fill="none" stroke="red" stroke-width="0.224822" d="M85.4866,-216.704C78.5671,-192.794 60.8536,-121.268 78,-65.6985 81.5578,-54.1682 88.7974,-42.9217 95.6853,-34.0381"/>
<polygon fill="red" stroke="red" stroke-width="0.224822" points="98.3926,-36.2563 102.05,-26.3126 92.9899,-31.8054 98.3926,-36.2563"/>
</g>
<!-- 1 -->
<g id="node6" class="node"><title>1</title>
<ellipse fill="lightblue" stroke="black" cx="131" cy="-166.045" rx="14.7" ry="14.7"/>
<text text-anchor="middle" x="131" y="-163.845" font-family="Times New Roman,serif" font-size="9.00">1</text>
</g>
<!-- &#45;1&#45;&gt;1 -->
<g id="edge3" class="edge"><title>&#45;1&#45;&gt;1</title>
<path fill="none" stroke="red" stroke-width="0.521674" d="M93.979,-216.851C99.7481,-209.089 108.71,-197.033 116.371,-186.726"/>
<polygon fill="red" stroke="red" stroke-width="0.521674" points="119.245,-188.727 122.402,-178.613 113.627,-184.551 119.245,-188.727"/>
</g>
<!-- 1009 -->
<g id="node7" class="node"><title>1009</title>
<ellipse fill="white" stroke="black" cx="112" cy="-90.4472" rx="25" ry="25"/>
<text text-anchor="middle" x="112" y="-88.2472" font-family="Times New Roman,serif" font-size="9.00">1009</text>
</g>
<!-- &#45;1&#45;&gt;1009 -->
<g id="edge12" class="edge"><title>&#45;1&#45;&gt;1009</title>
<path fill="none" stroke="green" stroke-width="0.107236" d="M89.5013,-216.547C92.7234,-198.631 100.455,-155.643 105.953,-125.071"/>
<polygon fill="green" stroke="green" stroke-width="0.107236" points="109.468,-125.298 107.794,-114.836 102.579,-124.059 109.468,-125.298"/>
</g>
<!-- &#45;2 -->
<g id="node2" class="node"><title>&#45;2</title>
<polygon fill="lightgray" stroke="black" points="24,-234.894 0,-234.894 0,-216.894 24,-216.894 24,-234.894"/>
<text text-anchor="middle" x="12" y="-223.694" font-family="Times New Roman,serif" font-size="9.00">&#45;2</text>
</g>
<!-- &#45;2&#45;&gt;0 -->
<g id="edge6" class="edge"><title>&#45;2&#45;&gt;0</title>
<path fill="none" stroke="red" stroke-width="0.211093" d="M13.5924,-216.791C18.6059,-192.523 35.624,-118.824 67,-65.6985 74.1538,-53.5859 84.5603,-41.8176 93.5644,-32.7598"/>
<polygon fill="red" stroke="red" stroke-width="0.211093" points="96.2522,-35.029 100.999,-25.557 91.3815,-30.0014 96.2522,-35.029"/>
</g>
<!-- &#45;2&#45;&gt;1 -->
<g id="edge2" class="edge"><title>&#45;2&#45;&gt;1</title>
<path fill="none" stroke="red" stroke-width="0.7" d="M24.2869,-218.921C44.2082,-209.237 83.8364,-189.973 108.795,-177.84"/>
<polygon fill="red" stroke="red" stroke-width="0.7" points="110.415,-180.944 117.878,-173.424 107.354,-174.648 110.415,-180.944"/>
</g>
<!-- &#45;2&#45;&gt;1009 -->
<g id="edge11" class="edge"><title>&#45;2&#45;&gt;1009</title>
<path fill="none" stroke="green" stroke-width="0.189833" d="M18.2554,-216.547C32.5602,-197.457 68.1951,-149.904 91.1781,-119.233"/>
<polygon fill="green" stroke="green" stroke-width="0.189833" points="94.1008,-121.17 97.2967,-111.068 88.4991,-116.972 94.1008,-121.17"/>
</g>
<!-- &#45;3 -->
<g id="node3" class="node"><title>&#45;3</title>
<polygon fill="lightgray" stroke="black" points="162,-234.894 138,-234.894 138,-216.894 162,-216.894 162,-234.894"/>
<text text-anchor="middle" x="150" y="-223.694" font-family="Times New Roman,serif" font-size="9.00">&#45;3</text>
</g>
<!-- &#45;3&#45;&gt;0 -->
<g id="edge7" class="edge"><title>&#45;3&#45;&gt;0</title>
<path fill="none" stroke="red" stroke-width="0.184708" d="M151.596,-216.601C155.88,-192.411 166.003,-120.203 146,-65.6985 141.886,-54.4873 134.693,-43.3758 127.98,-34.4984"/>
<polygon fill="red" stroke="red" stroke-width="0.184708" points="130.53,-32.0816 121.559,-26.4448 125.056,-36.4456 130.53,-32.0816"/>
</g>
<!-- &#45;3&#45;&gt;1 -->
<g id="edge5" class="edge"><title>&#45;3&#45;&gt;1</title>
<path fill="none" stroke="red" stroke-width="0.572171" d="M147.358,-216.851C145.082,-209.92 141.68,-199.564 138.568,-190.087"/>
<polygon fill="red" stroke="red" stroke-width="0.572171" points="141.817,-188.762 135.371,-180.353 135.166,-190.946 141.817,-188.762"/>
</g>
<!-- &#45;4 -->
<g id="node4" class="node"><title>&#45;4</title>
<polygon fill="lightgray" stroke="black" points="224,-234.894 200,-234.894 200,-216.894 224,-216.894 224,-234.894"/>
<text text-anchor="middle" x="212" y="-223.694" font-family="Times New Roman,serif" font-size="9.00">&#45;4</text>
</g>
<!-- &#45;4&#45;&gt;0 -->
<g id="edge1" class="edge"><title>&#45;4&#45;&gt;0</title>
<path fill="none" stroke="green" stroke-width="0.7" stroke-dasharray="1,5" d="M211.193,-216.654C208.464,-192.002 197.9,-117.343 166,-65.6985 157.344,-51.6853 143.687,-39.1288 132.273,-30.1233"/>
<polygon fill="green" stroke="green" stroke-width="0.7" points="134.194,-27.1885 124.102,-23.9637 129.98,-32.7782 134.194,-27.1885"/>
</g>
<!-- &#45;4&#45;&gt;1 -->
<g id="edge8" class="edge"><title>&#45;4&#45;&gt;1</title>
<path fill="none" stroke="red" stroke-width="0.103619" d="M200.737,-216.851C187.946,-207.716 166.824,-192.63 151.171,-181.451"/>
<polygon fill="red" stroke="red" stroke-width="0.103619" points="152.863,-178.359 142.692,-175.395 148.795,-184.055 152.863,-178.359"/>
</g>
<!-- &#45;4&#45;&gt;1009 -->
<g id="edge9" class="edge"><title>&#45;4&#45;&gt;1009</title>
<path fill="none" stroke="green" stroke-width="0.3" d="M205.745,-216.547C191.44,-197.457 155.805,-149.904 132.822,-119.233"/>
<polygon fill="green" stroke="green" stroke-width="0.3" points="135.501,-116.972 126.703,-111.068 129.899,-121.17 135.501,-116.972"/>
</g>
<!-- 1&#45;&gt;1009 -->
<g id="edge13" class="edge"><title>1&#45;&gt;1009</title>
<path fill="none" stroke="red" stroke-width="0.396577" d="M127.515,-151.546C125.543,-143.908 122.984,-133.994 120.514,-124.429"/>
<polygon fill="red" stroke="red" stroke-width="0.396577" points="123.891,-123.504 118.002,-114.696 117.113,-125.254 123.891,-123.504"/>
</g>
<!-- 1009&#45;&gt;0 -->
<g id="edge10" class="edge"><title>1009&#45;&gt;0</title>
<path fill="none" stroke="green" stroke-width="0.7" d="M112,-65.3485C112,-57.1867 112,-48.0749 112,-39.9156"/>
<polygon fill="green" stroke="green" stroke-width="0.7" points="115.5,-39.8982 112,-29.8983 108.5,-39.8983 115.5,-39.8982"/>
</g>
</g>
</svg>
