<?xml version="1.0" encoding="UTF-8" standalone="no"?>
<!DOCTYPE svg PUBLIC "-//W3C//DTD SVG 1.1//EN"
 "http://www.w3.org/Graphics/SVG/1.1/DTD/svg11.dtd">
<!-- Generated by graphviz version 2.38.0 (20140413.2041)
 -->
<!-- Title: %3 Pages: 1 -->
<svg width="1299pt" height="1012pt"
 viewBox="0.00 0.00 1298.82 1012.37" xmlns="http://www.w3.org/2000/svg" xmlns:xlink="http://www.w3.org/1999/xlink">
<g id="graph0" class="graph" transform="scale(1 1) rotate(0) translate(4 1008.37)">
<title>%3</title>
<polygon fill="white" stroke="none" points="-4,4 -4,-1008.37 1294.82,-1008.37 1294.82,4 -4,4"/>
<!-- &#45;1 -->
<g id="node1" class="node"><title>&#45;1</title>
<polygon fill="lightgray" stroke="black" points="167,-934.623 143,-934.623 143,-916.623 167,-916.623 167,-934.623"/>
<text text-anchor="middle" x="155" y="-923.423" font-family="Times New Roman,serif" font-size="9.00">&#45;1</text>
</g>
<!-- 0 -->
<g id="node5" class="node"><title>0</title>
<ellipse fill="lightblue" stroke="black" cx="514" cy="-166.045" rx="14.7" ry="14.7"/>
<text text-anchor="middle" x="514" y="-163.845" font-family="Times New Roman,serif" font-size="9.00">0</text>
</g>
<!-- &#45;1&#45;&gt;0 -->
<g id="edge3" class="edge"><title>&#45;1&#45;&gt;0</title>
<path fill="none" stroke="green" stroke-width="0.303101" d="M152.064,-916.596C133.662,-864.821 38.4988,-574.256 149,-387.889 207.11,-289.884 240.263,-271.979 340,-216.894 388.897,-189.889 453.785,-176.352 488.879,-170.6"/>
<polygon fill="green" stroke="green" stroke-width="0.303101" points="489.826,-173.995 499.168,-168.999 488.749,-167.078 489.826,-173.995"/>
</g>
<!-- 1 -->
<g id="node6" class="node"><title>1</title>
<ellipse fill="lightblue" stroke="black" cx="320" cy="-14.8492" rx="14.7" ry="14.7"/>
<text text-anchor="middle" x="320" y="-12.6492" font-family="Times New Roman,serif" font-size="9.00">1</text>
</g>
<!-- &#45;1&#45;&gt;1 -->
<g id="edge2" class="edge"><title>&#45;1&#45;&gt;1</title>
<path fill="none" stroke="red" stroke-width="0.336007" d="M142.837,-918.842C106.298,-900.536 0,-840.028 0,-755.628 0,-755.628 0,-755.628 0,-165.045 0,-115.614 10.4566,-95.3588 50,-65.6985 88.6803,-36.6856 235.618,-22.3506 294.939,-17.6503"/>
<polygon fill="red" stroke="red" stroke-width="0.336007" points="295.247,-21.1371 304.95,-16.8834 294.712,-14.1575 295.247,-21.1371"/>
</g>
<!-- 2950 -->
<g id="node7" class="node"><title>2950</title>
<ellipse fill="white" stroke="black" cx="211" cy="-412.638" rx="25" ry="25"/>
<text text-anchor="middle" x="211" y="-410.438" font-family="Times New Roman,serif" font-size="9.00">2950</text>
</g>
<!-- &#45;1&#45;&gt;2950 -->
<g id="edge28" class="edge"><title>&#45;1&#45;&gt;2950</title>
<path fill="none" stroke="green" stroke-width="0.420793" d="M155.336,-916.558C157.281,-871.971 168.031,-651.216 197,-473.387 198.428,-464.62 200.411,-455.226 202.436,-446.543"/>
<polygon fill="green" stroke="green" stroke-width="0.420793" points="205.854,-447.3 204.801,-436.757 199.05,-445.655 205.854,-447.3"/>
</g>
<!-- 6425 -->
<g id="node10" class="node"><title>6425</title>
<ellipse fill="white" stroke="black" cx="379" cy="-754.628" rx="25" ry="25"/>
<text text-anchor="middle" x="379" y="-752.428" font-family="Times New Roman,serif" font-size="9.00">6425</text>
</g>
<!-- &#45;1&#45;&gt;6425 -->
<g id="edge63" class="edge"><title>&#45;1&#45;&gt;6425</title>
<path fill="none" stroke="green" stroke-width="0.16249" d="M165.889,-916.531C181.301,-905.068 210.347,-883.431 235,-864.874 275.617,-834.3 322.496,-798.671 351.445,-776.63"/>
<polygon fill="green" stroke="green" stroke-width="0.16249" points="353.636,-779.361 359.47,-770.518 349.394,-773.792 353.636,-779.361"/>
</g>
<!-- 3161 -->
<g id="node18" class="node"><title>3161</title>
<ellipse fill="white" stroke="black" cx="683" cy="-412.638" rx="25" ry="25"/>
<text text-anchor="middle" x="683" y="-410.438" font-family="Times New Roman,serif" font-size="9.00">3161</text>
</g>
<!-- &#45;1&#45;&gt;3161 -->
<g id="edge21" class="edge"><title>&#45;1&#45;&gt;3161</title>
<path fill="none" stroke="green" stroke-width="0.27233" d="M158.659,-916.457C177.498,-875.004 267.046,-684.898 380,-558.884 421.329,-512.776 435.091,-502.006 490,-473.387 542.252,-446.153 609.035,-428.933 648.778,-420.312"/>
<polygon fill="green" stroke="green" stroke-width="0.27233" points="649.694,-423.696 658.755,-418.205 648.248,-416.846 649.694,-423.696"/>
</g>
<!-- 1761 -->
<g id="node19" class="node"><title>1761</title>
<ellipse fill="white" stroke="black" cx="600" cy="-840.126" rx="25" ry="25"/>
<text text-anchor="middle" x="600" y="-837.926" font-family="Times New Roman,serif" font-size="9.00">1761</text>
</g>
<!-- &#45;1&#45;&gt;1761 -->
<g id="edge10" class="edge"><title>&#45;1&#45;&gt;1761</title>
<path fill="none" stroke="green" stroke-width="0.231711" d="M167.022,-919.769C180.64,-914.44 203.595,-905.966 224,-900.874 347.574,-870.039 498.145,-851.772 565.06,-844.623"/>
<polygon fill="green" stroke="green" stroke-width="0.231711" points="565.486,-848.098 575.065,-843.571 564.753,-841.136 565.486,-848.098"/>
</g>
<!-- &#45;2 -->
<g id="node2" class="node"><title>&#45;2</title>
<polygon fill="lightgray" stroke="black" points="929,-934.623 905,-934.623 905,-916.623 929,-916.623 929,-934.623"/>
<text text-anchor="middle" x="917" y="-923.423" font-family="Times New Roman,serif" font-size="9.00">&#45;2</text>
</g>
<!-- &#45;2&#45;&gt;0 -->
<g id="edge6" class="edge"><title>&#45;2&#45;&gt;0</title>
<path fill="none" stroke="green" stroke-width="0.27135" d="M929.204,-921.782C954.094,-915.448 1011.37,-898.048 1047,-864.874 1087.54,-827.128 1107,-811.023 1107,-755.628 1107,-755.628 1107,-755.628 1107,-668.131 1107,-429.012 1034.44,-309.541 814,-216.894 718.119,-176.598 592.164,-168.8 539.189,-167.347"/>
<polygon fill="green" stroke="green" stroke-width="0.27135" points="539.105,-163.844 529.03,-167.124 538.951,-170.843 539.105,-163.844"/>
</g>
<!-- &#45;2&#45;&gt;1 -->
<g id="edge1" class="edge"><title>&#45;2&#45;&gt;1</title>
<path fill="none" stroke="red" stroke-width="0.286213" d="M929,-920.869C965.191,-909.474 1071.54,-875.42 1084,-864.874 1126.44,-828.94 1145,-811.238 1145,-755.628 1145,-755.628 1145,-755.628 1145,-165.045 1145,-130.779 1595.65,-229.905 911,-65.6985 696.568,-14.2691 427.312,-14.0009 345.02,-15.2872"/>
<polygon fill="red" stroke="red" stroke-width="0.286213" points="344.816,-11.7902 334.881,-15.4696 344.942,-18.7891 344.816,-11.7902"/>
</g>
<!-- 5898 -->
<g id="node8" class="node"><title>5898</title>
<ellipse fill="white" stroke="black" cx="864" cy="-669.131" rx="25" ry="25"/>
<text text-anchor="middle" x="864" y="-666.931" font-family="Times New Roman,serif" font-size="9.00">5898</text>
</g>
<!-- &#45;2&#45;&gt;5898 -->
<g id="edge42" class="edge"><title>&#45;2&#45;&gt;5898</title>
<path fill="none" stroke="green" stroke-width="0.3" d="M915.014,-916.524C912.222,-905.053 907.026,-883.406 903,-864.874 890.756,-808.511 877.862,-742.659 870.395,-703.783"/>
<polygon fill="green" stroke="green" stroke-width="0.3" points="873.756,-702.727 868.438,-693.564 866.881,-704.044 873.756,-702.727"/>
</g>
<!-- 3097 -->
<g id="node11" class="node"><title>3097</title>
<ellipse fill="white" stroke="black" cx="524" cy="-498.136" rx="25" ry="25"/>
<text text-anchor="middle" x="524" y="-495.936" font-family="Times New Roman,serif" font-size="9.00">3097</text>
</g>
<!-- &#45;2&#45;&gt;3097 -->
<g id="edge23" class="edge"><title>&#45;2&#45;&gt;3097</title>
<path fill="none" stroke="green" stroke-width="0.406533" stroke-dasharray="1,5" d="M919.139,-916.366C927.955,-880.366 958.269,-734.898 898,-644.382 858.44,-584.968 642.508,-527.591 557.964,-507.071"/>
<polygon fill="green" stroke="green" stroke-width="0.406533" points="558.635,-503.633 548.094,-504.698 556.999,-510.439 558.635,-503.633"/>
</g>
<!-- 6086 -->
<g id="node16" class="node"><title>6086</title>
<ellipse fill="white" stroke="black" cx="993" cy="-840.126" rx="25" ry="25"/>
<text text-anchor="middle" x="993" y="-837.926" font-family="Times New Roman,serif" font-size="9.00">6086</text>
</g>
<!-- &#45;2&#45;&gt;6086 -->
<g id="edge44" class="edge"><title>&#45;2&#45;&gt;6086</title>
<path fill="none" stroke="green" stroke-width="0.3" d="M924.287,-916.617C934.662,-905.219 954.158,-883.8 969.74,-866.68"/>
<polygon fill="green" stroke="green" stroke-width="0.3" points="972.435,-868.919 976.578,-859.168 967.258,-864.207 972.435,-868.919"/>
</g>
<!-- 5323 -->
<g id="node17" class="node"><title>5323</title>
<ellipse fill="white" stroke="black" cx="797" cy="-669.131" rx="25" ry="25"/>
<text text-anchor="middle" x="797" y="-666.931" font-family="Times New Roman,serif" font-size="9.00">5323</text>
</g>
<!-- &#45;2&#45;&gt;5323 -->
<g id="edge41" class="edge"><title>&#45;2&#45;&gt;5323</title>
<path fill="none" stroke="red" stroke-width="0.264156" d="M913.143,-916.444C897.601,-883.482 839.077,-759.366 811.519,-700.923"/>
<polygon fill="red" stroke="red" stroke-width="0.264156" points="814.648,-699.352 807.218,-691.8 808.317,-702.338 814.648,-699.352"/>
</g>
<!-- &#45;2&#45;&gt;3161 -->
<g id="edge55" class="edge"><title>&#45;2&#45;&gt;3161</title>
<path fill="none" stroke="green" stroke-width="0.167821" d="M929.07,-922.266C952.852,-916.899 1005.34,-901.296 1027,-864.874 1063.45,-803.59 1000.07,-714.972 961,-644.382 938.016,-602.852 931.331,-591.662 897,-558.884 838.907,-503.42 757.517,-454.552 713.749,-430.141"/>
<polygon fill="green" stroke="green" stroke-width="0.167821" points="715.192,-426.94 704.746,-425.17 711.808,-433.068 715.192,-426.94"/>
</g>
<!-- &#45;2&#45;&gt;1761 -->
<g id="edge11" class="edge"><title>&#45;2&#45;&gt;1761</title>
<path fill="none" stroke="green" stroke-width="0.156455" d="M904.96,-921.452C860.426,-909.721 704.001,-868.519 634.142,-850.119"/>
<polygon fill="green" stroke="green" stroke-width="0.156455" points="634.657,-846.635 624.095,-847.472 632.874,-853.404 634.657,-846.635"/>
</g>
<!-- 6757 -->
<g id="node20" class="node"><title>6757</title>
<ellipse fill="white" stroke="black" cx="745" cy="-754.628" rx="25" ry="25"/>
<text text-anchor="middle" x="745" y="-752.428" font-family="Times New Roman,serif" font-size="9.00">6757</text>
</g>
<!-- &#45;2&#45;&gt;6757 -->
<g id="edge62" class="edge"><title>&#45;2&#45;&gt;6757</title>
<path fill="none" stroke="green" stroke-width="0.133431" d="M904.696,-918.501C886.061,-908.84 850.187,-888.687 825,-864.874 799.967,-841.207 777.378,-808.837 762.639,-785.483"/>
<polygon fill="green" stroke="green" stroke-width="0.133431" points="765.439,-783.358 757.197,-776.701 759.489,-787.045 765.439,-783.358"/>
</g>
<!-- &#45;3 -->
<g id="node3" class="node"><title>&#45;3</title>
<polygon fill="lightgray" stroke="black" points="257,-934.623 233,-934.623 233,-916.623 257,-916.623 257,-934.623"/>
<text text-anchor="middle" x="245" y="-923.423" font-family="Times New Roman,serif" font-size="9.00">&#45;3</text>
</g>
<!-- &#45;3&#45;&gt;0 -->
<g id="edge5" class="edge"><title>&#45;3&#45;&gt;0</title>
<path fill="none" stroke="green" stroke-width="0.284599" d="M240.328,-916.481C210.876,-863.983 56.0134,-569.694 177,-387.889 199.956,-353.394 228.892,-375.418 263,-351.889 287.971,-334.664 288.611,-323.905 310,-302.392 348.672,-263.494 353.337,-247.282 399,-216.894 428.036,-197.572 465.793,-182.904 489.969,-174.637"/>
<polygon fill="green" stroke="green" stroke-width="0.284599" points="491.35,-177.866 499.737,-171.393 489.143,-171.223 491.35,-177.866"/>
</g>
<!-- &#45;3&#45;&gt;1 -->
<g id="edge4" class="edge"><title>&#45;3&#45;&gt;1</title>
<path fill="none" stroke="red" stroke-width="0.281239" d="M235.294,-916.58C194.369,-881.705 38,-738.393 38,-584.633 38,-584.633 38,-584.633 38,-165.045 38,-49.355 225.728,-23.1293 294.848,-17.3941"/>
<polygon fill="red" stroke="red" stroke-width="0.281239" points="295.525,-20.8532 305.236,-16.6149 295.002,-13.8728 295.525,-20.8532"/>
</g>
<!-- 4678 -->
<g id="node15" class="node"><title>4678</title>
<ellipse fill="white" stroke="black" cx="312" cy="-754.628" rx="25" ry="25"/>
<text text-anchor="middle" x="312" y="-752.428" font-family="Times New Roman,serif" font-size="9.00">4678</text>
</g>
<!-- &#45;3&#45;&gt;4678 -->
<g id="edge53" class="edge"><title>&#45;3&#45;&gt;4678</title>
<path fill="none" stroke="red" stroke-width="0.159795" d="M248.232,-916.472C257.34,-893.497 283.589,-827.289 299.427,-787.34"/>
<polygon fill="red" stroke="red" stroke-width="0.159795" points="302.781,-788.378 303.213,-777.792 296.274,-785.798 302.781,-788.378"/>
</g>
<!-- &#45;3&#45;&gt;1761 -->
<g id="edge9" class="edge"><title>&#45;3&#45;&gt;1761</title>
<path fill="none" stroke="red" stroke-width="0.253993" d="M257.22,-921.749C306.126,-910.246 488.803,-867.279 565.623,-849.211"/>
<polygon fill="red" stroke="red" stroke-width="0.253993" points="566.802,-852.529 575.735,-846.833 565.199,-845.715 566.802,-852.529"/>
</g>
<!-- &#45;4 -->
<g id="node4" class="node"><title>&#45;4</title>
<polygon fill="lightgray" stroke="black" points="665,-1004.37 641,-1004.37 641,-986.372 665,-986.372 665,-1004.37"/>
<text text-anchor="middle" x="653" y="-993.172" font-family="Times New Roman,serif" font-size="9.00">&#45;4</text>
</g>
<!-- &#45;4&#45;&gt;3161 -->
<g id="edge58" class="edge"><title>&#45;4&#45;&gt;3161</title>
<path fill="none" stroke="red" stroke-width="0.18006" d="M665.066,-993.585C743.956,-988.123 1183,-952.713 1183,-841.126 1183,-841.126 1183,-841.126 1183,-753.628 1183,-527.898 830.21,-441.499 717.309,-419.629"/>
<polygon fill="red" stroke="red" stroke-width="0.18006" points="717.93,-416.184 707.455,-417.767 716.631,-423.063 717.93,-416.184"/>
</g>
<!-- &#45;4&#45;&gt;1761 -->
<g id="edge7" class="edge"><title>&#45;4&#45;&gt;1761</title>
<path fill="none" stroke="green" stroke-width="0.3" stroke-dasharray="1,5" d="M652.21,-986.127C650.431,-969.535 645.346,-931.116 634,-900.874 630.029,-890.289 624.341,-879.357 618.751,-869.783"/>
<polygon fill="green" stroke="green" stroke-width="0.3" points="621.654,-867.819 613.481,-861.077 615.665,-871.444 621.654,-867.819"/>
</g>
<!-- 7420 -->
<g id="node23" class="node"><title>7420</title>
<ellipse fill="white" stroke="black" cx="600" cy="-925.623" rx="25" ry="25"/>
<text text-anchor="middle" x="600" y="-923.423" font-family="Times New Roman,serif" font-size="9.00">7420</text>
</g>
<!-- &#45;4&#45;&gt;7420 -->
<g id="edge64" class="edge"><title>&#45;4&#45;&gt;7420</title>
<path fill="none" stroke="green" stroke-width="0.3" d="M646.712,-986.334C640.385,-978.246 630.273,-965.32 621.073,-953.56"/>
<polygon fill="green" stroke="green" stroke-width="0.3" points="623.825,-951.398 614.907,-945.678 618.312,-955.711 623.825,-951.398"/>
</g>
<!-- 2483 -->
<g id="node13" class="node"><title>2483</title>
<ellipse fill="white" stroke="black" cx="444" cy="-90.4472" rx="25" ry="25"/>
<text text-anchor="middle" x="444" y="-88.2472" font-family="Times New Roman,serif" font-size="9.00">2483</text>
</g>
<!-- 0&#45;&gt;2483 -->
<g id="edge67" class="edge"><title>0&#45;&gt;2483</title>
<path fill="none" stroke="green" stroke-width="0.173181" d="M504.267,-154.812C494.846,-144.906 480.195,-129.503 467.698,-116.363"/>
<polygon fill="green" stroke="green" stroke-width="0.173181" points="470.072,-113.781 460.644,-108.947 465,-118.605 470.072,-113.781"/>
</g>
<!-- 2950&#45;&gt;0 -->
<g id="edge16" class="edge"><title>2950&#45;&gt;0</title>
<path fill="none" stroke="red" stroke-width="0.136023" d="M232.707,-400.298C253.356,-389.111 284.905,-370.959 310,-351.889 379.589,-299.008 387.341,-274.583 453,-216.894 466.559,-204.981 482.349,-192.104 494.466,-182.422"/>
<polygon fill="red" stroke="red" stroke-width="0.136023" points="496.903,-184.956 502.556,-175.996 492.549,-179.475 496.903,-184.956"/>
</g>
<!-- 2950&#45;&gt;1 -->
<g id="edge25" class="edge"><title>2950&#45;&gt;1</title>
<path fill="none" stroke="green" stroke-width="0.17481" d="M202.661,-389.31C191.475,-357.306 173,-296.322 173,-242.643 173,-242.643 173,-242.643 173,-165.045 173,-95.0044 256.221,-45.8991 297.429,-25.8769"/>
<polygon fill="green" stroke="green" stroke-width="0.17481" points="299.134,-28.9432 306.695,-21.5221 296.156,-22.6079 299.134,-28.9432"/>
</g>
<!-- 2950&#45;&gt;2483 -->
<g id="edge34" class="edge"><title>2950&#45;&gt;2483</title>
<path fill="none" stroke="green" stroke-width="0.152094" d="M225.224,-392.091C264.952,-337.496 377.209,-183.232 423.575,-119.516"/>
<polygon fill="green" stroke="green" stroke-width="0.152094" points="426.612,-121.291 429.666,-111.146 420.952,-117.172 426.612,-121.291"/>
</g>
<!-- 5898&#45;&gt;3097 -->
<g id="edge43" class="edge"><title>5898&#45;&gt;3097</title>
<path fill="none" stroke="green" stroke-width="0.406533" d="M844.5,-653.211C840.155,-650.139 835.499,-647.035 831,-644.382 734.937,-587.728 613.237,-535.503 556.223,-512.088"/>
<polygon fill="green" stroke="green" stroke-width="0.406533" points="557.254,-508.729 546.673,-508.188 554.607,-515.209 557.254,-508.729"/>
</g>
<!-- 4464 -->
<g id="node22" class="node"><title>4464</title>
<ellipse fill="white" stroke="black" cx="577" cy="-583.633" rx="25" ry="25"/>
<text text-anchor="middle" x="577" y="-581.433" font-family="Times New Roman,serif" font-size="9.00">4464</text>
</g>
<!-- 5898&#45;&gt;4464 -->
<g id="edge66" class="edge"><title>5898&#45;&gt;4464</title>
<path fill="none" stroke="green" stroke-width="0.143337" d="M845.239,-652.716C840.774,-649.602 835.882,-646.606 831,-644.382 791.915,-626.579 671.381,-602.37 611.497,-591.011"/>
<polygon fill="green" stroke="green" stroke-width="0.143337" points="611.873,-587.52 601.397,-589.108 610.576,-594.399 611.873,-587.52"/>
</g>
<!-- 6293 -->
<g id="node9" class="node"><title>6293</title>
<ellipse fill="white" stroke="black" cx="471" cy="-583.633" rx="25" ry="25"/>
<text text-anchor="middle" x="471" y="-581.433" font-family="Times New Roman,serif" font-size="9.00">6293</text>
</g>
<!-- 6293&#45;&gt;3097 -->
<g id="edge47" class="edge"><title>6293&#45;&gt;3097</title>
<path fill="none" stroke="red" stroke-width="0.150953" d="M483.83,-562.421C490.357,-552.138 498.407,-539.455 505.583,-528.15"/>
<polygon fill="red" stroke="red" stroke-width="0.150953" points="508.701,-529.77 511.105,-519.451 502.791,-526.018 508.701,-529.77"/>
</g>
<!-- 6425&#45;&gt;4464 -->
<g id="edge49" class="edge"><title>6425&#45;&gt;4464</title>
<path fill="none" stroke="green" stroke-width="0.3" d="M400.045,-740.895C418.376,-729.446 445.338,-711.729 467,-693.879 499.099,-667.429 532.527,-633.105 553.984,-610.05"/>
<polygon fill="green" stroke="green" stroke-width="0.3" points="556.567,-612.412 560.782,-602.692 551.425,-607.662 556.567,-612.412"/>
</g>
<!-- 5503 -->
<g id="node24" class="node"><title>5503</title>
<ellipse fill="white" stroke="black" cx="449" cy="-327.141" rx="25" ry="25"/>
<text text-anchor="middle" x="449" y="-324.941" font-family="Times New Roman,serif" font-size="9.00">5503</text>
</g>
<!-- 6425&#45;&gt;5503 -->
<g id="edge52" class="edge"><title>6425&#45;&gt;5503</title>
<path fill="none" stroke="red" stroke-width="0.143789" d="M367.322,-732.679C336.022,-673.449 257.273,-501.693 328,-387.889 346.779,-357.673 385.854,-342.281 414.539,-334.758"/>
<polygon fill="red" stroke="red" stroke-width="0.143789" points="415.683,-338.082 424.58,-332.33 414.038,-331.278 415.683,-338.082"/>
</g>
<!-- 3097&#45;&gt;0 -->
<g id="edge18" class="edge"><title>3097&#45;&gt;0</title>
<path fill="none" stroke="red" stroke-width="0.136023" stroke-dasharray="1,5" d="M524.981,-473.299C525.384,-462.359 525.802,-449.217 526,-437.387 527.64,-339.379 529.26,-314.568 521,-216.894 520.283,-208.418 519.099,-199.18 517.907,-190.985"/>
<polygon fill="red" stroke="red" stroke-width="0.136023" points="521.346,-190.321 516.374,-180.966 514.427,-191.38 521.346,-190.321"/>
</g>
<!-- 3097&#45;&gt;1 -->
<g id="edge24" class="edge"><title>3097&#45;&gt;1</title>
<path fill="none" stroke="red" stroke-width="0.204398" d="M507.144,-479.346C483.352,-453.326 440.036,-402.466 415,-351.889 360.661,-242.117 332.922,-96.3162 323.641,-39.7205"/>
<polygon fill="red" stroke="red" stroke-width="0.204398" points="327.063,-38.9505 322.029,-29.6279 320.15,-40.0549 327.063,-38.9505"/>
</g>
<!-- 3097&#45;&gt;2950 -->
<g id="edge54" class="edge"><title>3097&#45;&gt;2950</title>
<path fill="none" stroke="red" stroke-width="0.188867" d="M500.217,-490.791C445.08,-476.083 308.387,-439.618 244.681,-422.623"/>
<polygon fill="red" stroke="red" stroke-width="0.188867" points="245.311,-419.169 234.747,-419.973 243.507,-425.932 245.311,-419.169"/>
</g>
<!-- 3097&#45;&gt;3161 -->
<g id="edge19" class="edge"><title>3097&#45;&gt;3161</title>
<path fill="none" stroke="green" stroke-width="0.3" d="M545.775,-485.701C573.369,-471.21 621.092,-446.148 652.355,-429.731"/>
<polygon fill="green" stroke="green" stroke-width="0.3" points="654.262,-432.683 661.488,-424.935 651.007,-426.486 654.262,-432.683"/>
</g>
<!-- 4719 -->
<g id="node21" class="node"><title>4719</title>
<ellipse fill="white" stroke="black" cx="487" cy="-241.643" rx="25" ry="25"/>
<text text-anchor="middle" x="487" y="-239.443" font-family="Times New Roman,serif" font-size="9.00">4719</text>
</g>
<!-- 3097&#45;&gt;4719 -->
<g id="edge33" class="edge"><title>3097&#45;&gt;4719</title>
<path fill="none" stroke="red" stroke-width="0.511167" d="M520.519,-473.194C513.905,-427.7 499.505,-328.656 491.912,-276.431"/>
<polygon fill="red" stroke="red" stroke-width="0.511167" points="495.347,-275.729 490.445,-266.336 488.42,-276.736 495.347,-275.729"/>
</g>
<!-- 5407 -->
<g id="node12" class="node"><title>5407</title>
<ellipse fill="white" stroke="black" cx="653" cy="-669.131" rx="25" ry="25"/>
<text text-anchor="middle" x="653" y="-666.931" font-family="Times New Roman,serif" font-size="9.00">5407</text>
</g>
<!-- 5407&#45;&gt;4464 -->
<g id="edge38" class="edge"><title>5407&#45;&gt;4464</title>
<path fill="none" stroke="green" stroke-width="0.3" d="M636.509,-650.013C625.88,-638.335 611.903,-622.98 600.166,-610.085"/>
<polygon fill="green" stroke="green" stroke-width="0.3" points="602.517,-607.468 593.198,-602.429 597.341,-612.18 602.517,-607.468"/>
</g>
<!-- 2483&#45;&gt;1 -->
<g id="edge13" class="edge"><title>2483&#45;&gt;1</title>
<path fill="none" stroke="green" stroke-width="0.121619" d="M422.965,-76.9623C400.131,-63.4093 363.878,-41.892 341.041,-28.3377"/>
<polygon fill="green" stroke="green" stroke-width="0.121619" points="342.822,-25.3246 332.436,-23.2303 339.249,-31.3442 342.822,-25.3246"/>
</g>
<!-- 6452 -->
<g id="node14" class="node"><title>6452</title>
<ellipse fill="white" stroke="black" cx="433" cy="-669.131" rx="25" ry="25"/>
<text text-anchor="middle" x="433" y="-666.931" font-family="Times New Roman,serif" font-size="9.00">6452</text>
</g>
<!-- 6452&#45;&gt;6293 -->
<g id="edge51" class="edge"><title>6452&#45;&gt;6293</title>
<path fill="none" stroke="green" stroke-width="0.3" d="M442.984,-646.193C447.217,-636.892 452.227,-625.884 456.831,-615.767"/>
<polygon fill="green" stroke="green" stroke-width="0.3" points="460.126,-616.976 461.083,-606.425 453.755,-614.076 460.126,-616.976"/>
</g>
<!-- 6452&#45;&gt;3097 -->
<g id="edge60" class="edge"><title>6452&#45;&gt;3097</title>
<path fill="none" stroke="green" stroke-width="0.168203" d="M428.092,-644.79C424.463,-621.515 422.367,-585.493 437,-558.884 448.837,-537.36 472.136,-521.994 491.645,-512.239"/>
<polygon fill="green" stroke="green" stroke-width="0.168203" points="493.299,-515.329 500.851,-507.898 490.313,-508.997 493.299,-515.329"/>
</g>
<!-- 4678&#45;&gt;2950 -->
<g id="edge30" class="edge"><title>4678&#45;&gt;2950</title>
<path fill="none" stroke="green" stroke-width="0.3" d="M305.216,-730.792C287.757,-672.021 241.217,-515.357 220.815,-446.678"/>
<polygon fill="green" stroke="green" stroke-width="0.3" points="224.09,-445.411 217.887,-436.822 217.38,-447.405 224.09,-445.411"/>
</g>
<!-- 4678&#45;&gt;3097 -->
<g id="edge31" class="edge"><title>4678&#45;&gt;3097</title>
<path fill="none" stroke="red" stroke-width="0.150953" d="M320.2,-731.03C335.282,-691.978 370.652,-611.046 422,-558.884 441.941,-538.628 470.161,-522.801 491.865,-512.539"/>
<polygon fill="red" stroke="red" stroke-width="0.150953" points="493.384,-515.693 501.025,-508.353 490.475,-509.327 493.384,-515.693"/>
</g>
<!-- 4678&#45;&gt;6452 -->
<g id="edge50" class="edge"><title>4678&#45;&gt;6452</title>
<path fill="none" stroke="green" stroke-width="0.3" d="M331.831,-739.223C336.156,-736.119 340.719,-732.872 345,-729.879 364.59,-716.184 386.867,-701.063 404.105,-689.459"/>
<polygon fill="green" stroke="green" stroke-width="0.3" points="406.272,-692.221 412.62,-683.738 402.368,-686.41 406.272,-692.221"/>
</g>
<!-- 6086&#45;&gt;3097 -->
<g id="edge45" class="edge"><title>6086&#45;&gt;3097</title>
<path fill="none" stroke="green" stroke-width="0.406533" d="M990.112,-815.416C981.678,-758.12 951.244,-612.892 855,-558.884 758.24,-504.588 622.77,-497.976 559.357,-498.175"/>
<polygon fill="green" stroke="green" stroke-width="0.406533" points="559.063,-494.678 549.096,-498.271 559.128,-501.678 559.063,-494.678"/>
</g>
<!-- 5323&#45;&gt;0 -->
<g id="edge36" class="edge"><title>5323&#45;&gt;0</title>
<path fill="none" stroke="red" stroke-width="0.136023" d="M816.816,-653.857C850.899,-627.478 917,-567.505 917,-499.136 917,-499.136 917,-499.136 917,-326.141 917,-244.365 626.284,-186.732 538.686,-171.222"/>
<polygon fill="red" stroke="red" stroke-width="0.136023" points="539.273,-167.772 528.821,-169.503 538.071,-174.668 539.273,-167.772"/>
</g>
<!-- 3161&#45;&gt;0 -->
<g id="edge20" class="edge"><title>3161&#45;&gt;0</title>
<path fill="none" stroke="red" stroke-width="0.136023" d="M685.076,-387.881C687.241,-347.8 685.706,-266.295 644,-216.894 617.336,-185.311 568.29,-173.679 538.66,-169.437"/>
<polygon fill="red" stroke="red" stroke-width="0.136023" points="539.057,-165.959 528.699,-168.185 538.184,-172.905 539.057,-165.959"/>
</g>
<!-- 3161&#45;&gt;5503 -->
<g id="edge46" class="edge"><title>3161&#45;&gt;5503</title>
<path fill="none" stroke="green" stroke-width="0.432443" d="M659.708,-403.327C617.833,-388.385 529.742,-356.952 481.79,-339.841"/>
<polygon fill="green" stroke="green" stroke-width="0.432443" points="482.793,-336.483 472.198,-336.418 480.44,-343.076 482.793,-336.483"/>
</g>
<!-- 1761&#45;&gt;0 -->
<g id="edge14" class="edge"><title>1761&#45;&gt;0</title>
<path fill="none" stroke="red" stroke-width="0.136023" stroke-dasharray="1,5" d="M602.329,-815.485C609.378,-743.595 630,-530.578 630,-499.136 630,-499.136 630,-499.136 630,-326.141 630,-261.814 567.318,-206.09 534.108,-181.081"/>
<polygon fill="red" stroke="red" stroke-width="0.136023" points="536.113,-178.212 525.977,-175.129 531.978,-183.86 536.113,-178.212"/>
</g>
<!-- 1761&#45;&gt;1 -->
<g id="edge8" class="edge"><title>1761&#45;&gt;1</title>
<path fill="none" stroke="green" stroke-width="0.121619" d="M624.775,-837.281C672.322,-832.922 778.687,-819.169 858,-779.377 1033.77,-691.193 1107,-610.284 1107,-413.638 1107,-413.638 1107,-413.638 1107,-165.045 1107,-85.5782 479.593,-29.0773 345.162,-17.8832"/>
<polygon fill="green" stroke="green" stroke-width="0.121619" points="345.272,-14.3805 335.019,-17.0471 344.697,-21.3569 345.272,-14.3805"/>
</g>
<!-- 1761&#45;&gt;2950 -->
<g id="edge15" class="edge"><title>1761&#45;&gt;2950</title>
<path fill="none" stroke="green" stroke-width="0.3" stroke-dasharray="1,5" d="M575.229,-838.003C507.304,-834.405 320.336,-820.862 278,-779.377 186.593,-689.807 196.579,-519.626 205.736,-447.403"/>
<polygon fill="green" stroke="green" stroke-width="0.3" points="209.206,-447.856 207.068,-437.479 202.268,-446.924 209.206,-447.856"/>
</g>
<!-- 1761&#45;&gt;6425 -->
<g id="edge48" class="edge"><title>1761&#45;&gt;6425</title>
<path fill="none" stroke="green" stroke-width="0.3" d="M576.071,-833.16C540.631,-823.907 472.511,-804.514 418,-779.377 414.635,-777.825 411.198,-776.048 407.828,-774.179"/>
<polygon fill="green" stroke="green" stroke-width="0.3" points="409.558,-771.137 399.158,-769.113 406.026,-777.18 409.558,-771.137"/>
</g>
<!-- 1761&#45;&gt;3097 -->
<g id="edge17" class="edge"><title>1761&#45;&gt;3097</title>
<path fill="none" stroke="green" stroke-width="0.3" stroke-dasharray="1,5" d="M590.45,-817.021C585.908,-805.886 580.679,-792.082 577,-779.377 551.745,-692.165 535.477,-586.11 528.279,-532.95"/>
<polygon fill="green" stroke="green" stroke-width="0.3" points="531.709,-532.191 526.921,-522.74 524.77,-533.114 531.709,-532.191"/>
</g>
<!-- 1761&#45;&gt;5407 -->
<g id="edge37" class="edge"><title>1761&#45;&gt;5407</title>
<path fill="none" stroke="green" stroke-width="0.3" d="M607.148,-816.334C616.315,-787.104 632.275,-736.213 642.739,-702.849"/>
<polygon fill="green" stroke="green" stroke-width="0.3" points="646.143,-703.69 645.796,-693.101 639.464,-701.595 646.143,-703.69"/>
</g>
<!-- 1761&#45;&gt;2483 -->
<g id="edge12" class="edge"><title>1761&#45;&gt;2483</title>
<path fill="none" stroke="green" stroke-width="0.3" d="M624.491,-835.537C664.076,-828.968 743.668,-812.527 803,-779.377 934.365,-705.979 993,-649.615 993,-499.136 993,-499.136 993,-499.136 993,-240.643 993,-133.622 599.587,-100.879 478.827,-93.3488"/>
<polygon fill="green" stroke="green" stroke-width="0.3" points="478.849,-89.8439 468.656,-92.7346 478.427,-96.8311 478.849,-89.8439"/>
</g>
<!-- 1761&#45;&gt;4678 -->
<g id="edge29" class="edge"><title>1761&#45;&gt;4678</title>
<path fill="none" stroke="green" stroke-width="0.3" d="M575.421,-836.611C528.71,-831.143 424.671,-815.625 345,-779.377 343.169,-778.544 341.337,-777.602 339.526,-776.586"/>
<polygon fill="green" stroke="green" stroke-width="0.3" points="341.083,-773.429 330.76,-771.045 337.343,-779.346 341.083,-773.429"/>
</g>
<!-- 1761&#45;&gt;5323 -->
<g id="edge35" class="edge"><title>1761&#45;&gt;5323</title>
<path fill="none" stroke="green" stroke-width="0.3" d="M624.913,-838.511C664.12,-836.105 739.785,-825.375 779,-779.377 796.598,-758.735 800.264,-727.654 800.011,-703.915"/>
<polygon fill="green" stroke="green" stroke-width="0.3" points="803.509,-703.793 799.673,-693.917 796.513,-704.029 803.509,-703.793"/>
</g>
<!-- 1761&#45;&gt;3161 -->
<g id="edge22" class="edge"><title>1761&#45;&gt;3161</title>
<path fill="none" stroke="green" stroke-width="0.29518" stroke-dasharray="1,5" d="M615.813,-821.037C637.291,-795.052 674.449,-744.673 687,-693.879 692.745,-670.628 687.287,-517.37 684.46,-447.839"/>
<polygon fill="green" stroke="green" stroke-width="0.29518" points="687.956,-447.67 684.047,-437.822 680.962,-447.958 687.956,-447.67"/>
</g>
<!-- 1761&#45;&gt;6757 -->
<g id="edge56" class="edge"><title>1761&#45;&gt;6757</title>
<path fill="none" stroke="green" stroke-width="0.3" d="M621.641,-827.207C643.149,-815.296 677.022,-796.36 706,-779.377 709.033,-777.599 712.185,-775.725 715.325,-773.841"/>
<polygon fill="green" stroke="green" stroke-width="0.3" points="717.283,-776.747 724.028,-768.577 713.66,-770.757 717.283,-776.747"/>
</g>
<!-- 1761&#45;&gt;4464 -->
<g id="edge26" class="edge"><title>1761&#45;&gt;4464</title>
<path fill="none" stroke="green" stroke-width="0.3" stroke-dasharray="1,5" d="M593.546,-816.045C590.736,-805.033 587.702,-791.618 586,-779.377 578.224,-723.455 576.76,-657.722 576.684,-618.709"/>
<polygon fill="green" stroke="green" stroke-width="0.3" points="580.185,-618.449 576.696,-608.445 573.185,-618.441 580.185,-618.449"/>
</g>
<!-- 1761&#45;&gt;5503 -->
<g id="edge39" class="edge"><title>1761&#45;&gt;5503</title>
<path fill="none" stroke="green" stroke-width="0.3" d="M577.031,-830.781C532.844,-813.315 437.015,-768.25 399,-693.879 341.292,-580.981 402.644,-424.143 433.497,-358.71"/>
<polygon fill="green" stroke="green" stroke-width="0.3" points="436.807,-359.903 437.987,-349.374 430.498,-356.869 436.807,-359.903"/>
</g>
<!-- 6757&#45;&gt;5407 -->
<g id="edge59" class="edge"><title>6757&#45;&gt;5407</title>
<path fill="none" stroke="red" stroke-width="0.273965" d="M726.824,-737.132C713,-724.585 693.806,-707.165 678.454,-693.232"/>
<polygon fill="red" stroke="red" stroke-width="0.273965" points="680.583,-690.437 670.825,-686.309 675.878,-695.621 680.583,-690.437"/>
</g>
<!-- 6757&#45;&gt;5323 -->
<g id="edge61" class="edge"><title>6757&#45;&gt;5323</title>
<path fill="none" stroke="green" stroke-width="0.229589" d="M757.854,-732.988C764.214,-722.776 771.998,-710.276 778.945,-699.121"/>
<polygon fill="green" stroke="green" stroke-width="0.229589" points="781.978,-700.872 784.294,-690.533 776.037,-697.171 781.978,-700.872"/>
</g>
<!-- 6757&#45;&gt;3161 -->
<g id="edge57" class="edge"><title>6757&#45;&gt;3161</title>
<path fill="none" stroke="green" stroke-width="0.29518" d="M740.69,-729.991C729.876,-670.69 701.571,-515.474 689.077,-446.96"/>
<polygon fill="green" stroke="green" stroke-width="0.29518" points="692.519,-446.329 687.282,-437.119 685.633,-447.585 692.519,-446.329"/>
</g>
<!-- 4719&#45;&gt;0 -->
<g id="edge32" class="edge"><title>4719&#45;&gt;0</title>
<path fill="none" stroke="green" stroke-width="0.207524" d="M495.248,-218.161C498.538,-209.193 502.321,-198.88 505.624,-189.877"/>
<polygon fill="green" stroke="green" stroke-width="0.207524" points="508.938,-191.004 509.097,-180.411 502.367,-188.593 508.938,-191.004"/>
</g>
<!-- 4464&#45;&gt;3097 -->
<g id="edge27" class="edge"><title>4464&#45;&gt;3097</title>
<path fill="none" stroke="green" stroke-width="0.3" d="M564.17,-562.421C557.643,-552.138 549.593,-539.455 542.417,-528.15"/>
<polygon fill="green" stroke="green" stroke-width="0.3" points="545.209,-526.018 536.895,-519.451 539.299,-529.77 545.209,-526.018"/>
</g>
<!-- 7420&#45;&gt;1761 -->
<g id="edge65" class="edge"><title>7420&#45;&gt;1761</title>
<path fill="none" stroke="green" stroke-width="0.3" d="M600,-900.472C600,-892.528 600,-883.543 600,-875.013"/>
<polygon fill="green" stroke="green" stroke-width="0.3" points="603.5,-874.934 600,-864.934 596.5,-874.934 603.5,-874.934"/>
</g>
<!-- 5503&#45;&gt;4719 -->
<g id="edge40" class="edge"><title>5503&#45;&gt;4719</title>
<path fill="none" stroke="green" stroke-width="0.3" d="M458.984,-304.203C463.217,-294.902 468.227,-283.894 472.831,-273.777"/>
<polygon fill="green" stroke="green" stroke-width="0.3" points="476.126,-274.986 477.083,-264.435 469.755,-272.087 476.126,-274.986"/>
</g>
</g>
</svg>
