<?xml version="1.0" encoding="UTF-8" standalone="no"?>
<!DOCTYPE svg PUBLIC "-//W3C//DTD SVG 1.1//EN"
 "http://www.w3.org/Graphics/SVG/1.1/DTD/svg11.dtd">
<!-- Generated by graphviz version 2.38.0 (20140413.2041)
 -->
<!-- Title: %3 Pages: 1 -->
<svg width="642pt" height="598pt"
 viewBox="0.00 0.00 642.00 597.61" xmlns="http://www.w3.org/2000/svg" xmlns:xlink="http://www.w3.org/1999/xlink">
<g id="graph0" class="graph" transform="scale(1 1) rotate(0) translate(4 593.612)">
<title>%3</title>
<polygon fill="white" stroke="none" points="-4,4 -4,-593.612 638,-593.612 638,4 -4,4"/>
<!-- &#45;1 -->
<g id="node1" class="node"><title>&#45;1</title>
<polygon fill="lightgray" stroke="black" points="378,-263.371 354,-263.371 354,-245.371 378,-245.371 378,-263.371"/>
<text text-anchor="middle" x="366" y="-252.171" font-family="Times New Roman,serif" font-size="9.00">&#45;1</text>
</g>
<!-- 0 -->
<g id="node5" class="node"><title>0</title>
<ellipse fill="lightblue" stroke="black" cx="425" cy="-86.9117" rx="14.7" ry="14.7"/>
<text text-anchor="middle" x="425" y="-84.7117" font-family="Times New Roman,serif" font-size="9.00">0</text>
</g>
<!-- &#45;1&#45;&gt;0 -->
<g id="edge2" class="edge"><title>&#45;1&#45;&gt;0</title>
<path fill="none" stroke="red" stroke-width="0.568729" d="M367.1,-245.169C369.768,-226.631 377.456,-180.303 392,-144.125 397.093,-131.456 404.716,-118.242 411.352,-107.811"/>
<polygon fill="red" stroke="red" stroke-width="0.568729" points="414.282,-109.726 416.842,-99.4448 408.43,-105.886 414.282,-109.726"/>
</g>
<!-- 1 -->
<g id="node6" class="node"><title>1</title>
<ellipse fill="lightblue" stroke="black" cx="310" cy="-14.8492" rx="14.7" ry="14.7"/>
<text text-anchor="middle" x="310" y="-12.6492" font-family="Times New Roman,serif" font-size="9.00">1</text>
</g>
<!-- &#45;1&#45;&gt;1 -->
<g id="edge1" class="edge"><title>&#45;1&#45;&gt;1</title>
<path fill="none" stroke="red" stroke-width="0.624902" d="M364.072,-245.195C356.387,-212.6 327.764,-91.1945 315.565,-39.4511"/>
<polygon fill="red" stroke="red" stroke-width="0.624902" points="318.925,-38.4539 313.224,-29.524 312.112,-40.0603 318.925,-38.4539"/>
</g>
<!-- 780 -->
<g id="node9" class="node"><title>780</title>
<ellipse fill="white" stroke="black" cx="240" cy="-86.9117" rx="21.4286" ry="21.4286"/>
<text text-anchor="middle" x="240" y="-84.7117" font-family="Times New Roman,serif" font-size="9.00">780</text>
</g>
<!-- &#45;1&#45;&gt;780 -->
<g id="edge9" class="edge"><title>&#45;1&#45;&gt;780</title>
<path fill="none" stroke="red" stroke-width="0.492303" d="M358.68,-245.023C348.756,-233.616 330.597,-212.428 316,-193.622 295.17,-166.787 272.603,-135.026 257.518,-113.372"/>
<polygon fill="red" stroke="red" stroke-width="0.492303" points="260.311,-111.256 251.733,-105.037 254.56,-115.247 260.311,-111.256"/>
</g>
<!-- 1210 -->
<g id="node12" class="node"><title>1210</title>
<ellipse fill="white" stroke="black" cx="239" cy="-168.874" rx="25" ry="25"/>
<text text-anchor="middle" x="239" y="-166.674" font-family="Times New Roman,serif" font-size="9.00">1210</text>
</g>
<!-- &#45;1&#45;&gt;1210 -->
<g id="edge17" class="edge"><title>&#45;1&#45;&gt;1210</title>
<path fill="none" stroke="green" stroke-width="0.325171" d="M360,-245.228C356.1,-240.306 350.695,-234.133 345,-229.622 318.502,-208.633 307.336,-210.419 278,-193.622 274.949,-191.876 271.785,-190.021 268.639,-188.15"/>
<polygon fill="green" stroke="green" stroke-width="0.325171" points="270.298,-185.063 259.926,-182.901 266.686,-191.059 270.298,-185.063"/>
</g>
<!-- &#45;2 -->
<g id="node2" class="node"><title>&#45;2</title>
<polygon fill="lightgray" stroke="black" points="194,-348.869 170,-348.869 170,-330.869 194,-330.869 194,-348.869"/>
<text text-anchor="middle" x="182" y="-337.669" font-family="Times New Roman,serif" font-size="9.00">&#45;2</text>
</g>
<!-- &#45;2&#45;&gt;0 -->
<g id="edge4" class="edge"><title>&#45;2&#45;&gt;0</title>
<path fill="none" stroke="red" stroke-width="0.63166" d="M194.127,-334.395C207.84,-329.406 230.879,-321.237 251,-315.12 310.823,-296.933 344.192,-324.694 387,-279.12 430.314,-233.007 430.634,-152.291 427.653,-112.09"/>
<polygon fill="red" stroke="red" stroke-width="0.63166" points="431.119,-111.544 426.758,-101.888 424.146,-112.156 431.119,-111.544"/>
</g>
<!-- &#45;2&#45;&gt;1 -->
<g id="edge7" class="edge"><title>&#45;2&#45;&gt;1</title>
<path fill="none" stroke="red" stroke-width="0.599872" d="M172.145,-330.809C160.218,-320.35 140.77,-300.847 133,-279.12 125.592,-258.406 128.208,-251.093 133,-229.622 150.532,-151.063 153.75,-123.274 210,-65.6985 231.182,-44.0171 263.761,-30.2317 285.933,-22.7807"/>
<polygon fill="red" stroke="red" stroke-width="0.599872" points="287.127,-26.0741 295.598,-19.7111 285.008,-19.4025 287.127,-26.0741"/>
</g>
<!-- 2726 -->
<g id="node8" class="node"><title>2726</title>
<ellipse fill="white" stroke="black" cx="167" cy="-254.371" rx="25" ry="25"/>
<text text-anchor="middle" x="167" y="-252.171" font-family="Times New Roman,serif" font-size="9.00">2726</text>
</g>
<!-- &#45;2&#45;&gt;2726 -->
<g id="edge28" class="edge"><title>&#45;2&#45;&gt;2726</title>
<path fill="none" stroke="green" stroke-width="0.3" d="M180.562,-330.862C178.834,-321.245 175.824,-304.491 173.078,-289.206"/>
<polygon fill="green" stroke="green" stroke-width="0.3" points="176.452,-288.189 171.239,-278.965 169.562,-289.426 176.452,-288.189"/>
</g>
<!-- &#45;2&#45;&gt;1210 -->
<g id="edge12" class="edge"><title>&#45;2&#45;&gt;1210</title>
<path fill="none" stroke="green" stroke-width="0.130563" d="M184.749,-330.718C192.458,-307.864 214.594,-242.234 228.089,-202.222"/>
<polygon fill="green" stroke="green" stroke-width="0.130563" points="231.441,-203.237 231.32,-192.643 224.808,-201 231.441,-203.237"/>
</g>
<!-- &#45;3 -->
<g id="node3" class="node"><title>&#45;3</title>
<polygon fill="lightgray" stroke="black" points="126,-589.612 102,-589.612 102,-571.612 126,-571.612 126,-589.612"/>
<text text-anchor="middle" x="114" y="-578.412" font-family="Times New Roman,serif" font-size="9.00">&#45;3</text>
</g>
<!-- &#45;3&#45;&gt;0 -->
<g id="edge5" class="edge"><title>&#45;3&#45;&gt;0</title>
<path fill="none" stroke="red" stroke-width="0.560506" d="M126.088,-578.76C204.164,-572.935 634,-535.894 634,-426.366 634,-426.366 634,-426.366 634,-253.371 634,-159.896 503.895,-110.923 448.989,-94.4178"/>
<polygon fill="red" stroke="red" stroke-width="0.560506" points="449.945,-91.0506 439.365,-91.6279 447.995,-97.7738 449.945,-91.0506"/>
</g>
<!-- &#45;3&#45;&gt;1 -->
<g id="edge6" class="edge"><title>&#45;3&#45;&gt;1</title>
<path fill="none" stroke="red" stroke-width="0.594625" d="M101.8,-571.585C72.3911,-551.16 0,-494.011 0,-426.366 0,-426.366 0,-426.366 0,-167.874 0,-41.2985 210.914,-20.1004 284.8,-16.5577"/>
<polygon fill="red" stroke="red" stroke-width="0.594625" points="285.199,-20.0444 295.048,-16.1398 284.914,-13.0502 285.199,-20.0444"/>
</g>
<!-- 1827 -->
<g id="node7" class="node"><title>1827</title>
<ellipse fill="white" stroke="black" cx="285" cy="-339.869" rx="25" ry="25"/>
<text text-anchor="middle" x="285" y="-337.669" font-family="Times New Roman,serif" font-size="9.00">1827</text>
</g>
<!-- &#45;3&#45;&gt;1827 -->
<g id="edge16" class="edge"><title>&#45;3&#45;&gt;1827</title>
<path fill="none" stroke="green" stroke-width="0.3" d="M119.886,-571.394C142.695,-539.55 225.907,-423.372 264.76,-369.126"/>
<polygon fill="green" stroke="green" stroke-width="0.3" points="267.841,-370.836 270.819,-360.668 262.15,-366.76 267.841,-370.836"/>
</g>
<!-- &#45;3&#45;&gt;1210 -->
<g id="edge19" class="edge"><title>&#45;3&#45;&gt;1210</title>
<path fill="none" stroke="red" stroke-width="0.161763" d="M110.493,-571.483C101.086,-548.913 76,-483.381 76,-426.366 76,-426.366 76,-426.366 76,-338.869 76,-284.103 94.9069,-268.969 133,-229.622 153.7,-208.241 183.717,-192.299 206.528,-182.284"/>
<polygon fill="red" stroke="red" stroke-width="0.161763" points="207.969,-185.475 215.815,-178.356 205.242,-179.028 207.969,-185.475"/>
</g>
<!-- 1308 -->
<g id="node13" class="node"><title>1308</title>
<ellipse fill="white" stroke="black" cx="338" cy="-510.864" rx="25" ry="25"/>
<text text-anchor="middle" x="338" y="-508.664" font-family="Times New Roman,serif" font-size="9.00">1308</text>
</g>
<!-- &#45;3&#45;&gt;1308 -->
<g id="edge15" class="edge"><title>&#45;3&#45;&gt;1308</title>
<path fill="none" stroke="red" stroke-width="0.122683" d="M126.043,-575.97C159.37,-565.89 253.699,-537.36 304.544,-521.982"/>
<polygon fill="red" stroke="red" stroke-width="0.122683" points="305.84,-525.247 314.399,-519.002 303.814,-518.547 305.84,-525.247"/>
</g>
<!-- &#45;4 -->
<g id="node4" class="node"><title>&#45;4</title>
<polygon fill="lightgray" stroke="black" points="496,-348.869 472,-348.869 472,-330.869 496,-330.869 496,-348.869"/>
<text text-anchor="middle" x="484" y="-337.669" font-family="Times New Roman,serif" font-size="9.00">&#45;4</text>
</g>
<!-- &#45;4&#45;&gt;0 -->
<g id="edge8" class="edge"><title>&#45;4&#45;&gt;0</title>
<path fill="none" stroke="green" stroke-width="0.164643" stroke-dasharray="1,5" d="M484.051,-330.818C483.99,-303.694 481.888,-213.461 458,-144.125 453.552,-131.215 445.967,-117.988 439.189,-107.609"/>
<polygon fill="green" stroke="green" stroke-width="0.164643" points="442.057,-105.603 433.54,-99.3023 436.269,-109.54 442.057,-105.603"/>
</g>
<!-- &#45;4&#45;&gt;1 -->
<g id="edge3" class="edge"><title>&#45;4&#45;&gt;1</title>
<path fill="none" stroke="green" stroke-width="0.108372" d="M486.083,-330.643C494.928,-293.577 525.523,-140.631 449,-65.6985 417.514,-34.8672 365.643,-22.965 334.958,-18.4721"/>
<polygon fill="green" stroke="green" stroke-width="0.108372" points="335.057,-14.9554 324.688,-17.1307 334.15,-21.8965 335.057,-14.9554"/>
</g>
<!-- 2323 -->
<g id="node10" class="node"><title>2323</title>
<ellipse fill="white" stroke="black" cx="311" cy="-254.371" rx="25" ry="25"/>
<text text-anchor="middle" x="311" y="-252.171" font-family="Times New Roman,serif" font-size="9.00">2323</text>
</g>
<!-- &#45;4&#45;&gt;2323 -->
<g id="edge26" class="edge"><title>&#45;4&#45;&gt;2323</title>
<path fill="none" stroke="red" stroke-width="0.121199" d="M471.708,-334.551C446.979,-325.657 389.756,-304.028 345,-279.12 343.006,-278.01 340.985,-276.812 338.974,-275.563"/>
<polygon fill="red" stroke="red" stroke-width="0.121199" points="340.616,-272.454 330.337,-269.888 336.773,-278.304 340.616,-272.454"/>
</g>
<!-- 1827&#45;&gt;2323 -->
<g id="edge22" class="edge"><title>1827&#45;&gt;2323</title>
<path fill="none" stroke="green" stroke-width="0.3" d="M292.105,-316.053C294.799,-307.4 297.922,-297.372 300.843,-287.99"/>
<polygon fill="green" stroke="green" stroke-width="0.3" points="304.273,-288.748 303.904,-278.16 297.589,-286.667 304.273,-288.748"/>
</g>
<!-- 1827&#45;&gt;1210 -->
<g id="edge27" class="edge"><title>1827&#45;&gt;1210</title>
<path fill="none" stroke="green" stroke-width="0.277385" d="M278.7,-315.725C270.74,-286.479 256.987,-235.956 247.942,-202.724"/>
<polygon fill="green" stroke="green" stroke-width="0.277385" points="251.301,-201.738 245.297,-193.008 244.547,-203.577 251.301,-201.738"/>
</g>
<!-- 2726&#45;&gt;1210 -->
<g id="edge29" class="edge"><title>2726&#45;&gt;1210</title>
<path fill="none" stroke="green" stroke-width="0.130563" d="M182.979,-234.84C192.835,-223.411 205.626,-208.577 216.497,-195.97"/>
<polygon fill="green" stroke="green" stroke-width="0.130563" points="219.433,-197.924 223.313,-188.065 214.132,-193.353 219.433,-197.924"/>
</g>
<!-- 780&#45;&gt;1 -->
<g id="edge10" class="edge"><title>780&#45;&gt;1</title>
<path fill="none" stroke="green" stroke-width="0.280864" d="M254.504,-71.3947C265.542,-60.3472 280.778,-45.0971 292.494,-33.3707"/>
<polygon fill="green" stroke="green" stroke-width="0.280864" points="295.013,-35.8012 299.605,-26.2532 290.061,-30.8537 295.013,-35.8012"/>
</g>
<!-- 2323&#45;&gt;1210 -->
<g id="edge25" class="edge"><title>2323&#45;&gt;1210</title>
<path fill="none" stroke="red" stroke-width="0.398874" d="M295.021,-234.84C285.165,-223.411 272.374,-208.577 261.503,-195.97"/>
<polygon fill="red" stroke="red" stroke-width="0.398874" points="263.868,-193.353 254.687,-188.065 258.567,-197.924 263.868,-193.353"/>
</g>
<!-- 2262 -->
<g id="node11" class="node"><title>2262</title>
<ellipse fill="white" stroke="black" cx="338" cy="-425.366" rx="25" ry="25"/>
<text text-anchor="middle" x="338" y="-423.166" font-family="Times New Roman,serif" font-size="9.00">2262</text>
</g>
<!-- 2262&#45;&gt;1 -->
<g id="edge23" class="edge"><title>2262&#45;&gt;1</title>
<path fill="none" stroke="green" stroke-width="0.269757" d="M362.509,-421.483C397.944,-416.136 463.747,-401.635 505,-364.617 545.166,-328.575 558,-309.337 558,-255.371 558,-255.371 558,-255.371 558,-167.874 558,-64.0166 397.956,-28.9152 335.004,-19.1256"/>
<polygon fill="green" stroke="green" stroke-width="0.269757" points="335.173,-15.6129 324.771,-17.6265 334.158,-22.539 335.173,-15.6129"/>
</g>
<!-- 2262&#45;&gt;1827 -->
<g id="edge30" class="edge"><title>2262&#45;&gt;1827</title>
<path fill="none" stroke="green" stroke-width="0.341611" d="M325.17,-404.154C318.643,-393.871 310.593,-381.188 303.417,-369.883"/>
<polygon fill="green" stroke="green" stroke-width="0.341611" points="306.209,-367.751 297.895,-361.184 300.299,-371.503 306.209,-367.751"/>
</g>
<!-- 1210&#45;&gt;0 -->
<g id="edge14" class="edge"><title>1210&#45;&gt;0</title>
<path fill="none" stroke="red" stroke-width="0.303787" d="M261.436,-158.228C296.964,-142.955 365.823,-113.352 401.814,-97.8795"/>
<polygon fill="red" stroke="red" stroke-width="0.303787" points="403.643,-100.903 411.448,-93.7379 400.878,-94.472 403.643,-100.903"/>
</g>
<!-- 1210&#45;&gt;1 -->
<g id="edge24" class="edge"><title>1210&#45;&gt;1</title>
<path fill="none" stroke="red" stroke-width="0.108317" d="M250.41,-146.761C256.43,-135.406 263.828,-121.106 270,-108.125 281.197,-84.5751 292.943,-57.0982 300.787,-38.2908"/>
<polygon fill="red" stroke="red" stroke-width="0.108317" points="304.119,-39.3922 304.715,-28.8141 297.652,-36.7119 304.119,-39.3922"/>
</g>
<!-- 1210&#45;&gt;780 -->
<g id="edge11" class="edge"><title>1210&#45;&gt;780</title>
<path fill="none" stroke="green" stroke-width="0.197769" d="M239.3,-143.882C239.4,-135.925 239.512,-126.957 239.617,-118.568"/>
<polygon fill="green" stroke="green" stroke-width="0.197769" points="243.119,-118.416 239.744,-108.372 236.119,-118.328 243.119,-118.416"/>
</g>
<!-- 1308&#45;&gt;0 -->
<g id="edge13" class="edge"><title>1308&#45;&gt;0</title>
<path fill="none" stroke="green" stroke-width="0.164643" d="M356.464,-494.209C386.833,-466.599 444,-405.979 444,-340.869 444,-340.869 444,-340.869 444,-253.371 444,-202.676 435.088,-143.811 429.471,-111.746"/>
<polygon fill="green" stroke="green" stroke-width="0.164643" points="432.857,-110.801 427.642,-101.579 425.968,-112.041 432.857,-110.801"/>
</g>
<!-- 1308&#45;&gt;1 -->
<g id="edge18" class="edge"><title>1308&#45;&gt;1</title>
<path fill="none" stroke="green" stroke-width="0.123101" d="M362.272,-505.929C426.498,-493.995 596,-451.975 596,-340.869 596,-340.869 596,-340.869 596,-167.874 596,-112.575 570.775,-96.7245 525,-65.6985 465.478,-25.3544 377.686,-17.3717 335.057,-15.9848"/>
<polygon fill="green" stroke="green" stroke-width="0.123101" points="335.077,-12.4844 325,-15.7555 334.917,-19.4826 335.077,-12.4844"/>
</g>
<!-- 1308&#45;&gt;780 -->
<g id="edge20" class="edge"><title>1308&#45;&gt;780</title>
<path fill="none" stroke="green" stroke-width="0.140208" stroke-dasharray="1,5" d="M316.692,-497.966C279.682,-476.241 203.425,-426.622 161,-364.617 138.421,-331.618 139.301,-318.605 133,-279.12 129.533,-257.396 126.01,-250.481 133,-229.622 149.583,-180.139 191.025,-134.131 217.196,-108.641"/>
<polygon fill="green" stroke="green" stroke-width="0.140208" points="219.643,-111.144 224.461,-101.709 214.81,-106.08 219.643,-111.144"/>
</g>
<!-- 1308&#45;&gt;2262 -->
<g id="edge21" class="edge"><title>1308&#45;&gt;2262</title>
<path fill="none" stroke="green" stroke-width="0.3" d="M338,-485.713C338,-477.769 338,-468.784 338,-460.254"/>
<polygon fill="green" stroke="green" stroke-width="0.3" points="341.5,-460.174 338,-450.174 334.5,-460.174 341.5,-460.174"/>
</g>
</g>
</svg>
