<?xml version="1.0" encoding="UTF-8" standalone="no"?>
<!DOCTYPE svg PUBLIC "-//W3C//DTD SVG 1.1//EN"
 "http://www.w3.org/Graphics/SVG/1.1/DTD/svg11.dtd">
<!-- Generated by graphviz version 2.38.0 (20140413.2041)
 -->
<!-- Title: %3 Pages: 1 -->
<svg width="655pt" height="176pt"
 viewBox="0.00 0.00 654.85 176.17" xmlns="http://www.w3.org/2000/svg" xmlns:xlink="http://www.w3.org/1999/xlink">
<g id="graph0" class="graph" transform="scale(1 1) rotate(0) translate(4 172.167)">
<title>%3</title>
<polygon fill="white" stroke="none" points="-4,4 -4,-172.167 650.849,-172.167 650.849,4 -4,4"/>
<!-- &#45;1 -->
<g id="node1" class="node"><title>&#45;1</title>
<polygon fill="lightgray" stroke="black" points="24,-162.317 0,-162.317 0,-144.317 24,-144.317 24,-162.317"/>
<text text-anchor="middle" x="12" y="-151.117" font-family="Times New Roman,serif" font-size="9.00">&#45;1</text>
</g>
<!-- &#45;2 -->
<g id="node2" class="node"><title>&#45;2</title>
<polygon fill="lightgray" stroke="black" points="66,-162.317 42,-162.317 42,-144.317 66,-144.317 66,-162.317"/>
<text text-anchor="middle" x="54" y="-151.117" font-family="Times New Roman,serif" font-size="9.00">&#45;2</text>
</g>
<!-- &#45;3 -->
<g id="node3" class="node"><title>&#45;3</title>
<polygon fill="lightgray" stroke="black" points="108,-162.317 84,-162.317 84,-144.317 108,-144.317 108,-162.317"/>
<text text-anchor="middle" x="96" y="-151.117" font-family="Times New Roman,serif" font-size="9.00">&#45;3</text>
</g>
<!-- &#45;4 -->
<g id="node4" class="node"><title>&#45;4</title>
<polygon fill="lightgray" stroke="black" points="150,-162.317 126,-162.317 126,-144.317 150,-144.317 150,-162.317"/>
<text text-anchor="middle" x="138" y="-151.117" font-family="Times New Roman,serif" font-size="9.00">&#45;4</text>
</g>
<!-- &#45;5 -->
<g id="node5" class="node"><title>&#45;5</title>
<polygon fill="lightgray" stroke="black" points="192,-162.317 168,-162.317 168,-144.317 192,-144.317 192,-162.317"/>
<text text-anchor="middle" x="180" y="-151.117" font-family="Times New Roman,serif" font-size="9.00">&#45;5</text>
</g>
<!-- &#45;6 -->
<g id="node6" class="node"><title>&#45;6</title>
<polygon fill="lightgray" stroke="black" points="234,-162.317 210,-162.317 210,-144.317 234,-144.317 234,-162.317"/>
<text text-anchor="middle" x="222" y="-151.117" font-family="Times New Roman,serif" font-size="9.00">&#45;6</text>
</g>
<!-- 3 -->
<g id="node15" class="node"><title>3</title>
<ellipse fill="lightblue" stroke="black" cx="245" cy="-14.8492" rx="14.7" ry="14.7"/>
<text text-anchor="middle" x="245" y="-12.6492" font-family="Times New Roman,serif" font-size="9.00">3</text>
</g>
<!-- &#45;6&#45;&gt;3 -->
<g id="edge2" class="edge"><title>&#45;6&#45;&gt;3</title>
<path fill="none" stroke="green" stroke-width="0.463181" stroke-dasharray="1,5" d="M220.044,-144.036C216.7,-128.431 210.9,-93.7165 218,-65.6985 220.628,-55.3289 225.891,-44.779 231.078,-36.0709"/>
<polygon fill="green" stroke="green" stroke-width="0.463181" points="234.151,-37.7604 236.549,-27.4404 228.239,-34.0128 234.151,-37.7604"/>
</g>
<!-- 58 -->
<g id="node18" class="node"><title>58</title>
<ellipse fill="white" stroke="black" cx="245" cy="-84.0833" rx="18.2703" ry="18.2703"/>
<text text-anchor="middle" x="245" y="-81.8833" font-family="Times New Roman,serif" font-size="9.00">58</text>
</g>
<!-- &#45;6&#45;&gt;58 -->
<g id="edge3" class="edge"><title>&#45;6&#45;&gt;58</title>
<path fill="none" stroke="green" stroke-width="0.3" d="M224.82,-144.073C227.604,-135.937 232.009,-123.06 235.994,-111.41"/>
<polygon fill="green" stroke="green" stroke-width="0.3" points="239.412,-112.233 239.337,-101.638 232.788,-109.967 239.412,-112.233"/>
</g>
<!-- &#45;7 -->
<g id="node7" class="node"><title>&#45;7</title>
<polygon fill="lightgray" stroke="black" points="276,-162.317 252,-162.317 252,-144.317 276,-144.317 276,-162.317"/>
<text text-anchor="middle" x="264" y="-151.117" font-family="Times New Roman,serif" font-size="9.00">&#45;7</text>
</g>
<!-- &#45;8 -->
<g id="node8" class="node"><title>&#45;8</title>
<polygon fill="lightgray" stroke="black" points="318,-162.317 294,-162.317 294,-144.317 318,-144.317 318,-162.317"/>
<text text-anchor="middle" x="306" y="-151.117" font-family="Times New Roman,serif" font-size="9.00">&#45;8</text>
</g>
<!-- &#45;9 -->
<g id="node9" class="node"><title>&#45;9</title>
<polygon fill="lightgray" stroke="black" points="360,-162.317 336,-162.317 336,-144.317 360,-144.317 360,-162.317"/>
<text text-anchor="middle" x="348" y="-151.117" font-family="Times New Roman,serif" font-size="9.00">&#45;9</text>
</g>
<!-- &#45;10 -->
<g id="node10" class="node"><title>&#45;10</title>
<polygon fill="lightgray" stroke="black" points="310.5,-93.0833 281.5,-93.0833 281.5,-75.0833 310.5,-75.0833 310.5,-93.0833"/>
<text text-anchor="middle" x="296" y="-81.8833" font-family="Times New Roman,serif" font-size="9.00">&#45;10</text>
</g>
<!-- &#45;10&#45;&gt;3 -->
<g id="edge1" class="edge"><title>&#45;10&#45;&gt;3</title>
<path fill="none" stroke="red" stroke-width="0.100848" d="M289.746,-74.8391C282.328,-65.0591 269.714,-48.4296 259.766,-35.315"/>
<polygon fill="red" stroke="red" stroke-width="0.100848" points="262.527,-33.1637 253.695,-27.3117 256.95,-37.3942 262.527,-33.1637"/>
</g>
<!-- &#45;11 -->
<g id="node11" class="node"><title>&#45;11</title>
<polygon fill="lightgray" stroke="black" points="407.5,-162.317 378.5,-162.317 378.5,-144.317 407.5,-144.317 407.5,-162.317"/>
<text text-anchor="middle" x="393" y="-151.117" font-family="Times New Roman,serif" font-size="9.00">&#45;11</text>
</g>
<!-- 0 -->
<g id="node12" class="node"><title>0</title>
<ellipse fill="lightblue" stroke="black" cx="440" cy="-153.317" rx="14.7" ry="14.7"/>
<text text-anchor="middle" x="440" y="-151.117" font-family="Times New Roman,serif" font-size="9.00">0</text>
</g>
<!-- 1 -->
<g id="node13" class="node"><title>1</title>
<ellipse fill="lightblue" stroke="black" cx="488" cy="-153.317" rx="14.7" ry="14.7"/>
<text text-anchor="middle" x="488" y="-151.117" font-family="Times New Roman,serif" font-size="9.00">1</text>
</g>
<!-- 2 -->
<g id="node14" class="node"><title>2</title>
<ellipse fill="lightblue" stroke="black" cx="536" cy="-153.317" rx="14.7" ry="14.7"/>
<text text-anchor="middle" x="536" y="-151.117" font-family="Times New Roman,serif" font-size="9.00">2</text>
</g>
<!-- 4 -->
<g id="node16" class="node"><title>4</title>
<ellipse fill="lightblue" stroke="black" cx="584" cy="-153.317" rx="14.7" ry="14.7"/>
<text text-anchor="middle" x="584" y="-151.117" font-family="Times New Roman,serif" font-size="9.00">4</text>
</g>
<!-- 5 -->
<g id="node17" class="node"><title>5</title>
<ellipse fill="lightblue" stroke="black" cx="632" cy="-153.317" rx="14.7" ry="14.7"/>
<text text-anchor="middle" x="632" y="-151.117" font-family="Times New Roman,serif" font-size="9.00">5</text>
</g>
<!-- 58&#45;&gt;3 -->
<g id="edge4" class="edge"><title>58&#45;&gt;3</title>
<path fill="none" stroke="green" stroke-width="0.463181" d="M245,-65.4183C245,-57.7354 245,-48.6054 245,-40.2874"/>
<polygon fill="green" stroke="green" stroke-width="0.463181" points="248.5,-40.0103 245,-30.0103 241.5,-40.0103 248.5,-40.0103"/>
</g>
</g>
</svg>
