<?xml version="1.0" encoding="UTF-8" standalone="no"?>
<!DOCTYPE svg PUBLIC "-//W3C//DTD SVG 1.1//EN"
 "http://www.w3.org/Graphics/SVG/1.1/DTD/svg11.dtd">
<!-- Generated by graphviz version 2.38.0 (20140413.2041)
 -->
<!-- Title: %3 Pages: 1 -->
<svg width="543pt" height="92pt"
 viewBox="0.00 0.00 543.35 91.70" xmlns="http://www.w3.org/2000/svg" xmlns:xlink="http://www.w3.org/1999/xlink">
<g id="graph0" class="graph" transform="scale(1 1) rotate(0) translate(4 87.6985)">
<title>%3</title>
<polygon fill="white" stroke="none" points="-4,4 -4,-87.6985 539.349,-87.6985 539.349,4 -4,4"/>
<!-- &#45;1 -->
<g id="node1" class="node"><title>&#45;1</title>
<polygon fill="lightgray" stroke="black" points="104.849,-83.6985 80.8492,-83.6985 80.8492,-65.6985 104.849,-65.6985 104.849,-83.6985"/>
<text text-anchor="middle" x="92.8492" y="-72.4985" font-family="Times New Roman,serif" font-size="9.00">&#45;1</text>
</g>
<!-- &#45;2 -->
<g id="node2" class="node"><title>&#45;2</title>
<polygon fill="lightgray" stroke="black" points="146.849,-83.6985 122.849,-83.6985 122.849,-65.6985 146.849,-65.6985 146.849,-83.6985"/>
<text text-anchor="middle" x="134.849" y="-72.4985" font-family="Times New Roman,serif" font-size="9.00">&#45;2</text>
</g>
<!-- 0 -->
<g id="node12" class="node"><title>0</title>
<ellipse fill="lightblue" stroke="black" cx="14.8492" cy="-14.8492" rx="14.7" ry="14.7"/>
<text text-anchor="middle" x="14.8492" y="-12.6492" font-family="Times New Roman,serif" font-size="9.00">0</text>
</g>
<!-- &#45;2&#45;&gt;0 -->
<g id="edge1" class="edge"><title>&#45;2&#45;&gt;0</title>
<path fill="none" stroke="green" stroke-width="0.135765" d="M122.551,-68.5014C104.116,-60.6133 68.3359,-44.9212 38.8492,-29.6985 38.0264,-29.2737 37.1916,-28.8344 36.3512,-28.3854"/>
<polygon fill="green" stroke="green" stroke-width="0.135765" points="37.8687,-25.224 27.4311,-23.4051 34.4562,-31.336 37.8687,-25.224"/>
</g>
<!-- 1 -->
<g id="node13" class="node"><title>1</title>
<ellipse fill="lightblue" stroke="black" cx="62.8492" cy="-14.8492" rx="14.7" ry="14.7"/>
<text text-anchor="middle" x="62.8492" y="-12.6492" font-family="Times New Roman,serif" font-size="9.00">1</text>
</g>
<!-- &#45;2&#45;&gt;1 -->
<g id="edge2" class="edge"><title>&#45;2&#45;&gt;1</title>
<path fill="none" stroke="red" stroke-width="0.335861" d="M124.838,-65.6548C113.83,-56.8107 95.8817,-42.3896 82.1236,-31.3354"/>
<polygon fill="red" stroke="red" stroke-width="0.335861" points="84.186,-28.5028 74.1983,-24.9678 79.8016,-33.9596 84.186,-28.5028"/>
</g>
<!-- 2 -->
<g id="node14" class="node"><title>2</title>
<ellipse fill="lightblue" stroke="black" cx="110.849" cy="-14.8492" rx="14.7" ry="14.7"/>
<text text-anchor="middle" x="110.849" y="-12.6492" font-family="Times New Roman,serif" font-size="9.00">2</text>
</g>
<!-- &#45;2&#45;&gt;2 -->
<g id="edge3" class="edge"><title>&#45;2&#45;&gt;2</title>
<path fill="none" stroke="red" stroke-width="0.563197" d="M131.512,-65.6548C128.568,-58.5579 124.134,-47.8701 120.127,-38.2124"/>
<polygon fill="red" stroke="red" stroke-width="0.563197" points="123.252,-36.6102 116.187,-28.7148 116.786,-39.2927 123.252,-36.6102"/>
</g>
<!-- 3 -->
<g id="node15" class="node"><title>3</title>
<ellipse fill="lightblue" stroke="black" cx="158.849" cy="-14.8492" rx="14.7" ry="14.7"/>
<text text-anchor="middle" x="158.849" y="-12.6492" font-family="Times New Roman,serif" font-size="9.00">3</text>
</g>
<!-- &#45;2&#45;&gt;3 -->
<g id="edge4" class="edge"><title>&#45;2&#45;&gt;3</title>
<path fill="none" stroke="green" stroke-width="0.291371" d="M138.186,-65.6548C141.131,-58.5579 145.565,-47.8701 149.571,-38.2124"/>
<polygon fill="green" stroke="green" stroke-width="0.291371" points="152.912,-39.2927 153.512,-28.7148 146.447,-36.6102 152.912,-39.2927"/>
</g>
<!-- 4 -->
<g id="node16" class="node"><title>4</title>
<ellipse fill="lightblue" stroke="black" cx="206.849" cy="-14.8492" rx="14.7" ry="14.7"/>
<text text-anchor="middle" x="206.849" y="-12.6492" font-family="Times New Roman,serif" font-size="9.00">4</text>
</g>
<!-- &#45;2&#45;&gt;4 -->
<g id="edge5" class="edge"><title>&#45;2&#45;&gt;4</title>
<path fill="none" stroke="red" stroke-width="0.39955" d="M144.861,-65.6548C155.868,-56.8107 173.817,-42.3896 187.575,-31.3354"/>
<polygon fill="red" stroke="red" stroke-width="0.39955" points="189.897,-33.9596 195.5,-24.9678 185.512,-28.5028 189.897,-33.9596"/>
</g>
<!-- 5 -->
<g id="node17" class="node"><title>5</title>
<ellipse fill="lightblue" stroke="black" cx="254.849" cy="-14.8492" rx="14.7" ry="14.7"/>
<text text-anchor="middle" x="254.849" y="-12.6492" font-family="Times New Roman,serif" font-size="9.00">5</text>
</g>
<!-- &#45;2&#45;&gt;5 -->
<g id="edge6" class="edge"><title>&#45;2&#45;&gt;5</title>
<path fill="none" stroke="green" stroke-width="0.245785" d="M147.148,-68.5014C165.582,-60.6133 201.363,-44.9212 230.849,-29.6985 231.672,-29.2737 232.507,-28.8344 233.347,-28.3854"/>
<polygon fill="green" stroke="green" stroke-width="0.245785" points="235.242,-31.336 242.267,-23.4051 231.83,-25.224 235.242,-31.336"/>
</g>
<!-- &#45;3 -->
<g id="node3" class="node"><title>&#45;3</title>
<polygon fill="lightgray" stroke="black" points="188.849,-83.6985 164.849,-83.6985 164.849,-65.6985 188.849,-65.6985 188.849,-83.6985"/>
<text text-anchor="middle" x="176.849" y="-72.4985" font-family="Times New Roman,serif" font-size="9.00">&#45;3</text>
</g>
<!-- &#45;4 -->
<g id="node4" class="node"><title>&#45;4</title>
<polygon fill="lightgray" stroke="black" points="230.849,-83.6985 206.849,-83.6985 206.849,-65.6985 230.849,-65.6985 230.849,-83.6985"/>
<text text-anchor="middle" x="218.849" y="-72.4985" font-family="Times New Roman,serif" font-size="9.00">&#45;4</text>
</g>
<!-- &#45;5 -->
<g id="node5" class="node"><title>&#45;5</title>
<polygon fill="lightgray" stroke="black" points="272.849,-83.6985 248.849,-83.6985 248.849,-65.6985 272.849,-65.6985 272.849,-83.6985"/>
<text text-anchor="middle" x="260.849" y="-72.4985" font-family="Times New Roman,serif" font-size="9.00">&#45;5</text>
</g>
<!-- &#45;6 -->
<g id="node6" class="node"><title>&#45;6</title>
<polygon fill="lightgray" stroke="black" points="314.849,-83.6985 290.849,-83.6985 290.849,-65.6985 314.849,-65.6985 314.849,-83.6985"/>
<text text-anchor="middle" x="302.849" y="-72.4985" font-family="Times New Roman,serif" font-size="9.00">&#45;6</text>
</g>
<!-- &#45;7 -->
<g id="node7" class="node"><title>&#45;7</title>
<polygon fill="lightgray" stroke="black" points="356.849,-83.6985 332.849,-83.6985 332.849,-65.6985 356.849,-65.6985 356.849,-83.6985"/>
<text text-anchor="middle" x="344.849" y="-72.4985" font-family="Times New Roman,serif" font-size="9.00">&#45;7</text>
</g>
<!-- &#45;8 -->
<g id="node8" class="node"><title>&#45;8</title>
<polygon fill="lightgray" stroke="black" points="398.849,-83.6985 374.849,-83.6985 374.849,-65.6985 398.849,-65.6985 398.849,-83.6985"/>
<text text-anchor="middle" x="386.849" y="-72.4985" font-family="Times New Roman,serif" font-size="9.00">&#45;8</text>
</g>
<!-- &#45;9 -->
<g id="node9" class="node"><title>&#45;9</title>
<polygon fill="lightgray" stroke="black" points="440.849,-83.6985 416.849,-83.6985 416.849,-65.6985 440.849,-65.6985 440.849,-83.6985"/>
<text text-anchor="middle" x="428.849" y="-72.4985" font-family="Times New Roman,serif" font-size="9.00">&#45;9</text>
</g>
<!-- &#45;10 -->
<g id="node10" class="node"><title>&#45;10</title>
<polygon fill="lightgray" stroke="black" points="488.349,-83.6985 459.349,-83.6985 459.349,-65.6985 488.349,-65.6985 488.349,-83.6985"/>
<text text-anchor="middle" x="473.849" y="-72.4985" font-family="Times New Roman,serif" font-size="9.00">&#45;10</text>
</g>
<!-- &#45;11 -->
<g id="node11" class="node"><title>&#45;11</title>
<polygon fill="lightgray" stroke="black" points="535.349,-83.6985 506.349,-83.6985 506.349,-65.6985 535.349,-65.6985 535.349,-83.6985"/>
<text text-anchor="middle" x="520.849" y="-72.4985" font-family="Times New Roman,serif" font-size="9.00">&#45;11</text>
</g>
</g>
</svg>
